<svg width="32" height="32" viewBox="0 0 32 32" fill="none" xmlns="http://www.w3.org/2000/svg">
<path fill-rule="evenodd" clip-rule="evenodd" d="M16 31.9998C24.8366 31.9998 32 24.8363 32 15.9998C32 7.1632 24.8366 -0.000244141 16 -0.000244141C7.16344 -0.000244141 0 7.1632 0 15.9998C0 24.8363 7.16344 31.9998 16 31.9998ZM18.3732 6.66642L20.9317 6.67031C21.1535 6.6707 21.3333 6.841 21.3333 7.05093V9.90056C21.3333 10.1107 21.1533 10.2812 20.9312 10.2812L19.2078 10.2818C18.0196 10.2818 17.8022 10.7199 17.8022 11.5829V13.3784H20.811C20.9177 13.3784 21.0203 13.4186 21.0957 13.4901C21.171 13.5615 21.2135 13.6582 21.2135 13.7592L21.2122 16.8281C21.2122 17.0384 21.0322 17.2087 20.8099 17.2087H17.8022V24.9525C17.8022 25.1626 17.6222 25.3331 17.3999 25.3331H14.0437C13.8214 25.3331 13.6414 25.1628 13.6414 24.9525V17.2087H11.069C10.8469 17.2087 10.6667 17.0384 10.6667 16.8281V13.7592C10.6667 13.5489 10.8467 13.3784 11.069 13.3784H13.6414V11.2603C13.6414 8.46953 15.4989 6.66642 18.3732 6.66642Z" fill="#1AA3E9"/>
</svg>
