<svg width="33" height="32" viewBox="0 0 33 32" fill="none" xmlns="http://www.w3.org/2000/svg">
<path fill-rule="evenodd" clip-rule="evenodd" d="M16.3335 31.9998C25.1701 31.9998 32.3335 24.8363 32.3335 15.9998C32.3335 7.1632 25.1701 -0.000244141 16.3335 -0.000244141C7.49694 -0.000244141 0.333496 7.1632 0.333496 15.9998C0.333496 24.8363 7.49694 31.9998 16.3335 31.9998ZM12.5054 16.0361C12.5054 13.9252 14.2226 12.208 16.3335 12.208C18.4445 12.208 20.1617 13.9252 20.1617 16.0361C20.1617 18.1471 18.4445 19.8643 16.3335 19.8643C14.2226 19.8643 12.5054 18.1471 12.5054 16.0361ZM9.73454 6.66642H22.9325C24.4418 6.66642 25.6668 7.89142 25.6668 9.4008V22.5987C25.6668 24.1081 24.4418 25.3331 22.9325 25.3331H9.73454C8.22516 25.3331 7.00016 24.1081 7.00016 22.5987V9.4008C7.00016 7.89142 8.22516 6.66642 9.73454 6.66642ZM11.4117 16.0361C11.4117 18.7486 13.6211 20.958 16.3335 20.958C19.046 20.958 21.2554 18.7486 21.2554 16.0361C21.2554 13.3236 19.046 11.1143 16.3335 11.1143C13.6211 11.1143 11.4117 13.3236 11.4117 16.0361ZM21.2554 10.0205C21.2554 10.6221 21.7476 11.1143 22.3492 11.1143C22.9507 11.1143 23.4429 10.6221 23.4429 10.0205C23.4429 9.41895 22.9507 8.92676 22.3492 8.92676C21.7476 8.92676 21.2554 9.41895 21.2554 10.0205Z" fill="#1AA3E9"/>
</svg>
