<svg width="24" height="22" viewBox="0 0 24 22" fill="none" xmlns="http://www.w3.org/2000/svg">
<path d="M11.1153 4.33256L12 6.01129L12.8847 4.33258C13.2449 3.64908 13.8393 2.74648 14.7024 2.05338L14.1552 1.37198L14.7024 2.05337C15.5843 1.34519 16.5592 1 17.625 1C20.5986 1 23 3.52387 23 7.17989C23 9.09506 22.2725 10.7433 20.8619 12.5107C19.426 14.3098 17.3527 16.1487 14.7425 18.4584L14.7425 18.4584L14.7412 18.4594C13.9129 19.1925 12.9764 20.0212 12 20.9053C11.0243 20.0217 10.0882 19.1934 9.26065 18.4611L9.25812 18.4589L9.2581 18.4588C6.64761 16.1489 4.57418 14.3099 3.13821 12.5107C1.72754 10.7433 1 9.09505 1 7.17989C1 3.52387 3.40142 1 6.375 1C7.44082 1 8.41575 1.34519 9.29763 2.05337L9.92377 1.27366L9.29763 2.05338C10.1607 2.74649 10.7551 3.64905 11.1153 4.33256Z" stroke="#14142B" stroke-width="2"/>
</svg>
