<svg width="24" height="26" viewBox="0 0 24 26" fill="none" xmlns="http://www.w3.org/2000/svg">
<path d="M22.8429 12.8301C22.7422 12.6242 22.7422 12.388 22.8429 12.1822L23.7757 10.2738C24.2951 9.21121 23.8836 7.94474 22.8389 7.39043L20.9625 6.39483C20.76 6.28746 20.6212 6.09635 20.5816 5.87071L20.2147 3.77845C20.0103 2.61354 18.9327 1.83075 17.7619 1.9964L15.6587 2.29391C15.4317 2.32595 15.2072 2.25297 15.0426 2.09367L13.5159 0.616791C12.6658 -0.205573 11.3342 -0.205622 10.4841 0.616791L8.95744 2.09381C8.79271 2.25317 8.56824 2.326 8.34128 2.29405L6.23808 1.99655C5.06687 1.8308 3.98969 2.61369 3.78535 3.7786L3.41838 5.87076C3.37876 6.09645 3.23997 6.28751 3.03758 6.39493L1.1612 7.39052C0.116462 7.94479 -0.295062 9.21136 0.224326 10.2739L1.15714 12.1823C1.25778 12.3882 1.25778 12.6243 1.15714 12.8302L0.224277 14.7385C-0.295111 15.8011 0.116413 17.0675 1.16115 17.6219L3.03753 18.6174C3.23997 18.7248 3.37876 18.9159 3.41838 19.1416L3.78535 21.2338C3.97137 22.2943 4.88069 23.038 5.92577 23.0379C6.0287 23.0379 6.13314 23.0307 6.23813 23.0158L8.34133 22.7183C8.56814 22.6861 8.79276 22.7593 8.95749 22.9186L10.4841 24.3954C10.9092 24.8067 11.4545 25.0122 12 25.0122C12.5453 25.0121 13.0909 24.8066 13.5159 24.3954L15.0426 22.9186C15.2073 22.7593 15.4318 22.6865 15.6587 22.7183L17.7619 23.0158C18.9333 23.1815 20.0103 22.3987 20.2147 21.2338L20.5817 19.1416C20.6213 18.9159 20.7601 18.7249 20.9625 18.6174L22.8389 17.6219C23.8836 17.0676 24.2951 15.801 23.7757 14.7385L22.8429 12.8301ZM22.1627 16.3475L20.2863 17.3431C19.6881 17.6605 19.2778 18.2252 19.1608 18.8923L18.7938 20.9845C18.7247 21.3786 18.3603 21.6434 17.964 21.5874L15.8608 21.2899C15.19 21.1949 14.5263 21.4108 14.0395 21.8816L12.5128 23.3585C12.2253 23.6366 11.7747 23.6366 11.4871 23.3585L9.96046 21.8816C9.54903 21.4836 9.01118 21.2679 8.44968 21.2679C8.3468 21.2679 8.24308 21.2752 8.13923 21.2899L6.03603 21.5874C5.64004 21.6434 5.27536 21.3786 5.20619 20.9844L4.83917 18.8922C4.72212 18.2251 4.31187 17.6604 3.71358 17.343L1.8372 16.3474C1.48371 16.1599 1.34449 15.7314 1.52021 15.3719L2.45307 13.4635C2.75048 12.855 2.75048 12.1571 2.45307 11.5487L1.52021 9.64028C1.34449 9.28078 1.48371 8.8523 1.8372 8.66476L3.71358 7.66917C4.31182 7.35169 4.72212 6.78706 4.83912 6.11995L5.20609 4.02774C5.27527 3.63361 5.6396 3.36883 6.03593 3.42482L8.13913 3.72232C8.80961 3.81724 9.47355 3.60146 9.96036 3.13059L11.4871 1.65371C11.7746 1.37555 12.2252 1.37555 12.5128 1.65371L14.0394 3.13059C14.5263 3.60151 15.1901 3.81724 15.8607 3.72232L17.9639 3.42482C18.3599 3.36879 18.7246 3.63361 18.7937 4.02774L19.1607 6.12C19.2777 6.78711 19.688 7.35178 20.2863 7.66917L22.1627 8.66476C22.5161 8.8523 22.6554 9.28078 22.4796 9.64028L21.5468 11.5486C21.2494 12.1571 21.2494 12.855 21.5468 13.4635L22.4796 15.3718C22.6554 15.7314 22.5162 16.1599 22.1627 16.3475Z" fill="#14142B"/>
<path d="M17.2702 7.23579C16.9886 6.95412 16.5318 6.95412 16.2502 7.23579L6.72957 16.7564C6.44789 17.0381 6.44789 17.4948 6.72957 17.7765C6.87041 17.9173 7.05502 17.9878 7.23958 17.9878C7.42414 17.9878 7.6088 17.9174 7.74959 17.7765L17.2702 8.25591C17.552 7.97418 17.552 7.51752 17.2702 7.23579Z" fill="#14142B"/>
<path d="M9.11475 6.01453C7.65643 6.01453 6.46997 7.20099 6.46997 8.65931C6.46997 10.1176 7.65643 11.3041 9.11475 11.3041C10.5731 11.3041 11.7595 10.1176 11.7595 8.65931C11.7595 7.20099 10.5731 6.01453 9.11475 6.01453ZM9.11475 9.86145C8.45188 9.86145 7.91261 9.32218 7.91261 8.65926C7.91261 7.99639 8.45188 7.45712 9.11475 7.45712C9.77762 7.45712 10.3169 7.99639 10.3169 8.65926C10.3169 9.32218 9.77762 9.86145 9.11475 9.86145Z" fill="#14142B"/>
<path d="M14.8851 13.7083C13.4268 13.7083 12.2404 14.8947 12.2404 16.353C12.2404 17.8114 13.4268 18.9978 14.8851 18.9978C16.3435 18.9978 17.5299 17.8114 17.5299 16.353C17.5299 14.8947 16.3435 13.7083 14.8851 13.7083ZM14.8851 17.5552C14.2223 17.5552 13.6829 17.0159 13.6829 16.353C13.6829 15.6902 14.2222 15.1509 14.8851 15.1509C15.548 15.1509 16.0873 15.6902 16.0873 16.353C16.0873 17.0159 15.548 17.5552 14.8851 17.5552Z" fill="#14142B"/>
</svg>
