<svg width="16" height="19" viewBox="0 0 16 19" fill="none" xmlns="http://www.w3.org/2000/svg">
<path d="M15.3417 13.3895C14.1447 12.3777 13.4583 10.8989 13.4583 9.33217V7.125C13.4583 4.33912 11.3889 2.033 8.70833 1.64667V0.791667C8.70833 0.353875 8.35367 0 7.91667 0C7.47967 0 7.125 0.353875 7.125 0.791667V1.64667C4.44362 2.033 2.375 4.33912 2.375 7.125V9.33217C2.375 10.8989 1.68862 12.3777 0.4845 13.3958C0.176542 13.6594 0 14.0426 0 14.4479C0 15.2119 0.621458 15.8333 1.38542 15.8333H14.4479C15.2119 15.8333 15.8333 15.2119 15.8333 14.4479C15.8333 14.0426 15.6568 13.6594 15.3417 13.3895Z" fill="#1AA3E9"/>
<path d="M7.91652 19C9.35023 19 10.5496 17.978 10.8251 16.625H5.00793C5.28343 17.978 6.48281 19 7.91652 19Z" fill="#76C8F2"/>
</svg>
