<svg width="24" height="24" viewBox="0 0 24 24" fill="none" xmlns="http://www.w3.org/2000/svg">
<path d="M18.5343 15.6848C17.4003 14.7263 16.75 13.3253 16.75 11.841V9.75001C16.75 7.11075 14.7895 4.926 12.25 4.56001V3.75C12.25 3.33525 11.914 3 11.5 3C11.086 3 10.75 3.33525 10.75 3.75V4.56001C8.20975 4.926 6.25 7.11075 6.25 9.75001V11.841C6.25 13.3253 5.59975 14.7263 4.459 15.6908C4.16725 15.9405 4 16.3035 4 16.6875C4 17.4113 4.58875 18 5.31251 18H17.6875C18.4113 18 19 17.4113 19 16.6875C19 16.3035 18.8328 15.9405 18.5343 15.6848Z" fill="#1AA3E9"/>
<path d="M11.5 21C13.2252 21 14.6685 20.1394 15 19H8C8.33152 20.1394 9.77477 21 11.5 21Z" fill="#76C8F2"/>
</svg>
