<svg width="33" height="32" viewBox="0 0 33 32" fill="none" xmlns="http://www.w3.org/2000/svg">
<path fill-rule="evenodd" clip-rule="evenodd" d="M16.6665 31.9998C25.5031 31.9998 32.6665 24.8363 32.6665 15.9998C32.6665 7.1632 25.5031 -0.000244141 16.6665 -0.000244141C7.82995 -0.000244141 0.666504 7.1632 0.666504 15.9998C0.666504 24.8363 7.82995 31.9998 16.6665 31.9998ZM23.7948 11.6538C24.566 11.559 25.3057 11.3639 25.9998 11.0694C25.4795 11.8185 24.8413 12.4695 24.0818 12.9907C24.09 13.1476 24.0958 13.3055 24.0958 13.4691C24.0958 18.3587 20.2458 23.9998 13.2038 23.9998C11.0373 23.9998 9.02834 23.3962 7.33317 22.339C7.63417 22.3763 7.93517 22.3898 8.249 22.3898C10.0387 22.3898 11.6918 21.7964 12.9938 20.8114C11.3208 20.7765 9.91384 19.699 9.418 18.2335C9.65017 18.2831 9.8975 18.2967 10.1425 18.2967C10.4948 18.2967 10.8343 18.2572 11.1458 18.1748C9.40634 17.8307 8.07984 16.337 8.07984 14.5386V14.498C8.59084 14.7699 9.194 14.9425 9.80884 14.9538C8.7915 14.2961 8.109 13.16 8.109 11.8783C8.109 11.1958 8.30267 10.5617 8.63284 10.0078C10.524 12.254 13.3392 13.7286 16.5207 13.8786C16.4577 13.6101 16.432 13.3281 16.432 13.0347C16.432 10.9961 18.1377 9.33309 20.2563 9.33309C21.3483 9.33309 22.3493 9.78099 23.0517 10.5042C23.922 10.3361 24.7387 10.0348 25.4783 9.60837C25.1937 10.476 24.5882 11.1958 23.7948 11.6538Z" fill="#1AA3E9"/>
</svg>
