<svg width="40" height="40" viewBox="0 0 40 40" fill="none" xmlns="http://www.w3.org/2000/svg">
<circle cx="20" cy="20" r="20" fill="#FFC3C0"/>
<path d="M20 8C13.3727 8 8 13.3727 8 20C8 26.6274 13.3727 32 20 32C26.6273 32 32 26.6274 32 20C32 13.3727 26.6273 8 20 8ZM11.2 20C11.2 18.0633 11.8367 16.2766 12.9008 14.8215L25.1782 27.0992C23.7234 28.1637 21.9367 28.8 20 28.8C15.1477 28.8 11.2 24.8523 11.2 20ZM27.2703 24.9496L15.05 12.7297C16.4618 11.7656 18.1657 11.2 20 11.2C24.8524 11.2 28.8 15.1477 28.8 20C28.8 21.8344 28.2345 23.5383 27.2703 24.9496Z" fill="#E61B00"/>
</svg>
