<svg width="348" height="229" viewBox="0 0 348 229" fill="none" xmlns="http://www.w3.org/2000/svg">
<g opacity="0.9" clip-path="url(#clip0_1484_18416)">
<path d="M159.266 10.3545H198.356V201.003H159.266V10.3545Z" fill="#C4D9ED"/>
<path d="M150.486 10.3545H189.576V201.003H150.486V10.3545Z" fill="#D5E7F7"/>
<path d="M189.565 21.3203L150.486 21.3203V10.3039L189.565 10.3039V21.3203Z" fill="#C4D9ED"/>
<path d="M189.565 45.2124L150.486 45.2124V34.196L189.565 34.196V45.2124Z" fill="#C4D9ED"/>
<path d="M189.565 69.1069H150.486V58.0905L189.565 58.0905V69.1069Z" fill="#C4D9ED"/>
<path d="M150.487 81.9844H189.565V93.0008H150.487V81.9844Z" fill="#C4D9ED"/>
<path d="M150.487 105.877H189.565V116.893H150.487V105.877Z" fill="#C4D9ED"/>
<path d="M150.487 129.771H189.565V140.788H150.487V129.771Z" fill="#C4D9ED"/>
<path d="M150.487 153.666H189.565V164.682H150.487V153.666Z" fill="#C4D9ED"/>
<path d="M189.565 188.577H150.486V177.56H189.565V188.577Z" fill="#C4D9ED"/>
<path d="M96.7773 37.3306H135.867V201.001H96.7773V37.3306Z" fill="#C4D9ED"/>
<path d="M87.9979 37.3306H127.088V201.001H87.9979V37.3306Z" fill="#D5E7F7"/>
<path d="M87.9977 37.2881H127.077V46.7462H87.9977V37.2881Z" fill="#C4D9ED"/>
<path d="M87.9977 57.8003H127.077V67.2584H87.9977V57.8003Z" fill="#C4D9ED"/>
<path d="M87.9977 78.3125H127.077V87.7706H87.9977V78.3125Z" fill="#C4D9ED"/>
<path d="M87.9977 98.8247H127.077V108.283H87.9977V98.8247Z" fill="#C4D9ED"/>
<path d="M87.9977 119.337H127.077V128.795H87.9977V119.337Z" fill="#C4D9ED"/>
<path d="M87.9977 139.852H127.077V149.31H87.9977V139.852Z" fill="#C4D9ED"/>
<path d="M87.9977 160.364H127.077V169.822H87.9977V160.364Z" fill="#C4D9ED"/>
<path d="M127.077 190.334H87.998V180.876H127.077V190.334Z" fill="#C4D9ED"/>
<path d="M219.51 219.094H203.141V195.155H219.51V219.094Z" fill="#DCEAF9"/>
<path d="M214.513 162.495V228.959H387.904H389.084L433.337 228.54C433.372 228.476 433.418 228.399 433.469 228.319L433.727 227.876C433.76 227.814 433.796 227.752 433.835 227.686C433.968 227.449 434.116 227.184 434.277 226.88C434.48 226.511 434.705 226.09 434.956 225.621C435.886 223.87 437.121 221.444 438.523 218.429C438.983 217.441 439.46 216.388 439.953 215.271C440.149 214.828 440.346 214.385 440.547 213.912C440.739 213.469 440.933 213.012 441.127 212.541L441.147 212.497C441.282 212.176 441.416 211.853 441.551 211.523C441.686 211.193 441.833 210.844 441.977 210.498C442.701 208.714 443.442 206.82 444.184 204.821L444.243 204.662C444.725 203.356 445.204 202.006 445.682 200.613C445.944 199.85 446.204 199.074 446.461 198.285C446.477 198.236 446.495 198.189 446.51 198.136L446.85 197.049C446.945 196.751 447.04 196.454 447.132 196.164C447.327 195.547 447.519 194.923 447.711 194.291C447.958 193.481 448.201 192.659 448.439 191.826C448.763 190.695 449.079 189.546 449.388 188.377C449.481 188.027 449.573 187.675 449.664 187.323C449.936 186.265 450.202 185.196 450.46 184.114C450.544 183.766 450.626 183.419 450.705 183.069C450.758 182.848 450.807 182.626 450.855 182.421C451.245 180.707 451.613 178.962 451.959 177.184C452.342 175.224 452.691 173.232 453.007 171.207C453.302 169.335 453.561 167.432 453.786 165.501C454.003 163.678 454.185 161.834 454.334 159.967C454.687 155.602 454.848 151.113 454.78 146.551C454.673 138.336 453.757 130.151 452.045 122.117C451.981 121.814 451.915 121.515 451.846 121.212C451.405 119.237 450.909 117.26 450.359 115.279C449.94 113.767 449.485 112.255 448.995 110.744C448.64 109.648 448.267 108.55 447.874 107.453C446.991 104.969 446.004 102.485 444.912 99.9999L443.981 97.9391C438.064 85.1386 429.344 72.4577 416.932 60.4607L416.237 59.7966H415.511V85.2139H393.084V43.7888H368.328V70.6803H362.682V38.585H337.929V98.7913H306.621V133.873H294.924V142.715H268.052V127.491H252.625V86.1104H233.568V162.495H214.513Z" fill="#D5E7F7"/>
<path d="M362.685 48.7715H337.916V42.638H362.685V48.7715Z" fill="#C4D9ED"/>
<path d="M362.685 60.293H337.916V54.1595H362.685V60.293Z" fill="#C4D9ED"/>
<path d="M362.685 70.6606H337.916V64.5271H362.685V70.6606Z" fill="#C4D9ED"/>
<path d="M393.081 80.7119H337.914V74.5784H393.081V80.7119Z" fill="#C4D9ED"/>
<path d="M393.081 90.7612H337.914V84.6277H393.081V90.7612Z" fill="#C4D9ED"/>
<path d="M252.804 95.582H233.579V86.115H252.804V95.582Z" fill="#C4D9ED"/>
<path d="M252.804 109.662H233.579V100.195H252.804V109.662Z" fill="#C4D9ED"/>
<path d="M252.804 123.742H233.579V114.275H252.804V123.742Z" fill="#C4D9ED"/>
<path d="M252.804 138.501H233.579V129.034H252.804V138.501Z" fill="#C4D9ED"/>
<path d="M252.804 152.803H233.579V143.336H252.804V152.803Z" fill="#C4D9ED"/>
<path d="M252.804 167.104H233.579V157.636H252.804V167.104Z" fill="#C4D9ED"/>
<path d="M252.804 182.067H233.579V172.6H252.804V182.067Z" fill="#C4D9ED"/>
<path d="M393.081 98.3447H337.914V94.4512H393.081V98.3447Z" fill="#C4D9ED"/>
<path d="M252.535 86.1152H259.624V127.489H252.535V86.1152Z" fill="#C4D9ED"/>
<path d="M268.054 127.489H282.311V142.716H268.054V127.489Z" fill="#C4D9ED"/>
<g opacity="0.8">
<path opacity="0.8" d="M315.933 110.744H311.737V104.812H315.933V110.744Z" fill="#C4D9ED"/>
<path opacity="0.8" d="M323.78 110.744H319.585V104.812H323.78V110.744Z" fill="#C4D9ED"/>
<path opacity="0.8" d="M331.452 110.744H327.256V104.812H331.452V110.744Z" fill="#C4D9ED"/>
<path opacity="0.8" d="M338.728 110.744H334.531V104.812H338.728V110.744Z" fill="#C4D9ED"/>
<path opacity="0.8" d="M346.141 110.744H341.944V104.812H346.141V110.744Z" fill="#C4D9ED"/>
<path opacity="0.8" d="M315.933 121.212H311.737V115.28H315.933V121.212Z" fill="#C4D9ED"/>
<path opacity="0.8" d="M323.78 121.212H319.585V115.28H323.78V121.212Z" fill="#C4D9ED"/>
<path opacity="0.8" d="M331.452 121.212H327.256V115.28H331.452V121.212Z" fill="#C4D9ED"/>
<path opacity="0.8" d="M338.728 121.212H334.531V115.28H338.728V121.212Z" fill="#C4D9ED"/>
<path opacity="0.8" d="M346.141 121.212H341.944V115.28H346.141V121.212Z" fill="#C4D9ED"/>
<path opacity="0.8" d="M315.933 131.52H311.737V125.588H315.933V131.52Z" fill="#C4D9ED"/>
<path opacity="0.8" d="M323.78 131.52H319.585V125.588H323.78V131.52Z" fill="#C4D9ED"/>
<path opacity="0.8" d="M331.452 131.52H327.256V125.588H331.452V131.52Z" fill="#C4D9ED"/>
<path opacity="0.8" d="M338.728 131.52H334.531V125.588H338.728V131.52Z" fill="#C4D9ED"/>
<path opacity="0.8" d="M346.141 131.52H341.944V125.588H346.141V131.52Z" fill="#C4D9ED"/>
<path opacity="0.8" d="M315.933 142.472H311.737V136.54H315.933V142.472Z" fill="#C4D9ED"/>
<path opacity="0.8" d="M323.78 142.472H319.585V136.54H323.78V142.472Z" fill="#C4D9ED"/>
<path opacity="0.8" d="M331.452 142.472H327.256V136.54H331.452V142.472Z" fill="#C4D9ED"/>
<path opacity="0.8" d="M338.728 142.472H334.531V136.54H338.728V142.472Z" fill="#C4D9ED"/>
<path opacity="0.8" d="M346.141 142.472H341.944V136.54H346.141V142.472Z" fill="#C4D9ED"/>
<path opacity="0.8" d="M315.933 152.939H311.737V147.007H315.933V152.939Z" fill="#C4D9ED"/>
<path opacity="0.8" d="M323.78 152.939H319.585V147.007H323.78V152.939Z" fill="#C4D9ED"/>
<path opacity="0.8" d="M331.452 152.939H327.256V147.007H331.452V152.939Z" fill="#C4D9ED"/>
<path opacity="0.8" d="M338.728 152.939H334.531V147.007H338.728V152.939Z" fill="#C4D9ED"/>
<path opacity="0.8" d="M346.141 152.939H341.944V147.007H346.141V152.939Z" fill="#C4D9ED"/>
<path opacity="0.8" d="M315.933 163.25H311.737V157.318H315.933V163.25Z" fill="#C4D9ED"/>
<path opacity="0.8" d="M323.78 163.25H319.585V157.318H323.78V163.25Z" fill="#C4D9ED"/>
<path opacity="0.8" d="M331.452 163.25H327.256V157.318H331.452V163.25Z" fill="#C4D9ED"/>
<path opacity="0.8" d="M338.728 163.25H334.531V157.318H338.728V163.25Z" fill="#C4D9ED"/>
<path opacity="0.8" d="M346.141 163.25H341.944V157.318H346.141V163.25Z" fill="#C4D9ED"/>
</g>
<path d="M379.579 228.532H282.311V175.904H379.579V228.532Z" fill="#C4D9ED"/>
<path d="M305.822 228.532H208.554V202.218H305.822V228.532Z" fill="#C4D9ED"/>
<path d="M306.93 191.813H288.809V182.065H306.93V191.813Z" fill="#D5E7F7"/>
<path d="M330.194 191.813H312.072V182.065H330.194V191.813Z" fill="#D5E7F7"/>
<path d="M353.012 191.813H334.89V182.065H353.012V191.813Z" fill="#D5E7F7"/>
<path d="M237.909 86.1152H237.404V81.996H237.909V86.1152Z" fill="#DCEAF9"/>
<path d="M256.075 86.1152H255.569V81.996H256.075V86.1152Z" fill="#DCEAF9"/>
<path d="M226.967 228.105H160.182V183.059H226.967V228.105Z" fill="#D5E7F7"/>
<path d="M226.967 191.813H160.182V177.173H226.967V191.813Z" fill="#C4D9ED"/>
<path d="M168.16 201.001H164.73V196.151H168.16V201.001Z" fill="#C4D9ED"/>
<path d="M174.573 201.001H171.144V196.151H174.573V201.001Z" fill="#C4D9ED"/>
<path d="M180.844 201.001H177.414V196.151H180.844V201.001Z" fill="#C4D9ED"/>
<path d="M186.789 201.001H183.359V196.151H186.789V201.001Z" fill="#C4D9ED"/>
<path d="M192.849 201.001H189.419V196.151H192.849V201.001Z" fill="#C4D9ED"/>
<path d="M198.978 201.001H195.548V196.151H198.978V201.001Z" fill="#C4D9ED"/>
<path d="M205.391 201.001H201.962V196.151H205.391V201.001Z" fill="#C4D9ED"/>
<path d="M211.662 201.001H208.232V196.151H211.662V201.001Z" fill="#C4D9ED"/>
<path d="M217.607 201.001H214.178V196.151H217.607V201.001Z" fill="#C4D9ED"/>
<path d="M223.667 201.001H220.238V196.151H223.667V201.001Z" fill="#C4D9ED"/>
<path d="M168.16 209.558H164.73V204.708H168.16V209.558Z" fill="#C4D9ED"/>
<path d="M174.573 209.558H171.144V204.708H174.573V209.558Z" fill="#C4D9ED"/>
<path d="M180.844 209.558H177.414V204.708H180.844V209.558Z" fill="#C4D9ED"/>
<path d="M186.789 209.558H183.359V204.708H186.789V209.558Z" fill="#C4D9ED"/>
<path d="M192.849 209.558H189.419V204.708H192.849V209.558Z" fill="#C4D9ED"/>
<path d="M198.978 209.558H195.548V204.708H198.978V209.558Z" fill="#C4D9ED"/>
<path d="M205.391 209.558H201.962V204.708H205.391V209.558Z" fill="#C4D9ED"/>
<path d="M211.662 209.558H208.232V204.708H211.662V209.558Z" fill="#C4D9ED"/>
<path d="M217.607 209.558H214.178V204.708H217.607V209.558Z" fill="#C4D9ED"/>
<path d="M223.667 209.558H220.238V204.708H223.667V209.558Z" fill="#C4D9ED"/>
<path d="M168.16 217.982H164.73V213.133H168.16V217.982Z" fill="#C4D9ED"/>
<path d="M174.573 217.982H171.144V213.133H174.573V217.982Z" fill="#C4D9ED"/>
<path d="M180.844 217.982H177.414V213.133H180.844V217.982Z" fill="#C4D9ED"/>
<path d="M186.789 217.982H183.359V213.133H186.789V217.982Z" fill="#C4D9ED"/>
<path d="M192.849 217.982H189.419V213.133H192.849V217.982Z" fill="#C4D9ED"/>
<path d="M198.978 217.982H195.548V213.133H198.978V217.982Z" fill="#C4D9ED"/>
<path d="M205.391 217.982H201.962V213.133H205.391V217.982Z" fill="#C4D9ED"/>
<path d="M211.662 217.982H208.232V213.133H211.662V217.982Z" fill="#C4D9ED"/>
<path d="M217.607 217.982H214.178V213.133H217.607V217.982Z" fill="#C4D9ED"/>
<path d="M223.667 217.982H220.238V213.133H223.667V217.982Z" fill="#C4D9ED"/>
<path d="M168.162 186.288H165.28V181.288H168.162V186.288Z" fill="#ADC9E0"/>
<path d="M196.775 186.288H193.893V181.288H196.775V186.288Z" fill="#ADC9E0"/>
<path d="M219.538 186.288H216.656V181.288H219.538V186.288Z" fill="#ADC9E0"/>
<path d="M155.988 228.105H89.2026V183.059H155.988V228.105Z" fill="#D5E7F7"/>
<path d="M155.988 191.813H89.2026V177.173H155.988V191.813Z" fill="#C4D9ED"/>
<path d="M97.181 201.001H93.7515V196.151H97.181V201.001Z" fill="#C4D9ED"/>
<path d="M103.595 201.001H100.165V196.151H103.595V201.001Z" fill="#C4D9ED"/>
<path d="M109.867 201.001H106.438V196.151H109.867V201.001Z" fill="#C4D9ED"/>
<path d="M115.81 201.001H112.38V196.151H115.81V201.001Z" fill="#C4D9ED"/>
<path d="M121.871 201.001H118.441V196.151H121.871V201.001Z" fill="#C4D9ED"/>
<path d="M127.999 201.001H124.57V196.151H127.999V201.001Z" fill="#C4D9ED"/>
<path d="M134.413 201.001H130.983V196.151H134.413V201.001Z" fill="#C4D9ED"/>
<path d="M140.685 201.001H137.255V196.151H140.685V201.001Z" fill="#C4D9ED"/>
<path d="M146.628 201.001H143.199V196.151H146.628V201.001Z" fill="#C4D9ED"/>
<path d="M152.689 201.001H149.259V196.151H152.689V201.001Z" fill="#C4D9ED"/>
<path d="M97.181 209.558H93.7515V204.708H97.181V209.558Z" fill="#C4D9ED"/>
<path d="M103.595 209.558H100.165V204.708H103.595V209.558Z" fill="#C4D9ED"/>
<path d="M109.867 209.558H106.438V204.708H109.867V209.558Z" fill="#C4D9ED"/>
<path d="M115.81 209.558H112.38V204.708H115.81V209.558Z" fill="#C4D9ED"/>
<path d="M121.871 209.558H118.441V204.708H121.871V209.558Z" fill="#C4D9ED"/>
<path d="M127.999 209.558H124.57V204.708H127.999V209.558Z" fill="#C4D9ED"/>
<path d="M134.413 209.558H130.983V204.708H134.413V209.558Z" fill="#C4D9ED"/>
<path d="M140.685 209.558H137.255V204.708H140.685V209.558Z" fill="#C4D9ED"/>
<path d="M146.628 209.558H143.199V204.708H146.628V209.558Z" fill="#C4D9ED"/>
<path d="M152.689 209.558H149.259V204.708H152.689V209.558Z" fill="#C4D9ED"/>
<path d="M97.181 217.982H93.7515V213.133H97.181V217.982Z" fill="#C4D9ED"/>
<path d="M103.595 217.982H100.165V213.133H103.595V217.982Z" fill="#C4D9ED"/>
<path d="M109.867 217.982H106.438V213.133H109.867V217.982Z" fill="#C4D9ED"/>
<path d="M115.81 217.982H112.38V213.133H115.81V217.982Z" fill="#C4D9ED"/>
<path d="M121.871 217.982H118.441V213.133H121.871V217.982Z" fill="#C4D9ED"/>
<path d="M127.999 217.982H124.57V213.133H127.999V217.982Z" fill="#C4D9ED"/>
<path d="M134.413 217.982H130.983V213.133H134.413V217.982Z" fill="#C4D9ED"/>
<path d="M140.685 217.982H137.255V213.133H140.685V217.982Z" fill="#C4D9ED"/>
<path d="M146.628 217.982H143.199V213.133H146.628V217.982Z" fill="#C4D9ED"/>
<path d="M152.689 217.982H149.259V213.133H152.689V217.982Z" fill="#C4D9ED"/>
<path d="M97.181 186.288H94.2988V181.288H97.181V186.288Z" fill="#ADC9E0"/>
<path d="M125.797 186.288H122.915V181.288H125.797V186.288Z" fill="#ADC9E0"/>
<path d="M148.56 186.288H145.677V181.288H148.56V186.288Z" fill="#ADC9E0"/>
<path d="M84.8506 228.105H18.0654L18.0654 183.059H84.8506V228.105Z" fill="#D5E7F7"/>
<path d="M84.8506 191.813H18.0654L18.0654 177.173H84.8506V191.813Z" fill="#C4D9ED"/>
<path d="M26.0438 201.001H22.6143V196.151H26.0438V201.001Z" fill="#C4D9ED"/>
<path d="M32.457 201.001H29.0273V196.151H32.457V201.001Z" fill="#C4D9ED"/>
<path d="M38.7269 201.001H35.2974V196.151H38.7269V201.001Z" fill="#C4D9ED"/>
<path d="M44.6728 201.001H41.2432V196.151H44.6728V201.001Z" fill="#C4D9ED"/>
<path d="M50.7333 201.001H47.3037V196.151H50.7333V201.001Z" fill="#C4D9ED"/>
<path d="M56.8618 201.001H53.4321V196.151H56.8618V201.001Z" fill="#C4D9ED"/>
<path d="M63.2753 201.001H59.8457V196.151H63.2753V201.001Z" fill="#C4D9ED"/>
<path d="M69.5454 201.001H66.1157V196.151H69.5454V201.001Z" fill="#C4D9ED"/>
<path d="M75.4911 201.001H72.0615V196.151H75.4911V201.001Z" fill="#C4D9ED"/>
<path d="M81.5512 201.001H78.1216V196.151H81.5512V201.001Z" fill="#C4D9ED"/>
<path d="M26.0438 209.558H22.6143V204.708H26.0438V209.558Z" fill="#C4D9ED"/>
<path d="M32.457 209.558H29.0273V204.708H32.457V209.558Z" fill="#C4D9ED"/>
<path d="M38.7269 209.558H35.2974V204.708H38.7269V209.558Z" fill="#C4D9ED"/>
<path d="M44.6728 209.558H41.2432V204.708H44.6728V209.558Z" fill="#C4D9ED"/>
<path d="M50.7333 209.558H47.3037V204.708H50.7333V209.558Z" fill="#C4D9ED"/>
<path d="M56.8618 209.558H53.4321V204.708H56.8618V209.558Z" fill="#C4D9ED"/>
<path d="M63.2753 209.558H59.8457V204.708H63.2753V209.558Z" fill="#C4D9ED"/>
<path d="M69.5454 209.558H66.1157V204.708H69.5454V209.558Z" fill="#C4D9ED"/>
<path d="M75.4911 209.558H72.0615V204.708H75.4911V209.558Z" fill="#C4D9ED"/>
<path d="M81.5512 209.558H78.1216V204.708H81.5512V209.558Z" fill="#C4D9ED"/>
<path d="M26.0438 217.982H22.6143V213.133H26.0438V217.982Z" fill="#C4D9ED"/>
<path d="M32.457 217.982H29.0273V213.133H32.457V217.982Z" fill="#C4D9ED"/>
<path d="M38.7269 217.982H35.2974V213.133H38.7269V217.982Z" fill="#C4D9ED"/>
<path d="M44.6728 217.982H41.2432V213.133H44.6728V217.982Z" fill="#C4D9ED"/>
<path d="M50.7333 217.982H47.3037V213.133H50.7333V217.982Z" fill="#C4D9ED"/>
<path d="M56.8618 217.982H53.4321V213.133H56.8618V217.982Z" fill="#C4D9ED"/>
<path d="M63.2753 217.982H59.8457V213.133H63.2753V217.982Z" fill="#C4D9ED"/>
<path d="M69.5454 217.982H66.1157V213.133H69.5454V217.982Z" fill="#C4D9ED"/>
<path d="M75.4911 217.982H72.0615V213.133H75.4911V217.982Z" fill="#C4D9ED"/>
<path d="M81.5512 217.982H78.1216V213.133H81.5512V217.982Z" fill="#C4D9ED"/>
<path d="M26.0459 186.288H23.1636V181.288H26.0459V186.288Z" fill="#ADC9E0"/>
<path d="M54.6592 186.288H51.7769V181.288H54.6592V186.288Z" fill="#ADC9E0"/>
<path d="M77.4218 186.288H74.5396V181.288H77.4218V186.288Z" fill="#ADC9E0"/>
<path d="M6.35309 241.758L268.921 240.383C268.921 240.383 261.092 208.183 226.125 208.183C191.157 208.183 178.83 181.66 137.928 181.896C111.167 182.051 91.5164 160.739 83.5286 155.014C75.5408 149.288 62.3604 151.464 57.9392 160.254C53.5181 169.044 52.7733 168.542 43.6947 173.157C38.685 175.7 33.6826 178.447 29.0109 181.625C24.672 184.578 20.6215 187.901 17.1169 191.777C14.7918 194.324 12.748 197.117 11.021 200.106C10.9199 200.278 10.8244 200.45 10.7288 200.62C8.34668 204.91 6.65759 209.552 5.72453 214.374C5.67124 214.636 5.62161 214.898 5.57567 215.164C4.2102 222.639 4.30582 231.398 6.35309 241.758Z" fill="#B9E0AD"/>
<path d="M410.709 241.135L317.42 240.431C317.42 240.431 320.202 223.942 332.626 223.942C345.049 223.942 349.429 210.359 363.961 210.48C373.47 210.559 380.451 199.645 383.289 196.713C386.127 193.781 390.81 194.895 392.381 199.396C393.952 203.898 394.216 203.641 397.442 206.004C399.222 207.307 400.999 208.713 402.659 210.341C404.201 211.853 405.64 213.554 406.885 215.539C407.711 216.844 408.437 218.274 409.051 219.805C409.087 219.893 409.121 219.981 409.155 220.068C410.001 222.265 410.601 224.643 410.933 227.112C410.951 227.246 410.969 227.38 410.985 227.516C411.471 231.345 411.437 235.83 410.709 241.135Z" fill="#B9E0AD"/>
<path d="M127.564 196.151C127.564 196.151 126.395 198.821 124.781 197.648C123.168 196.475 122.484 193.885 122.484 193.885L127.538 195.363L127.564 196.151Z" fill="#CE8E55"/>
<path d="M112.147 201.247C112.221 201.052 112.34 200.878 112.493 200.737C112.646 200.596 112.83 200.492 113.03 200.435C114.034 200.142 116.016 199.883 117.828 198.237C118.849 197.311 122.756 194.834 122.756 194.834H122.778C122.862 194.834 123.272 194.963 125.049 196.466C125.967 197.243 127.534 195.37 127.534 195.37C127.748 195.567 127.922 195.804 128.046 196.067C128.268 196.52 128.34 197.032 128.251 197.528C128.11 198.383 128.564 199.963 128.929 201.05C129.149 201.714 129.337 202.157 129.337 202.157C129.337 202.157 129.443 202.694 127.523 202.934H125.294C124.546 202.816 123.994 202.599 123.228 202.491C122.065 202.338 121.529 202.816 121.423 202.934L121.403 202.956H111.928C111.692 202.619 111.922 201.829 112.147 201.247Z" fill="#1AA3E9"/>
<path d="M137.081 150.897C133.57 157.653 118.679 166.657 119.379 167.478C124.338 173.302 127.545 195.368 127.545 195.368C127.545 195.368 126.54 195.937 125.613 195.966C124.54 195.963 123.473 195.796 122.451 195.468C116.271 182.851 106.561 169.056 107.408 166.028C109.564 158.303 125.918 137.636 125.918 137.636L140.557 134.389L144.991 134.241C144.991 134.241 141.877 141.658 137.081 150.897Z" fill="#2C3A64"/>
<path d="M68.7225 199.651L85.8154 162.963L83.5268 162.044C83.173 161.902 82.7947 161.831 82.4136 161.836C82.0325 161.841 81.6561 161.921 81.306 162.072C80.9558 162.223 80.6388 162.442 80.3731 162.716C80.1073 162.99 79.8981 163.313 79.7573 163.669L65.9527 198.515L68.7225 199.651Z" fill="#415DA5"/>
<path d="M83.1741 162.022C89.6604 145.14 89.742 145.02 89.8634 144.836L92.3529 146.501C92.386 146.45 91.3376 149.033 89.9737 152.431L127.532 177.899L135.949 151.49L138.799 152.404L130.114 179.65L163.219 202.09L123.308 205.572L123.05 202.584L154.528 199.837L128.911 183.391L121.889 205.424L119.037 204.509L119.843 201.988L117.932 203.223L87.663 158.201C87.001 159.866 86.3631 161.504 85.8048 162.956L83.1741 162.022ZM120.141 201.083L126.32 181.713L95.9414 162.214L120.141 201.083Z" fill="#1AA3E9"/>
<path d="M85.9832 142.935C86.5141 142.934 87.0323 143.098 87.4669 143.404C87.9015 143.71 88.2312 144.143 88.4109 144.644L95.4997 144.239C95.7217 143.739 96.0957 143.323 96.5681 143.05C97.0405 142.776 97.5871 142.66 98.1294 142.717C98.6718 142.775 99.1821 143.003 99.5871 143.369C99.9922 143.736 100.271 144.221 100.384 144.756C100.497 145.291 100.439 145.848 100.216 146.348C99.9943 146.847 99.6201 147.264 99.1476 147.537C98.6751 147.81 98.1285 147.926 97.5862 147.868C97.0438 147.811 96.5336 147.582 96.1287 147.216L87.3383 147.721C86.999 147.929 86.6162 148.056 86.2199 148.091C85.8236 148.126 85.4245 148.069 85.0539 147.924C84.6834 147.778 84.3515 147.549 84.0843 147.253C83.817 146.957 83.6217 146.604 83.5137 146.22C83.4056 145.835 83.3878 145.432 83.4615 145.039C83.5353 144.647 83.6986 144.278 83.9387 143.959C84.1788 143.641 84.4892 143.383 84.8454 143.205C85.2017 143.028 85.5941 142.935 85.992 142.935H85.9832Z" fill="#058CC1"/>
<path d="M153.969 200.965C153.969 200.804 153.977 200.643 153.994 200.483L133.052 196.959L133.162 196.295L154.102 199.819C154.355 198.76 154.95 197.815 155.795 197.132L143.087 178.921L143.63 178.538L155.825 196.012L149.249 176.225L149.88 176.004L156.704 196.552C157.278 196.268 157.902 196.101 158.54 196.058V174.123H159.202V196.058C159.576 196.083 159.947 196.15 160.306 196.259L167.092 177.294L167.719 177.516L161.259 195.571L174.247 180.575L174.748 181.017L161.21 196.649C161.917 197.034 162.519 197.588 162.963 198.26L163.729 198.13L182.658 188.506L182.958 189.099L165.964 197.745L184.922 194.475L185.035 195.139L163.949 198.776L163.395 199.057C163.653 199.665 163.785 200.318 163.784 200.979C163.784 201.111 163.784 201.24 163.768 201.368L184.695 204.482L184.598 205.147L163.671 202.034C163.629 202.231 163.575 202.425 163.508 202.614L182.616 210.846L182.353 211.459L163.245 203.227L163.234 203.247L178.242 218.421L177.769 218.89L162.886 203.838C162.583 204.263 162.215 204.636 161.795 204.945L172.801 222.31L172.241 222.668L161.235 205.304C161.138 205.357 161.038 205.405 160.939 205.452C163.689 212.712 168.723 226.013 168.847 226.385L168.215 226.606C168.107 226.279 163.671 214.558 160.317 205.7C159.855 205.844 159.374 205.918 158.891 205.921H158.646L160.385 226.989L159.723 227.044L157.973 205.842C157.764 205.8 157.557 205.747 157.355 205.68C153.894 214.213 149.355 225.431 149.231 225.789L148.602 225.568C148.726 225.194 153.883 212.464 156.739 205.425L156.556 205.332L144.877 223.857L144.314 223.501L155.995 204.974C155.529 204.632 155.126 204.21 154.806 203.728L137.47 215.784L137.09 215.236L154.475 203.146C154.14 202.468 153.967 201.722 153.969 200.965V200.965Z" fill="#2C3A64"/>
<path d="M158.873 229.807C174.728 229.807 187.63 216.869 187.63 200.966C187.63 185.062 174.728 172.124 158.873 172.124C151.246 172.124 143.932 175.163 138.539 180.571C133.146 185.98 130.116 193.316 130.116 200.966C130.116 208.615 133.146 215.951 138.539 221.36C143.932 226.768 151.246 229.807 158.873 229.807V229.807ZM158.873 176.126C163.773 176.125 168.564 177.582 172.638 180.312C176.713 183.042 179.889 186.922 181.764 191.462C183.64 196.003 184.131 200.999 183.175 205.819C182.219 210.639 179.859 215.067 176.394 218.542C172.929 222.017 168.514 224.383 163.708 225.341C158.902 226.3 153.92 225.807 149.394 223.926C144.867 222.044 140.998 218.859 138.276 214.772C135.555 210.685 134.103 205.88 134.104 200.966C134.111 194.379 136.723 188.065 141.367 183.408C146.01 178.751 152.306 176.132 158.873 176.126Z" fill="#2C3A64"/>
<path d="M158.652 226.542C163.663 226.543 168.56 225.053 172.727 222.262C176.893 219.47 180.14 215.503 182.057 210.86C183.975 206.218 184.477 201.109 183.5 196.181C182.523 191.253 180.11 186.725 176.568 183.172C173.025 179.619 168.511 177.199 163.597 176.218C158.684 175.238 153.59 175.741 148.961 177.664C144.332 179.587 140.376 182.843 137.592 187.021C134.809 191.199 133.323 196.111 133.323 201.136C133.331 207.872 136.002 214.329 140.75 219.092C145.499 223.855 151.937 226.534 158.652 226.542V226.542ZM158.652 176.759C163.46 176.76 168.16 178.19 172.157 180.869C176.154 183.548 179.269 187.356 181.108 191.811C182.948 196.266 183.429 201.168 182.49 205.897C181.552 210.626 179.237 214.969 175.837 218.379C172.437 221.788 168.106 224.109 163.39 225.049C158.675 225.99 153.788 225.507 149.346 223.661C144.905 221.815 141.109 218.69 138.438 214.681C135.767 210.671 134.342 205.958 134.343 201.136C134.35 194.673 136.914 188.476 141.471 183.906C146.029 179.336 152.208 176.766 158.652 176.759V176.759Z" fill="#1AA3E9"/>
<path d="M40.9679 196.959L41.0782 196.295L66.0612 200.501L65.1078 199.135L64.8098 199.232L64.4787 198.234L51.0008 178.924L51.5459 178.541L63.7394 196.014L57.1649 176.228L57.796 176.006L65.0791 197.92L66.6239 200.133L66.8976 199.945L66.9175 199.888L66.4562 199.42V174.125H67.1183V198.903L67.2838 198.874L67.9106 197.121L67.8643 197.079L67.968 196.959L75.0082 177.295L75.635 177.516L69.1752 195.571L82.1632 180.575L82.6642 181.018L68.555 197.309L68.0386 198.752L71.6448 198.13L90.574 188.506L90.8742 189.099L73.8805 197.745L92.8406 194.476L92.9531 195.14L71.8677 198.776L68.4535 200.512L68.8949 200.954L92.6177 204.496L92.5206 205.16L69.6762 201.762L69.8638 201.953L90.5387 210.86L90.2761 211.473L71.1151 203.217L86.1557 218.434L85.6834 218.903L69.4842 202.524L67.6612 201.738L80.7155 222.323L80.1527 222.682L68.2725 203.936C70.815 210.649 76.6281 226 76.7606 226.398L76.1294 226.62C76.0036 226.241 70.1352 210.738 66.7939 201.919C66.6468 202.291 66.4908 202.676 66.326 203.073L68.299 226.978L67.6369 227.033L65.7721 204.43C62.2696 213.062 57.2752 225.402 57.1472 225.778L56.516 225.557C56.6462 225.163 62.3623 211.059 65.0901 204.332L52.7928 223.839L52.23 223.483L66.2377 201.264L45.3862 215.767L45.0066 215.218L65.3373 201.078L40.9679 196.959ZM67.8312 199.458L68.1401 199.901L69.632 199.142L67.8312 199.458Z" fill="#415DA5"/>
<path d="M62.0301 202.083C61.408 199.439 63.0405 196.79 65.6764 196.166C68.3124 195.542 70.9535 197.179 71.5757 199.823C72.1978 202.467 70.5653 205.116 67.9294 205.74C65.2934 206.364 62.6522 204.726 62.0301 202.083Z" fill="#2C3A64"/>
<path d="M66.7893 229.807C82.6442 229.807 95.5439 216.869 95.5439 200.966C95.5439 185.062 82.6442 172.124 66.7893 172.124C50.9344 172.124 38.0302 185.062 38.0302 200.966C38.0285 204.754 38.7712 208.505 40.2159 212.005C41.6606 215.505 43.7789 218.686 46.4498 221.364C49.1207 224.043 52.2918 226.167 55.7818 227.616C59.2718 229.065 63.0122 229.809 66.7893 229.807V229.807ZM66.7893 176.126C71.6895 176.125 76.4798 177.582 80.5545 180.312C84.6292 183.042 87.8051 186.922 89.6806 191.462C91.5561 196.003 92.047 200.999 91.091 205.819C90.1351 210.639 87.7754 215.067 84.3103 218.542C80.8452 222.017 76.4304 224.383 71.6243 225.341C66.8182 226.3 61.8367 225.807 57.3098 223.926C52.783 222.044 48.9141 218.859 46.1926 214.772C43.471 210.685 42.0191 205.88 42.0204 200.966C42.0275 194.379 44.6393 188.065 49.283 183.408C53.9266 178.751 60.2225 176.132 66.7893 176.126V176.126Z" fill="#2C3A64"/>
<path d="M66.5687 226.542C71.5789 226.542 76.4765 225.052 80.6422 222.261C84.808 219.469 88.0548 215.501 89.9721 210.859C91.8894 206.216 92.3911 201.108 91.4136 196.18C90.4362 191.251 88.0236 186.724 84.4809 183.171C80.9382 179.618 76.4245 177.198 71.5107 176.218C66.5968 175.238 61.5035 175.741 56.8747 177.664C52.2459 179.587 48.2897 182.843 45.5062 187.021C42.7227 191.199 41.237 196.111 41.237 201.136C41.2446 207.872 43.9159 214.33 48.6649 219.093C53.4139 223.856 59.8527 226.535 66.5687 226.542ZM66.5687 176.759C71.3764 176.759 76.0761 178.189 80.0735 180.868C84.071 183.547 87.1865 187.355 89.0262 191.809C90.866 196.264 91.3472 201.166 90.4091 205.895C89.471 210.624 87.1557 214.968 83.756 218.378C80.3563 221.787 76.0249 224.109 71.3095 225.049C66.5942 225.99 61.7066 225.507 57.265 223.661C52.8234 221.816 49.0273 218.69 46.3566 214.681C43.6859 210.672 42.2607 205.958 42.2611 201.136C42.2681 194.673 44.8314 188.476 49.3885 183.906C53.9456 179.336 60.1243 176.766 66.5687 176.759V176.759Z" fill="#1AA3E9"/>
<path d="M129.677 168.096C129.839 167.641 130.174 167.27 130.608 167.062C131.042 166.855 131.541 166.828 131.995 166.989L133.652 167.575C134.297 167.803 134.981 167.899 135.663 167.857C136.345 167.814 137.012 167.635 137.625 167.33C143.669 164.308 151.025 162.779 159.542 162.779H159.849C163.651 162.797 170.455 163.731 173.369 164.164C173.754 164.222 174.105 164.416 174.359 164.712C174.613 165.008 174.753 165.385 174.752 165.776V166.829C174.753 166.901 174.737 166.971 174.707 167.035C174.676 167.1 174.632 167.156 174.577 167.201C174.522 167.246 174.458 167.278 174.389 167.295C174.32 167.312 174.248 167.313 174.179 167.299V167.299C168.794 166.165 150.178 163.093 136.722 171.254C136.533 171.369 136.322 171.44 136.102 171.463C135.883 171.486 135.661 171.46 135.453 171.387L130.41 169.616C130.261 169.567 130.123 169.488 130.005 169.384C129.887 169.28 129.791 169.153 129.722 169.012C129.654 168.87 129.615 168.716 129.607 168.558C129.599 168.401 129.623 168.243 129.677 168.096V168.096Z" fill="#1AA3E9"/>
<path d="M147.942 150.826C147.942 150.826 148.483 148.367 146.947 148.201C145.41 148.035 139.798 149.243 138.302 149.086C136.805 148.929 128.993 147.627 127.622 148.962C126.252 150.297 126.832 151.463 129.575 151.714C132.319 151.964 135.976 152.422 137.013 153.296C138.05 154.17 145.574 156.745 147.942 150.826Z" fill="#058CC1"/>
<path d="M104.793 209.857H107.543L113.334 207.201C112.745 205.352 112.892 203.346 113.745 201.604C114.598 199.861 116.091 198.518 117.91 197.855C119.729 197.192 121.733 197.261 123.502 198.048C125.272 198.835 126.668 200.278 127.4 202.076C128.131 203.873 128.14 205.884 127.425 207.688C126.711 209.492 125.327 210.948 123.565 211.751C121.803 212.554 119.799 212.642 117.974 211.996C116.149 211.35 114.645 210.02 113.776 208.285L110.355 209.848H111.284C111.651 209.85 112.002 209.997 112.261 210.257C112.52 210.518 112.667 210.87 112.668 211.238C112.667 211.606 112.52 211.958 112.261 212.218C112.002 212.478 111.651 212.625 111.284 212.626H104.8C104.433 212.625 104.082 212.478 103.822 212.218C103.562 211.958 103.416 211.606 103.414 211.238C103.417 210.873 103.564 210.523 103.822 210.265C104.08 210.006 104.429 209.86 104.793 209.857V209.857Z" fill="#058CC1"/>
<path d="M108.079 202.683C108.079 202.683 107.322 205.414 105.748 205.211C104.175 205.007 103.321 202.147 103.321 202.147L108.079 202.683Z" fill="#CE8E55"/>
<path d="M108.079 210.258H105.848C105.102 210.138 104.55 209.921 103.782 209.815C102.619 209.662 102.085 210.14 101.977 210.258L101.957 210.28H92.4826C92.2442 209.939 92.4826 209.146 92.7033 208.564C92.7783 208.37 92.897 208.196 93.0501 208.055C93.2032 207.914 93.3866 207.81 93.586 207.752C94.5902 207.46 96.5721 207.201 98.3862 205.554C99.4058 204.629 103.314 202.152 103.314 202.152H103.334C103.42 202.152 103.829 202.28 105.605 203.785C106.525 204.56 108.09 202.679 108.09 202.679C108.305 202.876 108.48 203.114 108.604 203.378C108.826 203.83 108.897 204.341 108.807 204.837C108.666 205.693 109.121 207.272 109.487 208.361C109.708 209.011 109.893 209.467 109.893 209.467C109.893 209.467 109.988 210.016 108.079 210.258Z" fill="#1AA3E9"/>
<path d="M108.593 203.383C108.059 203.759 106.936 204.501 106.19 204.598C105.184 204.728 103.303 202.163 103.303 202.163H103.323C103.409 202.163 103.817 202.291 105.594 203.797C106.514 204.571 108.079 202.69 108.079 202.69C108.294 202.885 108.468 203.121 108.593 203.383V203.383Z" fill="#AA3F3A"/>
<path d="M108.079 210.258H105.848C105.102 210.138 104.55 209.921 103.782 209.815C102.619 209.662 102.085 210.141 101.977 210.258L101.957 210.28H92.4827C92.2444 209.939 92.4827 209.147 92.7034 208.565C92.9925 208.308 93.072 209.671 93.2309 209.893C93.3898 210.114 100.955 209.972 101.397 209.654C101.838 209.335 103.145 208.768 104.972 209.211C106.563 209.594 108.909 208.615 109.49 208.356C109.71 209.007 109.896 209.463 109.896 209.463C109.896 209.463 109.988 210.017 108.079 210.258Z" fill="#2C3A64"/>
<path d="M144.274 130.69C144.274 130.69 150.135 143.455 143.038 149.283C135.94 155.111 115.294 163.356 114.972 164.651C114.649 165.946 113.23 187.158 108.068 202.688C108.068 202.688 106.303 203.398 103.312 202.152C101.646 201.455 99.4059 161.172 102.31 157.289C105.215 153.407 121.394 142.308 121.394 142.308L144.274 130.69Z" fill="#2C3A64"/>
<path d="M125.435 87.7819C125.435 87.7819 118.288 94.6437 112.908 94.6437C113.491 93.2562 114.323 91.9876 115.362 90.9007C115.018 90.2234 114.715 89.6014 114.457 89.0458C113.959 87.9998 113.517 86.9277 113.133 85.8341L116.997 79.9949L117.865 78.6846C118.124 79.6199 118.469 80.5292 118.895 81.4005C118.928 81.4647 118.957 81.5289 118.99 81.5909C121.422 86.3697 125.435 87.7819 125.435 87.7819Z" fill="#FFB27D"/>
<path d="M90.5581 140.268C90.5581 140.268 100.785 127.138 101.69 125.98C102.595 124.822 111.643 105.26 111.643 105.26L125.428 104.06C125.428 104.06 110.584 128.225 108.236 131.115C104.358 135.892 93.3609 141.758 93.3609 141.758C93.5816 143.017 92.5708 144.266 90.9994 144.808C89.4281 145.35 89.9489 145.359 88.8499 145.771C87.7508 146.182 87.3535 144.491 87.3535 144.491C86.7091 140.414 90.5581 140.268 90.5581 140.268Z" fill="#FFB27D"/>
<path d="M144.274 130.69C144.47 131.223 143.548 132.171 143.133 132.54C141.395 134.126 139.532 135.568 137.562 136.852C136.202 137.723 134.772 138.48 133.287 139.114C128.902 141.02 123.224 141.695 121.394 142.304C121.204 142.362 121 142.35 120.818 142.271C120.663 142.211 118.816 136.69 116.704 129.654C116.618 129.384 116.525 129.089 116.464 128.811L116.433 128.713C115.598 125.977 114.791 123.071 114.005 120.185C112.29 113.81 110.864 107.586 110.637 103.955C110.37 99.6901 111.8 96.3699 113.255 93.8001L114.471 91.7659C116.376 91.5974 118.166 90.7822 119.547 89.455C121.18 87.8857 122.961 86.1835 123.38 86.3208C128.348 88.0561 133.153 96.3146 136.304 106.439C136.404 106.758 136.503 107.079 136.6 107.402C136.911 108.451 137.207 109.52 137.483 110.6C139.398 118.201 141.897 124.525 143.331 128.204C143.753 129.262 144.082 130.103 144.274 130.69Z" fill="#1AA3E9"/>
<path d="M144.274 130.69C144.47 131.223 143.548 132.171 143.133 132.54C141.395 134.126 139.532 135.568 137.562 136.852C125.744 119.769 126.951 99.1899 126.951 99.1899L136.598 107.404C136.909 108.453 137.205 109.522 137.481 110.603C139.396 118.204 141.895 124.528 143.329 128.206C143.753 129.262 144.082 130.103 144.274 130.69Z" fill="#1AA3E9"/>
<path d="M119.006 81.4998C119.006 81.4998 119.006 81.5308 118.988 81.5905C118.847 82.2834 117.807 86.7855 114.455 89.0455C113.957 87.9995 113.515 86.9274 113.131 85.8337L116.995 79.9946C117.663 80.4133 118.298 80.8832 118.893 81.4002L119.006 81.4998Z" fill="#ED975D"/>
<path d="M110.825 85.9886C110.825 85.9886 119.412 86.2586 119.496 80.8976C119.58 75.5366 120.747 71.9529 115.27 71.5545C109.792 71.1561 108.693 73.1858 108.229 74.9699C107.766 76.754 108.594 85.7805 110.825 85.9886Z" fill="#FFB27D"/>
<path d="M121.555 123.234L121.727 123.715C121.864 124.097 121.666 124.518 121.285 124.655L120.527 124.928C120.146 125.065 119.726 124.866 119.59 124.484L119.418 124.003C119.281 123.621 119.479 123.2 119.86 123.063L120.618 122.79C120.999 122.653 121.419 122.852 121.555 123.234Z" fill="#739CF3"/>
<path d="M118.191 126.072L121.44 135.163C121.547 135.459 121.767 135.701 122.051 135.835C122.335 135.969 122.66 135.986 122.956 135.88L126.397 134.645C126.693 134.538 126.934 134.318 127.068 134.033C127.203 133.748 127.219 133.422 127.114 133.125L123.863 124.032C123.757 123.735 123.538 123.493 123.254 123.359C122.97 123.225 122.645 123.208 122.349 123.314L118.909 124.552C118.613 124.659 118.372 124.879 118.237 125.164C118.103 125.449 118.087 125.775 118.191 126.072V126.072Z" fill="#B2CBFD"/>
<path d="M118.322 126.44L121.44 135.164C121.547 135.46 121.767 135.701 122.051 135.836C122.335 135.97 122.66 135.986 122.956 135.881L126.397 134.646C126.693 134.539 126.934 134.319 127.068 134.034C127.203 133.749 127.219 133.422 127.114 133.125L124.06 124.581C123.539 124.747 122.367 125.163 121.712 125.719C121.056 126.274 119.227 126.403 118.322 126.44Z" fill="#739CF3"/>
<path d="M124.294 125.201L126.332 130.902L120.658 132.942L118.62 127.241L124.294 125.201Z" fill="#415DA5"/>
<path d="M121.052 127.505C122.597 126.555 126.165 126.139 126.165 126.139C126.165 126.139 134.243 115.634 135.481 113.243C136.719 110.853 122.643 103.635 122.149 99.6416C121.654 95.6485 120.866 88.2423 126.563 88.5743C126.563 88.5743 140.12 99.4911 145.529 112.991C145.529 112.991 139.465 124.371 128.851 129.351C128.851 129.351 122.729 133.05 121.661 133.311C120.593 133.572 119.736 132.308 119.355 131.584C118.973 130.86 119.513 128.454 121.052 127.505Z" fill="#FFB27D"/>
<path d="M124.064 104.261C124.064 104.261 129.207 97.3064 134.148 95.9075C134.194 95.8949 134.236 95.8711 134.271 95.8381C134.305 95.8051 134.331 95.764 134.345 95.7185C134.36 95.673 134.363 95.6246 134.355 95.5776C134.346 95.5306 134.326 95.4865 134.296 95.4493C133.17 94.0681 128.884 89.0125 125.08 87.2329C125.08 87.2329 118.373 90.7457 119.227 94.2673C120.081 97.789 124.064 104.261 124.064 104.261Z" fill="#1AA3E9"/>
<path d="M104.244 74.539C103.701 73.6936 103.272 72.7795 102.97 71.8208C102.97 71.8208 104.493 72.9098 106.837 70.5392C109.181 68.1686 113.535 65.1494 117.338 66.8626C117.578 66.9711 117.816 67.084 118.048 67.2279C117.766 66.5709 117.405 65.9509 116.973 65.3818C118.518 66.2008 119.375 68.1597 119.375 68.1597L119.511 68.277C120.471 68.266 122.197 69.3218 122.197 69.3218C121.679 69.0584 121.041 69.1469 120.538 69.2997C122.475 71.5131 123.46 74.4858 122.438 76.5111C120.942 79.4728 120.335 78.7246 119.348 82.306C119.348 82.306 118.05 82.0714 118.024 81.1794C117.997 80.2873 118.951 78.1292 117.395 78.1513C115.839 78.1735 116.247 79.3156 115.464 79.081C114.68 78.8464 115.022 75.8892 111.666 76.3164C108.309 76.7436 105.162 75.9843 104.244 74.539Z" fill="#191919"/>
<path d="M256.236 200.965C256.236 200.801 256.236 200.642 256.26 200.483L235.32 196.959L235.431 196.295L256.371 199.819C256.623 198.76 257.218 197.815 258.063 197.132L245.353 178.928L245.898 178.545L258.092 196.018L251.517 176.232L252.146 176.011L258.973 196.552C259.546 196.268 260.17 196.1 260.809 196.058V174.123H261.471V196.058C261.845 196.082 262.215 196.15 262.574 196.259L269.361 177.294L269.985 177.516L263.526 195.571L276.514 180.575L277.017 181.017L263.479 196.649C264.186 197.034 264.788 197.588 265.232 198.26L265.997 198.13L284.927 188.506L285.227 189.099L268.233 197.745L287.193 194.475L287.306 195.139L266.209 198.765L265.655 199.046C265.912 199.654 266.044 200.307 266.044 200.967C266.044 201.1 266.044 201.229 266.028 201.357L286.955 204.471L286.855 205.135L265.931 202.023C265.887 202.219 265.833 202.413 265.768 202.603L284.876 210.835L284.613 211.448L265.503 203.216V203.236L280.51 218.41L280.038 218.879L265.154 203.827C264.851 204.252 264.483 204.626 264.062 204.934L275.068 222.299L274.507 222.657L263.501 205.293C263.406 205.346 263.307 205.394 263.206 205.441C265.955 212.701 270.992 226.002 271.115 226.374L270.484 226.595C270.374 226.267 265.94 214.547 262.585 205.689C262.123 205.833 261.642 205.907 261.157 205.91C261.076 205.91 260.994 205.91 260.915 205.91L262.654 226.978L261.992 227.033L260.244 205.83C260.035 205.789 259.828 205.735 259.626 205.669C256.165 214.202 251.623 225.42 251.502 225.778L250.871 225.557C250.994 225.183 256.152 212.453 259.008 205.414L258.827 205.321L247.119 223.817L246.558 223.461L258.238 204.934C257.772 204.592 257.37 204.17 257.05 203.688L239.715 215.745L239.335 215.196L256.719 203.106C256.398 202.438 256.233 201.706 256.236 200.965Z" fill="#2C3A64"/>
<path d="M261.14 229.807C268.766 229.807 276.081 226.768 281.474 221.36C286.867 215.951 289.896 208.615 289.896 200.966C289.896 193.316 286.867 185.98 281.474 180.571C276.081 175.163 268.766 172.124 261.14 172.124C245.285 172.124 232.383 185.062 232.383 200.966C232.381 204.754 233.124 208.505 234.568 212.005C236.013 215.505 238.131 218.685 240.802 221.363C243.472 224.042 246.643 226.166 250.133 227.615C253.622 229.064 257.363 229.809 261.14 229.807V229.807ZM261.14 176.126C266.04 176.124 270.832 177.58 274.907 180.31C278.983 183.04 282.16 186.92 284.036 191.461C285.913 196.002 286.404 200.999 285.448 205.82C284.493 210.641 282.133 215.069 278.667 218.545C275.202 222.02 270.787 224.387 265.98 225.346C261.173 226.304 256.191 225.811 251.663 223.93C247.136 222.048 243.266 218.862 240.545 214.774C237.823 210.686 236.371 205.881 236.373 200.966C236.381 194.38 238.992 188.066 243.635 183.41C248.278 178.753 254.573 176.134 261.14 176.126V176.126Z" fill="#2C3A64"/>
<path d="M260.921 226.542C265.931 226.542 270.829 225.052 274.995 222.261C279.161 219.469 282.407 215.501 284.325 210.859C286.242 206.216 286.744 201.108 285.766 196.18C284.789 191.251 282.376 186.724 278.833 183.171C275.291 179.618 270.777 177.198 265.863 176.218C260.949 175.238 255.856 175.741 251.227 177.664C246.598 179.587 242.642 182.843 239.859 187.021C237.075 191.199 235.59 196.111 235.59 201.136C235.597 207.872 238.268 214.33 243.017 219.093C247.766 223.856 254.205 226.535 260.921 226.542ZM260.921 176.759C265.729 176.759 270.429 178.189 274.426 180.868C278.423 183.547 281.539 187.355 283.379 191.809C285.219 196.264 285.7 201.166 284.762 205.895C283.824 210.624 281.508 214.968 278.109 218.378C274.709 221.787 270.377 224.109 265.662 225.049C260.947 225.99 256.059 225.507 251.618 223.661C247.176 221.816 243.38 218.69 240.709 214.681C238.038 210.672 236.613 205.958 236.614 201.136C236.621 194.673 239.185 188.477 243.742 183.907C248.299 179.337 254.477 176.766 260.921 176.759V176.759Z" fill="#1AA3E9"/>
<path d="M274.028 163.606C274.231 163.095 274.576 162.653 275.02 162.331C275.465 162.008 275.992 161.82 276.54 161.787C288.954 133.185 289.086 132.959 289.272 132.653L291.068 136.219C291.163 136.062 284.291 151.386 279.385 162.619L280.084 162.9L262.991 199.589L260.221 198.453L274.028 163.606Z" fill="#1AA3E9"/>
<path d="M313.966 71.3554C313.99 71.0057 314.407 67.2516 320.125 67.2716C320.125 67.2716 317.3 67.4929 316.768 68.7214C316.768 68.7214 318.741 67.2627 320.282 67.8139C321.822 68.365 322.635 71.1341 322.61 72.0394C322.586 72.9447 321.611 75.8023 320.624 76.0236C320.226 76.0884 319.818 76.0734 319.426 75.9794C319.69 76.4331 319.929 76.9016 320.141 77.3827C322.248 82.166 319.724 86.666 317.81 86.0861C316.585 85.7142 316.155 87.8214 316.155 87.8214L304.487 77.5996C304.487 77.5996 309.238 68.593 313.966 71.3554Z" fill="#191919"/>
<path d="M317.983 133.118C317.983 133.118 315.833 137.6 313.116 143.816C310.071 150.784 306.312 159.928 304.068 167.363C302.885 171.296 302.125 174.749 302.123 177.151C302.123 177.976 305.29 181.321 306.204 182.598C311.977 190.657 319.863 201.413 319.863 201.413L322.015 200.87C322.015 200.87 319 187.412 314.608 180.692C313.745 179.364 311.311 177.764 311.426 177.618C311.805 177.142 312.75 175.947 314.041 174.244C317.603 169.545 323.782 160.981 327.923 153.015C328.181 152.519 328.43 152.023 328.671 151.532C330.854 147.087 332.295 142.919 332.154 139.834L317.983 133.118Z" fill="#FFB27D"/>
<path d="M323.922 201.395L322.441 202.336C321.893 202.573 321.436 202.661 320.896 202.918C320.057 203.305 319.903 203.85 319.878 203.967C319.877 203.975 319.877 203.983 319.878 203.991L313.586 207.976C313.284 207.849 313.105 207.227 313.01 206.747C312.978 206.586 312.984 206.419 313.027 206.261C313.071 206.102 313.15 205.956 313.26 205.833C313.803 205.215 315.01 204.208 315.524 202.349C315.815 201.306 317.373 198.015 317.373 198.015L317.385 198.002C317.442 197.966 317.766 197.88 319.576 198.13C320.512 198.259 320.768 196.359 320.768 196.359C320.993 196.399 321.208 196.483 321.401 196.605C321.737 196.813 321.998 197.123 322.147 197.49C322.412 198.119 323.381 198.982 324.074 199.545C324.493 199.885 324.811 200.113 324.811 200.113C324.811 200.113 325.1 200.428 323.922 201.395Z" fill="#1AA3E9"/>
<path d="M321.395 196.609C321.198 197.085 320.763 198.05 320.309 198.428C319.695 198.94 317.367 198.023 317.367 198.023L317.378 198.01C317.435 197.975 317.76 197.888 319.569 198.138C320.505 198.267 320.761 196.368 320.761 196.368C320.986 196.406 321.201 196.488 321.395 196.609V196.609Z" fill="#2C3A64"/>
<path d="M323.921 201.395L322.44 202.336C321.893 202.572 321.436 202.661 320.896 202.918C320.057 203.305 319.902 203.85 319.878 203.967C319.877 203.975 319.877 203.983 319.878 203.991L313.586 207.976C313.284 207.849 313.105 207.227 313.01 206.747C313.094 206.455 313.723 207.331 313.919 207.411C314.116 207.491 319.086 204.206 319.242 203.81C319.399 203.414 320.037 202.482 321.434 202.012C322.65 201.594 323.798 199.956 324.082 199.54C324.502 199.881 324.82 200.109 324.82 200.109C324.82 200.109 325.1 200.428 323.921 201.395Z" fill="#2C3A64"/>
<path d="M280.462 155.939L283.796 152.48L283.503 151.876L284.03 152.234V152.247L321.803 177.848L330.22 151.439L333.069 152.354L324.385 179.599L357.467 202.039L317.578 205.517L317.32 202.529L348.798 199.782L323.182 183.336L316.159 205.368L313.328 204.454L314.131 201.933L312.22 203.168L280.462 155.939ZM320.587 181.66L290.216 162.159L314.411 201.032L320.587 181.66Z" fill="#1AA3E9"/>
<path d="M273.256 128.195C273.515 127.352 274.062 126.626 274.8 126.146C275.539 125.666 276.422 125.461 277.296 125.568C278.169 125.675 278.978 126.086 279.58 126.73C280.181 127.374 280.538 128.21 280.588 129.092L297.286 133.297C297.821 132.711 298.529 132.31 299.306 132.152C300.084 131.993 300.891 132.087 301.613 132.418C302.334 132.748 302.932 133.3 303.321 133.993C303.71 134.687 303.87 135.486 303.778 136.276C303.686 137.066 303.347 137.807 302.809 138.392C302.271 138.976 301.562 139.375 300.784 139.53C300.006 139.685 299.199 139.589 298.479 139.256C297.759 138.922 297.162 138.368 296.776 137.673L277.796 132.894C277.154 133.06 276.479 133.053 275.841 132.872C275.202 132.691 274.623 132.344 274.162 131.866C273.701 131.387 273.375 130.795 273.217 130.149C273.058 129.503 273.073 128.827 273.26 128.189L273.256 128.195Z" fill="#058CC1"/>
<path d="M308.031 196.136L302.419 199.387C302.102 199.572 301.87 199.875 301.775 200.231C301.68 200.586 301.729 200.965 301.911 201.284V201.284C302.096 201.603 302.398 201.835 302.752 201.93C303.107 202.026 303.484 201.976 303.803 201.793L309.408 198.544C309.726 198.359 309.958 198.056 310.053 197.7C310.148 197.345 310.099 196.966 309.916 196.647V196.647C309.732 196.331 309.431 196.1 309.078 196.005C308.725 195.909 308.35 195.956 308.031 196.136V196.136Z" fill="#415DA5"/>
<path d="M306.91 198.234L313.99 206.089L314.644 205.521L307.564 197.665L306.91 198.234Z" fill="#415DA5"/>
<path d="M323.948 168.038C324.11 167.584 324.445 167.212 324.879 167.005C325.313 166.797 325.812 166.771 326.266 166.931L327.923 167.516C328.568 167.744 329.251 167.84 329.934 167.798C330.616 167.756 331.283 167.577 331.896 167.272C337.94 164.251 345.296 162.721 353.813 162.721H354.113C357.916 162.739 364.722 163.673 367.635 164.107C368.02 164.165 368.372 164.359 368.625 164.655C368.879 164.951 369.019 165.328 369.019 165.718V166.772C369.019 166.843 369.003 166.913 368.972 166.978C368.942 167.042 368.897 167.099 368.842 167.144C368.787 167.189 368.723 167.221 368.653 167.237C368.584 167.254 368.513 167.256 368.443 167.241V167.241C363.058 166.108 344.442 163.036 330.986 171.197C330.798 171.312 330.586 171.383 330.366 171.406C330.147 171.428 329.925 171.401 329.717 171.327L324.674 169.556C324.526 169.506 324.39 169.427 324.273 169.322C324.155 169.218 324.06 169.092 323.993 168.95C323.925 168.809 323.886 168.655 323.879 168.499C323.871 168.342 323.895 168.185 323.948 168.038V168.038Z" fill="#1AA3E9"/>
<path d="M342.215 150.77C342.215 150.77 342.754 148.311 341.218 148.145C339.682 147.979 334.069 149.188 332.573 149.03C331.077 148.873 323.264 147.572 321.893 148.907C320.523 150.241 321.103 151.408 323.847 151.658C326.59 151.908 330.247 152.366 331.286 153.241C332.326 154.115 339.845 156.689 342.215 150.77Z" fill="#058CC1"/>
<path d="M322.226 204.912C322.227 203.428 321.788 201.977 320.966 200.743C320.144 199.508 318.976 198.546 317.609 197.978C316.242 197.41 314.738 197.261 313.286 197.55C311.835 197.839 310.501 198.554 309.455 199.603C308.408 200.653 307.696 201.99 307.407 203.445C307.118 204.901 307.266 206.41 307.832 207.781C308.398 209.152 309.357 210.324 310.588 211.149C311.818 211.973 313.265 212.414 314.744 212.414C316.728 212.414 318.631 211.623 320.034 210.217C321.437 208.81 322.225 206.902 322.226 204.912V204.912Z" fill="#058CC1"/>
<path d="M350.015 200.965C350.015 200.801 350.015 200.642 350.039 200.483L329.099 196.959L329.209 196.295L350.149 199.819C350.4 198.76 350.995 197.815 351.84 197.132L339.132 178.921L339.677 178.538L351.871 196.012L345.294 176.225L345.925 176.004L352.749 196.552C353.323 196.268 353.947 196.101 354.585 196.058V174.123H355.247V196.058C355.622 196.082 355.992 196.15 356.351 196.259L363.137 177.294L363.764 177.516L357.304 195.571L370.292 180.575L370.793 181.017L357.247 196.642C357.954 197.027 358.556 197.581 358.999 198.254L359.765 198.123L378.694 188.499L378.996 189.092L362.003 197.738L380.961 194.469L381.073 195.133L359.986 198.765L359.434 199.046C359.691 199.654 359.823 200.307 359.822 200.967C359.822 201.1 359.822 201.229 359.805 201.357L380.731 204.471L380.634 205.135L359.708 202.023C359.666 202.22 359.611 202.414 359.544 202.603L378.654 210.829L378.394 211.442L359.284 203.21L359.273 203.23L374.28 218.403L373.808 218.872L358.924 203.821C358.621 204.245 358.253 204.619 357.834 204.927L368.84 222.292L368.279 222.651L357.273 205.286C357.176 205.339 357.077 205.388 356.978 205.434C359.727 212.694 364.761 225.995 364.885 226.367L364.254 226.588C364.146 226.261 359.71 214.541 356.355 205.682C355.893 205.826 355.413 205.901 354.929 205.904H354.684L356.424 226.971L355.761 227.027L354.011 205.824C353.802 205.783 353.596 205.729 353.393 205.662C349.935 214.195 345.393 225.413 345.272 225.772L344.641 225.55C344.764 225.176 349.922 212.447 352.778 205.408L352.594 205.315L340.915 223.839L340.352 223.483L352.034 204.956C351.567 204.614 351.164 204.192 350.844 203.71L333.509 215.767L333.131 215.218L350.513 203.128C350.183 202.455 350.013 201.715 350.015 200.965V200.965Z" fill="#2C3A64"/>
<path d="M354.919 229.807C361.883 229.804 368.609 227.264 373.847 222.661C379.084 218.058 382.478 211.704 383.396 204.78C384.314 197.857 382.694 190.834 378.837 185.018C374.981 179.202 369.15 174.988 362.429 173.16C355.708 171.332 348.553 172.013 342.295 175.077C336.037 178.142 331.101 183.381 328.405 189.821C325.709 196.261 325.436 203.464 327.636 210.09C329.837 216.717 334.362 222.317 340.37 225.849C344.783 228.441 349.805 229.807 354.919 229.807V229.807ZM354.919 176.126C359.819 176.125 364.609 177.582 368.684 180.311C372.758 183.041 375.934 186.922 377.81 191.462C379.685 196.003 380.176 200.999 379.22 205.819C378.264 210.639 375.905 215.067 372.44 218.542C368.974 222.017 364.56 224.383 359.754 225.341C354.947 226.3 349.966 225.807 345.439 223.925C340.912 222.044 337.043 218.858 334.322 214.771C331.6 210.685 330.148 205.88 330.15 200.965C330.157 194.379 332.769 188.065 337.412 183.408C342.056 178.751 348.352 176.132 354.919 176.126V176.126Z" fill="#2C3A64"/>
<path d="M354.697 226.542C359.708 226.543 364.605 225.053 368.771 222.262C372.938 219.47 376.185 215.503 378.102 210.86C380.02 206.218 380.522 201.109 379.545 196.181C378.568 191.253 376.155 186.725 372.613 183.172C369.07 179.619 364.556 177.199 359.642 176.218C354.728 175.238 349.635 175.741 345.006 177.664C340.377 179.587 336.421 182.843 333.637 187.021C330.854 191.199 329.368 196.111 329.368 201.136C329.375 207.872 332.046 214.329 336.794 219.092C341.543 223.855 347.982 226.535 354.697 226.542ZM354.697 176.759C359.505 176.759 364.205 178.189 368.202 180.868C372.2 183.547 375.315 187.355 377.155 191.809C378.995 196.264 379.476 201.166 378.538 205.895C377.6 210.624 375.284 214.968 371.885 218.378C368.485 221.787 364.154 224.109 359.438 225.049C354.723 225.99 349.835 225.507 345.394 223.661C340.952 221.816 337.156 218.69 334.485 214.681C331.815 210.672 330.389 205.958 330.39 201.136C330.397 194.673 332.961 188.477 337.518 183.907C342.075 179.337 348.253 176.766 354.697 176.759V176.759Z" fill="#1AA3E9"/>
<path d="M281.164 127.729C281.164 127.729 283.009 127.122 284.459 127.182C285.909 127.242 287.966 125.894 287.966 125.894C287.966 125.894 295.5 120.96 297.129 119.275C300.627 115.661 303.955 97.0542 307.01 98.4687C307.01 98.4687 311.073 100.762 310.596 106.572C310.119 112.383 304.8 121.54 300.759 123.813C297.795 125.48 289.636 128.018 288.447 128.379C287.103 128.897 285.408 130.179 284.916 130.345C284.37 130.526 282.929 130.011 282.104 130.345C279.089 131.567 279.047 130.617 279.047 130.617C279.075 129.979 279.291 129.364 279.668 128.85C280.044 128.336 280.565 127.945 281.164 127.729V127.729Z" fill="#ED975D"/>
<path d="M307.413 111.524C307.588 112.727 307.909 113.905 308.367 115.032C308.72 115.931 309.13 116.787 309.552 117.677C310.785 120.298 313.694 121.588 313.794 126.626C313.827 128.359 315.268 132.266 314.456 135.097C310.435 149.042 336.746 136.363 335.323 132.662C332.491 125.296 328.446 121.037 328.532 114.97C328.531 114.954 328.531 114.939 328.532 114.923C328.558 114.629 328.598 113.843 328.642 112.801C328.752 110.255 328.896 106.193 328.949 104.137C328.949 104.088 328.949 104.042 328.949 103.998C328.971 103.112 328.997 102.479 329.031 102.311C327.075 93.9641 322.575 93.9286 321.039 93.953C320.47 93.953 319.872 93.9995 319.379 94.0415C318.415 93.4904 316.744 90.9228 315.877 86.7017L315.528 86.85L309.627 89.3645C309.627 89.3645 310.174 91.2791 310.56 93.1074C310.863 94.5373 311.064 95.9141 310.836 96.2904C310.373 96.4586 310.095 96.5671 310.095 96.5671C309.991 96.8017 306.471 104.885 307.413 111.524Z" fill="#FFB27D"/>
<path d="M308.367 115.032C308.72 115.931 309.13 116.787 309.552 117.677C310.786 120.298 313.694 121.588 313.794 126.626L314.065 126.65C324.853 127.496 328.53 114.919 328.53 114.919C328.556 114.625 328.596 113.839 328.64 112.796L309.17 112.83C308.859 113.547 308.591 114.283 308.367 115.032Z" fill="#ED975D"/>
<path d="M309.627 89.36C309.627 89.36 310.174 91.2724 310.561 93.1008C313.99 92.2818 315.147 88.7557 315.535 86.8433L309.627 89.36Z" fill="#ED975D"/>
<path d="M303.429 103.068C303.756 102.2 305.334 98.8733 305.334 98.8733C305.334 98.8733 306.605 97.7842 310.095 96.5602C310.031 96.7616 308.371 102.019 308.861 103.174C309.351 104.329 319.77 101.009 320.361 100.181C320.836 99.5174 320.984 95.9116 321.023 94.5039C321.023 94.1563 321.039 93.9416 321.039 93.9416C321.039 93.9416 324.892 93.5653 327.013 94.5216C326.421 95.7481 325.981 97.0431 325.704 98.3774C325.667 98.57 325.634 98.7626 325.61 98.9574C325.551 99.3634 325.525 99.7735 325.532 100.184C325.554 101.206 326.477 102.036 327.715 103.017C328.101 103.322 328.518 103.641 328.949 103.986C328.949 104.031 328.949 104.077 328.949 104.126C328.874 107.023 328.622 113.898 328.532 114.912C328.532 114.928 328.532 114.943 328.532 114.959C325.038 114.794 321.538 114.914 318.064 115.317C316.663 115.484 315.274 115.735 313.904 116.07C312.39 116.421 310.928 116.964 309.552 117.688L309.397 117.776C309.397 117.776 307.68 114.04 305.811 109.569C305.742 109.405 305.683 109.246 305.628 109.084C305.034 107.313 305.222 105.5 305.508 103.898C304.922 103.406 304.193 103.115 303.429 103.068V103.068Z" fill="#1AA3E9"/>
<path d="M308.839 91.3344C308.839 91.3344 317.016 89.7562 315.959 84.6652C314.902 79.5743 315.244 75.9397 309.978 76.7321C304.712 77.5246 304.105 79.6783 304.046 81.4623C303.986 83.2464 306.685 91.6133 308.839 91.3344Z" fill="#FFB27D"/>
<path d="M309.397 117.765L309.552 117.677C310.928 116.954 312.39 116.41 313.904 116.059C315.274 115.724 316.663 115.473 318.064 115.306C321.537 114.909 325.036 114.794 328.527 114.963C328.527 114.948 328.527 114.932 328.527 114.917C328.618 113.903 328.869 107.028 328.944 104.13C328.944 104.082 328.944 104.035 328.944 103.991C328.514 103.646 328.097 103.327 327.711 103.021C322.416 105.602 312.445 111.156 309.397 117.765Z" fill="#1AA3E9"/>
<path d="M303.697 78.574C304.637 76.7789 305.659 76.9161 306.29 77.2636C310.229 73.8726 313.857 76.9006 313.857 76.9006C314.684 79.0503 316.229 80.8452 318.229 81.9783C318.229 81.9783 316.936 83.2112 313.328 83.0474C312.224 82.9965 311.136 82.4476 310.154 81.7193C311.366 83.0084 312.748 84.1255 314.261 85.0396C309.777 84.0036 306.943 78.6426 306.654 78.0737C306.25 78.6271 305.471 79.8069 305.372 80.8229C305.237 82.2041 305.612 84.9112 304.818 84.9842C304.818 84.9931 302.293 81.2744 303.697 78.574Z" fill="#191919"/>
<path d="M335.583 133.207C335.583 133.207 341.666 142.875 334.149 148.194C326.632 153.513 301.329 156.056 302.569 157.088C306.365 160.244 309.812 165.098 309.631 194.157L307.755 195.126C307.755 195.126 289.713 155.755 290.921 151.063C291.722 147.957 318.04 131.146 335.583 133.207Z" fill="#FFB27D"/>
<path d="M320.993 153.329C320.993 153.329 336.325 150.779 337.907 145.361C339.088 141.306 339.439 139.65 332.489 126.546C332.489 126.546 329.587 132.08 314.432 130.796C314.432 130.796 314.509 131.516 314.509 132.485C314.489 134.097 314.237 136.387 312.979 137.047C312.959 137.067 312.922 137.067 312.902 137.087C310.916 137.999 307.826 139.841 307.356 140.015C307.336 140.009 316.656 141.797 320.993 153.329Z" fill="#35488B"/>
<path d="M312.979 137.04C319.735 135.048 327.545 134.575 327.545 134.517C321.807 133.043 317.614 132.479 314.524 132.479C314.489 134.09 314.237 136.381 312.979 137.04Z" fill="#2D4075"/>
<path d="M312.171 195.567L310.591 196.328C310.022 196.499 309.558 196.534 308.98 196.725C308.097 197.012 307.888 197.535 307.85 197.648C307.85 197.656 307.85 197.664 307.85 197.672L301.139 200.904C300.854 200.744 300.748 200.107 300.711 199.618C300.696 199.453 300.72 199.287 300.781 199.133C300.842 198.979 300.938 198.842 301.062 198.732C301.675 198.183 302.99 197.322 303.71 195.536C304.116 194.54 306.045 191.461 306.045 191.461H306.058C306.12 191.434 306.451 191.384 308.221 191.844C309.135 192.079 309.609 190.219 309.609 190.219C309.828 190.284 310.033 190.393 310.209 190.538C310.52 190.782 310.744 191.119 310.85 191.501C311.039 192.165 311.902 193.128 312.525 193.765C312.902 194.153 313.187 194.416 313.187 194.416C313.187 194.416 313.449 194.741 312.171 195.567Z" fill="#1AA3E9"/>
<path d="M310.209 190.518C309.96 190.96 309.415 191.875 308.921 192.198C308.259 192.64 306.052 191.452 306.052 191.452H306.065C306.127 191.425 306.458 191.374 308.228 191.835C309.141 192.069 309.616 190.21 309.616 190.21C309.832 190.273 310.034 190.377 310.209 190.518Z" fill="#2C3A64"/>
<path d="M312.172 195.567L310.592 196.328C310.022 196.499 309.559 196.534 308.98 196.724C308.098 197.012 307.888 197.535 307.85 197.647C307.85 197.656 307.85 197.664 307.85 197.672L301.139 200.904C300.854 200.744 300.748 200.107 300.711 199.617C300.828 199.336 301.349 200.282 301.536 200.381C301.724 200.481 307.038 197.8 307.239 197.426C307.44 197.052 308.182 196.207 309.625 195.894C310.881 195.62 312.211 194.124 312.534 193.745C312.911 194.132 313.196 194.396 313.196 194.396C313.196 194.396 313.45 194.741 312.172 195.567Z" fill="#2C3A64"/>
<path d="M292.141 130.336C292.141 130.336 293.986 129.729 295.438 129.789C296.89 129.849 298.943 128.501 298.943 128.501C298.943 128.501 313.039 121.748 314.593 119.264C316.619 116.03 320.026 105.098 323.074 98.8846C324.528 95.9185 325.901 94.0149 327.005 94.5262C327.005 94.5262 329.763 95.4006 329.6 101.018C329.6 101.333 329.576 101.662 329.545 102.006C329.011 108.513 322.22 123.903 317.735 126.52C313.251 129.136 299.53 131.018 299.53 131.018C298.089 130.971 296.44 132.762 295.891 132.945C295.341 133.129 293.743 132.74 293.079 132.945C290.033 133.886 290.024 133.218 290.024 133.218C290.053 132.581 290.27 131.967 290.646 131.454C291.023 130.941 291.543 130.552 292.141 130.336V130.336Z" fill="#FFB27D"/>
<path d="M323.083 98.8844C326.835 97.999 329.609 101.018 329.609 101.018C329.772 95.396 327.011 94.5261 327.011 94.5261C325.908 94.0192 324.537 95.9183 323.083 98.8844Z" fill="#1AA3E9"/>
</g>
<defs>
<clipPath id="clip0_1484_18416">
<rect width="348" height="229" fill="white" transform="matrix(-1 0 0 1 348 0)"/>
</clipPath>
</defs>
</svg>
