<svg xmlns="http://www.w3.org/2000/svg" xmlns:xlink="http://www.w3.org/1999/xlink" viewBox="0 0 379.58 416.85"><defs><style>.cls-1{fill:none;}.cls-2{isolation:isolate;}.cls-3,.cls-6{fill:#dc2e45;}.cls-3{opacity:0.17;}.cls-4{fill:#e8b32e;}.cls-5{fill:#ffc833;}.cls-7{fill:#9e2539;}.cls-8{clip-path:url(#clip-path);}.cls-9{fill:#ff4a32;}.cls-10{fill:#fff6f8;}.cls-11{fill:#ededed;}.cls-12{opacity:0.36;mix-blend-mode:multiply;}.cls-13{fill:#fcb790;}.cls-14{fill:#ffd98b;}.cls-15{fill:#8e1616;}.cls-16{fill:#f73c3c;}.cls-17{fill:#fff;}.cls-18{fill:#cecdcc;}</style><clipPath id="clip-path"><polygon class="cls-1" points="328.83 117.68 277.06 104.7 275.22 111.9 275.34 111.93 247.1 222.25 254.39 224.07 282.63 113.76 326.99 124.89 328.83 117.68"/></clipPath></defs><g class="cls-2"><g id="Layer_2" data-name="Layer 2"><g id="Layer_1-2" data-name="Layer 1"><circle class="cls-3" cx="191.41" cy="182.86" r="182.86"/><path class="cls-4" d="M78.92,314,65.47,194.63a5,5,0,0,1,4.41-5.53l10-1.13a4.91,4.91,0,0,1,1.27,0,6,6,0,0,1,2.23,3.72l13.41,118c.31,2.75,2.24,7.44-.5,7.75l-10,1.13a5,5,0,0,1-1.28,0l-1.85-.27A5,5,0,0,1,78.92,314Z"/><rect class="cls-5" x="72.08" y="188.37" width="15.68" height="128.95" rx="1.42" transform="translate(187.66 495.15) rotate(173.57)"/><path class="cls-4" d="M100.42,314.8,81.82,171.67c-.43-3.29,1.44-6.34,4.17-6.81l9.92-1.71a4.22,4.22,0,0,1,1.28,0,7.5,7.5,0,0,1,2.38,4.4l18.5,141.59c.43,3.29,2.57,8.87-.16,9.34L108,320.16a3.92,3.92,0,0,1-1.28,0l-1.86-.25C102.59,319.62,100.77,317.51,100.42,314.8Z"/><path class="cls-5" d="M104,318.89l9.57-1.65c1.64-.29,2.75-2.12,2.5-4.09L97,166.61c-.26-2-1.79-3.35-3.43-3.06L84,165.2a3.51,3.51,0,0,0-2.5,4.08l19,146.54C100.81,317.8,102.34,319.17,104,318.89Z"/><path class="cls-4" d="M112.14,308.2l-4.62-144.26c-.1-3.32,2-6.17,4.81-6.38l10-.74a4.24,4.24,0,0,1,1.28.11,7.47,7.47,0,0,1,1.95,4.6l4.67,142.72c.11,3.32,1.69,9.08-1.07,9.28l-10,.74a4.15,4.15,0,0,1-1.27-.1l-1.83-.44C113.84,313.2,112.23,310.93,112.14,308.2Z"/><path class="cls-5" d="M115.29,312.61l9.69-.71c1.65-.12,2.94-1.84,2.88-3.83l-4.73-147.69c-.06-2-1.46-3.51-3.11-3.38l-9.69.71a3.5,3.5,0,0,0-2.88,3.82l4.73,147.7C112.24,311.22,113.63,312.73,115.29,312.61Z"/><path class="cls-4" d="M132.56,330.8l-4.62-144.26c-.1-3.32,2.05-6.17,4.81-6.38l10-.74a4.24,4.24,0,0,1,1.28.11,7.47,7.47,0,0,1,2,4.6l4.67,142.72c.11,3.32,1.69,9.08-1.07,9.28l-10,.74a4.24,4.24,0,0,1-1.28-.1l-1.82-.44C134.26,335.8,132.65,333.53,132.56,330.8Z"/><path class="cls-5" d="M135.71,335.21l9.69-.71c1.65-.12,2.94-1.84,2.88-3.83L143.55,183c-.06-2-1.46-3.51-3.11-3.38l-9.69.71a3.5,3.5,0,0,0-2.88,3.82l4.73,147.7C132.66,333.82,134.05,335.33,135.71,335.21Z"/><path class="cls-4" d="M151.68,311.15l-3.34-144.29c-.08-3.32,2.1-6.15,4.87-6.33l10-.65a4.15,4.15,0,0,1,1.27.11,7.45,7.45,0,0,1,1.91,4.62l3.42,142.76c.07,3.32,1.61,9.09-1.16,9.27l-10,.65a4.24,4.24,0,0,1-1.28-.11l-1.82-.45C153.34,316.18,151.75,313.89,151.68,311.15Z"/><path class="cls-5" d="M154.79,315.6l9.69-.63a3.52,3.52,0,0,0,2.92-3.8L164,163.44c0-2-1.43-3.52-3.09-3.41l-9.69.63c-1.66.11-3,1.81-2.92,3.8l3.43,147.73C151.75,314.18,153.13,315.71,154.79,315.6Z"/><path class="cls-4" d="M170.8,333.85l-3.34-144.29c-.08-3.32,2.1-6.16,4.87-6.34l10-.65a4.15,4.15,0,0,1,1.27.11,7.45,7.45,0,0,1,1.91,4.62L189,330.06c.07,3.32,1.61,9.09-1.16,9.27l-10,.65a4.24,4.24,0,0,1-1.28-.11l-1.81-.45C172.46,338.87,170.87,336.58,170.8,333.85Z"/><path class="cls-5" d="M173.91,338.29l9.7-.63a3.52,3.52,0,0,0,2.91-3.8L183.1,186.13c0-2-1.43-3.52-3.09-3.41l-9.69.63c-1.66.11-3,1.81-2.92,3.8l3.43,147.73C170.88,336.87,172.26,338.4,173.91,338.29Z"/><path class="cls-4" d="M186.57,324.81l5.26-144.23c.12-3.32,2.46-6,5.23-6l10.07,0a4.14,4.14,0,0,1,1.26.19,7.49,7.49,0,0,1,1.63,4.73l-5.1,142.7c-.12,3.32,1.07,9.17-1.71,9.19l-10.06.05a4.14,4.14,0,0,1-1.26-.19l-1.79-.56C187.92,329.92,186.47,327.54,186.57,324.81Z"/><path class="cls-5" d="M189.4,329.43l9.72-.05c1.66,0,3.06-1.63,3.13-3.62l5.39-147.67c.07-2-1.21-3.6-2.87-3.59l-9.72.05c-1.66,0-3.06,1.63-3.14,3.62l-5.38,147.67C186.45,327.83,187.74,329.44,189.4,329.43Z"/><path class="cls-6" d="M213.64,252c-1.34,2.36-19.5,34.12-57.48,36.42a74,74,0,0,1-66.93-34.63c-.6-1-1.55-1.42-2.11-2.44,6.79,51.61,8.81,102.19,15.59,153.8,35.71,0,96.31.06,132,.06C222.49,352.1,214.08,303.24,213.64,252Z"/><path class="cls-7" d="M109.65,405.18l-30.31-.26L60.85,260.6a12,12,0,0,1,10.67-13.19l5.1-.62a12,12,0,0,1,13.52,10.26Z"/><polygon class="cls-6" points="328.83 117.68 277.06 104.7 275.22 111.9 275.34 111.93 247.1 222.25 254.39 224.07 282.63 113.76 326.99 124.89 328.83 117.68"/><g class="cls-8"><path class="cls-9" d="M275.42,201.21c-26.82-19.63-29.6-42.18-29.7-43.13l3.11-.35-1.56.17,1.56-.17c0,.22,2.8,22.19,28.44,41Z"/><path class="cls-9" d="M272.72,211.77c-26.83-19.62-29.6-42.18-29.71-43.13l3.12-.34-1.56.17,1.56-.18c0,.22,2.79,22.19,28.44,41Z"/><path class="cls-9" d="M270,222.34c-26.83-19.63-29.61-42.19-29.71-43.14l3.11-.34-1.55.17,1.55-.17c0,.22,2.8,22.19,28.45,40.95Z"/></g><polygon class="cls-10" points="300.18 394.68 210.99 390.67 201.44 195.03 327.28 200.69 300.18 394.68"/><rect class="cls-11" x="256.33" y="126.65" width="14.61" height="133.92" transform="translate(58.36 448.26) rotate(-87.42)"/><rect class="cls-10" x="258.69" y="148.63" width="10.8" height="69.71" transform="translate(68.91 439.05) rotate(-87.42)"/><g class="cls-12"><path d="M255.55,380c-29.78-37.53-25.37-81.4-17.53-159.55.92-9.11,2.74-20.07,10.9-25.92,6.12-4.39,8-8.44,4.63-12.51a9,9,0,0,1-1.89-4.51l-22.15-1-.37,8.22-32.07-1.44-.66,14.59,5.18.23L211,390.67l57,2.56A108,108,0,0,1,255.55,380Z"/></g><path class="cls-6" d="M320.2,247.85a27.58,27.58,0,0,0-8.09-.57c-16.19,1.33-28.16,16.47-26.74,33.84,1.25,15.27,12.44,27.16,26.13,28.91Z"/><path class="cls-13" d="M180.93,270h56.66a64,64,0,0,1,64,64v0a0,0,0,0,1,0,0H116.91a0,0,0,0,1,0,0v0A64,64,0,0,1,180.93,270Z"/><rect class="cls-14" x="122.73" y="334.03" width="174.58" height="12.63"/><rect class="cls-15" x="116.91" y="346.77" width="188.36" height="14.4"/><rect class="cls-16" x="125.34" y="361.16" width="169.37" height="8.47"/><path class="cls-13" d="M116.91,369.64H301.6a0,0,0,0,1,0,0v12.83a23,23,0,0,1-23,23H144.91a28,28,0,0,1-28-28v-7.83a0,0,0,0,1,0,0Z"/><path class="cls-17" d="M152,297.77c-2.42.55-4.54.26-4.74-.65s1.58-2.08,4-2.63,4.53-.25,4.74.65S154.41,297.22,152,297.77Z"/><path class="cls-17" d="M152.3,323c-2.26,1-4.4,1.12-4.77.27s1.15-2.35,3.42-3.35,4.4-1.12,4.77-.27S154.57,322,152.3,323Z"/><path class="cls-17" d="M179.46,290.78c-2-1.4-3.26-3.16-2.74-3.93s2.61-.24,4.65,1.16,3.26,3.16,2.74,3.92S181.5,292.18,179.46,290.78Z"/><path class="cls-17" d="M193.57,323.13c-2.48.12-4.52-.54-4.56-1.46s1.92-1.78,4.39-1.9,4.51.54,4.56,1.46S196,323,193.57,323.13Z"/><path class="cls-17" d="M232.8,303c-2.21,1.1-4.34,1.31-4.76.48s1.06-2.4,3.27-3.49,4.35-1.32,4.77-.48S235,301.94,232.8,303Z"/><path class="cls-17" d="M232.14,323.13c-2.47.12-4.51-.54-4.56-1.46s1.93-1.78,4.4-1.9,4.51.54,4.55,1.46S234.61,323,232.14,323.13Z"/><path class="cls-17" d="M254.31,294.56c-2.16-1.21-3.53-2.85-3.08-3.66s2.57-.48,4.73.74,3.53,2.86,3.07,3.66S256.46,295.78,254.31,294.56Z"/><path class="cls-17" d="M271.56,317.84c1.82-1.68,3.81-2.48,4.44-1.79s-.35,2.59-2.17,4.26-3.81,2.48-4.44,1.79S269.73,319.51,271.56,317.84Z"/><path class="cls-17" d="M208.31,291.59c-2-1.4-3.27-3.15-2.74-3.92s2.6-.25,4.64,1.16,3.27,3.15,2.74,3.92S210.35,293,208.31,291.59Z"/><rect class="cls-18" y="404.85" width="379.58" height="12" rx="6"/></g></g></g></svg>