<svg xmlns="http://www.w3.org/2000/svg" viewBox="0 0 386.88 424.07"><defs><style>.cls-1{fill:#fff;}.cls-2{fill:#dbdbe0;}.cls-3,.cls-4{fill:#dc2e45;}.cls-3{opacity:0.17;}.cls-5{fill:#9e2539;}.cls-6{fill:#ffc833;}.cls-7{opacity:0.12;}.cls-8{fill:#d5aa49;}.cls-9{fill:#e8b32e;}.cls-10{fill:#cecdcc;}</style></defs><g id="Layer_2" data-name="Layer 2"><g id="Layer_1-2" data-name="Layer 1"><polyline class="cls-1" points="120.47 275.04 193.46 321.45 266.45 275.04"/><polyline class="cls-2" points="158.51 275.04 193.44 321.45 228.37 275.04"/><circle class="cls-3" cx="193.44" cy="193.44" r="193.44"/><polygon class="cls-4" points="275.11 330.55 279.33 418.26 350.84 414.93 365.48 322.55 275.11 330.55"/><polygon class="cls-5" points="275.11 330.55 279.33 418.26 237.96 415.02 223.5 322.55 275.11 330.55"/><polygon class="cls-4" points="219.34 317.35 221.47 335.19 273.62 342.64 272.93 324.99 219.34 317.35"/><polygon class="cls-4" points="372.14 317.35 368.89 335.19 273.62 342.64 272.93 324.99 372.14 317.35"/><polygon class="cls-4" points="219.34 317.35 272.93 324.99 372.14 317.35 306.77 312.14 219.34 317.35"/><polygon class="cls-6" points="252.51 321.98 337.6 314.6 322.53 313.4 237.95 320 252.51 321.98"/><polygon class="cls-6" points="334.01 320.29 277.62 313.88 267.81 314.44 318.86 321.45 334.01 320.29"/><polygon class="cls-7" points="225.74 335.8 226.47 340.08 275.93 347.57 362.58 339.47 363.24 335.63 275.68 342.48 273.62 342.64 225.74 335.8"/><polygon class="cls-6" points="327.49 411.31 313.82 413.27 318.86 321.45 334.01 320.29 327.49 411.31"/><polygon class="cls-6" points="247.26 413.66 259.36 413.27 252.51 321.98 237.95 320 247.26 413.66"/><path class="cls-6" d="M332.16,290.32c-12.08-10.75-36.42,23.88-36.42,23.88l.69,2.39s28.07-15.36,36.84-16c6.92-.54,6.79,4.64-.41,7.21-6.57,2.34-36.43,8.82-36.43,8.82s-.46.44,22.85-3.31c18.52-3,22.72-6.6,22.83-12.09S337.27,294.87,332.16,290.32Z"/><path class="cls-6" d="M319.28,313.28c17.88-2.87,22.41-6.35,22.8-11.52-3.14-1.93-8.81-1.2-8.81-1.2,6.92-.54,6.79,4.64-.41,7.21-6.57,2.34-36.43,8.82-36.43,8.82h0C296.51,316.63,297.8,316.74,319.28,313.28Z"/><path class="cls-8" d="M313.24,308s-.79-2-4.68-2.31-4-2.4-4-2.4a129.34,129.34,0,0,0-8.78,10.89l.69,2.39s8-4.38,16.8-8.56Z"/><path class="cls-6" d="M259.32,290.32c12.07-10.75,36.42,23.88,36.42,23.88l-.7,2.39s-28.06-15.36-36.83-16c-6.92-.54-6.79,4.64.41,7.21,6.56,2.34,36.42,8.82,36.42,8.82s.47.44-22.85-3.31c-18.52-3-22.71-6.6-22.82-12.09S254.21,294.87,259.32,290.32Z"/><path class="cls-6" d="M272.19,313.28c-17.87-2.87-22.4-6.35-22.79-11.52,3.14-1.93,8.81-1.2,8.81-1.2-6.92-.54-6.79,4.64.41,7.21,6.56,2.34,36.42,8.82,36.42,8.82h0C295,316.63,293.68,316.74,272.19,313.28Z"/><path class="cls-8" d="M278.24,308s.78-2,4.68-2.31,4-2.4,4-2.4a128.36,128.36,0,0,1,8.79,10.89l-.7,2.39s-8-4.38-16.79-8.56Z"/><path class="cls-8" d="M304.36,317.35H286.2a1.14,1.14,0,0,1-1.14-1.14h0a3.72,3.72,0,0,1,3.72-3.71h13a3.71,3.71,0,0,1,3.71,3.71h0A1.13,1.13,0,0,1,304.36,317.35Z"/><polygon class="cls-4" points="112.16 330.55 107.93 418.26 36.42 412.57 21.78 322.55 112.16 330.55"/><polygon class="cls-5" points="112.16 330.55 107.93 418.26 149.3 413.31 163.76 322.55 112.16 330.55"/><polygon class="cls-4" points="167.93 317.35 165.79 335.19 113.65 342.64 114.34 324.99 167.93 317.35"/><polygon class="cls-4" points="15.12 317.35 18.37 335.19 113.65 342.64 114.34 324.99 15.12 317.35"/><polygon class="cls-4" points="167.93 317.35 114.34 324.99 15.12 317.35 80.5 312.14 167.93 317.35"/><polygon class="cls-6" points="134.75 321.98 49.67 314.6 64.73 313.4 149.31 320 134.75 321.98"/><polygon class="cls-6" points="53.25 320.29 109.64 313.88 119.45 314.44 68.4 321.45 53.25 320.29"/><polygon class="cls-7" points="161.52 335.8 160.79 340.08 111.34 347.57 24.68 339.47 24.02 335.63 111.58 342.48 113.65 342.64 161.52 335.8"/><polygon class="cls-6" points="59.77 411.31 73.44 413.27 68.4 321.45 53.25 320.29 59.77 411.31"/><polygon class="cls-6" points="140 414.47 127.9 413.27 134.75 321.98 149.31 320 140 414.47"/><path class="cls-6" d="M55.1,290.32c12.08-10.75,36.42,23.88,36.42,23.88l-.69,2.39s-28.06-15.36-36.84-16c-6.92-.54-6.79,4.64.42,7.21,6.56,2.34,36.42,8.82,36.42,8.82s.46.44-22.85-3.31c-18.52-3-22.72-6.6-22.82-12.09S50,294.87,55.1,290.32Z"/><path class="cls-6" d="M68,313.28c-17.87-2.87-22.4-6.35-22.8-11.52,3.15-1.93,8.81-1.2,8.81-1.2-6.92-.54-6.79,4.64.42,7.21,6.56,2.34,36.42,8.82,36.42,8.82h0C90.75,316.63,89.46,316.74,68,313.28Z"/><path class="cls-8" d="M74,308s.78-2,4.67-2.31,4-2.4,4-2.4a129.34,129.34,0,0,1,8.78,10.89l-.69,2.39s-8-4.38-16.8-8.56Z"/><path class="cls-6" d="M127.94,290.32c-12.07-10.75-36.42,23.88-36.42,23.88l.7,2.39s28.06-15.36,36.84-16c6.91-.54,6.79,4.64-.42,7.21-6.56,2.34-36.42,8.82-36.42,8.82s-.46.44,22.85-3.31c18.52-3,22.71-6.6,22.82-12.09S133.06,294.87,127.94,290.32Z"/><path class="cls-6" d="M115.07,313.28c17.87-2.87,22.4-6.35,22.79-11.52-3.14-1.93-8.8-1.2-8.8-1.2,6.91-.54,6.79,4.64-.42,7.21-6.56,2.34-36.42,8.82-36.42,8.82h0C92.29,316.63,93.58,316.74,115.07,313.28Z"/><path class="cls-8" d="M109,308s-.78-2-4.67-2.31-4-2.4-4-2.4a130.81,130.81,0,0,0-8.79,10.89l.7,2.39s8-4.38,16.79-8.56Z"/><path class="cls-8" d="M82.9,317.35h18.17a1.14,1.14,0,0,0,1.13-1.14h0a3.71,3.71,0,0,0-3.72-3.71h-13a3.71,3.71,0,0,0-3.71,3.71h0A1.14,1.14,0,0,0,82.9,317.35Z"/><polygon class="cls-4" points="120.47 275.04 193.46 286.35 266.45 275.04 193.46 267.57 120.47 275.04"/><polygon class="cls-5" points="156.97 280.69 193.46 286.35 229.96 280.69 193.46 276.96 156.97 280.69"/><polygon class="cls-5" points="193.46 286.35 193.46 421.76 250.19 413.27 266.45 275.04 193.46 286.35"/><polygon class="cls-4" points="193.46 286.35 193.46 423.02 136.73 413.66 120.47 275.04 193.46 286.35"/><path class="cls-9" d="M247.29,386s-7,3.06-8.41,17.64a27.18,27.18,0,0,1-3,10.59l-18.5,4.41a34.61,34.61,0,0,0,5.65-11.86c1.75-7.59,2-9.48,2-9.48s1.18-4.48,13.22-10.58C241.93,384.82,247.29,386,247.29,386Z"/><path class="cls-6" d="M225,397.26a22.8,22.8,0,0,1,11.27-15.35c25.14-12.93,56.1,14.21,56.1,14.21l-15.58,14.81s-14.9-18.36-23.49-21.62A25.52,25.52,0,0,0,225,397.26Z"/><path class="cls-9" d="M139.63,386s6.66,3.81,8.83,18.59c1,6.72,2.54,9.61,2.54,9.61l18.52,4.44a34.53,34.53,0,0,1-5.66-11.86c-1.75-7.59-2-9.48-2-9.48s-1.18-4.48-13.22-10.58C145,384.86,139.63,386,139.63,386Z"/><path class="cls-6" d="M161.89,397.3A22.8,22.8,0,0,0,150.62,382c-25.14-12.93-56.1,14.21-56.1,14.21L110.11,411s15.5-18.1,24.08-21.36A24.49,24.49,0,0,1,161.89,397.3Z"/><path class="cls-6" d="M195.93,194.91s29.78-34.1,44.72-29.61c7.1,2.14,5.75,4.67,13,8,8,3.69,9.73,8.82,9.67,12.94-.12,7.92-1.91,7.89-3.22,20.42C258.14,225.41,195.7,204,195.7,204Z"/><path class="cls-9" d="M251.85,213.75c4-1.92,4.4-7-2.23-12.71-7.88-6.77-53.92,3-53.92,3S234.45,217.29,251.85,213.75Z"/><path class="cls-6" d="M195.93,194.91s-28-35.6-43.11-31.89c-7.21,1.77-6,4.37-13.39,7.31-8.22,3.27-10.17,8.3-10.33,12.42-.3,7.91,1.5,8,2.15,20.56,1,18.83,64.45.7,64.45.7Z"/><path class="cls-9" d="M139.11,210.83c-3.85-2.13-4-7.24,2.89-12.59,8.22-6.35,53.7,5.77,53.7,5.77S156.31,215.26,139.11,210.83Z"/><path class="cls-9" d="M201.87,185l-10.69-.27a6.12,6.12,0,0,0-6.28,5.95l-.44,16.82,22.94.59.43-16.81A6.12,6.12,0,0,0,201.87,185Z"/><polygon class="cls-4" points="274.1 235.69 271.95 212.3 195.79 198.21 195.16 221.09 274.1 235.69"/><polygon class="cls-4" points="115.53 231.33 118.97 208.09 195.79 198.21 195.16 221.09 115.53 231.33"/><polygon class="cls-4" points="274.1 235.69 195.16 221.09 115.53 231.33 194.58 242.07 274.1 235.69"/><polygon class="cls-5" points="157.01 226 195.22 231.19 233.25 228.14 195.16 221.09 157.01 226"/><path class="cls-6" d="M227.17,204s2.76,11,1.22,21.86a72.87,72.87,0,0,1-4.65,17.87l23.12,6.65a51.17,51.17,0,0,0,3.83-23.5,72.11,72.11,0,0,0-3.65-19.2Z"/><path class="cls-6" d="M161.08,202.64s-3.73,12.05-2.66,24.24A81.12,81.12,0,0,0,162.54,247l-26.11,6a57,57,0,0,1-2.87-26.36,80.29,80.29,0,0,1,5.2-21.14Z"/><rect class="cls-10" x="3.97" y="412.07" width="379.58" height="12" rx="6"/></g></g></svg>