<svg xmlns="http://www.w3.org/2000/svg" viewBox="0 0 422.52 426.88"><defs><style>.cls-1,.cls-11{fill:#dc2e45;}.cls-1{opacity:0.17;}.cls-2{fill:#353434;}.cls-3{fill:#3d3b3b;}.cls-4{isolation:isolate;}.cls-5{fill:#f2f2f2;}.cls-15,.cls-6{fill:#fff;}.cls-7{fill:#ffbbb4;}.cls-8{fill:#eaaca9;}.cls-9{fill:#fcd0d0;}.cls-10{fill:#ffc197;}.cls-12{fill:#9e9d9d;}.cls-13{fill:#e0dfdf;}.cls-14{fill:#892133;}.cls-15{font-size:24px;font-family:Montserrat-Regular, Montserrat;}.cls-16{letter-spacing:-0.01em;}.cls-17{letter-spacing:0em;}.cls-18{letter-spacing:-0.01em;}.cls-19{letter-spacing:-0.02em;}.cls-20{letter-spacing:0em;}.cls-21{letter-spacing:-0.01em;}</style></defs><g id="Layer_2" data-name="Layer 2"><g id="Layer_1-2" data-name="Layer 1"><circle class="cls-1" cx="211.09" cy="255" r="171.87"/><path class="cls-2" d="M318.07,329l-.75-6.79-1.8-16.34q-1.12-10.11-2.24-20.21-1-9-2-18c-.37-3.39-.75-6.77-1.12-10.16,0-.2,0-.4-.07-.6-.35-2.48-3.44-3.53-5.59-3.73-.52,0-1,0-1.56,0H115.32c-2.41,0-6.28.86-6.69,3.76-.09.61-.14,1.23-.21,1.84L107.06,271,105,290.08l-2.19,19.78q-.83,7.41-1.64,14.83l-.41,3.71a35.11,35.11,0,0,0-.08,3.84c0,.67,0,1.33,0,2a3.52,3.52,0,0,0,1.28,2.73,7.63,7.63,0,0,0,4.88,1.55H311.61a8.32,8.32,0,0,0,4.72-1.19,3.66,3.66,0,0,0,1.75-2.95c0-.52,0-1,0-1.57A34.41,34.41,0,0,0,318.07,329Z"/><rect class="cls-3" x="111.96" y="136.98" width="194.8" height="116.15" rx="10"/><g class="cls-4"><path class="cls-3" d="M179.52,329.83a4.83,4.83,0,0,1-1.28-.18,3.48,3.48,0,0,1-1-.47,2.26,2.26,0,0,1-.68-.7,1.51,1.51,0,0,1-.23-.85L177,307a1.55,1.55,0,0,1,.28-.82,2.59,2.59,0,0,1,.72-.67,3.73,3.73,0,0,1,1-.45,5.05,5.05,0,0,1,1.26-.16h58.17a5,5,0,0,1,1.25.16,3.94,3.94,0,0,1,1,.45,2.54,2.54,0,0,1,.71.67,1.55,1.55,0,0,1,.28.82l.69,20.62a1.51,1.51,0,0,1-.23.85,2.26,2.26,0,0,1-.68.7,3.48,3.48,0,0,1-1,.47,4.71,4.71,0,0,1-1.28.18H179.52M116.66,302.2a4.75,4.75,0,0,1-1.23-.16,3.34,3.34,0,0,1-1-.45,2,2,0,0,1-.62-.66,1.34,1.34,0,0,1-.17-.81L117.6,261a1.38,1.38,0,0,1,.31-.75,2.56,2.56,0,0,1,.72-.6,4,4,0,0,1,1-.41,5.12,5.12,0,0,1,1.2-.15h177a5.12,5.12,0,0,1,1.2.15,4.26,4.26,0,0,1,1,.41,2.51,2.51,0,0,1,.71.6,1.47,1.47,0,0,1,.32.75l3.93,39.16a1.5,1.5,0,0,1-.17.81,2,2,0,0,1-.62.66,3.53,3.53,0,0,1-1,.45,4.75,4.75,0,0,1-1.23.16H116.66m187-49.07H115.12a9.8,9.8,0,0,0-2.4.29,8,8,0,0,0-2,.81,4.88,4.88,0,0,0-1.43,1.19,2.8,2.8,0,0,0-.64,1.47l-8,72.12a3.08,3.08,0,0,0,.33,1.72,4.16,4.16,0,0,0,1.26,1.4,6.51,6.51,0,0,0,2,.95,8.86,8.86,0,0,0,2.54.35H312a8.79,8.79,0,0,0,2.53-.35,6.4,6.4,0,0,0,2-.95,4,4,0,0,0,1.26-1.4,2.92,2.92,0,0,0,.33-1.72l-8-72.12a2.88,2.88,0,0,0-.64-1.47,5.06,5.06,0,0,0-1.44-1.19,7.83,7.83,0,0,0-2-.81,9.66,9.66,0,0,0-2.39-.29"/><path class="cls-5" d="M117.9,300a2.89,2.89,0,0,1-.74-.09,2.22,2.22,0,0,1-.58-.27,1.28,1.28,0,0,1-.38-.39.84.84,0,0,1-.1-.49l.43-4.38a.89.89,0,0,1,.2-.48,1.52,1.52,0,0,1,.44-.39,2.86,2.86,0,0,1,.64-.27,3,3,0,0,1,.75-.09h6.76a2.81,2.81,0,0,1,.73.09,2.22,2.22,0,0,1,.58.27,1.17,1.17,0,0,1,.38.39.87.87,0,0,1,.11.48l-.38,4.38a1,1,0,0,1-.2.49,1.68,1.68,0,0,1-.44.39,2.78,2.78,0,0,1-.63.27,3.1,3.1,0,0,1-.76.09H117.9m12.56,0a2.81,2.81,0,0,1-.73-.09,2.15,2.15,0,0,1-.59-.27,1.4,1.4,0,0,1-.38-.39.93.93,0,0,1-.11-.49l.37-4.38a1.06,1.06,0,0,1,.19-.48,1.52,1.52,0,0,1,.44-.39,3,3,0,0,1,.63-.27,3,3,0,0,1,.75-.09h6.77a2.81,2.81,0,0,1,.73.09,2.29,2.29,0,0,1,.59.27,1.28,1.28,0,0,1,.38.39.87.87,0,0,1,.11.48l-.32,4.38a.93.93,0,0,1-.19.49,1.41,1.41,0,0,1-.44.39,2.7,2.7,0,0,1-.62.27,3.1,3.1,0,0,1-.76.09h-6.82M143,300a2.94,2.94,0,0,1-.74-.09,2.46,2.46,0,0,1-.59-.27,1.4,1.4,0,0,1-.38-.39.84.84,0,0,1-.11-.49l.31-4.38a.94.94,0,0,1,.18-.48,1.52,1.52,0,0,1,.44-.39,2.7,2.7,0,0,1,.62-.27,3,3,0,0,1,.75-.09h6.76a2.83,2.83,0,0,1,.74.09,2.15,2.15,0,0,1,.59.27,1.21,1.21,0,0,1,.39.39.88.88,0,0,1,.12.48l-.27,4.38a.92.92,0,0,1-.18.49,1.49,1.49,0,0,1-.43.39,2.6,2.6,0,0,1-.63.27,3,3,0,0,1-.75.09H143m12.57,0a2.94,2.94,0,0,1-.74-.09,2.46,2.46,0,0,1-.59-.27,1.32,1.32,0,0,1-.39-.39.85.85,0,0,1-.12-.49l.26-4.38a.93.93,0,0,1,.17-.48,1.62,1.62,0,0,1,.43-.39,2.7,2.7,0,0,1,.62-.27,3,3,0,0,1,.75-.09h81.64a2.94,2.94,0,0,1,.74.09,2.44,2.44,0,0,1,.61.27,1.32,1.32,0,0,1,.42.39.93.93,0,0,1,.17.48l.14,4.38a.87.87,0,0,1-.14.49,1.32,1.32,0,0,1-.39.39,2.54,2.54,0,0,1-.6.27,3,3,0,0,1-.75.09H155.6m88,0a3,3,0,0,1-.75-.09,2.7,2.7,0,0,1-.62-.27,1.63,1.63,0,0,1-.43-.39.89.89,0,0,1-.16-.49l-.15-4.38a.81.81,0,0,1,.13-.48,1.25,1.25,0,0,1,.4-.39,2.37,2.37,0,0,1,.6-.27,2.81,2.81,0,0,1,.73-.09h6.77a2.94,2.94,0,0,1,.74.09,2.7,2.7,0,0,1,.62.27,1.32,1.32,0,0,1,.42.39.78.78,0,0,1,.17.48l.2,4.38a.86.86,0,0,1-.13.49,1.32,1.32,0,0,1-.39.39,2.37,2.37,0,0,1-.6.27,2.83,2.83,0,0,1-.74.09h-6.81m12.56,0a3.08,3.08,0,0,1-.75-.09,2.7,2.7,0,0,1-.62-.27,1.63,1.63,0,0,1-.43-.39,1,1,0,0,1-.17-.49l-.21-4.38a.89.89,0,0,1,.13-.48,1.21,1.21,0,0,1,.39-.39,2.46,2.46,0,0,1,.59-.27,2.89,2.89,0,0,1,.74-.09h6.77a2.94,2.94,0,0,1,.74.09,2.7,2.7,0,0,1,.62.27,1.36,1.36,0,0,1,.43.39.86.86,0,0,1,.18.48l.26,4.38a.86.86,0,0,1-.13.49,1.28,1.28,0,0,1-.38.39,2.37,2.37,0,0,1-.6.27,2.83,2.83,0,0,1-.74.09h-6.82m12.57,0a3,3,0,0,1-.75-.09,2.7,2.7,0,0,1-.62-.27,1.68,1.68,0,0,1-.44-.39,1,1,0,0,1-.18-.49l-.26-4.38a.8.8,0,0,1,.12-.48,1.28,1.28,0,0,1,.38-.39,2.46,2.46,0,0,1,.59-.27,2.89,2.89,0,0,1,.74-.09h6.76a3,3,0,0,1,.75.09,2.6,2.6,0,0,1,.63.27,1.36,1.36,0,0,1,.43.39,1,1,0,0,1,.19.48l.31,4.38a.85.85,0,0,1-.12.49,1.17,1.17,0,0,1-.38.39,2.29,2.29,0,0,1-.59.27,2.94,2.94,0,0,1-.74.09h-6.82m12.57,0a3,3,0,0,1-.75-.09,2.78,2.78,0,0,1-.63-.27,1.68,1.68,0,0,1-.44-.39,1,1,0,0,1-.18-.49l-.32-4.38a.73.73,0,0,1,.11-.48,1.28,1.28,0,0,1,.38-.39,2.22,2.22,0,0,1,.58-.27,2.89,2.89,0,0,1,.74-.09h6.76a3,3,0,0,1,.75.09,2.78,2.78,0,0,1,.63.27,1.52,1.52,0,0,1,.44.39.87.87,0,0,1,.19.48l.37,4.38a.77.77,0,0,1-.11.49,1.17,1.17,0,0,1-.38.39,2.22,2.22,0,0,1-.58.27,2.94,2.94,0,0,1-.74.09h-6.82m12.57,0a3,3,0,0,1-.75-.09,2.86,2.86,0,0,1-.64-.27,1.68,1.68,0,0,1-.44-.39.93.93,0,0,1-.19-.49l-.38-4.38a.73.73,0,0,1,.11-.48,1.14,1.14,0,0,1,.37-.39,2.22,2.22,0,0,1,.58-.27,2.89,2.89,0,0,1,.74-.09H300a3,3,0,0,1,.75.09,2.78,2.78,0,0,1,.63.27,1.57,1.57,0,0,1,.45.39.87.87,0,0,1,.19.48l.43,4.38a.84.84,0,0,1-.1.49,1.24,1.24,0,0,1-.37.39,2.29,2.29,0,0,1-.59.27,2.81,2.81,0,0,1-.73.09h-6.82M118.71,291.5a2.8,2.8,0,0,1-.73-.1,1.93,1.93,0,0,1-.58-.26,1.14,1.14,0,0,1-.37-.39.76.76,0,0,1-.1-.47l.42-4.31a.92.92,0,0,1,.19-.47,1.57,1.57,0,0,1,.45-.39,2.68,2.68,0,0,1,.62-.25,3.08,3.08,0,0,1,.75-.1h6.7a2.8,2.8,0,0,1,.73.1,2.13,2.13,0,0,1,.57.25,1.17,1.17,0,0,1,.38.39.76.76,0,0,1,.1.47l-.37,4.31a.92.92,0,0,1-.19.47,1.52,1.52,0,0,1-.44.39,2.25,2.25,0,0,1-.63.26,2.94,2.94,0,0,1-.74.1h-6.76m12.45,0a2.86,2.86,0,0,1-.73-.1,1.93,1.93,0,0,1-.58-.26,1.14,1.14,0,0,1-.37-.39.76.76,0,0,1-.11-.47l.36-4.31a1,1,0,0,1,.19-.47,1.52,1.52,0,0,1,.44-.39,2.68,2.68,0,0,1,.62-.25,2.94,2.94,0,0,1,.74-.1h6.71a2.8,2.8,0,0,1,.73.1,2.21,2.21,0,0,1,.58.25,1.14,1.14,0,0,1,.37.39.77.77,0,0,1,.12.47l-.32,4.31a.91.91,0,0,1-.18.47,1.52,1.52,0,0,1-.44.39,2.31,2.31,0,0,1-.62.26,3,3,0,0,1-.75.1h-6.76m12.46,0a2.8,2.8,0,0,1-.73-.1,1.93,1.93,0,0,1-.58-.26,1.08,1.08,0,0,1-.38-.39.77.77,0,0,1-.12-.47l.31-4.31a.91.91,0,0,1,.18-.47,1.62,1.62,0,0,1,.43-.39,2.68,2.68,0,0,1,.62-.25,2.94,2.94,0,0,1,.74-.1h6.71a2.8,2.8,0,0,1,.73.1,2.21,2.21,0,0,1,.58.25,1.08,1.08,0,0,1,.38.39.77.77,0,0,1,.12.47l-.26,4.31a.9.9,0,0,1-.17.47,1.62,1.62,0,0,1-.43.39,2.25,2.25,0,0,1-.63.26,2.94,2.94,0,0,1-.74.1h-6.76m12.46,0a2.8,2.8,0,0,1-.73-.1,2,2,0,0,1-.59-.26,1.08,1.08,0,0,1-.38-.39.78.78,0,0,1-.13-.47l.26-4.31a.9.9,0,0,1,.17-.47,1.48,1.48,0,0,1,.43-.39,2.43,2.43,0,0,1,.61-.25,2.94,2.94,0,0,1,.74-.1h6.71a2.86,2.86,0,0,1,.73.1,2.21,2.21,0,0,1,.58.25,1.21,1.21,0,0,1,.39.39.78.78,0,0,1,.13.47l-.2,4.31a.83.83,0,0,1-.18.47,1.44,1.44,0,0,1-.42.39,2.31,2.31,0,0,1-.62.26,3,3,0,0,1-.75.1h-6.75m12.46,0a2.94,2.94,0,0,1-.74-.1,2.11,2.11,0,0,1-.59-.26,1.32,1.32,0,0,1-.39-.39.85.85,0,0,1-.12-.47l.19-4.31a.9.9,0,0,1,.17-.47,1.44,1.44,0,0,1,.42-.39,2.6,2.6,0,0,1,.61-.25,2.94,2.94,0,0,1,.74-.1h6.71a2.86,2.86,0,0,1,.73.1,2.44,2.44,0,0,1,.59.25,1.32,1.32,0,0,1,.39.39.85.85,0,0,1,.13.47l-.15,4.31a.81.81,0,0,1-.16.47,1.44,1.44,0,0,1-.42.39,2.39,2.39,0,0,1-.61.26,3,3,0,0,1-.75.1h-6.75m12.46,0a2.94,2.94,0,0,1-.74-.1,2.18,2.18,0,0,1-.6-.26,1.32,1.32,0,0,1-.39-.39.86.86,0,0,1-.14-.47l.14-4.31a.9.9,0,0,1,.17-.47,1.4,1.4,0,0,1,.41-.39,2.6,2.6,0,0,1,.61-.25,2.94,2.94,0,0,1,.74-.1h6.71a2.86,2.86,0,0,1,.73.1,2.44,2.44,0,0,1,.59.25,1.36,1.36,0,0,1,.4.39.78.78,0,0,1,.13.47l-.09,4.31a.87.87,0,0,1-.15.47,1.32,1.32,0,0,1-.42.39,2.12,2.12,0,0,1-.61.26,2.94,2.94,0,0,1-.74.1H181m12.45,0a2.94,2.94,0,0,1-.74-.1,2,2,0,0,1-.59-.26,1.25,1.25,0,0,1-.4-.39.72.72,0,0,1-.14-.47l.08-4.31a.87.87,0,0,1,.15-.47,1.32,1.32,0,0,1,.42-.39,2.35,2.35,0,0,1,.6-.25,2.86,2.86,0,0,1,.73-.1h6.72a2.86,2.86,0,0,1,.73.1,2.28,2.28,0,0,1,.59.25,1.4,1.4,0,0,1,.41.39.86.86,0,0,1,.14.47l0,4.31a.81.81,0,0,1-.16.47,1.25,1.25,0,0,1-.4.39,2.24,2.24,0,0,1-.61.26,2.94,2.94,0,0,1-.74.1h-6.76m12.46,0a2.94,2.94,0,0,1-.74-.1,2.05,2.05,0,0,1-.6-.26,1.4,1.4,0,0,1-.41-.39.86.86,0,0,1-.14-.47l0-4.31a.87.87,0,0,1,.15-.47,1.4,1.4,0,0,1,.41-.39,2.35,2.35,0,0,1,.6-.25,2.86,2.86,0,0,1,.73-.1h6.71a2.94,2.94,0,0,1,.74.1,2.52,2.52,0,0,1,.6.25,1.4,1.4,0,0,1,.41.39,1,1,0,0,1,.15.47l0,4.31a.8.8,0,0,1-.15.47,1.25,1.25,0,0,1-.4.39,2.12,2.12,0,0,1-.61.26,2.82,2.82,0,0,1-.74.1h-6.75m12.46,0a2.94,2.94,0,0,1-.74-.1,2.24,2.24,0,0,1-.61-.26,1.4,1.4,0,0,1-.41-.39.87.87,0,0,1-.15-.47l0-4.31a.86.86,0,0,1,.14-.47,1.36,1.36,0,0,1,.4-.39,2.52,2.52,0,0,1,.6-.25,2.86,2.86,0,0,1,.73-.1H225a2.94,2.94,0,0,1,.74.1,2.52,2.52,0,0,1,.6.25,1.28,1.28,0,0,1,.41.39.81.81,0,0,1,.16.47l.08,4.31a.79.79,0,0,1-.14.47,1.25,1.25,0,0,1-.4.39,2.05,2.05,0,0,1-.6.26,2.94,2.94,0,0,1-.74.1h-6.75m12.46,0a2.82,2.82,0,0,1-.74-.1,2.12,2.12,0,0,1-.61-.26,1.32,1.32,0,0,1-.42-.39.88.88,0,0,1-.16-.47l-.09-4.31a.86.86,0,0,1,.14-.47,1.25,1.25,0,0,1,.4-.39,2.44,2.44,0,0,1,.59-.25,2.86,2.86,0,0,1,.73-.1h6.71a2.94,2.94,0,0,1,.74.1,2.52,2.52,0,0,1,.6.25,1.32,1.32,0,0,1,.42.39.81.81,0,0,1,.16.47l.14,4.31a.79.79,0,0,1-.14.47,1.21,1.21,0,0,1-.39.39,2.11,2.11,0,0,1-.59.26,2.94,2.94,0,0,1-.74.1h-6.75m12.45,0a2.94,2.94,0,0,1-.74-.1,2.12,2.12,0,0,1-.61-.26,1.32,1.32,0,0,1-.42-.39.82.82,0,0,1-.17-.47l-.15-4.31a.86.86,0,0,1,.14-.47,1.21,1.21,0,0,1,.39-.39,2.44,2.44,0,0,1,.59-.25,2.86,2.86,0,0,1,.73-.1h6.71a2.94,2.94,0,0,1,.74.1,2.78,2.78,0,0,1,.61.25,1.44,1.44,0,0,1,.42.39.9.9,0,0,1,.17.47l.19,4.31a.78.78,0,0,1-.13.47,1.21,1.21,0,0,1-.39.39,1.88,1.88,0,0,1-.59.26,2.8,2.8,0,0,1-.73.1h-6.76m12.46,0a3,3,0,0,1-.75-.1,2.12,2.12,0,0,1-.61-.26,1.48,1.48,0,0,1-.43-.39.9.9,0,0,1-.17-.47l-.2-4.31a.78.78,0,0,1,.13-.47,1.17,1.17,0,0,1,.38-.39,2.44,2.44,0,0,1,.59-.25,2.8,2.8,0,0,1,.73-.1h6.71a2.94,2.94,0,0,1,.74.1,2.6,2.6,0,0,1,.61.25,1.48,1.48,0,0,1,.43.39.9.9,0,0,1,.17.47l.25,4.31a.77.77,0,0,1-.12.47,1.28,1.28,0,0,1-.38.39,2.11,2.11,0,0,1-.59.26,2.8,2.8,0,0,1-.73.1h-6.76m12.46,0a3,3,0,0,1-.75-.1,2.31,2.31,0,0,1-.62-.26,1.48,1.48,0,0,1-.43-.39.91.91,0,0,1-.18-.47L266,286a.85.85,0,0,1,.12-.47,1.21,1.21,0,0,1,.39-.39,2.21,2.21,0,0,1,.58-.25,2.8,2.8,0,0,1,.73-.1h31.44a2.94,2.94,0,0,1,.74.1,2.59,2.59,0,0,1,.63.25,1.52,1.52,0,0,1,.44.39.84.84,0,0,1,.19.47l.42,4.31a.76.76,0,0,1-.1.47,1.14,1.14,0,0,1-.37.39,1.87,1.87,0,0,1-.57.26,2.86,2.86,0,0,1-.73.1H268.2m-148.69-8.34a2.73,2.73,0,0,1-.72-.09,1.93,1.93,0,0,1-.58-.26,1.33,1.33,0,0,1-.37-.38.85.85,0,0,1-.1-.47l.42-4.23a.81.81,0,0,1,.19-.46,1.49,1.49,0,0,1,.44-.38,2.3,2.3,0,0,1,.62-.25,2.92,2.92,0,0,1,.73-.1h6.65a2.72,2.72,0,0,1,.72.1,1.86,1.86,0,0,1,.57.25,1.11,1.11,0,0,1,.37.38.81.81,0,0,1,.11.46l-.37,4.23a.87.87,0,0,1-.19.47,1.6,1.6,0,0,1-.43.38,2.31,2.31,0,0,1-.62.26,3.08,3.08,0,0,1-.75.09h-6.69m12.34,0a2.73,2.73,0,0,1-.72-.09,1.93,1.93,0,0,1-.58-.26,1.33,1.33,0,0,1-.37-.38.86.86,0,0,1-.11-.47l.36-4.23a.89.89,0,0,1,.19-.46,1.34,1.34,0,0,1,.43-.38,2.3,2.3,0,0,1,.62-.25,2.8,2.8,0,0,1,.73-.1h6.65a2.72,2.72,0,0,1,.72.1,1.92,1.92,0,0,1,.58.25,1.11,1.11,0,0,1,.37.38.73.73,0,0,1,.11.46l-.31,4.23a.86.86,0,0,1-.18.47,1.6,1.6,0,0,1-.43.38,2.31,2.31,0,0,1-.62.26,2.94,2.94,0,0,1-.74.09h-6.7m12.35,0a2.73,2.73,0,0,1-.72-.09,1.93,1.93,0,0,1-.58-.26,1.25,1.25,0,0,1-.38-.38.86.86,0,0,1-.11-.47l.3-4.23a.8.8,0,0,1,.18-.46,1.34,1.34,0,0,1,.43-.38,2.11,2.11,0,0,1,.61-.25,2.86,2.86,0,0,1,.73-.1h6.65a2.72,2.72,0,0,1,.72.1,1.92,1.92,0,0,1,.58.25,1.06,1.06,0,0,1,.38.38.74.74,0,0,1,.12.46l-.25,4.23a.94.94,0,0,1-.18.47,1.46,1.46,0,0,1-.43.38,2.12,2.12,0,0,1-.61.26,2.94,2.94,0,0,1-.74.09h-6.7m12.35,0a2.86,2.86,0,0,1-.73-.09,1.93,1.93,0,0,1-.58-.26,1.37,1.37,0,0,1-.38-.38.79.79,0,0,1-.12-.47l.25-4.23a.86.86,0,0,1,.17-.46,1.41,1.41,0,0,1,.42-.38,2.23,2.23,0,0,1,.61-.25,2.92,2.92,0,0,1,.73-.1h6.65a2.72,2.72,0,0,1,.72.1,2,2,0,0,1,.59.25,1.25,1.25,0,0,1,.38.38.75.75,0,0,1,.13.46l-.2,4.23a.93.93,0,0,1-.17.47,1.46,1.46,0,0,1-.43.38,2.12,2.12,0,0,1-.61.26,2.94,2.94,0,0,1-.74.09h-6.69m12.35,0a2.81,2.81,0,0,1-.73-.09,2.11,2.11,0,0,1-.59-.26,1.37,1.37,0,0,1-.38-.38.88.88,0,0,1-.13-.47l.19-4.23a.86.86,0,0,1,.17-.46,1.3,1.3,0,0,1,.42-.38,2.16,2.16,0,0,1,.6-.25,2.94,2.94,0,0,1,.74-.1h6.64a2.86,2.86,0,0,1,.73.1,1.92,1.92,0,0,1,.58.25,1.18,1.18,0,0,1,.39.38.82.82,0,0,1,.13.46l-.14,4.23a.93.93,0,0,1-.17.47,1.51,1.51,0,0,1-.41.38,2.24,2.24,0,0,1-.61.26,2.94,2.94,0,0,1-.74.09H168.9m12.35,0a2.81,2.81,0,0,1-.73-.09,1.88,1.88,0,0,1-.59-.26,1.33,1.33,0,0,1-.4-.38.8.8,0,0,1-.13-.47l.14-4.23a.78.78,0,0,1,.16-.46,1.37,1.37,0,0,1,.41-.38,2.11,2.11,0,0,1,.61-.25,2.8,2.8,0,0,1,.73-.1h6.64a2.8,2.8,0,0,1,.73.1,2.1,2.1,0,0,1,.59.25,1.29,1.29,0,0,1,.39.38.83.83,0,0,1,.14.46l-.09,4.23a.91.91,0,0,1-.16.47,1.51,1.51,0,0,1-.41.38,2.18,2.18,0,0,1-.6.26,2.94,2.94,0,0,1-.74.09h-6.69m12.34,0a2.81,2.81,0,0,1-.73-.09,2.11,2.11,0,0,1-.59-.26,1.33,1.33,0,0,1-.4-.38.89.89,0,0,1-.14-.47l.08-4.23a.85.85,0,0,1,.16-.46,1.16,1.16,0,0,1,.41-.38,2.1,2.1,0,0,1,.59-.25,2.86,2.86,0,0,1,.73-.1h6.65a2.8,2.8,0,0,1,.73.1,2.1,2.1,0,0,1,.59.25,1.22,1.22,0,0,1,.4.38.83.83,0,0,1,.14.46l0,4.23a.82.82,0,0,1-.15.47,1.51,1.51,0,0,1-.41.38,2.05,2.05,0,0,1-.6.26,2.81,2.81,0,0,1-.73.09h-6.7m12.35,0a2.81,2.81,0,0,1-.73-.09,2.05,2.05,0,0,1-.6-.26,1.33,1.33,0,0,1-.4-.38.81.81,0,0,1-.14-.47l0-4.23a.77.77,0,0,1,.15-.46,1.22,1.22,0,0,1,.4-.38,2,2,0,0,1,.6-.25,2.78,2.78,0,0,1,.72-.1h6.65a2.8,2.8,0,0,1,.73.1,2,2,0,0,1,.6.25,1.22,1.22,0,0,1,.4.38.77.77,0,0,1,.15.46l0,4.23a.89.89,0,0,1-.14.47,1.46,1.46,0,0,1-.4.38,2.18,2.18,0,0,1-.6.26,2.94,2.94,0,0,1-.74.09h-6.69m12.35,0a2.81,2.81,0,0,1-.73-.09,2.05,2.05,0,0,1-.6-.26,1.37,1.37,0,0,1-.41-.38.82.82,0,0,1-.15-.47l0-4.23a.83.83,0,0,1,.14-.46,1.22,1.22,0,0,1,.4-.38,2.1,2.1,0,0,1,.59-.25,2.8,2.8,0,0,1,.73-.1h6.64a2.8,2.8,0,0,1,.73.1,2,2,0,0,1,.6.25,1.37,1.37,0,0,1,.41.38.85.85,0,0,1,.16.46l.08,4.23a.89.89,0,0,1-.14.47,1.46,1.46,0,0,1-.4.38,2.05,2.05,0,0,1-.6.26,2.81,2.81,0,0,1-.73.09h-6.69m12.35,0a2.94,2.94,0,0,1-.74-.09,2.18,2.18,0,0,1-.6-.26,1.51,1.51,0,0,1-.41-.38.83.83,0,0,1-.16-.47l-.09-4.23a.83.83,0,0,1,.14-.46,1.29,1.29,0,0,1,.39-.38,2.1,2.1,0,0,1,.59-.25,2.8,2.8,0,0,1,.73-.1h6.64a2.8,2.8,0,0,1,.73.1,2.23,2.23,0,0,1,.61.25,1.37,1.37,0,0,1,.41.38.85.85,0,0,1,.16.46l.13,4.23a.8.8,0,0,1-.13.47,1.29,1.29,0,0,1-.39.38,2.11,2.11,0,0,1-.59.26,2.81,2.81,0,0,1-.73.09h-6.69m12.35,0a2.94,2.94,0,0,1-.74-.09,2.12,2.12,0,0,1-.61-.26,1.56,1.56,0,0,1-.42-.38.83.83,0,0,1-.16-.47l-.15-4.23a.83.83,0,0,1,.14-.46,1.18,1.18,0,0,1,.39-.38,1.92,1.92,0,0,1,.58-.25,2.86,2.86,0,0,1,.73-.1h6.65a2.92,2.92,0,0,1,.73.1,2.16,2.16,0,0,1,.6.25,1.3,1.3,0,0,1,.42.38.86.86,0,0,1,.17.46l.19,4.23a.88.88,0,0,1-.13.47,1.29,1.29,0,0,1-.39.38,1.93,1.93,0,0,1-.58.26,2.81,2.81,0,0,1-.73.09H243m12.34,0a2.94,2.94,0,0,1-.74-.09,2.24,2.24,0,0,1-.61-.26,1.56,1.56,0,0,1-.42-.38.93.93,0,0,1-.17-.47l-.2-4.23a.75.75,0,0,1,.13-.46,1.15,1.15,0,0,1,.38-.38,1.92,1.92,0,0,1,.58-.25,2.78,2.78,0,0,1,.72-.1h6.66a2.92,2.92,0,0,1,.73.1,2.23,2.23,0,0,1,.61.25,1.41,1.41,0,0,1,.42.38.86.86,0,0,1,.17.46l.25,4.23a.79.79,0,0,1-.12.47,1.37,1.37,0,0,1-.38.38,2,2,0,0,1-.58.26,2.86,2.86,0,0,1-.73.09h-6.7m12.35,0a2.94,2.94,0,0,1-.74-.09,2.12,2.12,0,0,1-.61-.26,1.46,1.46,0,0,1-.43-.38.94.94,0,0,1-.18-.47l-.25-4.23a.74.74,0,0,1,.12-.46,1.06,1.06,0,0,1,.38-.38,1.86,1.86,0,0,1,.57-.25,2.8,2.8,0,0,1,.73-.1h6.64a2.94,2.94,0,0,1,.74.1,2.11,2.11,0,0,1,.61.25,1.34,1.34,0,0,1,.43.38.8.8,0,0,1,.18.46l.3,4.23a.86.86,0,0,1-.11.47,1.37,1.37,0,0,1-.38.38,1.93,1.93,0,0,1-.58.26,2.81,2.81,0,0,1-.73.09h-6.69m11.4,0a2.94,2.94,0,0,1-.74-.09,2.12,2.12,0,0,1-.61-.26,1.46,1.46,0,0,1-.43-.38,1,1,0,0,1-.19-.47l-.3-4.23a.81.81,0,0,1,.11-.46,1.21,1.21,0,0,1,.37-.38,2,2,0,0,1,.58-.25,2.72,2.72,0,0,1,.72-.1h19.85a2.92,2.92,0,0,1,.73.1,2.3,2.3,0,0,1,.62.25,1.49,1.49,0,0,1,.44.38.89.89,0,0,1,.19.46l.41,4.23a.77.77,0,0,1-.1.47,1.21,1.21,0,0,1-.37.38,1.87,1.87,0,0,1-.57.26,2.73,2.73,0,0,1-.72.09h-20M120.3,275a2.72,2.72,0,0,1-.72-.1,1.86,1.86,0,0,1-.57-.25,1.09,1.09,0,0,1-.37-.37.74.74,0,0,1-.1-.46l.41-4.16a.81.81,0,0,1,.19-.45,1.42,1.42,0,0,1,.43-.37,2.3,2.3,0,0,1,.62-.25,2.86,2.86,0,0,1,.73-.09h6.59a2.71,2.71,0,0,1,.71.09,1.86,1.86,0,0,1,.57.25,1.06,1.06,0,0,1,.36.37.79.79,0,0,1,.11.45l-.36,4.16a.93.93,0,0,1-.19.46,1.31,1.31,0,0,1-.43.37,2.37,2.37,0,0,1-.61.25,2.94,2.94,0,0,1-.74.1H120.3m12.23,0a2.72,2.72,0,0,1-.72-.1,1.86,1.86,0,0,1-.57-.25,1.19,1.19,0,0,1-.37-.37.74.74,0,0,1-.1-.46l.35-4.16a.88.88,0,0,1,.18-.45,1.42,1.42,0,0,1,.43-.37,2.23,2.23,0,0,1,.61-.25,2.86,2.86,0,0,1,.73-.09h6.59a2.73,2.73,0,0,1,.72.09,2,2,0,0,1,.57.25,1.19,1.19,0,0,1,.37.37.79.79,0,0,1,.11.45l-.31,4.16a.83.83,0,0,1-.18.46,1.38,1.38,0,0,1-.42.37,2.3,2.3,0,0,1-.62.25,2.8,2.8,0,0,1-.73.1h-6.64m12.24,0a2.72,2.72,0,0,1-.72-.1,1.86,1.86,0,0,1-.57-.25,1.22,1.22,0,0,1-.38-.37.83.83,0,0,1-.11-.46l.3-4.16a.8.8,0,0,1,.18-.45,1.27,1.27,0,0,1,.42-.37,2.11,2.11,0,0,1,.61-.25,2.78,2.78,0,0,1,.72-.09h6.59a2.73,2.73,0,0,1,.72.09,2,2,0,0,1,.58.25,1.09,1.09,0,0,1,.37.37.73.73,0,0,1,.12.45l-.25,4.16a.83.83,0,0,1-.18.46,1.27,1.27,0,0,1-.42.37,2.11,2.11,0,0,1-.61.25,2.86,2.86,0,0,1-.73.1h-6.64M157,275a2.72,2.72,0,0,1-.72-.1,2,2,0,0,1-.58-.25,1.09,1.09,0,0,1-.37-.37.76.76,0,0,1-.12-.46l.24-4.16a.86.86,0,0,1,.17-.45,1.38,1.38,0,0,1,.42-.37,2.16,2.16,0,0,1,.6-.25,2.86,2.86,0,0,1,.73-.09H164a2.65,2.65,0,0,1,.71.09,1.92,1.92,0,0,1,.58.25,1,1,0,0,1,.38.37.74.74,0,0,1,.13.45l-.2,4.16a.75.75,0,0,1-.17.46,1.34,1.34,0,0,1-.41.37,2.23,2.23,0,0,1-.61.25,2.86,2.86,0,0,1-.73.1H157m12.24,0a2.78,2.78,0,0,1-.72-.1,1.92,1.92,0,0,1-.58-.25,1.22,1.22,0,0,1-.38-.37.77.77,0,0,1-.13-.46l.19-4.16a.86.86,0,0,1,.17-.45,1.34,1.34,0,0,1,.41-.37,2,2,0,0,1,.6-.25,2.78,2.78,0,0,1,.72-.09h6.59a2.73,2.73,0,0,1,.72.09,1.92,1.92,0,0,1,.58.25,1.12,1.12,0,0,1,.38.37.74.74,0,0,1,.13.45l-.14,4.16a.8.8,0,0,1-.16.46,1.34,1.34,0,0,1-.41.37,2.16,2.16,0,0,1-.6.25,2.86,2.86,0,0,1-.73.1h-6.64m12.24,0a2.78,2.78,0,0,1-.72-.1,2.1,2.1,0,0,1-.59-.25,1.26,1.26,0,0,1-.39-.37.84.84,0,0,1-.13-.46l.13-4.16a.86.86,0,0,1,.17-.45,1.14,1.14,0,0,1,.41-.37,2.1,2.1,0,0,1,.59-.25,2.86,2.86,0,0,1,.73-.09h6.59a2.78,2.78,0,0,1,.72.09,2,2,0,0,1,.58.25,1.16,1.16,0,0,1,.39.37.82.82,0,0,1,.14.45l-.09,4.16a.8.8,0,0,1-.16.46,1.2,1.2,0,0,1-.4.37,2.3,2.3,0,0,1-.6.25,2.86,2.86,0,0,1-.73.1h-6.64m12.24,0a2.86,2.86,0,0,1-.73-.1,1.92,1.92,0,0,1-.58-.25,1.3,1.3,0,0,1-.4-.37.77.77,0,0,1-.13-.46l.07-4.16a.85.85,0,0,1,.16-.45,1.3,1.3,0,0,1,.4-.37,2,2,0,0,1,.6-.25,2.73,2.73,0,0,1,.72-.09h6.59a2.73,2.73,0,0,1,.72.09,2.1,2.1,0,0,1,.59.25,1.16,1.16,0,0,1,.39.37.76.76,0,0,1,.15.45l0,4.16a.79.79,0,0,1-.15.46,1.2,1.2,0,0,1-.4.37,2.1,2.1,0,0,1-.59.25,2.86,2.86,0,0,1-.73.1h-6.64M206,275a2.86,2.86,0,0,1-.73-.1,2.1,2.1,0,0,1-.59-.25,1.16,1.16,0,0,1-.39-.37.79.79,0,0,1-.15-.46l0-4.16a.82.82,0,0,1,.14-.45,1.3,1.3,0,0,1,.4-.37,2.1,2.1,0,0,1,.59-.25,2.78,2.78,0,0,1,.72-.09h6.59a2.86,2.86,0,0,1,.73.09,2.1,2.1,0,0,1,.59.25,1.3,1.3,0,0,1,.4.37.83.83,0,0,1,.15.45l0,4.16a.79.79,0,0,1-.15.46,1.16,1.16,0,0,1-.39.37,2,2,0,0,1-.6.25,2.78,2.78,0,0,1-.72.1H206m12.24,0a2.86,2.86,0,0,1-.73-.1,2.1,2.1,0,0,1-.59-.25,1.2,1.2,0,0,1-.4-.37.79.79,0,0,1-.15-.46l0-4.16a.75.75,0,0,1,.14-.45,1.16,1.16,0,0,1,.39-.37,2.1,2.1,0,0,1,.59-.25,2.73,2.73,0,0,1,.72-.09h6.59a2.78,2.78,0,0,1,.72.09,2.16,2.16,0,0,1,.6.25,1.3,1.3,0,0,1,.4.37.85.85,0,0,1,.16.45l.07,4.16a.77.77,0,0,1-.13.46,1.3,1.3,0,0,1-.4.37,2.1,2.1,0,0,1-.59.25,2.78,2.78,0,0,1-.72.1h-6.64m12.24,0a2.86,2.86,0,0,1-.73-.1,2.3,2.3,0,0,1-.6-.25,1.3,1.3,0,0,1-.4-.37.88.88,0,0,1-.16-.46l-.08-4.16a.74.74,0,0,1,.13-.45,1.26,1.26,0,0,1,.39-.37,2,2,0,0,1,.58-.25,2.78,2.78,0,0,1,.72-.09h6.59a2.86,2.86,0,0,1,.73.09,2.1,2.1,0,0,1,.59.25,1.34,1.34,0,0,1,.41.37.77.77,0,0,1,.16.45l.13,4.16a.77.77,0,0,1-.13.46,1.16,1.16,0,0,1-.39.37,1.92,1.92,0,0,1-.58.25,2.78,2.78,0,0,1-.72.1h-6.64m12.24,0a2.86,2.86,0,0,1-.73-.1,2.16,2.16,0,0,1-.6-.25,1.38,1.38,0,0,1-.42-.37.88.88,0,0,1-.16-.46l-.14-4.16a.81.81,0,0,1,.13-.45,1.16,1.16,0,0,1,.39-.37,1.92,1.92,0,0,1,.58-.25,2.73,2.73,0,0,1,.72-.09h6.59a2.78,2.78,0,0,1,.72.09,2,2,0,0,1,.6.25,1.38,1.38,0,0,1,.42.37.85.85,0,0,1,.16.45l.19,4.16a.77.77,0,0,1-.13.46,1.12,1.12,0,0,1-.38.37,1.92,1.92,0,0,1-.58.25,2.78,2.78,0,0,1-.72.1h-6.64m12.24,0a2.8,2.8,0,0,1-.73-.1,2.23,2.23,0,0,1-.61-.25,1.51,1.51,0,0,1-.42-.37.8.8,0,0,1-.16-.46l-.2-4.16a.74.74,0,0,1,.13-.45,1.09,1.09,0,0,1,.37-.37,2,2,0,0,1,.58-.25,2.73,2.73,0,0,1,.72-.09h6.59a2.86,2.86,0,0,1,.73.09,2.16,2.16,0,0,1,.6.25,1.27,1.27,0,0,1,.42.37.86.86,0,0,1,.17.45l.24,4.16a.76.76,0,0,1-.12.46,1.09,1.09,0,0,1-.37.37,2,2,0,0,1-.58.25,2.72,2.72,0,0,1-.72.1h-6.64m12.24,0a2.8,2.8,0,0,1-.73-.1,2.11,2.11,0,0,1-.61-.25,1.27,1.27,0,0,1-.42-.37.83.83,0,0,1-.18-.46l-.25-4.16a.73.73,0,0,1,.12-.45,1.19,1.19,0,0,1,.37-.37,2,2,0,0,1,.58-.25,2.71,2.71,0,0,1,.71-.09h6.59a2.81,2.81,0,0,1,.73.09,2.11,2.11,0,0,1,.61.25,1.27,1.27,0,0,1,.42.37.8.8,0,0,1,.18.45l.3,4.16a.83.83,0,0,1-.11.46,1.22,1.22,0,0,1-.38.37,1.86,1.86,0,0,1-.57.25,2.8,2.8,0,0,1-.73.1h-6.63m12.24,0a2.8,2.8,0,0,1-.73-.1,2.3,2.3,0,0,1-.62-.25,1.38,1.38,0,0,1-.42-.37.83.83,0,0,1-.18-.46l-.31-4.16a.79.79,0,0,1,.11-.45,1.19,1.19,0,0,1,.37-.37,2,2,0,0,1,.57-.25,2.73,2.73,0,0,1,.72-.09h6.59a2.92,2.92,0,0,1,.73.09,2.37,2.37,0,0,1,.61.25,1.42,1.42,0,0,1,.43.37.88.88,0,0,1,.18.45l.35,4.16a.74.74,0,0,1-.1.46,1.19,1.19,0,0,1-.37.37,1.92,1.92,0,0,1-.58.25,2.72,2.72,0,0,1-.72.1h-6.63m12.24,0a2.94,2.94,0,0,1-.74-.1,2.37,2.37,0,0,1-.61-.25,1.47,1.47,0,0,1-.44-.37.91.91,0,0,1-.18-.46l-.36-4.16a.71.71,0,0,1,.1-.45,1.19,1.19,0,0,1,.37-.37,1.86,1.86,0,0,1,.57-.25,2.71,2.71,0,0,1,.71-.09h6.59a2.81,2.81,0,0,1,.73.09,2.3,2.3,0,0,1,.62.25,1.56,1.56,0,0,1,.43.37.89.89,0,0,1,.19.45l.4,4.16a.74.74,0,0,1-.1.46,1.06,1.06,0,0,1-.36.37,1.86,1.86,0,0,1-.57.25,2.72,2.72,0,0,1-.72.1h-6.63m-170.58-8.05a2.6,2.6,0,0,1-.71-.09,2.13,2.13,0,0,1-.57-.25,1.06,1.06,0,0,1-.36-.37.71.71,0,0,1-.1-.45l.4-4.09a.85.85,0,0,1,.18-.44,1.63,1.63,0,0,1,.44-.37,2.43,2.43,0,0,1,.61-.24,2.78,2.78,0,0,1,.72-.09h6.53a2.65,2.65,0,0,1,.71.09,2.2,2.2,0,0,1,.56.24,1.15,1.15,0,0,1,.36.37.76.76,0,0,1,.11.44l-.36,4.09a.8.8,0,0,1-.18.45,1.42,1.42,0,0,1-.43.37,2.43,2.43,0,0,1-.61.25,2.78,2.78,0,0,1-.72.09h-6.58m12.13,0a2.73,2.73,0,0,1-.72-.09,2.21,2.21,0,0,1-.56-.25,1.09,1.09,0,0,1-.37-.37.71.71,0,0,1-.1-.45l.34-4.09a.94.94,0,0,1,.18-.44,1.58,1.58,0,0,1,.43-.37,2.51,2.51,0,0,1,.6-.24,2.84,2.84,0,0,1,.72-.09h6.54a2.6,2.6,0,0,1,.71.09,2.13,2.13,0,0,1,.57.24,1.26,1.26,0,0,1,.36.37.64.64,0,0,1,.11.44l-.3,4.09a.86.86,0,0,1-.17.45,1.42,1.42,0,0,1-.43.37,2.52,2.52,0,0,1-.6.25,2.86,2.86,0,0,1-.73.09H133.2m12.13,0a2.65,2.65,0,0,1-.71-.09,2.13,2.13,0,0,1-.57-.25,1.09,1.09,0,0,1-.37-.37.66.66,0,0,1-.11-.45l.29-4.09a.83.83,0,0,1,.17-.44,1.69,1.69,0,0,1,.42-.37,2.69,2.69,0,0,1,.6-.24,2.86,2.86,0,0,1,.73-.09h6.53a2.71,2.71,0,0,1,.71.09,2.13,2.13,0,0,1,.57.24,1.19,1.19,0,0,1,.37.37.7.7,0,0,1,.12.44l-.25,4.09a.86.86,0,0,1-.17.45,1.27,1.27,0,0,1-.42.37,2.52,2.52,0,0,1-.6.25,2.86,2.86,0,0,1-.73.09h-6.58m12.14,0a2.73,2.73,0,0,1-.72-.09,2.13,2.13,0,0,1-.57-.25,1.22,1.22,0,0,1-.38-.37.89.89,0,0,1-.12-.45l.24-4.09a.83.83,0,0,1,.17-.44,1.53,1.53,0,0,1,.42-.37,2.35,2.35,0,0,1,.6-.24,2.73,2.73,0,0,1,.72-.09h6.53a2.71,2.71,0,0,1,.71.09,2.13,2.13,0,0,1,.57.24,1.34,1.34,0,0,1,.38.37.78.78,0,0,1,.13.44l-.2,4.09a.85.85,0,0,1-.16.45,1.51,1.51,0,0,1-.42.37,2.52,2.52,0,0,1-.6.25,2.86,2.86,0,0,1-.73.09h-6.57m12.13,0a2.73,2.73,0,0,1-.72-.09,2.28,2.28,0,0,1-.57-.25,1.22,1.22,0,0,1-.38-.37.81.81,0,0,1-.13-.45l.19-4.09a.82.82,0,0,1,.16-.44,1.48,1.48,0,0,1,.41-.37,2.51,2.51,0,0,1,.6-.24,2.73,2.73,0,0,1,.72-.09h6.53a2.71,2.71,0,0,1,.71.09,2.35,2.35,0,0,1,.58.24,1.34,1.34,0,0,1,.38.37.87.87,0,0,1,.13.44l-.14,4.09a.94.94,0,0,1-.16.45,1.34,1.34,0,0,1-.41.37,2.52,2.52,0,0,1-.6.25,2.78,2.78,0,0,1-.72.09H169.6m12.14,0a2.73,2.73,0,0,1-.72-.09,2.21,2.21,0,0,1-.58-.25,1.16,1.16,0,0,1-.39-.37.74.74,0,0,1-.13-.45l.13-4.09a.74.74,0,0,1,.16-.44,1.48,1.48,0,0,1,.41-.37,2.43,2.43,0,0,1,.59-.24,2.73,2.73,0,0,1,.72-.09h6.53a2.71,2.71,0,0,1,.71.09,2.2,2.2,0,0,1,.58.24,1.39,1.39,0,0,1,.39.37.78.78,0,0,1,.13.44l-.08,4.09a.85.85,0,0,1-.16.45,1.3,1.3,0,0,1-.4.37,2.35,2.35,0,0,1-.6.25,2.73,2.73,0,0,1-.72.09h-6.57m12.12,0a2.71,2.71,0,0,1-.71-.09,2.44,2.44,0,0,1-.59-.25,1.26,1.26,0,0,1-.39-.37.74.74,0,0,1-.13-.45l.07-4.09a.82.82,0,0,1,.16-.44,1.31,1.31,0,0,1,.4-.37,2.27,2.27,0,0,1,.59-.24,2.71,2.71,0,0,1,.71-.09h6.54a2.71,2.71,0,0,1,.71.09,2.43,2.43,0,0,1,.59.24,1.54,1.54,0,0,1,.39.37.79.79,0,0,1,.14.44l0,4.09a.93.93,0,0,1-.15.45,1.3,1.3,0,0,1-.4.37,2.44,2.44,0,0,1-.59.25,2.78,2.78,0,0,1-.72.09h-6.59m12.14,0a2.73,2.73,0,0,1-.72-.09,2.44,2.44,0,0,1-.59-.25,1.26,1.26,0,0,1-.39-.37.82.82,0,0,1-.14-.45l0-4.09a.73.73,0,0,1,.15-.44,1.39,1.39,0,0,1,.39-.37,2.43,2.43,0,0,1,.59-.24,2.71,2.71,0,0,1,.71-.09h6.53a2.73,2.73,0,0,1,.72.09,2.43,2.43,0,0,1,.59.24,1.43,1.43,0,0,1,.4.37.79.79,0,0,1,.14.44l0,4.09a.75.75,0,0,1-.14.45,1.26,1.26,0,0,1-.39.37,2.44,2.44,0,0,1-.59.25,2.78,2.78,0,0,1-.72.09H206m12.13,0a2.78,2.78,0,0,1-.72-.09,2.44,2.44,0,0,1-.59-.25,1.42,1.42,0,0,1-.4-.37.82.82,0,0,1-.14-.45l0-4.09a.66.66,0,0,1,.14-.44,1.27,1.27,0,0,1,.39-.37,2.2,2.2,0,0,1,.58-.24,2.71,2.71,0,0,1,.71-.09h6.54a2.71,2.71,0,0,1,.71.09,2.43,2.43,0,0,1,.59.24,1.31,1.31,0,0,1,.4.37.82.82,0,0,1,.16.44l.07,4.09a.74.74,0,0,1-.13.45,1.26,1.26,0,0,1-.39.37,2.44,2.44,0,0,1-.59.25,2.73,2.73,0,0,1-.72.09h-6.58m12.14,0a2.73,2.73,0,0,1-.72-.09,2.35,2.35,0,0,1-.6-.25,1.3,1.3,0,0,1-.4-.37.76.76,0,0,1-.15-.45l-.09-4.09a.79.79,0,0,1,.14-.44,1.34,1.34,0,0,1,.38-.37,2.35,2.35,0,0,1,.58-.24,2.71,2.71,0,0,1,.71-.09h6.54a2.71,2.71,0,0,1,.71.09,2.27,2.27,0,0,1,.59.24,1.48,1.48,0,0,1,.41.37.82.82,0,0,1,.16.44l.13,4.09a.81.81,0,0,1-.13.45,1.16,1.16,0,0,1-.39.37,2.21,2.21,0,0,1-.58.25,2.71,2.71,0,0,1-.71.09h-6.58m12.13,0a2.78,2.78,0,0,1-.72-.09,2.52,2.52,0,0,1-.6-.25,1.34,1.34,0,0,1-.41-.37.85.85,0,0,1-.16-.45l-.14-4.09a.78.78,0,0,1,.13-.44,1.34,1.34,0,0,1,.38-.37,2.35,2.35,0,0,1,.58-.24,2.71,2.71,0,0,1,.71-.09h6.54a2.84,2.84,0,0,1,.72.09,2.43,2.43,0,0,1,.59.24,1.48,1.48,0,0,1,.41.37.74.74,0,0,1,.16.44l.19,4.09a.81.81,0,0,1-.13.45,1,1,0,0,1-.38.37,2.13,2.13,0,0,1-.57.25,2.73,2.73,0,0,1-.72.09H242.4m12.13,0a2.78,2.78,0,0,1-.72-.09,2.35,2.35,0,0,1-.6-.25,1.34,1.34,0,0,1-.41-.37.86.86,0,0,1-.17-.45l-.19-4.09a.7.7,0,0,1,.12-.44,1.34,1.34,0,0,1,.38-.37,2.13,2.13,0,0,1,.57-.24,2.71,2.71,0,0,1,.71-.09h6.54a2.84,2.84,0,0,1,.72.09,2.43,2.43,0,0,1,.59.24,1.4,1.4,0,0,1,.42.37.83.83,0,0,1,.17.44l.24,4.09a.8.8,0,0,1-.12.45,1.22,1.22,0,0,1-.38.37,2.13,2.13,0,0,1-.57.25,2.71,2.71,0,0,1-.71.09h-6.59m12.14,0a2.86,2.86,0,0,1-.73-.09,2.52,2.52,0,0,1-.6-.25,1.38,1.38,0,0,1-.42-.37.86.86,0,0,1-.17-.45l-.25-4.09a.77.77,0,0,1,.12-.44,1.19,1.19,0,0,1,.37-.37,2.13,2.13,0,0,1,.57-.24,2.71,2.71,0,0,1,.71-.09h6.53a2.86,2.86,0,0,1,.73.09,2.69,2.69,0,0,1,.6.24,1.53,1.53,0,0,1,.42.37.83.83,0,0,1,.17.44l.3,4.09a.73.73,0,0,1-.12.45,1.09,1.09,0,0,1-.37.37,2.13,2.13,0,0,1-.57.25,2.71,2.71,0,0,1-.71.09h-6.58m12.13,0a2.78,2.78,0,0,1-.72-.09,2.43,2.43,0,0,1-.61-.25,1.27,1.27,0,0,1-.42-.37.8.8,0,0,1-.18-.45l-.3-4.09a.76.76,0,0,1,.11-.44,1.19,1.19,0,0,1,.37-.37,2.2,2.2,0,0,1,.56-.24,2.71,2.71,0,0,1,.71-.09h6.53a2.86,2.86,0,0,1,.73.09,2.51,2.51,0,0,1,.6.24,1.58,1.58,0,0,1,.43.37.85.85,0,0,1,.18.44l.35,4.09a.79.79,0,0,1-.11.45,1.09,1.09,0,0,1-.37.37,2.13,2.13,0,0,1-.57.25,2.6,2.6,0,0,1-.71.09H278.8m12.14,0a2.81,2.81,0,0,1-.73-.09,2.43,2.43,0,0,1-.61-.25,1.31,1.31,0,0,1-.43-.37.89.89,0,0,1-.19-.45l-.35-4.09a.64.64,0,0,1,.11-.44,1.15,1.15,0,0,1,.36-.37,2.2,2.2,0,0,1,.56-.24,2.71,2.71,0,0,1,.71-.09h6.53a2.86,2.86,0,0,1,.73.09,2.51,2.51,0,0,1,.6.24,1.44,1.44,0,0,1,.43.37.79.79,0,0,1,.19.44l.4,4.09a.71.71,0,0,1-.1.45,1.06,1.06,0,0,1-.36.37,2.21,2.21,0,0,1-.56.25,2.73,2.73,0,0,1-.72.09h-6.57m6.94-7.87h-177a5.12,5.12,0,0,0-1.2.15,4,4,0,0,0-1,.41,2.56,2.56,0,0,0-.72.6,1.38,1.38,0,0,0-.31.75l-3.93,39.16a1.34,1.34,0,0,0,.17.81,2,2,0,0,0,.62.66,3.34,3.34,0,0,0,1,.45,4.75,4.75,0,0,0,1.23.16h185.4a4.75,4.75,0,0,0,1.23-.16,3.53,3.53,0,0,0,1-.45,2,2,0,0,0,.62-.66,1.5,1.5,0,0,0,.17-.81L301.13,261a1.47,1.47,0,0,0-.32-.75,2.51,2.51,0,0,0-.71-.6,4.26,4.26,0,0,0-1-.41,5.12,5.12,0,0,0-1.2-.15"/><path class="cls-3" d="M128.21,260.53h-6.53a2.78,2.78,0,0,0-.72.09,2.43,2.43,0,0,0-.61.24,1.63,1.63,0,0,0-.44.37.85.85,0,0,0-.18.44l-.4,4.09a.71.71,0,0,0,.1.45,1.06,1.06,0,0,0,.36.37,2.13,2.13,0,0,0,.57.25,2.6,2.6,0,0,0,.71.09h6.58a2.78,2.78,0,0,0,.72-.09,2.43,2.43,0,0,0,.61-.25,1.42,1.42,0,0,0,.43-.37.8.8,0,0,0,.18-.45l.36-4.09a.76.76,0,0,0-.11-.44,1.15,1.15,0,0,0-.36-.37,2.2,2.2,0,0,0-.56-.24,2.65,2.65,0,0,0-.71-.09"/><path class="cls-3" d="M140.26,260.53h-6.54a2.84,2.84,0,0,0-.72.09,2.51,2.51,0,0,0-.6.24,1.58,1.58,0,0,0-.43.37.94.94,0,0,0-.18.44l-.34,4.09a.71.71,0,0,0,.1.45,1.09,1.09,0,0,0,.37.37,2.21,2.21,0,0,0,.56.25,2.73,2.73,0,0,0,.72.09h6.58a2.86,2.86,0,0,0,.73-.09,2.52,2.52,0,0,0,.6-.25,1.42,1.42,0,0,0,.43-.37.86.86,0,0,0,.17-.45l.3-4.09a.64.64,0,0,0-.11-.44,1.26,1.26,0,0,0-.36-.37,2.13,2.13,0,0,0-.57-.24,2.6,2.6,0,0,0-.71-.09"/><path class="cls-3" d="M152.31,260.53h-6.53a2.86,2.86,0,0,0-.73.09,2.69,2.69,0,0,0-.6.24,1.69,1.69,0,0,0-.42.37.83.83,0,0,0-.17.44l-.29,4.09a.66.66,0,0,0,.11.45,1.09,1.09,0,0,0,.37.37,2.13,2.13,0,0,0,.57.25,2.65,2.65,0,0,0,.71.09h6.58a2.86,2.86,0,0,0,.73-.09,2.52,2.52,0,0,0,.6-.25,1.27,1.27,0,0,0,.42-.37.86.86,0,0,0,.17-.45l.25-4.09a.7.7,0,0,0-.12-.44,1.19,1.19,0,0,0-.37-.37,2.13,2.13,0,0,0-.57-.24,2.71,2.71,0,0,0-.71-.09"/><path class="cls-3" d="M164.36,260.53h-6.53a2.73,2.73,0,0,0-.72.09,2.35,2.35,0,0,0-.6.24,1.53,1.53,0,0,0-.42.37.83.83,0,0,0-.17.44l-.24,4.09a.89.89,0,0,0,.12.45,1.22,1.22,0,0,0,.38.37,2.13,2.13,0,0,0,.57.25,2.73,2.73,0,0,0,.72.09H164a2.86,2.86,0,0,0,.73-.09,2.52,2.52,0,0,0,.6-.25,1.51,1.51,0,0,0,.42-.37.85.85,0,0,0,.16-.45l.2-4.09a.78.78,0,0,0-.13-.44,1.34,1.34,0,0,0-.38-.37,2.13,2.13,0,0,0-.57-.24,2.71,2.71,0,0,0-.71-.09"/><path class="cls-3" d="M176.41,260.53h-6.53a2.73,2.73,0,0,0-.72.09,2.51,2.51,0,0,0-.6.24,1.48,1.48,0,0,0-.41.37.82.82,0,0,0-.16.44l-.19,4.09a.81.81,0,0,0,.13.45,1.22,1.22,0,0,0,.38.37,2.28,2.28,0,0,0,.57.25,2.73,2.73,0,0,0,.72.09h6.58a2.78,2.78,0,0,0,.72-.09,2.52,2.52,0,0,0,.6-.25,1.34,1.34,0,0,0,.41-.37.94.94,0,0,0,.16-.45l.14-4.09a.87.87,0,0,0-.13-.44,1.34,1.34,0,0,0-.38-.37,2.35,2.35,0,0,0-.58-.24,2.71,2.71,0,0,0-.71-.09"/><path class="cls-3" d="M188.46,260.53h-6.53a2.73,2.73,0,0,0-.72.09,2.43,2.43,0,0,0-.59.24,1.48,1.48,0,0,0-.41.37.74.74,0,0,0-.16.44l-.13,4.09a.74.74,0,0,0,.13.45,1.16,1.16,0,0,0,.39.37,2.21,2.21,0,0,0,.58.25,2.73,2.73,0,0,0,.72.09h6.57a2.73,2.73,0,0,0,.72-.09,2.35,2.35,0,0,0,.6-.25,1.3,1.3,0,0,0,.4-.37.85.85,0,0,0,.16-.45l.08-4.09a.78.78,0,0,0-.13-.44,1.39,1.39,0,0,0-.39-.37,2.2,2.2,0,0,0-.58-.24,2.71,2.71,0,0,0-.71-.09"/><path class="cls-3" d="M200.51,260.53H194a2.71,2.71,0,0,0-.71.09,2.27,2.27,0,0,0-.59.24,1.31,1.31,0,0,0-.4.37.82.82,0,0,0-.16.44l-.07,4.09a.74.74,0,0,0,.13.45,1.26,1.26,0,0,0,.39.37,2.44,2.44,0,0,0,.59.25,2.71,2.71,0,0,0,.71.09h6.59a2.78,2.78,0,0,0,.72-.09,2.44,2.44,0,0,0,.59-.25,1.3,1.3,0,0,0,.4-.37.93.93,0,0,0,.15-.45l0-4.09a.79.79,0,0,0-.14-.44,1.54,1.54,0,0,0-.39-.37,2.43,2.43,0,0,0-.59-.24,2.71,2.71,0,0,0-.71-.09"/><path class="cls-3" d="M212.55,260.53H206a2.71,2.71,0,0,0-.71.09,2.43,2.43,0,0,0-.59.24,1.39,1.39,0,0,0-.39.37.73.73,0,0,0-.15.44l0,4.09a.82.82,0,0,0,.14.45,1.26,1.26,0,0,0,.39.37,2.44,2.44,0,0,0,.59.25,2.73,2.73,0,0,0,.72.09h6.58a2.78,2.78,0,0,0,.72-.09,2.44,2.44,0,0,0,.59-.25,1.26,1.26,0,0,0,.39-.37.75.75,0,0,0,.14-.45l0-4.09a.79.79,0,0,0-.14-.44,1.43,1.43,0,0,0-.4-.37,2.43,2.43,0,0,0-.59-.24,2.73,2.73,0,0,0-.72-.09"/><path class="cls-3" d="M224.61,260.53h-6.54a2.71,2.71,0,0,0-.71.09,2.2,2.2,0,0,0-.58.24,1.27,1.27,0,0,0-.39.37.66.66,0,0,0-.14.44l0,4.09a.82.82,0,0,0,.14.45,1.42,1.42,0,0,0,.4.37,2.44,2.44,0,0,0,.59.25,2.78,2.78,0,0,0,.72.09h6.58a2.73,2.73,0,0,0,.72-.09,2.44,2.44,0,0,0,.59-.25,1.26,1.26,0,0,0,.39-.37.74.74,0,0,0,.13-.45l-.07-4.09a.82.82,0,0,0-.16-.44,1.31,1.31,0,0,0-.4-.37,2.43,2.43,0,0,0-.59-.24,2.71,2.71,0,0,0-.71-.09"/><path class="cls-3" d="M236.66,260.53h-6.54a2.71,2.71,0,0,0-.71.09,2.35,2.35,0,0,0-.58.24,1.34,1.34,0,0,0-.38.37.79.79,0,0,0-.14.44l.09,4.09a.76.76,0,0,0,.15.45,1.3,1.3,0,0,0,.4.37,2.35,2.35,0,0,0,.6.25,2.73,2.73,0,0,0,.72.09h6.58a2.71,2.71,0,0,0,.71-.09,2.21,2.21,0,0,0,.58-.25,1.16,1.16,0,0,0,.39-.37.81.81,0,0,0,.13-.45l-.13-4.09a.82.82,0,0,0-.16-.44,1.48,1.48,0,0,0-.41-.37,2.27,2.27,0,0,0-.59-.24,2.71,2.71,0,0,0-.71-.09"/><path class="cls-3" d="M248.71,260.53h-6.54a2.71,2.71,0,0,0-.71.09,2.35,2.35,0,0,0-.58.24,1.34,1.34,0,0,0-.38.37.78.78,0,0,0-.13.44l.14,4.09a.85.85,0,0,0,.16.45,1.34,1.34,0,0,0,.41.37,2.52,2.52,0,0,0,.6.25,2.78,2.78,0,0,0,.72.09H249a2.73,2.73,0,0,0,.72-.09,2.13,2.13,0,0,0,.57-.25,1,1,0,0,0,.38-.37.81.81,0,0,0,.13-.45l-.19-4.09a.74.74,0,0,0-.16-.44,1.48,1.48,0,0,0-.41-.37,2.43,2.43,0,0,0-.59-.24,2.84,2.84,0,0,0-.72-.09"/><path class="cls-3" d="M260.76,260.53h-6.54a2.71,2.71,0,0,0-.71.09,2.13,2.13,0,0,0-.57.24,1.34,1.34,0,0,0-.38.37.7.7,0,0,0-.12.44l.19,4.09a.86.86,0,0,0,.17.45,1.34,1.34,0,0,0,.41.37,2.35,2.35,0,0,0,.6.25,2.78,2.78,0,0,0,.72.09h6.59a2.71,2.71,0,0,0,.71-.09,2.13,2.13,0,0,0,.57-.25,1.22,1.22,0,0,0,.38-.37.8.8,0,0,0,.12-.45l-.24-4.09a.83.83,0,0,0-.17-.44,1.4,1.4,0,0,0-.42-.37,2.43,2.43,0,0,0-.59-.24,2.84,2.84,0,0,0-.72-.09"/><path class="cls-3" d="M272.8,260.53h-6.53a2.71,2.71,0,0,0-.71.09,2.13,2.13,0,0,0-.57.24,1.19,1.19,0,0,0-.37.37.77.77,0,0,0-.12.44l.25,4.09a.86.86,0,0,0,.17.45,1.38,1.38,0,0,0,.42.37,2.52,2.52,0,0,0,.6.25,2.86,2.86,0,0,0,.73.09h6.58a2.71,2.71,0,0,0,.71-.09,2.13,2.13,0,0,0,.57-.25,1.09,1.09,0,0,0,.37-.37.73.73,0,0,0,.12-.45l-.3-4.09a.83.83,0,0,0-.17-.44,1.53,1.53,0,0,0-.42-.37,2.69,2.69,0,0,0-.6-.24,2.86,2.86,0,0,0-.73-.09"/><path class="cls-3" d="M284.85,260.53h-6.53a2.71,2.71,0,0,0-.71.09,2.2,2.2,0,0,0-.56.24,1.19,1.19,0,0,0-.37.37.76.76,0,0,0-.11.44l.3,4.09a.8.8,0,0,0,.18.45,1.27,1.27,0,0,0,.42.37,2.43,2.43,0,0,0,.61.25,2.78,2.78,0,0,0,.72.09h6.58a2.6,2.6,0,0,0,.71-.09,2.13,2.13,0,0,0,.57-.25,1.09,1.09,0,0,0,.37-.37.79.79,0,0,0,.11-.45l-.35-4.09a.85.85,0,0,0-.18-.44,1.58,1.58,0,0,0-.43-.37,2.51,2.51,0,0,0-.6-.24,2.86,2.86,0,0,0-.73-.09"/><path class="cls-3" d="M296.9,260.53h-6.53a2.71,2.71,0,0,0-.71.09,2.2,2.2,0,0,0-.56.24,1.15,1.15,0,0,0-.36.37.64.64,0,0,0-.11.44l.35,4.09a.89.89,0,0,0,.19.45,1.31,1.31,0,0,0,.43.37,2.43,2.43,0,0,0,.61.25,2.81,2.81,0,0,0,.73.09h6.57a2.73,2.73,0,0,0,.72-.09,2.21,2.21,0,0,0,.56-.25,1.06,1.06,0,0,0,.36-.37.71.71,0,0,0,.1-.45l-.4-4.09a.79.79,0,0,0-.19-.44,1.44,1.44,0,0,0-.43-.37,2.51,2.51,0,0,0-.6-.24,2.86,2.86,0,0,0-.73-.09"/><path class="cls-3" d="M127.51,268.47h-6.59a2.86,2.86,0,0,0-.73.09,2.3,2.3,0,0,0-.62.25,1.42,1.42,0,0,0-.43.37.81.81,0,0,0-.19.45l-.41,4.16a.74.74,0,0,0,.1.46,1.09,1.09,0,0,0,.37.37,1.86,1.86,0,0,0,.57.25,2.72,2.72,0,0,0,.72.1h6.63a2.94,2.94,0,0,0,.74-.1,2.37,2.37,0,0,0,.61-.25,1.31,1.31,0,0,0,.43-.37.93.93,0,0,0,.19-.46l.36-4.16a.79.79,0,0,0-.11-.45,1.06,1.06,0,0,0-.36-.37,1.86,1.86,0,0,0-.57-.25,2.71,2.71,0,0,0-.71-.09"/><path class="cls-3" d="M139.66,268.47h-6.59a2.86,2.86,0,0,0-.73.09,2.23,2.23,0,0,0-.61.25,1.42,1.42,0,0,0-.43.37.88.88,0,0,0-.18.45l-.35,4.16a.74.74,0,0,0,.1.46,1.19,1.19,0,0,0,.37.37,1.86,1.86,0,0,0,.57.25,2.72,2.72,0,0,0,.72.1h6.64a2.8,2.8,0,0,0,.73-.1,2.3,2.3,0,0,0,.62-.25,1.38,1.38,0,0,0,.42-.37.83.83,0,0,0,.18-.46l.31-4.16a.79.79,0,0,0-.11-.45,1.19,1.19,0,0,0-.37-.37,2,2,0,0,0-.57-.25,2.73,2.73,0,0,0-.72-.09"/><path class="cls-3" d="M151.81,268.47h-6.59a2.78,2.78,0,0,0-.72.09,2.11,2.11,0,0,0-.61.25,1.27,1.27,0,0,0-.42.37.8.8,0,0,0-.18.45l-.3,4.16a.83.83,0,0,0,.11.46,1.22,1.22,0,0,0,.38.37,1.86,1.86,0,0,0,.57.25,2.72,2.72,0,0,0,.72.1h6.64a2.86,2.86,0,0,0,.73-.1,2.11,2.11,0,0,0,.61-.25,1.27,1.27,0,0,0,.42-.37.83.83,0,0,0,.18-.46l.25-4.16a.73.73,0,0,0-.12-.45,1.09,1.09,0,0,0-.37-.37,2,2,0,0,0-.58-.25,2.73,2.73,0,0,0-.72-.09"/><path class="cls-3" d="M164,268.47h-6.59a2.86,2.86,0,0,0-.73.09,2.16,2.16,0,0,0-.6.25,1.38,1.38,0,0,0-.42.37.86.86,0,0,0-.17.45l-.24,4.16a.76.76,0,0,0,.12.46,1.09,1.09,0,0,0,.37.37,2,2,0,0,0,.58.25,2.72,2.72,0,0,0,.72.1h6.64a2.86,2.86,0,0,0,.73-.1,2.23,2.23,0,0,0,.61-.25,1.34,1.34,0,0,0,.41-.37.75.75,0,0,0,.17-.46l.2-4.16a.74.74,0,0,0-.13-.45,1,1,0,0,0-.38-.37,1.92,1.92,0,0,0-.58-.25,2.65,2.65,0,0,0-.71-.09"/><path class="cls-3" d="M176.12,268.47h-6.59a2.78,2.78,0,0,0-.72.09,2,2,0,0,0-.6.25,1.34,1.34,0,0,0-.41.37.86.86,0,0,0-.17.45l-.19,4.16a.77.77,0,0,0,.13.46,1.22,1.22,0,0,0,.38.37,1.92,1.92,0,0,0,.58.25,2.78,2.78,0,0,0,.72.1h6.64a2.86,2.86,0,0,0,.73-.1,2.16,2.16,0,0,0,.6-.25,1.34,1.34,0,0,0,.41-.37.8.8,0,0,0,.16-.46l.14-4.16a.74.74,0,0,0-.13-.45,1.12,1.12,0,0,0-.38-.37,1.92,1.92,0,0,0-.58-.25,2.73,2.73,0,0,0-.72-.09"/><path class="cls-3" d="M188.28,268.47h-6.59a2.86,2.86,0,0,0-.73.09,2.1,2.1,0,0,0-.59.25,1.14,1.14,0,0,0-.41.37.86.86,0,0,0-.17.45l-.13,4.16a.84.84,0,0,0,.13.46,1.26,1.26,0,0,0,.39.37,2.1,2.1,0,0,0,.59.25,2.78,2.78,0,0,0,.72.1h6.64a2.86,2.86,0,0,0,.73-.1,2.3,2.3,0,0,0,.6-.25,1.2,1.2,0,0,0,.4-.37.8.8,0,0,0,.16-.46l.09-4.16a.82.82,0,0,0-.14-.45,1.16,1.16,0,0,0-.39-.37,2,2,0,0,0-.58-.25,2.78,2.78,0,0,0-.72-.09"/><path class="cls-3" d="M200.43,268.47h-6.59a2.73,2.73,0,0,0-.72.09,2,2,0,0,0-.6.25,1.3,1.3,0,0,0-.4.37.85.85,0,0,0-.16.45l-.07,4.16a.77.77,0,0,0,.13.46,1.3,1.3,0,0,0,.4.37,1.92,1.92,0,0,0,.58.25,2.86,2.86,0,0,0,.73.1h6.64a2.86,2.86,0,0,0,.73-.1,2.1,2.1,0,0,0,.59-.25,1.2,1.2,0,0,0,.4-.37.79.79,0,0,0,.15-.46l0-4.16a.76.76,0,0,0-.15-.45,1.16,1.16,0,0,0-.39-.37,2.1,2.1,0,0,0-.59-.25,2.73,2.73,0,0,0-.72-.09"/><path class="cls-3" d="M212.58,268.47H206a2.78,2.78,0,0,0-.72.09,2.1,2.1,0,0,0-.59.25,1.3,1.3,0,0,0-.4.37.82.82,0,0,0-.14.45l0,4.16a.79.79,0,0,0,.15.46,1.16,1.16,0,0,0,.39.37,2.1,2.1,0,0,0,.59.25,2.86,2.86,0,0,0,.73.1h6.64a2.78,2.78,0,0,0,.72-.1,2,2,0,0,0,.6-.25,1.16,1.16,0,0,0,.39-.37.79.79,0,0,0,.15-.46l0-4.16a.83.83,0,0,0-.15-.45,1.3,1.3,0,0,0-.4-.37,2.1,2.1,0,0,0-.59-.25,2.86,2.86,0,0,0-.73-.09"/><path class="cls-3" d="M224.74,268.47h-6.59a2.73,2.73,0,0,0-.72.09,2.1,2.1,0,0,0-.59.25,1.16,1.16,0,0,0-.39.37.75.75,0,0,0-.14.45l0,4.16a.79.79,0,0,0,.15.46,1.2,1.2,0,0,0,.4.37,2.1,2.1,0,0,0,.59.25,2.86,2.86,0,0,0,.73.1h6.64a2.78,2.78,0,0,0,.72-.1,2.1,2.1,0,0,0,.59-.25,1.3,1.3,0,0,0,.4-.37.77.77,0,0,0,.13-.46l-.07-4.16a.85.85,0,0,0-.16-.45,1.3,1.3,0,0,0-.4-.37,2.16,2.16,0,0,0-.6-.25,2.78,2.78,0,0,0-.72-.09"/><path class="cls-3" d="M236.89,268.47H230.3a2.78,2.78,0,0,0-.72.09,2,2,0,0,0-.58.25,1.26,1.26,0,0,0-.39.37.74.74,0,0,0-.13.45l.08,4.16a.88.88,0,0,0,.16.46,1.3,1.3,0,0,0,.4.37,2.3,2.3,0,0,0,.6.25,2.86,2.86,0,0,0,.73.1h6.64a2.78,2.78,0,0,0,.72-.1,1.92,1.92,0,0,0,.58-.25,1.16,1.16,0,0,0,.39-.37.77.77,0,0,0,.13-.46l-.13-4.16a.77.77,0,0,0-.16-.45,1.34,1.34,0,0,0-.41-.37,2.1,2.1,0,0,0-.59-.25,2.86,2.86,0,0,0-.73-.09"/><path class="cls-3" d="M249.05,268.47h-6.59a2.73,2.73,0,0,0-.72.09,1.92,1.92,0,0,0-.58.25,1.16,1.16,0,0,0-.39.37.81.81,0,0,0-.13.45l.14,4.16a.88.88,0,0,0,.16.46,1.38,1.38,0,0,0,.42.37,2.16,2.16,0,0,0,.6.25,2.86,2.86,0,0,0,.73.1h6.64a2.78,2.78,0,0,0,.72-.1,1.92,1.92,0,0,0,.58-.25,1.12,1.12,0,0,0,.38-.37.77.77,0,0,0,.13-.46l-.19-4.16a.85.85,0,0,0-.16-.45,1.38,1.38,0,0,0-.42-.37,2,2,0,0,0-.6-.25,2.78,2.78,0,0,0-.72-.09"/><path class="cls-3" d="M261.2,268.47h-6.59a2.73,2.73,0,0,0-.72.09,2,2,0,0,0-.58.25,1.09,1.09,0,0,0-.37.37.74.74,0,0,0-.13.45l.2,4.16a.8.8,0,0,0,.16.46,1.51,1.51,0,0,0,.42.37,2.23,2.23,0,0,0,.61.25,2.8,2.8,0,0,0,.73.1h6.64a2.72,2.72,0,0,0,.72-.1,2,2,0,0,0,.58-.25,1.09,1.09,0,0,0,.37-.37.76.76,0,0,0,.12-.46l-.24-4.16a.86.86,0,0,0-.17-.45,1.27,1.27,0,0,0-.42-.37,2.16,2.16,0,0,0-.6-.25,2.86,2.86,0,0,0-.73-.09"/><path class="cls-3" d="M273.35,268.47h-6.59a2.71,2.71,0,0,0-.71.09,2,2,0,0,0-.58.25,1.19,1.19,0,0,0-.37.37.73.73,0,0,0-.12.45l.25,4.16a.83.83,0,0,0,.18.46,1.27,1.27,0,0,0,.42.37,2.11,2.11,0,0,0,.61.25,2.8,2.8,0,0,0,.73.1h6.63a2.8,2.8,0,0,0,.73-.1,1.86,1.86,0,0,0,.57-.25,1.22,1.22,0,0,0,.38-.37.83.83,0,0,0,.11-.46l-.3-4.16a.8.8,0,0,0-.18-.45,1.27,1.27,0,0,0-.42-.37,2.11,2.11,0,0,0-.61-.25,2.81,2.81,0,0,0-.73-.09"/><path class="cls-3" d="M285.51,268.47h-6.59a2.73,2.73,0,0,0-.72.09,2,2,0,0,0-.57.25,1.19,1.19,0,0,0-.37.37.79.79,0,0,0-.11.45l.31,4.16a.83.83,0,0,0,.18.46,1.38,1.38,0,0,0,.42.37,2.3,2.3,0,0,0,.62.25,2.8,2.8,0,0,0,.73.1H286a2.72,2.72,0,0,0,.72-.1,1.92,1.92,0,0,0,.58-.25,1.19,1.19,0,0,0,.37-.37.74.74,0,0,0,.1-.46l-.35-4.16a.88.88,0,0,0-.18-.45,1.42,1.42,0,0,0-.43-.37,2.37,2.37,0,0,0-.61-.25,2.92,2.92,0,0,0-.73-.09"/><path class="cls-3" d="M297.66,268.47h-6.59a2.71,2.71,0,0,0-.71.09,1.86,1.86,0,0,0-.57.25,1.19,1.19,0,0,0-.37.37.71.71,0,0,0-.1.45l.36,4.16a.91.91,0,0,0,.18.46,1.47,1.47,0,0,0,.44.37,2.37,2.37,0,0,0,.61.25,2.94,2.94,0,0,0,.74.1h6.63a2.72,2.72,0,0,0,.72-.1,1.86,1.86,0,0,0,.57-.25,1.06,1.06,0,0,0,.36-.37.74.74,0,0,0,.1-.46l-.4-4.16a.89.89,0,0,0-.19-.45,1.56,1.56,0,0,0-.43-.37,2.3,2.3,0,0,0-.62-.25,2.81,2.81,0,0,0-.73-.09"/><path class="cls-3" d="M126.79,276.54h-6.65a2.92,2.92,0,0,0-.73.1,2.3,2.3,0,0,0-.62.25,1.49,1.49,0,0,0-.44.38.81.81,0,0,0-.19.46l-.42,4.23a.85.85,0,0,0,.1.47,1.33,1.33,0,0,0,.37.38,1.93,1.93,0,0,0,.58.26,2.73,2.73,0,0,0,.72.09h6.69a3.08,3.08,0,0,0,.75-.09,2.31,2.31,0,0,0,.62-.26,1.6,1.6,0,0,0,.43-.38.87.87,0,0,0,.19-.47l.37-4.23a.81.81,0,0,0-.11-.46,1.11,1.11,0,0,0-.37-.38,1.86,1.86,0,0,0-.57-.25,2.72,2.72,0,0,0-.72-.1"/><path class="cls-3" d="M139.05,276.54H132.4a2.8,2.8,0,0,0-.73.1,2.3,2.3,0,0,0-.62.25,1.34,1.34,0,0,0-.43.38.89.89,0,0,0-.19.46l-.36,4.23a.86.86,0,0,0,.11.47,1.33,1.33,0,0,0,.37.38,1.93,1.93,0,0,0,.58.26,2.73,2.73,0,0,0,.72.09h6.7a2.94,2.94,0,0,0,.74-.09,2.31,2.31,0,0,0,.62-.26,1.6,1.6,0,0,0,.43-.38.86.86,0,0,0,.18-.47l.31-4.23a.73.73,0,0,0-.11-.46,1.11,1.11,0,0,0-.37-.38,1.92,1.92,0,0,0-.58-.25,2.72,2.72,0,0,0-.72-.1"/><path class="cls-3" d="M151.31,276.54h-6.65a2.86,2.86,0,0,0-.73.1,2.11,2.11,0,0,0-.61.25,1.34,1.34,0,0,0-.43.38.8.8,0,0,0-.18.46l-.3,4.23a.86.86,0,0,0,.11.47,1.25,1.25,0,0,0,.38.38,1.93,1.93,0,0,0,.58.26,2.73,2.73,0,0,0,.72.09h6.7a2.94,2.94,0,0,0,.74-.09,2.12,2.12,0,0,0,.61-.26,1.46,1.46,0,0,0,.43-.38.94.94,0,0,0,.18-.47l.25-4.23a.74.74,0,0,0-.12-.46,1.06,1.06,0,0,0-.38-.38,1.92,1.92,0,0,0-.58-.25,2.72,2.72,0,0,0-.72-.1"/><path class="cls-3" d="M163.57,276.54h-6.65a2.92,2.92,0,0,0-.73.1,2.23,2.23,0,0,0-.61.25,1.41,1.41,0,0,0-.42.38.86.86,0,0,0-.17.46l-.25,4.23a.79.79,0,0,0,.12.47,1.37,1.37,0,0,0,.38.38,1.93,1.93,0,0,0,.58.26,2.86,2.86,0,0,0,.73.09h6.69a2.94,2.94,0,0,0,.74-.09,2.12,2.12,0,0,0,.61-.26,1.46,1.46,0,0,0,.43-.38.93.93,0,0,0,.17-.47l.2-4.23a.75.75,0,0,0-.13-.46,1.25,1.25,0,0,0-.38-.38,2,2,0,0,0-.59-.25,2.72,2.72,0,0,0-.72-.1"/><path class="cls-3" d="M175.83,276.54h-6.64a2.94,2.94,0,0,0-.74.1,2.16,2.16,0,0,0-.6.25,1.3,1.3,0,0,0-.42.38.86.86,0,0,0-.17.46l-.19,4.23a.88.88,0,0,0,.13.47,1.37,1.37,0,0,0,.38.38,2.11,2.11,0,0,0,.59.26,2.81,2.81,0,0,0,.73.09h6.69a2.94,2.94,0,0,0,.74-.09,2.24,2.24,0,0,0,.61-.26,1.51,1.51,0,0,0,.41-.38.93.93,0,0,0,.17-.47l.14-4.23a.82.82,0,0,0-.13-.46,1.18,1.18,0,0,0-.39-.38,1.92,1.92,0,0,0-.58-.25,2.86,2.86,0,0,0-.73-.1"/><path class="cls-3" d="M188.09,276.54h-6.64a2.8,2.8,0,0,0-.73.1,2.11,2.11,0,0,0-.61.25,1.37,1.37,0,0,0-.41.38.78.78,0,0,0-.16.46L179.4,282a.8.8,0,0,0,.13.47,1.33,1.33,0,0,0,.4.38,1.88,1.88,0,0,0,.59.26,2.81,2.81,0,0,0,.73.09h6.69a2.94,2.94,0,0,0,.74-.09,2.18,2.18,0,0,0,.6-.26,1.51,1.51,0,0,0,.41-.38.91.91,0,0,0,.16-.47l.09-4.23a.83.83,0,0,0-.14-.46,1.29,1.29,0,0,0-.39-.38,2.1,2.1,0,0,0-.59-.25,2.8,2.8,0,0,0-.73-.1"/><path class="cls-3" d="M200.35,276.54H193.7a2.86,2.86,0,0,0-.73.1,2.1,2.1,0,0,0-.59.25,1.16,1.16,0,0,0-.41.38.85.85,0,0,0-.16.46l-.08,4.23a.89.89,0,0,0,.14.47,1.33,1.33,0,0,0,.4.38,2.11,2.11,0,0,0,.59.26,2.81,2.81,0,0,0,.73.09h6.7a2.81,2.81,0,0,0,.73-.09,2.05,2.05,0,0,0,.6-.26,1.51,1.51,0,0,0,.41-.38.82.82,0,0,0,.15-.47l0-4.23a.83.83,0,0,0-.14-.46,1.22,1.22,0,0,0-.4-.38,2.1,2.1,0,0,0-.59-.25,2.8,2.8,0,0,0-.73-.1"/><path class="cls-3" d="M212.61,276.54H206a2.78,2.78,0,0,0-.72.1,2,2,0,0,0-.6.25,1.22,1.22,0,0,0-.4.38.77.77,0,0,0-.15.46l0,4.23a.81.81,0,0,0,.14.47,1.33,1.33,0,0,0,.4.38,2.05,2.05,0,0,0,.6.26,2.81,2.81,0,0,0,.73.09h6.69a2.94,2.94,0,0,0,.74-.09,2.18,2.18,0,0,0,.6-.26,1.46,1.46,0,0,0,.4-.38.89.89,0,0,0,.14-.47l0-4.23a.77.77,0,0,0-.15-.46,1.22,1.22,0,0,0-.4-.38,2,2,0,0,0-.6-.25,2.8,2.8,0,0,0-.73-.1"/><path class="cls-3" d="M224.87,276.54h-6.64a2.8,2.8,0,0,0-.73.1,2.1,2.1,0,0,0-.59.25,1.22,1.22,0,0,0-.4.38.83.83,0,0,0-.14.46l0,4.23a.82.82,0,0,0,.15.47,1.37,1.37,0,0,0,.41.38,2.05,2.05,0,0,0,.6.26,2.81,2.81,0,0,0,.73.09H225a2.81,2.81,0,0,0,.73-.09,2.05,2.05,0,0,0,.6-.26,1.46,1.46,0,0,0,.4-.38.89.89,0,0,0,.14-.47l-.08-4.23a.85.85,0,0,0-.16-.46,1.37,1.37,0,0,0-.41-.38,2,2,0,0,0-.6-.25,2.8,2.8,0,0,0-.73-.1"/><path class="cls-3" d="M237.13,276.54h-6.64a2.8,2.8,0,0,0-.73.1,2.1,2.1,0,0,0-.59.25,1.29,1.29,0,0,0-.39.38.83.83,0,0,0-.14.46l.09,4.23a.83.83,0,0,0,.16.47,1.51,1.51,0,0,0,.41.38,2.18,2.18,0,0,0,.6.26,2.94,2.94,0,0,0,.74.09h6.69a2.81,2.81,0,0,0,.73-.09,2.11,2.11,0,0,0,.59-.26,1.29,1.29,0,0,0,.39-.38.8.8,0,0,0,.13-.47l-.13-4.23a.85.85,0,0,0-.16-.46,1.37,1.37,0,0,0-.41-.38,2.23,2.23,0,0,0-.61-.25,2.8,2.8,0,0,0-.73-.1"/><path class="cls-3" d="M249.4,276.54h-6.65a2.86,2.86,0,0,0-.73.1,1.92,1.92,0,0,0-.58.25,1.18,1.18,0,0,0-.39.38.83.83,0,0,0-.14.46l.15,4.23a.83.83,0,0,0,.16.47,1.56,1.56,0,0,0,.42.38,2.12,2.12,0,0,0,.61.26,2.94,2.94,0,0,0,.74.09h6.69a2.81,2.81,0,0,0,.73-.09,1.93,1.93,0,0,0,.58-.26,1.29,1.29,0,0,0,.39-.38.88.88,0,0,0,.13-.47l-.19-4.23a.86.86,0,0,0-.17-.46,1.3,1.3,0,0,0-.42-.38,2.16,2.16,0,0,0-.6-.25,2.92,2.92,0,0,0-.73-.1"/><path class="cls-3" d="M261.66,276.54H255a2.78,2.78,0,0,0-.72.1,1.92,1.92,0,0,0-.58.25,1.15,1.15,0,0,0-.38.38.75.75,0,0,0-.13.46l.2,4.23a.93.93,0,0,0,.17.47,1.56,1.56,0,0,0,.42.38,2.24,2.24,0,0,0,.61.26,2.94,2.94,0,0,0,.74.09H262a2.86,2.86,0,0,0,.73-.09,2,2,0,0,0,.58-.26,1.37,1.37,0,0,0,.38-.38.79.79,0,0,0,.12-.47l-.25-4.23a.86.86,0,0,0-.17-.46,1.41,1.41,0,0,0-.42-.38,2.23,2.23,0,0,0-.61-.25,2.92,2.92,0,0,0-.73-.1"/><path class="cls-3" d="M273.91,276.54h-6.64a2.8,2.8,0,0,0-.73.1,1.86,1.86,0,0,0-.57.25,1.06,1.06,0,0,0-.38.38.74.74,0,0,0-.12.46l.25,4.23a.94.94,0,0,0,.18.47,1.46,1.46,0,0,0,.43.38,2.12,2.12,0,0,0,.61.26,2.94,2.94,0,0,0,.74.09h6.69a2.81,2.81,0,0,0,.73-.09,1.93,1.93,0,0,0,.58-.26,1.37,1.37,0,0,0,.38-.38.86.86,0,0,0,.11-.47l-.3-4.23a.8.8,0,0,0-.18-.46,1.34,1.34,0,0,0-.43-.38,2.11,2.11,0,0,0-.61-.25,2.94,2.94,0,0,0-.74-.1"/><path class="cls-3" d="M298.44,276.54H278.59a2.72,2.72,0,0,0-.72.1,2,2,0,0,0-.58.25,1.21,1.21,0,0,0-.37.38.81.81,0,0,0-.11.46l.3,4.23a1,1,0,0,0,.19.47,1.46,1.46,0,0,0,.43.38,2.12,2.12,0,0,0,.61.26,2.94,2.94,0,0,0,.74.09h20a2.73,2.73,0,0,0,.72-.09,1.87,1.87,0,0,0,.57-.26,1.21,1.21,0,0,0,.37-.38.77.77,0,0,0,.1-.47l-.41-4.23a.89.89,0,0,0-.19-.46,1.49,1.49,0,0,0-.44-.38,2.3,2.3,0,0,0-.62-.25,2.92,2.92,0,0,0-.73-.1"/><path class="cls-3" d="M126.06,284.76h-6.7a3.08,3.08,0,0,0-.75.1,2.68,2.68,0,0,0-.62.25,1.57,1.57,0,0,0-.45.39.92.92,0,0,0-.19.47l-.42,4.31a.76.76,0,0,0,.1.47,1.14,1.14,0,0,0,.37.39,1.93,1.93,0,0,0,.58.26,2.8,2.8,0,0,0,.73.1h6.76a2.94,2.94,0,0,0,.74-.1,2.25,2.25,0,0,0,.63-.26,1.52,1.52,0,0,0,.44-.39.92.92,0,0,0,.19-.47l.37-4.31a.76.76,0,0,0-.1-.47,1.17,1.17,0,0,0-.38-.39,2.13,2.13,0,0,0-.57-.25,2.8,2.8,0,0,0-.73-.1"/><path class="cls-3" d="M138.43,284.76h-6.71a2.94,2.94,0,0,0-.74.1,2.68,2.68,0,0,0-.62.25,1.52,1.52,0,0,0-.44.39,1,1,0,0,0-.19.47l-.36,4.31a.76.76,0,0,0,.11.47,1.14,1.14,0,0,0,.37.39,1.93,1.93,0,0,0,.58.26,2.86,2.86,0,0,0,.73.1h6.76a3,3,0,0,0,.75-.1,2.31,2.31,0,0,0,.62-.26,1.52,1.52,0,0,0,.44-.39.91.91,0,0,0,.18-.47l.32-4.31a.77.77,0,0,0-.12-.47,1.14,1.14,0,0,0-.37-.39,2.21,2.21,0,0,0-.58-.25,2.8,2.8,0,0,0-.73-.1"/><path class="cls-3" d="M150.8,284.76h-6.71a2.94,2.94,0,0,0-.74.1,2.68,2.68,0,0,0-.62.25,1.62,1.62,0,0,0-.43.39.91.91,0,0,0-.18.47l-.31,4.31a.77.77,0,0,0,.12.47,1.08,1.08,0,0,0,.38.39,1.93,1.93,0,0,0,.58.26,2.8,2.8,0,0,0,.73.1h6.76a2.94,2.94,0,0,0,.74-.1,2.25,2.25,0,0,0,.63-.26,1.62,1.62,0,0,0,.43-.39.9.9,0,0,0,.17-.47l.26-4.31a.77.77,0,0,0-.12-.47,1.08,1.08,0,0,0-.38-.39,2.21,2.21,0,0,0-.58-.25,2.8,2.8,0,0,0-.73-.1"/><path class="cls-3" d="M163.17,284.76h-6.71a2.94,2.94,0,0,0-.74.1,2.43,2.43,0,0,0-.61.25,1.48,1.48,0,0,0-.43.39.9.9,0,0,0-.17.47l-.26,4.31a.78.78,0,0,0,.13.47,1.08,1.08,0,0,0,.38.39,2,2,0,0,0,.59.26,2.8,2.8,0,0,0,.73.1h6.75a3,3,0,0,0,.75-.1,2.31,2.31,0,0,0,.62-.26,1.44,1.44,0,0,0,.42-.39.83.83,0,0,0,.18-.47L165,286a.78.78,0,0,0-.13-.47,1.21,1.21,0,0,0-.39-.39,2.21,2.21,0,0,0-.58-.25,2.86,2.86,0,0,0-.73-.1"/><path class="cls-3" d="M175.54,284.76h-6.71a2.94,2.94,0,0,0-.74.1,2.6,2.6,0,0,0-.61.25,1.44,1.44,0,0,0-.42.39.9.9,0,0,0-.17.47l-.19,4.31a.85.85,0,0,0,.12.47,1.32,1.32,0,0,0,.39.39,2.11,2.11,0,0,0,.59.26,2.94,2.94,0,0,0,.74.1h6.75a3,3,0,0,0,.75-.1,2.39,2.39,0,0,0,.61-.26,1.44,1.44,0,0,0,.42-.39.81.81,0,0,0,.16-.47l.15-4.31a.85.85,0,0,0-.13-.47,1.32,1.32,0,0,0-.39-.39,2.44,2.44,0,0,0-.59-.25,2.86,2.86,0,0,0-.73-.1"/><path class="cls-3" d="M187.91,284.76H181.2a2.94,2.94,0,0,0-.74.1,2.6,2.6,0,0,0-.61.25,1.4,1.4,0,0,0-.41.39.9.9,0,0,0-.17.47l-.14,4.31a.86.86,0,0,0,.14.47,1.32,1.32,0,0,0,.39.39,2.18,2.18,0,0,0,.6.26,2.94,2.94,0,0,0,.74.1h6.75a2.94,2.94,0,0,0,.74-.1,2.12,2.12,0,0,0,.61-.26,1.32,1.32,0,0,0,.42-.39.87.87,0,0,0,.15-.47l.09-4.31a.78.78,0,0,0-.13-.47,1.36,1.36,0,0,0-.4-.39,2.44,2.44,0,0,0-.59-.25,2.86,2.86,0,0,0-.73-.1"/><path class="cls-3" d="M200.28,284.76h-6.72a2.86,2.86,0,0,0-.73.1,2.35,2.35,0,0,0-.6.25,1.32,1.32,0,0,0-.42.39.87.87,0,0,0-.15.47l-.08,4.31a.72.72,0,0,0,.14.47,1.25,1.25,0,0,0,.4.39,2,2,0,0,0,.59.26,2.94,2.94,0,0,0,.74.1h6.76a2.94,2.94,0,0,0,.74-.1,2.24,2.24,0,0,0,.61-.26,1.25,1.25,0,0,0,.4-.39.81.81,0,0,0,.16-.47l0-4.31a.86.86,0,0,0-.14-.47,1.4,1.4,0,0,0-.41-.39,2.28,2.28,0,0,0-.59-.25,2.86,2.86,0,0,0-.73-.1"/><path class="cls-3" d="M212.64,284.76h-6.71a2.86,2.86,0,0,0-.73.1,2.35,2.35,0,0,0-.6.25,1.4,1.4,0,0,0-.41.39.87.87,0,0,0-.15.47l0,4.31a.86.86,0,0,0,.14.47,1.4,1.4,0,0,0,.41.39,2.05,2.05,0,0,0,.6.26,2.94,2.94,0,0,0,.74.1h6.75a2.82,2.82,0,0,0,.74-.1,2.12,2.12,0,0,0,.61-.26,1.25,1.25,0,0,0,.4-.39.8.8,0,0,0,.15-.47l0-4.31a1,1,0,0,0-.15-.47,1.4,1.4,0,0,0-.41-.39,2.52,2.52,0,0,0-.6-.25,2.94,2.94,0,0,0-.74-.1"/><path class="cls-3" d="M225,284.76H218.3a2.86,2.86,0,0,0-.73.1,2.52,2.52,0,0,0-.6.25,1.36,1.36,0,0,0-.4.39.86.86,0,0,0-.14.47l0,4.31a.87.87,0,0,0,.15.47,1.4,1.4,0,0,0,.41.39,2.24,2.24,0,0,0,.61.26,2.94,2.94,0,0,0,.74.1h6.75a2.94,2.94,0,0,0,.74-.1,2.05,2.05,0,0,0,.6-.26,1.25,1.25,0,0,0,.4-.39.79.79,0,0,0,.14-.47l-.08-4.31a.81.81,0,0,0-.16-.47,1.28,1.28,0,0,0-.41-.39,2.52,2.52,0,0,0-.6-.25,2.94,2.94,0,0,0-.74-.1"/><path class="cls-3" d="M237.38,284.76h-6.71a2.86,2.86,0,0,0-.73.1,2.44,2.44,0,0,0-.59.25,1.25,1.25,0,0,0-.4.39.86.86,0,0,0-.14.47l.09,4.31a.88.88,0,0,0,.16.47,1.32,1.32,0,0,0,.42.39,2.12,2.12,0,0,0,.61.26,2.82,2.82,0,0,0,.74.1h6.75a2.94,2.94,0,0,0,.74-.1,2.11,2.11,0,0,0,.59-.26,1.21,1.21,0,0,0,.39-.39.79.79,0,0,0,.14-.47L239.3,286a.81.81,0,0,0-.16-.47,1.32,1.32,0,0,0-.42-.39,2.52,2.52,0,0,0-.6-.25,2.94,2.94,0,0,0-.74-.1"/><path class="cls-3" d="M249.75,284.76H243a2.86,2.86,0,0,0-.73.1,2.44,2.44,0,0,0-.59.25,1.21,1.21,0,0,0-.39.39.86.86,0,0,0-.14.47l.15,4.31a.82.82,0,0,0,.17.47,1.32,1.32,0,0,0,.42.39,2.12,2.12,0,0,0,.61.26,2.94,2.94,0,0,0,.74.1H250a2.8,2.8,0,0,0,.73-.1,1.88,1.88,0,0,0,.59-.26,1.21,1.21,0,0,0,.39-.39.78.78,0,0,0,.13-.47l-.19-4.31a.9.9,0,0,0-.17-.47,1.44,1.44,0,0,0-.42-.39,2.78,2.78,0,0,0-.61-.25,2.94,2.94,0,0,0-.74-.1"/><path class="cls-3" d="M262.12,284.76h-6.71a2.8,2.8,0,0,0-.73.1,2.44,2.44,0,0,0-.59.25,1.17,1.17,0,0,0-.38.39.78.78,0,0,0-.13.47l.2,4.31a.9.9,0,0,0,.17.47,1.48,1.48,0,0,0,.43.39,2.12,2.12,0,0,0,.61.26,3,3,0,0,0,.75.1h6.76a2.8,2.8,0,0,0,.73-.1,2.11,2.11,0,0,0,.59-.26,1.28,1.28,0,0,0,.38-.39.77.77,0,0,0,.12-.47l-.25-4.31a.9.9,0,0,0-.17-.47,1.48,1.48,0,0,0-.43-.39,2.6,2.6,0,0,0-.61-.25,2.94,2.94,0,0,0-.74-.1"/><path class="cls-3" d="M299.22,284.76H267.78a2.8,2.8,0,0,0-.73.1,2.21,2.21,0,0,0-.58.25,1.21,1.21,0,0,0-.39.39.85.85,0,0,0-.12.47l.26,4.31a.91.91,0,0,0,.18.47,1.48,1.48,0,0,0,.43.39,2.31,2.31,0,0,0,.62.26,3,3,0,0,0,.75.1h31.67a2.86,2.86,0,0,0,.73-.1,1.87,1.87,0,0,0,.57-.26,1.14,1.14,0,0,0,.37-.39.76.76,0,0,0,.1-.47l-.42-4.31a.84.84,0,0,0-.19-.47,1.52,1.52,0,0,0-.44-.39,2.59,2.59,0,0,0-.63-.25,2.94,2.94,0,0,0-.74-.1"/><path class="cls-3" d="M125.32,293.13h-6.76a3,3,0,0,0-.75.09,2.86,2.86,0,0,0-.64.27,1.52,1.52,0,0,0-.44.39.89.89,0,0,0-.2.48l-.43,4.38a.84.84,0,0,0,.1.49,1.28,1.28,0,0,0,.38.39,2.22,2.22,0,0,0,.58.27,2.89,2.89,0,0,0,.74.09h6.81a3.1,3.1,0,0,0,.76-.09,2.78,2.78,0,0,0,.63-.27,1.68,1.68,0,0,0,.44-.39,1,1,0,0,0,.2-.49l.38-4.38a.87.87,0,0,0-.11-.48,1.17,1.17,0,0,0-.38-.39,2.22,2.22,0,0,0-.58-.27,2.81,2.81,0,0,0-.73-.09"/><path class="cls-3" d="M137.8,293.13H131a3,3,0,0,0-.75.09,3,3,0,0,0-.63.27,1.52,1.52,0,0,0-.44.39,1.06,1.06,0,0,0-.19.48l-.37,4.38a.93.93,0,0,0,.11.49,1.4,1.4,0,0,0,.38.39,2.15,2.15,0,0,0,.59.27,2.81,2.81,0,0,0,.73.09h6.82a3.1,3.1,0,0,0,.76-.09,2.7,2.7,0,0,0,.62-.27,1.41,1.41,0,0,0,.44-.39.93.93,0,0,0,.19-.49l.32-4.38a.87.87,0,0,0-.11-.48,1.28,1.28,0,0,0-.38-.39,2.29,2.29,0,0,0-.59-.27,2.81,2.81,0,0,0-.73-.09"/><path class="cls-3" d="M150.27,293.13h-6.76a3,3,0,0,0-.75.09,2.7,2.7,0,0,0-.62.27,1.52,1.52,0,0,0-.44.39.94.94,0,0,0-.18.48l-.31,4.38a.84.84,0,0,0,.11.49,1.4,1.4,0,0,0,.38.39,2.46,2.46,0,0,0,.59.27,2.94,2.94,0,0,0,.74.09h6.82a3,3,0,0,0,.75-.09,2.6,2.6,0,0,0,.63-.27,1.49,1.49,0,0,0,.43-.39.92.92,0,0,0,.18-.49l.27-4.38a.88.88,0,0,0-.12-.48,1.21,1.21,0,0,0-.39-.39,2.15,2.15,0,0,0-.59-.27,2.83,2.83,0,0,0-.74-.09"/><path class="cls-3" d="M237.63,293.13H156a3,3,0,0,0-.75.09,2.7,2.7,0,0,0-.62.27,1.62,1.62,0,0,0-.43.39.93.93,0,0,0-.17.48l-.26,4.38a.85.85,0,0,0,.12.49,1.32,1.32,0,0,0,.39.39,2.46,2.46,0,0,0,.59.27,2.94,2.94,0,0,0,.74.09h82.23a3,3,0,0,0,.75-.09,2.54,2.54,0,0,0,.6-.27,1.32,1.32,0,0,0,.39-.39.87.87,0,0,0,.14-.49l-.14-4.38a.93.93,0,0,0-.17-.48,1.32,1.32,0,0,0-.42-.39,2.44,2.44,0,0,0-.61-.27,2.94,2.94,0,0,0-.74-.09"/><path class="cls-3" d="M250.11,293.13h-6.77a2.81,2.81,0,0,0-.73.09,2.37,2.37,0,0,0-.6.27,1.25,1.25,0,0,0-.4.39.81.81,0,0,0-.13.48l.15,4.38a.89.89,0,0,0,.16.49,1.63,1.63,0,0,0,.43.39,2.7,2.7,0,0,0,.62.27,3,3,0,0,0,.75.09h6.81a2.83,2.83,0,0,0,.74-.09,2.37,2.37,0,0,0,.6-.27,1.32,1.32,0,0,0,.39-.39.86.86,0,0,0,.13-.49l-.2-4.38a.78.78,0,0,0-.17-.48,1.32,1.32,0,0,0-.42-.39,2.7,2.7,0,0,0-.62-.27,2.94,2.94,0,0,0-.74-.09"/><path class="cls-3" d="M262.59,293.13h-6.77a2.89,2.89,0,0,0-.74.09,2.46,2.46,0,0,0-.59.27,1.21,1.21,0,0,0-.39.39.89.89,0,0,0-.13.48l.21,4.38a1,1,0,0,0,.17.49,1.63,1.63,0,0,0,.43.39,2.7,2.7,0,0,0,.62.27,3.08,3.08,0,0,0,.75.09H263a2.83,2.83,0,0,0,.74-.09,2.37,2.37,0,0,0,.6-.27,1.28,1.28,0,0,0,.38-.39.86.86,0,0,0,.13-.49l-.26-4.38a.86.86,0,0,0-.18-.48,1.36,1.36,0,0,0-.43-.39,2.7,2.7,0,0,0-.62-.27,2.94,2.94,0,0,0-.74-.09"/><path class="cls-3" d="M275.06,293.13H268.3a2.89,2.89,0,0,0-.74.09,2.46,2.46,0,0,0-.59.27,1.28,1.28,0,0,0-.38.39.8.8,0,0,0-.12.48l.26,4.38a1,1,0,0,0,.18.49,1.68,1.68,0,0,0,.44.39,2.7,2.7,0,0,0,.62.27,3,3,0,0,0,.75.09h6.82a2.94,2.94,0,0,0,.74-.09,2.29,2.29,0,0,0,.59-.27,1.17,1.17,0,0,0,.38-.39.85.85,0,0,0,.12-.49l-.31-4.38a1,1,0,0,0-.19-.48,1.36,1.36,0,0,0-.43-.39,2.6,2.6,0,0,0-.63-.27,3,3,0,0,0-.75-.09"/><path class="cls-3" d="M287.54,293.13h-6.76a2.89,2.89,0,0,0-.74.09,2.22,2.22,0,0,0-.58.27,1.28,1.28,0,0,0-.38.39.73.73,0,0,0-.11.48l.32,4.38a1,1,0,0,0,.18.49,1.68,1.68,0,0,0,.44.39,2.78,2.78,0,0,0,.63.27,3,3,0,0,0,.75.09h6.82a2.94,2.94,0,0,0,.74-.09,2.22,2.22,0,0,0,.58-.27,1.17,1.17,0,0,0,.38-.39.77.77,0,0,0,.11-.49l-.37-4.38a.87.87,0,0,0-.19-.48,1.52,1.52,0,0,0-.44-.39,2.78,2.78,0,0,0-.63-.27,3,3,0,0,0-.75-.09"/><path class="cls-3" d="M300,293.13h-6.76a2.89,2.89,0,0,0-.74.09,2.22,2.22,0,0,0-.58.27,1.14,1.14,0,0,0-.37.39.73.73,0,0,0-.11.48l.38,4.38a.93.93,0,0,0,.19.49,1.68,1.68,0,0,0,.44.39,2.86,2.86,0,0,0,.64.27,3,3,0,0,0,.75.09h6.82a2.81,2.81,0,0,0,.73-.09,2.29,2.29,0,0,0,.59-.27,1.24,1.24,0,0,0,.37-.39.84.84,0,0,0,.1-.49l-.43-4.38a.87.87,0,0,0-.19-.48,1.57,1.57,0,0,0-.45-.39,2.78,2.78,0,0,0-.63-.27,3,3,0,0,0-.75-.09"/><path class="cls-5" d="M238.45,304.91H180.28a5.05,5.05,0,0,0-1.26.16,3.73,3.73,0,0,0-1,.45,2.59,2.59,0,0,0-.72.67,1.55,1.55,0,0,0-.28.82l-.69,20.62a1.51,1.51,0,0,0,.23.85,2.26,2.26,0,0,0,.68.7,3.48,3.48,0,0,0,1,.47,4.83,4.83,0,0,0,1.28.18H239.2a4.71,4.71,0,0,0,1.28-.18,3.48,3.48,0,0,0,1-.47,2.26,2.26,0,0,0,.68-.7,1.51,1.51,0,0,0,.23-.85L241.73,307a1.55,1.55,0,0,0-.28-.82,2.54,2.54,0,0,0-.71-.67,3.94,3.94,0,0,0-1-.45,5,5,0,0,0-1.25-.16"/></g><rect class="cls-6" x="114.92" y="140.86" width="188.97" height="107.5"/><path class="cls-7" d="M254.73,276.42h0a9.19,9.19,0,0,1,.08-4,2.92,2.92,0,0,1,3.08-2.36l.32,0a1.55,1.55,0,0,1,.31.06,2.27,2.27,0,0,1,.53.22h0a2.07,2.07,0,0,1,.7.65l2.11,2.77,2.62,3.43c1.6,2.1,3.08,4,3.48,4.62,2.2,3.09,8.11,13.17,8.11,13.17l6.93.29a4.59,4.59,0,0,1,2.94,1.23c2.47,2.3,7.77,7.28,8.43,8,0,.24,4.12,2.23,7.31,4a44.12,44.12,0,0,1,6.61,4.38,7.67,7.67,0,0,1,1.93,2.33c1.48,3.24,5.51,31.34,7.43,45.23.62,4.47,1,7.47,1.06,7.7H277.33c-2-1.33-12.29-8.36-16.55-13.6-.9-1.11-4.21-10.68-6.75-18.45-1.58-4.85-2.87-9-3.09-10a12.94,12.94,0,0,1-.16-1.88h0c-.1-3.17,0-9.3.2-14.17V310c0-.21,0-.42,0-.63h0v-.06c0-.84.06-1.64.08-2.37.07-1.81.12-3.17.14-3.7v-.25h0c.07,0,2.06-1.1,4.72.82a7,7,0,0,1,1.78,3c.34.93.67,2,1,3.13,1.16,4.33,2,9.52,2.44,10.91.72,2.24,9.18,12.11,9.71,12.72l0,0V318l-6.39-17.09-2.62-7-1.31-3.53a61.47,61.47,0,0,1-3.72-7.31"/><path class="cls-8" d="M276.07,295s6.42,10.47,7.27,10.94,4.15,1.14,4.53,0S276.07,295,276.07,295Z"/><path class="cls-8" d="M308.32,312.89l0,0a44.12,44.12,0,0,0-6.61-4.38c-2.93-1.62-6.65-3.42-7.23-3.9.68.78,5.45,6.19,7.29,6.59C303.36,311.53,307,312.53,308.32,312.89Z"/><path class="cls-8" d="M270.87,333.59V318s3.7,6.19,4,9.59S273.32,336.49,270.87,333.59Z"/><path class="cls-9" d="M257.44,276.41a27.92,27.92,0,0,1-1.84-3.55,1.74,1.74,0,0,1,.24-1.37,3.42,3.42,0,0,1,1.65-1.37,2.41,2.41,0,0,1,.88-.16.89.89,0,0,1,.74.43h0a25.86,25.86,0,0,1,2,3.37,1.74,1.74,0,0,1-.29,2.12l-.26.19-1.34,1A1.26,1.26,0,0,1,257.44,276.41Z"/><path class="cls-8" d="M299.32,362.42,287,368.82h-8.23c-2-1.33-12.29-8.36-16.55-13.6-.9-1.11-4.21-10.68-6.75-18.45h0c.34,1,7.43,16.12,9.44,17.84s12.62,11.7,15.55,11.6,17.92-3.57,18.86-3.78Z"/><path class="cls-10" d="M251.23,302.94l-.25,7.11a3.66,3.66,0,0,0,2.34-.39C254.17,309,253.72,302.86,251.23,302.94Z"/><path class="cls-11" d="M317.22,357.33s14.09,17.19,14.92,19.69c0,0-1.52,1.51-1.54,1.5a19,19,0,0,1-3.88,3.65c-2,1.5-7.57,6.59-10.58,8.87s-8.05,5.87-13.66,9.55c-3,2-7.58,5.69-12.55,7.18.83-7-1.7-32.64-.87-39.65C289.06,368.12,309.45,353.07,317.22,357.33Z"/><path class="cls-7" d="M153.58,272.81h0a9,9,0,0,0-.08-4,2.93,2.93,0,0,0-3.08-2.37l-.32,0a1.7,1.7,0,0,0-.31.06,2.2,2.2,0,0,0-.53.22h0a2.14,2.14,0,0,0-.69.65l-2.12,2.77-2.62,3.43c-1.59,2.09-3.07,4.05-3.48,4.62-2.19,3.09-8.11,13.17-8.11,13.17l-6.93.29a4.61,4.61,0,0,0-2.94,1.23c-2.46,2.3-7.77,7.28-8.42,8,0,.24-4.13,2.23-7.31,4a44.12,44.12,0,0,0-6.61,4.38,7.67,7.67,0,0,0-1.93,2.33c-1.49,3.23-5.51,31.34-7.44,45.23-.62,4.47-1,7.46-1,7.7H131c2-1.33,12.29-8.36,16.55-13.6.91-1.11,4.21-10.68,6.75-18.45,1.59-4.85,2.88-9,3.09-10a11.62,11.62,0,0,0,.16-1.88h0c.11-3.18,0-9.3-.19-14.17v-.09c0-.21,0-.42,0-.63h0v-.06c0-.84-.05-1.64-.08-2.37-.06-1.81-.12-3.17-.14-3.7v-.25h0c-.06,0-2.05-1.1-4.72.81a7,7,0,0,0-1.77,3.05c-.35.93-.67,2-1,3.13-1.16,4.33-2,9.52-2.44,10.91-.71,2.24-9.17,12.11-9.7,12.72l0,0V314.41l6.39-17.09,2.62-7,1.32-3.53a62.34,62.34,0,0,0,3.71-7.31"/><path class="cls-8" d="M132.24,291.35s-6.42,10.47-7.27,10.94-4.15,1.14-4.52,0S132.24,291.35,132.24,291.35Z"/><path class="cls-8" d="M100,309.29l0,0a44.12,44.12,0,0,1,6.61-4.38c2.92-1.62,6.64-3.43,7.23-3.9-.68.78-5.46,6.19-7.3,6.59C105,307.93,101.29,308.93,100,309.29Z"/><path class="cls-8" d="M137.44,330V314.41s-3.7,6.19-4,9.59S135,332.89,137.44,330Z"/><path class="cls-9" d="M150.87,272.81a26.78,26.78,0,0,0,1.85-3.55,1.8,1.8,0,0,0-.25-1.37,3,3,0,0,0-1-1,2.78,2.78,0,0,0-.68-.36,2.59,2.59,0,0,0-.87-.17,1,1,0,0,0-.75.44h0a27,27,0,0,0-2,3.37,1.73,1.73,0,0,0,.3,2.12l.26.19,1.33,1A1.26,1.26,0,0,0,150.87,272.81Z"/><path class="cls-8" d="M109,358.82l12.35,6.4h8.23c2-1.33,12.29-8.36,16.55-13.6.91-1.11,4.21-10.68,6.75-18.45h0c-.34,1-7.42,16.12-9.44,17.84s-12.62,11.7-15.54,11.6S110,359,109,358.83Z"/><path class="cls-10" d="M157.08,299.34l.26,7.11a3.68,3.68,0,0,1-2.35-.39C154.14,305.42,154.59,299.25,157.08,299.34Z"/><path class="cls-11" d="M91.09,353.73S85.3,364,83.72,366a15.44,15.44,0,0,0-1.88,2.31c.11.45,2.36,2.48,4.65,5.09,1.76,2,4.75,4.91,7.53,7.45a115.27,115.27,0,0,0,13.18,11.1c3,2,8.2,7.11,13.11,9-.83-7-.22-29.45-1-36.45C119.26,364.52,98.87,349.47,91.09,353.73Z"/><rect class="cls-11" x="181.66" y="150.43" width="54" height="6.25"/><rect class="cls-12" x="189.66" y="158.93" width="39.42" height="6.25"/><circle class="cls-1" cx="209.35" cy="190.86" r="19.06"/><rect class="cls-13" x="180.41" y="223.18" width="13.75" height="18.75" rx="5"/><rect class="cls-13" x="195.6" y="223.18" width="13.75" height="18.75" rx="5"/><rect class="cls-13" x="211.6" y="223.18" width="13.75" height="18.75" rx="5"/><rect class="cls-13" x="228.41" y="223.18" width="13.75" height="18.75" rx="5"/><polygon class="cls-14" points="48.61 170.79 0 153.45 40.77 148.79 38.84 156.15 48.79 163.93 48.61 170.79"/><polygon class="cls-11" points="0 153.45 47.84 153.85 85.69 171.4 0 153.45"/><polygon class="cls-11" points="40.77 148.79 0 153.45 40.05 133.71 40.77 148.79"/><polygon class="cls-14" points="378.05 252.57 419.88 222.36 379.44 229.26 383.34 235.79 375.95 246.03 378.05 252.57"/><polygon class="cls-11" points="419.88 222.36 374.06 236.09 342.61 263.5 419.88 222.36"/><polygon class="cls-11" points="379.44 229.26 419.88 222.36 375.92 214.58 379.44 229.26"/><path class="cls-3" d="M405.52,0H268.72a17,17,0,0,0-17,17V70.64a17,17,0,0,0,17,17h3.75l-5.75,23.62,39.91-23.62h98.89a17,17,0,0,0,17-17V17A17,17,0,0,0,405.52,0Z"/><circle class="cls-11" cx="73.88" cy="80.09" r="12.58"/><circle class="cls-11" cx="104.12" cy="103.51" r="3.75"/><circle class="cls-11" cx="18.21" cy="356.57" r="15.71"/><circle class="cls-11" cx="61.29" cy="306.52" r="7.5"/><circle class="cls-11" cx="342.74" cy="334.37" r="3.59"/><circle class="cls-11" cx="381.25" cy="356.57" r="12.38"/><circle class="cls-11" cx="340.32" cy="179.66" r="3.2"/><circle class="cls-11" cx="381.25" cy="156.22" r="14.63"/><text class="cls-15" transform="translate(270.22 37.19)"><tspan class="cls-16">c</tspan><tspan class="cls-17" x="13.32" y="0">h</tspan><tspan x="29.62" y="0">e</tspan><tspan class="cls-18" x="44.11" y="0">c</tspan><tspan x="57.43" y="0">k </tspan><tspan class="cls-19" x="78.14" y="0">y</tspan><tspan class="cls-20" x="90.79" y="0">our</tspan><tspan x="0" y="28.8">email </tspan><tspan class="cls-17" x="73.32" y="28.8">n</tspan><tspan class="cls-21" x="89.62" y="28.8">o</tspan><tspan x="104.3" y="28.8">w!</tspan></text></g></g></svg>