<svg width="24" height="25" viewBox="0 0 24 25" fill="none" xmlns="http://www.w3.org/2000/svg">
<path d="M5.10709 18.3164C4.94195 18.3153 4.77904 18.3545 4.63252 18.4307C4.48601 18.5069 4.36035 18.6178 4.26648 18.7537C4.17261 18.8896 4.11338 19.0464 4.09395 19.2104C4.07452 19.3745 4.09548 19.5408 4.155 19.6948C4.72602 21.2508 5.76074 22.5938 7.11936 23.5426C8.47798 24.4914 10.095 25.0002 11.752 25.0002C13.409 25.0002 15.026 24.4914 16.3846 23.5426C17.7432 22.5938 18.778 21.2508 19.349 19.6948C19.4056 19.542 19.4244 19.3777 19.4038 19.2161C19.3831 19.0544 19.3237 18.9001 19.2304 18.7664C19.1372 18.6328 19.0131 18.5236 18.8685 18.4484C18.724 18.3731 18.5634 18.334 18.4005 18.3343L5.10709 18.3164Z" fill="#1AA3E9"/>
<path d="M6.59996 1.20605H2.5876C2.37354 1.22002 2.17281 1.31492 2.02614 1.47151C1.87947 1.62809 1.79785 1.83463 1.79785 2.04921C1.79785 2.26379 1.87947 2.47033 2.02614 2.62692C2.17281 2.7835 2.37354 2.87841 2.5876 2.89237H6.59996C6.81402 2.87841 7.01475 2.7835 7.16142 2.62692C7.30809 2.47033 7.3897 2.26379 7.3897 2.04921C7.3897 1.83463 7.30809 1.62809 7.16142 1.47151C7.01475 1.31492 6.81402 1.22002 6.59996 1.20605V1.20605Z" fill="#1AA3E9"/>
<path d="M22.4126 1.00552C22.3928 1.14411 22.3345 1.27435 22.2443 1.38145C22.1835 1.45306 22.1155 1.52108 22.0511 1.58911C21.4135 2.22552 20.6012 2.65796 19.7174 2.83147C19.4542 2.88207 19.1872 2.90962 18.9192 2.91381C18.6513 2.90962 18.3842 2.88207 18.121 2.83147C17.2421 2.65591 16.4349 2.22356 15.8017 1.58911C15.7337 1.52108 15.6657 1.45306 15.6012 1.38145C15.5119 1.27943 15.4503 1.15614 15.4223 1.02342C15.4049 0.904053 15.411 0.782438 15.4402 0.665396C15.4794 0.53103 15.5507 0.408182 15.6478 0.307368L15.7122 0.239342C15.7916 0.156706 15.8883 0.0926663 15.9953 0.0518129C16.1024 0.0109596 16.2172 -0.00569499 16.3314 0.00304334V0.00304334C16.5422 0.0217112 16.7374 0.121902 16.8754 0.282306C17.0347 0.458882 17.215 0.615201 17.4123 0.747742C17.8599 1.04451 18.3824 1.20837 18.9192 1.22034C19.4522 1.20521 19.9703 1.04154 20.4153 0.747742C20.6117 0.615255 20.7908 0.458915 20.9486 0.282306C21.0914 0.120116 21.2917 0.0199423 21.507 0.00304334V0.00304334C21.6199 -0.00702766 21.7336 0.00796853 21.84 0.0469602C21.9465 0.0859519 22.043 0.147976 22.1226 0.228601L22.1871 0.296627C22.2865 0.396233 22.3592 0.519399 22.3982 0.654655C22.4286 0.769153 22.4335 0.888929 22.4126 1.00552Z" fill="#1AA3E9"/>
<path d="M15.1363 8.89994H8.37511C8.14078 8.88723 7.91095 8.96785 7.73589 9.12418C7.56082 9.28051 7.45477 9.49982 7.44092 9.73415C7.45477 9.96848 7.56082 10.1878 7.73589 10.3441C7.91095 10.5004 8.14078 10.5811 8.37511 10.5684H15.1363C15.3713 10.5821 15.602 10.5019 15.7779 10.3454C15.9537 10.189 16.0603 9.96914 16.0741 9.73415C16.0603 9.49916 15.9537 9.27929 15.7779 9.12286C15.602 8.96643 15.3713 8.88625 15.1363 8.89994V8.89994Z" fill="#1AA3E9"/>
<path d="M4.58831 5.24807C3.53976 5.25153 2.52481 5.61835 1.7162 6.28608C0.907594 6.95382 0.355294 7.88121 0.153304 8.91042C-0.048685 9.93963 0.112118 11.0071 0.608346 11.931C1.10457 12.855 1.90556 13.5784 2.87498 13.9781C3.8444 14.3779 4.92234 14.4292 5.92535 14.1234C6.92836 13.8177 7.79445 13.1737 8.37621 12.3011C8.95797 11.4284 9.21945 10.3811 9.11616 9.33738C9.01286 8.29363 8.55116 7.31793 7.80965 6.57635C7.38665 6.1536 6.88431 5.81862 6.33149 5.59067C5.77867 5.36272 5.18626 5.24629 4.58831 5.24807ZM4.58831 12.627C4.16872 12.6226 3.75523 12.526 3.3771 12.344C2.99897 12.1621 2.66544 11.8992 2.40011 11.574C2.13479 11.2489 1.94415 10.8693 1.8417 10.4623C1.73925 10.0553 1.72748 9.63069 1.80723 9.2186C1.87985 8.82374 2.03516 8.44871 2.26295 8.11815C2.49075 7.78758 2.78589 7.50897 3.12897 7.3006C3.47206 7.09223 3.85534 6.95881 4.25363 6.90913C4.65191 6.85944 5.05621 6.8946 5.43995 7.0123C5.82369 7.12999 6.1782 7.32757 6.48018 7.59204C6.78217 7.85651 7.02481 8.18189 7.19216 8.54682C7.35951 8.91174 7.44779 9.30796 7.45119 9.70943C7.4546 10.1109 7.37305 10.5086 7.21191 10.8763C7.07308 11.2272 6.8663 11.5472 6.60344 11.8179C6.06687 12.3483 5.34271 12.6455 4.58831 12.6449V12.627Z" fill="#1AA3E9"/>
<path d="M18.9199 5.26954C17.8713 5.273 16.8564 5.63981 16.0477 6.30755C15.2391 6.97529 14.6868 7.90268 14.4848 8.93189C14.2829 9.9611 14.4437 11.0285 14.9399 11.9525C15.4361 12.8765 16.2371 13.5999 17.2065 13.9996C18.1759 14.3993 19.2539 14.4507 20.2569 14.1449C21.2599 13.8391 22.126 13.1951 22.7078 12.3225C23.2895 11.4499 23.551 10.4026 23.4477 9.35885C23.3444 8.31509 22.8827 7.3394 22.1412 6.59782C21.2857 5.74565 20.1272 5.26791 18.9199 5.26954V5.26954ZM18.9199 12.6485C18.2565 12.6505 17.6131 12.422 17.0995 12.0021C16.5858 11.5823 16.2339 10.997 16.1037 10.3464C15.9735 9.6958 16.0732 9.02016 16.3857 8.43489C16.6982 7.84962 17.2041 7.39103 17.8171 7.13746C18.4301 6.88389 19.1121 6.85107 19.7466 7.0446C20.3811 7.23813 20.9287 7.64601 21.2959 8.19856C21.6632 8.75112 21.8272 9.41407 21.7601 10.0742C21.693 10.7343 21.3988 11.3506 20.9278 11.8179C20.3936 12.3479 19.6723 12.6463 18.9199 12.6485V12.6485Z" fill="#1AA3E9"/>
</svg>
