<svg width="120" height="160" viewBox="0 0 120 160" fill="none" xmlns="http://www.w3.org/2000/svg">
<path d="M104.314 0H15.6863C0 0 0 0 0 15.4589V150.338C0 154.01 2.15686 157.488 5.4902 159.034C9.01961 160.58 12.9412 160.193 15.8824 157.874L16.0784 157.681L60 121.159L103.922 157.681L104.118 157.874C105.882 159.227 108.039 160 110.196 160C111.569 160 113.137 159.614 114.51 158.841C117.843 157.295 120 153.816 120 150.145V15.4589C120 0 120 0 104.314 0Z" fill="#1AA3E9"/>
<g clip-path="url(#clip0_1518_17595)">
<path d="M59.9998 67.0526C65.3482 67.0526 77.923 60.6159 77.923 45.1928C77.923 43.0414 77.8707 40.9632 77.6933 38.9997C77.4022 35.1353 76.6108 31.7106 74.6401 29.0859C72.1123 25.5142 67.69 23.3333 59.9998 23.3333C52.3109 23.3333 47.8888 25.5133 45.361 29.0839C43.389 31.7092 42.5971 35.1349 42.3062 39.0006C42.1291 40.9639 42.0768 43.0419 42.0768 45.193C42.0766 60.6159 54.6514 67.0526 59.9998 67.0526ZM65.8501 31.3417C65.3282 32.661 65.0666 33.3207 64.5443 34.6398C61.1725 33.6872 58.8266 33.6872 55.4548 34.6398C54.9327 33.3207 54.6711 32.661 54.1488 31.3417C58.3657 30.0651 61.6339 30.0654 65.8501 31.3417ZM44.7429 41.8487C44.9495 42.3003 45.8268 44.0368 47.1847 44.1996C48.7456 44.3869 51.3366 38.6716 59.9998 38.6576C68.6628 38.6716 71.2539 44.3869 72.8149 44.1996C74.1728 44.0366 75.05 42.3003 75.2567 41.8487C75.2986 42.9554 75.3141 44.0758 75.3141 45.193C75.3141 52.7317 71.9853 57.4029 69.1926 59.9938C65.6741 63.2587 61.7674 64.4437 60 64.4437C58.2326 64.4437 54.3259 63.2587 50.8074 59.9938C48.0145 57.4029 44.6859 52.7317 44.6859 45.193C44.6857 44.0758 44.701 42.9554 44.7429 41.8487Z" fill="#FCFCFC"/>
<path d="M93.2745 89.4713C92.3593 83.7817 90.4758 76.4524 86.6972 73.8479C84.1167 72.0686 75.114 67.2589 71.2696 65.2051L71.2047 65.1705C70.7653 64.9358 70.2285 64.983 69.837 65.2905C67.8231 66.8714 65.6173 67.9369 63.2806 68.4572C62.8678 68.5492 62.5288 68.8425 62.3792 69.2378L59.9997 75.5098L57.62 69.2378C57.4704 68.8425 57.1316 68.5492 56.7186 68.4572C54.3822 67.9369 52.1763 66.8714 50.1626 65.2905C49.7702 64.9828 49.2339 64.9358 48.7945 65.1705C44.996 67.2004 35.8832 72.1083 33.3137 73.8404C28.9639 76.7705 27.0621 87.3754 26.7249 89.4715C26.6917 89.6794 26.711 89.892 26.781 90.0907C26.8733 90.351 28.3118 94.0772 35.5063 97.0732C35.9211 96.5505 36.4736 96.1541 37.095 95.931C36.323 95.657 35.6531 95.1198 35.2245 94.3989C34.5861 93.3246 34.5623 91.9764 35.1611 90.8833C37.0056 87.5068 40.5381 85.406 44.3846 85.4009C47.9623 85.4009 51.2055 87.1787 53.1314 90.0683H66.8601C67.237 89.5054 67.6693 88.9789 68.1543 88.4923C70.1385 86.5023 72.7783 85.4045 75.5876 85.4005H75.5898H75.592C79.4353 85.4005 82.9723 87.4898 84.8232 90.8546C85.4231 91.9467 85.4029 93.2922 84.7682 94.3701C84.3421 95.0913 83.6739 95.6302 82.9029 95.9067C83.5352 96.1306 84.0963 96.5329 84.5142 97.0648C91.6902 94.0703 93.1266 90.351 93.2188 90.0911C93.2887 89.8918 93.3079 89.679 93.2745 89.4713Z" fill="#FCFCFC"/>
<path d="M81.7214 98.8061H81.7205L75.106 98.8152C74.9887 98.5367 74.7635 97.7634 74.7613 95.9187C74.7582 94.0738 74.9807 93.2991 75.0978 93.02L81.7105 93.0103C81.8686 93.0094 82.0145 92.9263 82.0945 92.7904C82.175 92.654 82.1772 92.4864 82.1014 92.3481C80.7967 89.9764 78.3071 88.5034 75.5904 88.5034C73.6098 88.5063 71.7493 89.2805 70.3511 90.6829C69.6306 91.4052 69.0808 92.2512 68.7143 93.1714H51.2739C50.179 90.4413 47.5069 88.5041 44.3832 88.5041C41.6748 88.5078 39.1842 89.9892 37.8835 92.3707C37.8077 92.509 37.8108 92.6773 37.8913 92.8127C37.9718 92.9482 38.1176 93.0309 38.2753 93.0309H38.2757L44.8902 93.0205C45.0079 93.2989 45.2327 94.0722 45.235 95.9176C45.2381 97.7628 45.0155 98.5369 44.8984 98.8156L38.2857 98.8256C38.1281 98.8258 37.9822 98.9096 37.9017 99.0451C37.8217 99.181 37.819 99.3492 37.8953 99.4876C39.1995 101.859 41.69 103.333 44.395 103.333H44.4058C46.3869 103.33 48.2469 102.556 49.6456 101.153C50.3661 100.43 50.9157 99.5842 51.2819 98.664H68.7218C69.817 101.395 72.4871 103.332 75.603 103.332C75.603 103.332 75.613 103.332 75.6135 103.332C78.3215 103.329 80.8124 101.846 82.1131 99.4665C82.1889 99.3279 82.1858 99.1595 82.1054 99.0242C82.0249 98.8888 81.879 98.8061 81.7214 98.8061Z" fill="#FCFCFC"/>
</g>
<defs>
<clipPath id="clip0_1518_17595">
<rect width="80" height="80" fill="white" transform="translate(20 23.3333)"/>
</clipPath>
</defs>
</svg>
