<svg xmlns="http://www.w3.org/2000/svg" viewBox="0 0 424.62 439.47"><defs><style>.cls-1{fill:#fafafa;}.cls-2{fill:#e0e0e0;}.cls-22,.cls-24,.cls-3{fill:#ba68c8;}.cls-4{fill:#76c8f2;}.cls-5{opacity:0.1;}.cls-6,.cls-9{fill:#d1edfb;}.cls-7{fill:#1aa3e9;}.cls-8{opacity:0.55;}.cls-9{opacity:0.6;}.cls-10{fill:#0062b2;}.cls-11,.cls-20{opacity:0.2;}.cls-12,.cls-14,.cls-21,.cls-23{fill:#fff;}.cls-13{opacity:0.15;}.cls-14{opacity:0.3;}.cls-15{fill:#e6e6e6;}.cls-16{fill:#ebebeb;}.cls-17,.cls-19{fill:#455a64;}.cls-17,.cls-18{opacity:0.5;}.cls-21{opacity:0.8;}.cls-22{opacity:0.75;}.cls-23{opacity:0.4;}.cls-24,.cls-25{opacity:0.25;}</style></defs><g id="Layer_2" data-name="Layer 2"><g id="Floor"><path id="Floor-2" data-name="Floor" class="cls-1" d="M68.49,233.86c-81.47,47-81.47,123.29,0,170.33s213.56,47,295,0,81.47-123.3,0-170.33S150,186.82,68.49,233.86Z"/></g><g id="Gears"><g id="Gears-2" data-name="Gears"><path class="cls-2" d="M398.73,129.26l-3.83-6.8a2.94,2.94,0,0,0-1.68-1.16,21.51,21.51,0,0,1-2.51-.75.52.52,0,0,0-.44,0,.46.46,0,0,0-.22.3l-1.17,4.37a1.93,1.93,0,0,1-1.19,1.36,1.89,1.89,0,0,1-1.78-.33L380,121.88a4.09,4.09,0,0,1-1.52-3.15l.18-5.51a3.53,3.53,0,0,0-.76-2,45.33,45.33,0,0,1-2.84-3.54,2.18,2.18,0,0,0-1.62-.77l-3.71.3a3.25,3.25,0,0,1-3-1.74L363,97.71a2.3,2.3,0,0,1-.1-1.82,2.34,2.34,0,0,1,1.23-1.35l3-1.37a1,1,0,0,0,.49-1.09,35.72,35.72,0,0,1-.77-3.81,3.8,3.8,0,0,0-1-2l-5.26-4.56a4,4,0,0,1-1.23-3.28l.8-5.61a1.85,1.85,0,0,1,1-1.49,1.88,1.88,0,0,1,1.81.17l5.21,3.21a.64.64,0,0,0,.87-.26,9.88,9.88,0,0,1,1-1.35,1.68,1.68,0,0,0,.36-1.56l-2.82-7a2.16,2.16,0,0,1,1.5-3l3.83-1A3,3,0,0,1,376.06,62l3.83,6.8A3,3,0,0,0,381.56,70a21.1,21.1,0,0,1,2.52.75.56.56,0,0,0,.44,0,.45.45,0,0,0,.21-.3l1.18-4.37a1.83,1.83,0,0,1,3-1l5.91,4.37a4.07,4.07,0,0,1,1.53,3.15l-.18,5.51a3.47,3.47,0,0,0,.76,2,44,44,0,0,1,2.84,3.54,2.1,2.1,0,0,0,1.62.76l3.71-.29a3.23,3.23,0,0,1,3,1.74l3.73,7.73a2.35,2.35,0,0,1,.1,1.82,2.39,2.39,0,0,1-1.24,1.35l-3,1.36a1,1,0,0,0-.49,1.1A37.28,37.28,0,0,1,408,103a3.8,3.8,0,0,0,1,2l5.26,4.56a3.94,3.94,0,0,1,1.23,3.27l-.8,5.62a1.78,1.78,0,0,1-2.82,1.32l-5.22-3.21a.63.63,0,0,0-.86.26,10.53,10.53,0,0,1-1,1.35,1.72,1.72,0,0,0-.37,1.56l2.82,7a2.14,2.14,0,0,1-.06,1.82,2.19,2.19,0,0,1-1.43,1.13l-3.83,1a1.69,1.69,0,0,1-.38.07A3,3,0,0,1,398.73,129.26Zm8.87-14.19,5.22,3.22a1.56,1.56,0,0,0,.14.07.29.29,0,0,0,.05-.16l.8-5.62a2.25,2.25,0,0,0-.64-1.72l-5.27-4.56a5.52,5.52,0,0,1-1.62-3,34.31,34.31,0,0,0-.73-3.63,2.74,2.74,0,0,1,1.44-3.1l3-1.37a.65.65,0,0,0,.33-.36.67.67,0,0,0,0-.48l-3.73-7.73a1.51,1.51,0,0,0-1.32-.76l-3.71.29a3.83,3.83,0,0,1-3.16-1.47,42.53,42.53,0,0,0-2.74-3.41A5.29,5.29,0,0,1,394.4,78l.18-5.51a2.39,2.39,0,0,0-.82-1.7l-5.91-4.37a.64.64,0,0,0-.17-.09s-.06.06-.09.18l-1.18,4.37a2.18,2.18,0,0,1-1.1,1.39,2.26,2.26,0,0,1-1.84.09,16.28,16.28,0,0,0-2.28-.68,4.64,4.64,0,0,1-2.81-2l-3.84-6.8a1.2,1.2,0,0,0-1.24-.53l-3.83,1a.49.49,0,0,0-.32.23.48.48,0,0,0,0,.39l2.82,7a3.41,3.41,0,0,1-.68,3.36,9,9,0,0,0-.88,1.15,2.36,2.36,0,0,1-3.23.79L362,73a1.19,1.19,0,0,0-.15-.07.75.75,0,0,0-.05.16L361,78.71h0a2.25,2.25,0,0,0,.64,1.72L366.88,85a5.49,5.49,0,0,1,1.62,3,31.86,31.86,0,0,0,.74,3.62,2.74,2.74,0,0,1-1.45,3.11l-3,1.37a.63.63,0,0,0-.33.35.6.6,0,0,0,0,.49l3.73,7.73a1.51,1.51,0,0,0,1.32.76l3.71-.29a3.85,3.85,0,0,1,3.16,1.47c.87,1.2,1.79,2.34,2.74,3.41a5.22,5.22,0,0,1,1.19,3.24l-.18,5.51a2.35,2.35,0,0,0,.82,1.69l5.92,4.38a.64.64,0,0,0,.17.09.37.37,0,0,0,.09-.18l1.18-4.37a2.12,2.12,0,0,1,1.1-1.39,2.24,2.24,0,0,1,1.83-.09,16.81,16.81,0,0,0,2.29.68,4.63,4.63,0,0,1,2.81,2l3.83,6.8a1.22,1.22,0,0,0,1.25.53l3.83-1a.49.49,0,0,0,.32-.23.48.48,0,0,0,0-.39l-2.82-7a3.41,3.41,0,0,1,.69-3.36,10.26,10.26,0,0,0,.88-1.15,2.41,2.41,0,0,1,1.8-1.12A2.27,2.27,0,0,1,407.6,115.07Zm-22.42-6.75h0c-6.63-4.9-11.23-14.49-10.26-21.38.45-3.12,2-5.38,4.32-6.36,2.9-1.22,6.67-.34,10.37,2.39,6.63,4.9,11.23,14.49,10.25,21.38-.44,3.12-2,5.38-4.32,6.36a6.74,6.74,0,0,1-2,.5C391,111.45,388.07,110.45,385.18,108.32Zm-5.27-26.14c-1.78.74-2.91,2.47-3.27,5-.89,6.33,3.4,15.18,9.57,19.75,3.2,2.35,6.35,3.15,8.66,2.18,1.79-.74,2.92-2.48,3.28-5,.89-6.33-3.4-15.18-9.58-19.75-2.53-1.87-5.05-2.76-7.13-2.56A5.21,5.21,0,0,0,379.91,82.18Z"/><path class="cls-2" d="M345.71,98.61l-2.55-4.52a1.78,1.78,0,0,0-1-.71,12.29,12.29,0,0,1-1.68-.5c-.07,0-.14,0-.26.11l-.78,2.9a1.42,1.42,0,0,1-.88,1,1.44,1.44,0,0,1-1.31-.24l-3.93-2.91a2.83,2.83,0,0,1-1.06-2.2l.12-3.66a2.27,2.27,0,0,0-.47-1.25c-.66-.75-1.3-1.54-1.9-2.36a1.29,1.29,0,0,0-.95-.46l-2.47.2a2.3,2.3,0,0,1-2.14-1.23L322,77.64a1.7,1.7,0,0,1-.07-1.31,1.68,1.68,0,0,1,.9-1l2-.91a.52.52,0,0,0,.25-.57,24.47,24.47,0,0,1-.51-2.55,2.4,2.4,0,0,0-.64-1.22l-3.5-3a2.79,2.79,0,0,1-.86-2.3l.53-3.73a1.32,1.32,0,0,1,2.08-1l3.46,2.13a.28.28,0,0,0,.39-.13,8,8,0,0,1,.71-.92,1,1,0,0,0,.21-.88L325,55.64a1.58,1.58,0,0,1,1.08-2.14l2.55-.65a2.09,2.09,0,0,1,2.27,1l2.55,4.52a1.81,1.81,0,0,0,1,.7,13.41,13.41,0,0,1,1.69.51c.06,0,.13,0,.25-.11l.78-2.9a1.35,1.35,0,0,1,2.19-.76l3.93,2.9a2.85,2.85,0,0,1,1.06,2.2l-.12,3.66a2.21,2.21,0,0,0,.48,1.26,29.14,29.14,0,0,1,1.89,2.36,1.29,1.29,0,0,0,1,.45l2.46-.19a2.29,2.29,0,0,1,2.14,1.22l2.48,5.14a1.73,1.73,0,0,1,.07,1.32,1.76,1.76,0,0,1-.89,1l-2,.91a.52.52,0,0,0-.26.57,22,22,0,0,1,.52,2.54,2.49,2.49,0,0,0,.65,1.23l3.49,3a2.79,2.79,0,0,1,.86,2.3l-.53,3.73a1.38,1.38,0,0,1-.75,1.1,1.45,1.45,0,0,1-1.33-.12l-3.46-2.14a.3.3,0,0,0-.39.13,8.23,8.23,0,0,1-.7.92,1,1,0,0,0-.22.89l1.87,4.63a1.62,1.62,0,0,1,0,1.33,1.66,1.66,0,0,1-1,.82l-2.55.65-.27,0A2.13,2.13,0,0,1,345.71,98.61ZM351.79,89l3.39,2.17.53-3.73a1.43,1.43,0,0,0-.38-1l-3.5-3a3.76,3.76,0,0,1-1.12-2.1,19.91,19.91,0,0,0-.49-2.39,2,2,0,0,1,1-2.22l2-.91a.28.28,0,0,0,.15-.16.27.27,0,0,0,0-.21l-2.47-5.14a.91.91,0,0,0-.75-.42l-2.46.19a2.72,2.72,0,0,1-2.22-1,28.87,28.87,0,0,0-1.81-2.26,3.6,3.6,0,0,1-.83-2.24l.12-3.66a1.46,1.46,0,0,0-.49-1l-3.89-2.92-.78,2.9a1.6,1.6,0,0,1-.8,1,1.62,1.62,0,0,1-1.33.06,11.54,11.54,0,0,0-1.5-.45A3.15,3.15,0,0,1,332.2,59l-2.55-4.52a.66.66,0,0,0-.68-.29l-2.54.65-.17,0,.05.18,1.88,4.63a2.44,2.44,0,0,1-.48,2.38,6.11,6.11,0,0,0-.58.74,1.68,1.68,0,0,1-2.32.57l-3.39-2.18L320.89,65h0a1.38,1.38,0,0,0,.39,1l3.49,3a3.85,3.85,0,0,1,1.12,2.1c.11.77.28,1.58.48,2.39a2,2,0,0,1-1,2.22l-2,.91a.25.25,0,0,0-.14.16.28.28,0,0,0,0,.22l2.48,5.13a.87.87,0,0,0,.74.43l2.46-.2a2.69,2.69,0,0,1,2.22,1c.57.78,1.18,1.54,1.81,2.25a3.63,3.63,0,0,1,.83,2.25l-.12,3.66a1.46,1.46,0,0,0,.49,1L338,95.52l.78-2.9a1.58,1.58,0,0,1,.8-1,1.62,1.62,0,0,1,1.33-.07,12,12,0,0,0,1.5.45,3.26,3.26,0,0,1,2,1.4L347,97.91a.65.65,0,0,0,.67.28l2.54-.64.12-.23-1.87-4.64a2.38,2.38,0,0,1,.48-2.37,7.38,7.38,0,0,0,.57-.75,1.75,1.75,0,0,1,1.29-.81A1.67,1.67,0,0,1,351.79,89Zm-15-4.26h0c-4.44-3.28-7.52-9.71-6.86-14.33a5.16,5.16,0,0,1,2.95-4.33c2-.83,4.52-.24,7,1.61,4.44,3.27,7.52,9.7,6.87,14.32a5.19,5.19,0,0,1-3,4.34,5,5,0,0,1-1.38.34A8.48,8.48,0,0,1,336.75,84.74Zm-3.36-17.35a3.77,3.77,0,0,0-2.09,3.22c-.59,4.16,2.23,10,6.3,13h0c2.08,1.54,4.13,2.07,5.62,1.44a3.78,3.78,0,0,0,2.09-3.22c.59-4.15-2.24-10-6.31-13a7.09,7.09,0,0,0-4.64-1.68A3.83,3.83,0,0,0,333.39,67.39Z"/></g><g id="Gears-3" data-name="Gears"><g id="Gear"><path class="cls-3" d="M81.53,44.72h0l-6.36-3.65h0a.74.74,0,0,0-.65,0l-4.34,2a1.83,1.83,0,0,1,.13-1l5-10.11a1.13,1.13,0,0,0-.45-1.47l-5.43-3.14h0l-6.33-3.63a1.13,1.13,0,0,0-1.49.35l-6.25,9.39a1.81,1.81,0,0,1-.82.63L54,29.24a.71.71,0,0,0-.32-.57h0L47.35,25h0a.71.71,0,0,0-.68.06L38.22,30a2.28,2.28,0,0,0-1,1.58l-.85,9.4a3.09,3.09,0,0,1-.88,1.75,51.65,51.65,0,0,0-4.69,5,1.62,1.62,0,0,1-1.66.47l-5.42-1.9a1.33,1.33,0,0,0-1.52.57L16,57.55a1.31,1.31,0,0,0,.27,1.6l4.35,3.75A1.62,1.62,0,0,1,21,64.57a50.41,50.41,0,0,0-2,6.55A3.06,3.06,0,0,1,18,72.75l-7.71,5.44a2.24,2.24,0,0,0-.86,1.66V89.6a.68.68,0,0,0,.3.63h0l6.36,3.65h0a.73.73,0,0,0,.66,0l4.34-2a1.84,1.84,0,0,1-.13,1l-5,10.11a1.14,1.14,0,0,0,.44,1.47L24,108.93h0l4.14,2.39a1.14,1.14,0,0,0,1.5-.35l6.24-9.39a1.84,1.84,0,0,1,.83-.63l.48,4.76a.71.71,0,0,0,.32.58h0l6.35,3.64h0a.71.71,0,0,0,.7-.05L53,105a2.26,2.26,0,0,0,1-1.58l.85-9.4a3.14,3.14,0,0,1,.87-1.75,49.43,49.43,0,0,0,4.7-5,1.62,1.62,0,0,1,1.66-.47l5.42,1.89a1.31,1.31,0,0,0,1.52-.56L75.26,77.4A1.33,1.33,0,0,0,75,75.8l-4.35-3.75a1.6,1.6,0,0,1-.42-1.67,52,52,0,0,0,2-6.55,3.18,3.18,0,0,1,1.08-1.63L81,56.76a2.27,2.27,0,0,0,.86-1.66V45.35A.7.7,0,0,0,81.53,44.72Zm-47,32.82c0-9.1,6.39-20.17,14.27-24.72,3.08-1.78,5.93-2.29,8.26-1.72,1.21,1.67,1.85,4.22,1.85,7.56,0,9.1-6.38,20.17-14.27,24.72-3.08,1.78-5.7,2.35-7.75,1.87A11.69,11.69,0,0,1,34.53,77.54Z"/><path class="cls-4" d="M81.53,44.72h0l-6.36-3.65h0a.74.74,0,0,0-.65,0l-4.34,2a1.83,1.83,0,0,1,.13-1l5-10.11a1.13,1.13,0,0,0-.45-1.47l-5.43-3.14h0l-6.33-3.63a1.13,1.13,0,0,0-1.49.35l-6.25,9.39a1.81,1.81,0,0,1-.82.63L54,29.24a.71.71,0,0,0-.32-.57h0L47.35,25h0a.71.71,0,0,0-.68.06L38.22,30a2.28,2.28,0,0,0-1,1.58l-.85,9.4a3.09,3.09,0,0,1-.88,1.75,51.65,51.65,0,0,0-4.69,5,1.62,1.62,0,0,1-1.66.47l-5.42-1.9a1.33,1.33,0,0,0-1.52.57L16,57.55a1.31,1.31,0,0,0,.27,1.6l4.35,3.75A1.62,1.62,0,0,1,21,64.57a50.41,50.41,0,0,0-2,6.55A3.06,3.06,0,0,1,18,72.75l-7.71,5.44a2.24,2.24,0,0,0-.86,1.66V89.6a.68.68,0,0,0,.3.63h0l6.36,3.65h0a.73.73,0,0,0,.66,0l4.34-2a1.84,1.84,0,0,1-.13,1l-5,10.11a1.14,1.14,0,0,0,.44,1.47L24,108.93h0l4.14,2.39a1.14,1.14,0,0,0,1.5-.35l6.24-9.39a1.84,1.84,0,0,1,.83-.63l.48,4.76a.71.71,0,0,0,.32.58h0l6.35,3.64h0a.71.71,0,0,0,.7-.05L53,105a2.26,2.26,0,0,0,1-1.58l.85-9.4a3.14,3.14,0,0,1,.87-1.75,49.43,49.43,0,0,0,4.7-5,1.62,1.62,0,0,1,1.66-.47l5.42,1.89a1.31,1.31,0,0,0,1.52-.56L75.26,77.4A1.33,1.33,0,0,0,75,75.8l-4.35-3.75a1.6,1.6,0,0,1-.42-1.67,52,52,0,0,0,2-6.55,3.18,3.18,0,0,1,1.08-1.63L81,56.76a2.27,2.27,0,0,0,.86-1.66V45.35A.7.7,0,0,0,81.53,44.72Zm-47,32.82c0-9.1,6.39-20.17,14.27-24.72,3.08-1.78,5.93-2.29,8.26-1.72,1.21,1.67,1.85,4.22,1.85,7.56,0,9.1-6.38,20.17-14.27,24.72-3.08,1.78-5.7,2.35-7.75,1.87A11.69,11.69,0,0,1,34.53,77.54Z"/><path class="cls-5" d="M25.5,91.06a.88.88,0,0,0-1.25-.58L21.08,91.9A1.87,1.87,0,0,1,20.94,93l-5,10.11a1.14,1.14,0,0,0,.44,1.47L24,108.93l-1.29-.75a1.13,1.13,0,0,1-.44-1.47l5-10.1a2,2,0,0,0-.12-1.82A17.43,17.43,0,0,1,25.5,91.06ZM43.81,109.9a.92.92,0,0,1-.26-.54l-.82-8.21a.88.88,0,0,0-1.12-.79,17.73,17.73,0,0,1-4.07.41,2,2,0,0,0-.82.17l.48,4.77a.7.7,0,0,0,.33.57h0Z"/><path class="cls-5" d="M63.06,61.06c0,9.1-6.38,20.16-14.26,24.72-5,2.87-9.37,2.46-11.92-.53,2,.49,4.68-.09,7.77-1.87,7.88-4.55,14.26-15.62,14.26-24.72,0-3.33-.64-5.88-1.84-7.57C60.7,52,63.06,55.52,63.06,61.06Z"/><path class="cls-3" d="M63.08,23.63a1.13,1.13,0,0,0-1.49.35l-6.25,9.39a1.74,1.74,0,0,1-.41.4l6.35,3.66A1.53,1.53,0,0,0,61.7,37l6.24-9.39a1.16,1.16,0,0,1,1.37-.41ZM75.17,41.07h0a.73.73,0,0,0-.66,0l-4.34,2a2.07,2.07,0,0,0,.26.76A17,17,0,0,1,72,47.36a.75.75,0,0,1,.07.18,1.07,1.07,0,0,0,.22.39l.11.1a.85.85,0,0,0,.25.13.89.89,0,0,0,.46,0,.74.74,0,0,0,.21-.07l7.52-3.39.19-.07a.58.58,0,0,1,.26,0,.49.49,0,0,1,.21.08h0ZM47.35,25a.69.69,0,0,0-.68.07L38.22,30a2.26,2.26,0,0,0-.84,1l6.34,3.65a2.16,2.16,0,0,1,.85-1L53,28.71a.77.77,0,0,1,.65-.08ZM18.59,72.12a2.76,2.76,0,0,1-.59.63l-7.72,5.43a2.11,2.11,0,0,0-.51.59l6.34,3.64a1.73,1.73,0,0,1,.52-.58l7.72-5.43a2.77,2.77,0,0,0,.59-.63Zm4.69-26a1.36,1.36,0,0,0-1.09.63L16,57.54a1.35,1.35,0,0,0-.14.79L22.19,62a1.29,1.29,0,0,1,.14-.8l6.22-10.76a1.32,1.32,0,0,1,1-.62Z"/><path class="cls-6" d="M63.08,23.63a1.13,1.13,0,0,0-1.49.35l-6.25,9.39a1.74,1.74,0,0,1-.41.4l6.35,3.66A1.53,1.53,0,0,0,61.7,37l6.24-9.39a1.16,1.16,0,0,1,1.37-.41ZM75.17,41.07h0a.73.73,0,0,0-.66,0l-4.34,2a2.07,2.07,0,0,0,.26.76A17,17,0,0,1,72,47.36a.75.75,0,0,1,.07.18,1.07,1.07,0,0,0,.22.39l.11.1a.85.85,0,0,0,.25.13.89.89,0,0,0,.46,0,.74.74,0,0,0,.21-.07l7.52-3.39.19-.07a.58.58,0,0,1,.26,0,.49.49,0,0,1,.21.08h0ZM47.35,25a.69.69,0,0,0-.68.07L38.22,30a2.26,2.26,0,0,0-.84,1l6.34,3.65a2.16,2.16,0,0,1,.85-1L53,28.71a.77.77,0,0,1,.65-.08ZM18.59,72.12a2.76,2.76,0,0,1-.59.63l-7.72,5.43a2.11,2.11,0,0,0-.51.59l6.34,3.64a1.73,1.73,0,0,1,.52-.58l7.72-5.43a2.77,2.77,0,0,0,.59-.63Zm4.69-26a1.36,1.36,0,0,0-1.09.63L16,57.54a1.35,1.35,0,0,0-.14.79L22.19,62a1.29,1.29,0,0,1,.14-.8l6.22-10.76a1.32,1.32,0,0,1,1-.62Z"/><path class="cls-3" d="M81.83,55.1V45.35a.63.63,0,0,0-1-.62l-7.52,3.39a.89.89,0,0,1-1.25-.58,16.76,16.76,0,0,0-1.68-3.73A2.08,2.08,0,0,1,70.31,42l5-10.11a1.13,1.13,0,0,0-.45-1.47l-5.43-3.14a1.15,1.15,0,0,0-1.5.35L61.69,37a2.1,2.1,0,0,1-1.63.81,16.69,16.69,0,0,0-4.07.41.89.89,0,0,1-1.13-.79L54,29.24a.63.63,0,0,0-1-.52l-8.44,4.87a2.28,2.28,0,0,0-1,1.58l-.85,9.4a3.15,3.15,0,0,1-.88,1.76,51.52,51.52,0,0,0-4.69,5,1.62,1.62,0,0,1-1.66.47l-5.42-1.89a1.32,1.32,0,0,0-1.52.56L22.34,61.19a1.33,1.33,0,0,0,.27,1.6L27,66.54a1.62,1.62,0,0,1,.42,1.67,50.81,50.81,0,0,0-1.95,6.55,3.21,3.21,0,0,1-1.08,1.64l-7.72,5.43a2.25,2.25,0,0,0-.86,1.66v9.75a.63.63,0,0,0,1,.63l7.52-3.39a.89.89,0,0,1,1.25.58,16.68,16.68,0,0,0,1.68,3.72,2.1,2.1,0,0,1,.11,1.83l-5,10.1a1.14,1.14,0,0,0,.44,1.47l5.44,3.14a1.14,1.14,0,0,0,1.5-.35l6.24-9.39a2.07,2.07,0,0,1,1.64-.81,16.59,16.59,0,0,0,4.06-.42.9.9,0,0,1,1.13.8l.83,8.2a.63.63,0,0,0,1,.53L53,105a2.26,2.26,0,0,0,1-1.58l.85-9.4a3.14,3.14,0,0,1,.87-1.75,49.43,49.43,0,0,0,4.7-5,1.62,1.62,0,0,1,1.66-.47l5.42,1.89a1.31,1.31,0,0,0,1.52-.56L75.26,77.4A1.33,1.33,0,0,0,75,75.8l-4.35-3.75a1.6,1.6,0,0,1-.42-1.67,52,52,0,0,0,2-6.55,3.18,3.18,0,0,1,1.08-1.63L81,56.76A2.27,2.27,0,0,0,81.83,55.1Zm-33,30.67c-7.88,4.56-14.27.87-14.27-8.23S40.92,57.37,48.8,52.82,63.07,52,63.07,61.06,56.68,81.22,48.8,85.77Z"/><path class="cls-7" d="M81.83,55.1V45.35a.63.63,0,0,0-1-.62l-7.52,3.39a.89.89,0,0,1-1.25-.58,16.76,16.76,0,0,0-1.68-3.73A2.08,2.08,0,0,1,70.31,42l5-10.11a1.13,1.13,0,0,0-.45-1.47l-5.43-3.14a1.15,1.15,0,0,0-1.5.35L61.69,37a2.1,2.1,0,0,1-1.63.81,16.69,16.69,0,0,0-4.07.41.89.89,0,0,1-1.13-.79L54,29.24a.63.63,0,0,0-1-.52l-8.44,4.87a2.28,2.28,0,0,0-1,1.58l-.85,9.4a3.15,3.15,0,0,1-.88,1.76,51.52,51.52,0,0,0-4.69,5,1.62,1.62,0,0,1-1.66.47l-5.42-1.89a1.32,1.32,0,0,0-1.52.56L22.34,61.19a1.33,1.33,0,0,0,.27,1.6L27,66.54a1.62,1.62,0,0,1,.42,1.67,50.81,50.81,0,0,0-1.95,6.55,3.21,3.21,0,0,1-1.08,1.64l-7.72,5.43a2.25,2.25,0,0,0-.86,1.66v9.75a.63.63,0,0,0,1,.63l7.52-3.39a.89.89,0,0,1,1.25.58,16.68,16.68,0,0,0,1.68,3.72,2.1,2.1,0,0,1,.11,1.83l-5,10.1a1.14,1.14,0,0,0,.44,1.47l5.44,3.14a1.14,1.14,0,0,0,1.5-.35l6.24-9.39a2.07,2.07,0,0,1,1.64-.81,16.59,16.59,0,0,0,4.06-.42.9.9,0,0,1,1.13.8l.83,8.2a.63.63,0,0,0,1,.53L53,105a2.26,2.26,0,0,0,1-1.58l.85-9.4a3.14,3.14,0,0,1,.87-1.75,49.43,49.43,0,0,0,4.7-5,1.62,1.62,0,0,1,1.66-.47l5.42,1.89a1.31,1.31,0,0,0,1.52-.56L75.26,77.4A1.33,1.33,0,0,0,75,75.8l-4.35-3.75a1.6,1.6,0,0,1-.42-1.67,52,52,0,0,0,2-6.55,3.18,3.18,0,0,1,1.08-1.63L81,56.76A2.27,2.27,0,0,0,81.83,55.1Zm-33,30.67c-7.88,4.56-14.27.87-14.27-8.23S40.92,57.37,48.8,52.82,63.07,52,63.07,61.06,56.68,81.22,48.8,85.77Z"/><g class="cls-8"><path class="cls-6" d="M68.88,27.84a.46.46,0,0,1,.2.05L74.52,31a.44.44,0,0,1,.16.54l-5,10.1a2.75,2.75,0,0,0,.14,2.51,16.85,16.85,0,0,1,1.61,3.57A1.6,1.6,0,0,0,73,48.92a1.65,1.65,0,0,0,.69-.15l7.47-3.37v9.7a1.6,1.6,0,0,1-.55,1.08l-7.72,5.43a3.88,3.88,0,0,0-1.37,2.07,49,49,0,0,1-1.93,6.45,2.35,2.35,0,0,0,.63,2.47l4.35,3.75a.61.61,0,0,1,.12.7L68.43,87.8a.61.61,0,0,1-.51.27l-.16,0-5.42-1.89a1.89,1.89,0,0,0-.67-.11,2.33,2.33,0,0,0-1.78.8,50.31,50.31,0,0,1-4.62,4.89A3.9,3.9,0,0,0,54.16,94l-.84,9.4a1.6,1.6,0,0,1-.66,1l-8.4,4.85-.81-8.15a1.61,1.61,0,0,0-1.61-1.47,2.58,2.58,0,0,0-.39,0,16.21,16.21,0,0,1-3.52.41H37.5a2.8,2.8,0,0,0-2.19,1.13l-6.25,9.39a.42.42,0,0,1-.35.18.41.41,0,0,1-.19,0l-5.44-3.14a.42.42,0,0,1-.16-.53l5-10.11a2.79,2.79,0,0,0-.14-2.51,16.41,16.41,0,0,1-1.61-3.57,1.61,1.61,0,0,0-1.54-1.17,1.72,1.72,0,0,0-.69.15l-7.47,3.37v-9.7A1.55,1.55,0,0,1,17,82.42L24.76,77a3.89,3.89,0,0,0,1.37-2.06,50.16,50.16,0,0,1,1.92-6.46A2.32,2.32,0,0,0,27.43,66l-4.35-3.75a.61.61,0,0,1-.12-.7l6.21-10.76a.6.6,0,0,1,.51-.27l.15,0,5.43,1.9a2.09,2.09,0,0,0,.67.11,2.36,2.36,0,0,0,1.77-.8,50.52,50.52,0,0,1,4.63-4.9,3.9,3.9,0,0,0,1.11-2.22l.84-9.39a1.61,1.61,0,0,1,.65-1l8.4-4.85.82,8.16A1.59,1.59,0,0,0,55.76,39a1.72,1.72,0,0,0,.39,0,16.11,16.11,0,0,1,3.52-.4h.43a2.79,2.79,0,0,0,2.19-1.13L68.54,28a.4.4,0,0,1,.34-.18h0M42.43,88.44a13.58,13.58,0,0,0,6.73-2c8.06-4.65,14.62-16,14.62-25.33a12.65,12.65,0,0,0-2.34-8,7.75,7.75,0,0,0-6.27-3,13.58,13.58,0,0,0-6.73,2.05c-8.07,4.66-14.63,16-14.63,25.34,0,6.62,3.38,10.9,8.62,10.9M68.88,27.13a1.13,1.13,0,0,0-.94.49L61.69,37a2.08,2.08,0,0,1-1.59.81h-.43a17.17,17.17,0,0,0-3.68.42.91.91,0,0,1-.23,0,.89.89,0,0,1-.9-.82L54,29.24c0-.41-.28-.65-.6-.65a.82.82,0,0,0-.42.13l-8.44,4.87a2.28,2.28,0,0,0-1,1.58l-.85,9.4a3.15,3.15,0,0,1-.88,1.76,51.52,51.52,0,0,0-4.69,5,1.62,1.62,0,0,1-1.22.54,1.31,1.31,0,0,1-.44-.07l-5.42-1.89a1.07,1.07,0,0,0-.39-.07,1.32,1.32,0,0,0-1.13.63L22.34,61.19a1.33,1.33,0,0,0,.27,1.6L27,66.54a1.62,1.62,0,0,1,.42,1.67,50.81,50.81,0,0,0-1.95,6.55,3.21,3.21,0,0,1-1.08,1.64l-7.72,5.43a2.25,2.25,0,0,0-.86,1.66v9.75c0,.44.24.71.59.71a1,1,0,0,0,.37-.08l7.52-3.39a.92.92,0,0,1,.39-.09.9.9,0,0,1,.86.67,16.68,16.68,0,0,0,1.68,3.72,2.1,2.1,0,0,1,.11,1.83l-5,10.1a1.14,1.14,0,0,0,.44,1.47l5.44,3.14a1.08,1.08,0,0,0,.55.15,1.15,1.15,0,0,0,.95-.5l6.24-9.39a2.08,2.08,0,0,1,1.6-.81h.43a16.48,16.48,0,0,0,3.67-.42l.24,0a.88.88,0,0,1,.89.82l.83,8.2c0,.41.28.65.59.65a.87.87,0,0,0,.42-.12L53,105a2.26,2.26,0,0,0,1-1.58l.85-9.4a3.14,3.14,0,0,1,.87-1.75,49.43,49.43,0,0,0,4.7-5,1.64,1.64,0,0,1,1.22-.54,1.31,1.31,0,0,1,.44.07l5.42,1.89a1,1,0,0,0,.39.07,1.33,1.33,0,0,0,1.13-.63L75.26,77.4A1.33,1.33,0,0,0,75,75.8l-4.35-3.75a1.6,1.6,0,0,1-.42-1.67,52,52,0,0,0,2-6.55,3.18,3.18,0,0,1,1.08-1.63L81,56.76a2.27,2.27,0,0,0,.86-1.66V45.35c0-.44-.25-.71-.6-.71a.87.87,0,0,0-.36.09l-7.52,3.39a1,1,0,0,1-.4.09.91.91,0,0,1-.85-.67,16.76,16.76,0,0,0-1.68-3.73A2.08,2.08,0,0,1,70.31,42l5-10.11a1.13,1.13,0,0,0-.45-1.47l-5.43-3.14a1.14,1.14,0,0,0-.56-.14ZM42.43,87.72c-4.69,0-7.9-3.73-7.9-10.18,0-9.1,6.39-20.17,14.27-24.72a13,13,0,0,1,6.37-2c4.68,0,7.9,3.73,7.9,10.19,0,9.1-6.39,20.16-14.27,24.71a12.88,12.88,0,0,1-6.37,2Z"/></g></g></g><g id="Gears-4" data-name="Gears"><g id="Gear-2" data-name="Gear"><path class="cls-3" d="M142.45,27.47h0l-3.18-1.83h0a.35.35,0,0,0-.33,0l-2.17,1a1,1,0,0,1,.06-.53l2.51-5.05a.58.58,0,0,0-.22-.74l-2.72-1.57h0l-3.16-1.82a.56.56,0,0,0-.75.18l-3.12,4.69a1,1,0,0,1-.41.32l-.24-2.38a.34.34,0,0,0-.16-.29h0l-3.18-1.83h0a.35.35,0,0,0-.34,0l-4.23,2.44a1.17,1.17,0,0,0-.5.79l-.42,4.7a1.64,1.64,0,0,1-.44.88,24.1,24.1,0,0,0-2.35,2.48.8.8,0,0,1-.83.23l-2.71-.94a.66.66,0,0,0-.76.28l-3.11,5.38a.67.67,0,0,0,.14.8L112,36.55a.82.82,0,0,1,.21.84,23.88,23.88,0,0,0-1,3.27,1.53,1.53,0,0,1-.54.82l-3.86,2.72a1.14,1.14,0,0,0-.43.83v4.88a.35.35,0,0,0,.15.31h0L109.72,52h0a.38.38,0,0,0,.33,0l2.17-1a1,1,0,0,1-.07.53l-2.51,5a.56.56,0,0,0,.23.73l3.81,2.2h0l2.07,1.2a.58.58,0,0,0,.75-.18l3.12-4.7a1,1,0,0,1,.41-.31l.24,2.38a.37.37,0,0,0,.17.29h0l3.17,1.82h0a.35.35,0,0,0,.35,0l4.22-2.44a1.14,1.14,0,0,0,.51-.78l.42-4.7a1.51,1.51,0,0,1,.44-.88,26.32,26.32,0,0,0,2.34-2.48.82.82,0,0,1,.83-.24l2.71.95a.67.67,0,0,0,.77-.29l3.1-5.37a.64.64,0,0,0-.14-.8L137,41.13a.8.8,0,0,1-.21-.83,27.2,27.2,0,0,0,1-3.28,1.56,1.56,0,0,1,.54-.82l3.85-2.71a1.15,1.15,0,0,0,.44-.83V27.78A.34.34,0,0,0,142.45,27.47ZM119,43.87a15.75,15.75,0,0,1,7.13-12.36,5.74,5.74,0,0,1,4.13-.86,6.55,6.55,0,0,1,.93,3.79A15.76,15.76,0,0,1,124,46.79a5.46,5.46,0,0,1-3.88.94A5.81,5.81,0,0,1,119,43.87Z"/><path class="cls-4" d="M142.45,27.47h0l-3.18-1.83h0a.35.35,0,0,0-.33,0l-2.17,1a1,1,0,0,1,.06-.53l2.51-5.05a.58.58,0,0,0-.22-.74l-2.72-1.57h0l-3.16-1.82a.56.56,0,0,0-.75.18l-3.12,4.69a1,1,0,0,1-.41.32l-.24-2.38a.34.34,0,0,0-.16-.29h0l-3.18-1.83h0a.35.35,0,0,0-.34,0l-4.23,2.44a1.17,1.17,0,0,0-.5.79l-.42,4.7a1.64,1.64,0,0,1-.44.88,24.1,24.1,0,0,0-2.35,2.48.8.8,0,0,1-.83.23l-2.71-.94a.66.66,0,0,0-.76.28l-3.11,5.38a.67.67,0,0,0,.14.8L112,36.55a.82.82,0,0,1,.21.84,23.88,23.88,0,0,0-1,3.27,1.53,1.53,0,0,1-.54.82l-3.86,2.72a1.14,1.14,0,0,0-.43.83v4.88a.35.35,0,0,0,.15.31h0L109.72,52h0a.38.38,0,0,0,.33,0l2.17-1a1,1,0,0,1-.07.53l-2.51,5a.56.56,0,0,0,.23.73l3.81,2.2h0l2.07,1.2a.58.58,0,0,0,.75-.18l3.12-4.7a1,1,0,0,1,.41-.31l.24,2.38a.37.37,0,0,0,.17.29h0l3.17,1.82h0a.35.35,0,0,0,.35,0l4.22-2.44a1.14,1.14,0,0,0,.51-.78l.42-4.7a1.51,1.51,0,0,1,.44-.88,26.32,26.32,0,0,0,2.34-2.48.82.82,0,0,1,.83-.24l2.71.95a.67.67,0,0,0,.77-.29l3.1-5.37a.64.64,0,0,0-.14-.8L137,41.13a.8.8,0,0,1-.21-.83,27.2,27.2,0,0,0,1-3.28,1.56,1.56,0,0,1,.54-.82l3.85-2.71a1.15,1.15,0,0,0,.44-.83V27.78A.34.34,0,0,0,142.45,27.47ZM119,43.87a15.75,15.75,0,0,1,7.13-12.36,5.74,5.74,0,0,1,4.13-.86,6.55,6.55,0,0,1,.93,3.79A15.76,15.76,0,0,1,124,46.79a5.46,5.46,0,0,1-3.88.94A5.81,5.81,0,0,1,119,43.87Z"/><path class="cls-5" d="M114.43,50.63a.45.45,0,0,0-.62-.29l-1.59.72a.86.86,0,0,1-.07.53l-2.51,5a.59.59,0,0,0,.23.74l3.82,2.19L113,59.2a.58.58,0,0,1-.22-.74l2.51-5.05a1.08,1.08,0,0,0-.06-.91A8.42,8.42,0,0,1,114.43,50.63Zm9.16,9.42a.37.37,0,0,1-.13-.27l-.41-4.1a.45.45,0,0,0-.57-.4,8.06,8.06,0,0,1-2,.21,1,1,0,0,0-.41.09l.24,2.38a.39.39,0,0,0,.16.29h0Z"/><path class="cls-5" d="M133.21,35.63A15.76,15.76,0,0,1,126.08,48c-2.49,1.44-4.68,1.23-6-.26A5.45,5.45,0,0,0,124,46.8a15.76,15.76,0,0,0,7.14-12.36,6.55,6.55,0,0,0-.92-3.79C132,31.1,133.21,32.87,133.21,35.63Z"/><path class="cls-3" d="M133.22,16.92a.55.55,0,0,0-.74.18l-3.13,4.69a.67.67,0,0,1-.21.2l3.18,1.83a.7.7,0,0,0,.21-.21l3.12-4.69a.57.57,0,0,1,.68-.21Zm6,8.72h0a.33.33,0,0,0-.32,0l-2.17,1a1.13,1.13,0,0,0,.12.38,8.45,8.45,0,0,1,.81,1.77l0,.09a.55.55,0,0,0,.11.2l.06.05a.47.47,0,0,0,.12.07.59.59,0,0,0,.23,0l.11,0,3.76-1.7a.32.32,0,0,1,.09,0,.2.2,0,0,1,.13,0l.11,0h0Zm-13.9-8a.35.35,0,0,0-.34,0l-4.23,2.44a1.13,1.13,0,0,0-.42.51l3.17,1.82a1.09,1.09,0,0,1,.43-.51l4.22-2.44a.38.38,0,0,1,.32,0ZM111,41.17a1.24,1.24,0,0,1-.29.31l-3.86,2.72a.89.89,0,0,0-.25.29l3.17,1.82A.92.92,0,0,1,110,46l3.85-2.71a1.32,1.32,0,0,0,.3-.32Zm2.35-13a.65.65,0,0,0-.54.31l-3.11,5.38a.74.74,0,0,0-.07.39l3.18,1.83a.61.61,0,0,1,.07-.4L116,30.32a.63.63,0,0,1,.5-.31Z"/><path class="cls-6" d="M133.22,16.92a.55.55,0,0,0-.74.18l-3.13,4.69a.67.67,0,0,1-.21.2l3.18,1.83a.7.7,0,0,0,.21-.21l3.12-4.69a.57.57,0,0,1,.68-.21Zm6,8.72h0a.33.33,0,0,0-.32,0l-2.17,1a1.13,1.13,0,0,0,.12.38,8.45,8.45,0,0,1,.81,1.77l0,.09a.55.55,0,0,0,.11.2l.06.05a.47.47,0,0,0,.12.07.59.59,0,0,0,.23,0l.11,0,3.76-1.7a.32.32,0,0,1,.09,0,.2.2,0,0,1,.13,0l.11,0h0Zm-13.9-8a.35.35,0,0,0-.34,0l-4.23,2.44a1.13,1.13,0,0,0-.42.51l3.17,1.82a1.09,1.09,0,0,1,.43-.51l4.22-2.44a.38.38,0,0,1,.32,0ZM111,41.17a1.24,1.24,0,0,1-.29.31l-3.86,2.72a.89.89,0,0,0-.25.29l3.17,1.82A.92.92,0,0,1,110,46l3.85-2.71a1.32,1.32,0,0,0,.3-.32Zm2.35-13a.65.65,0,0,0-.54.31l-3.11,5.38a.74.74,0,0,0-.07.39l3.18,1.83a.61.61,0,0,1,.07-.4L116,30.32a.63.63,0,0,1,.5-.31Z"/><path class="cls-3" d="M142.6,32.66V27.78a.32.32,0,0,0-.48-.31l-3.76,1.69a.45.45,0,0,1-.63-.29,8.34,8.34,0,0,0-.84-1.86,1.08,1.08,0,0,1-.06-.91l2.51-5.05a.58.58,0,0,0-.22-.74l-2.72-1.57a.57.57,0,0,0-.75.18l-3.12,4.69a1,1,0,0,1-.82.41,8,8,0,0,0-2,.21.45.45,0,0,1-.57-.4l-.41-4.1a.32.32,0,0,0-.51-.27L124,21.9a1.18,1.18,0,0,0-.51.79l-.42,4.7a1.51,1.51,0,0,1-.44.88,26.32,26.32,0,0,0-2.34,2.48.82.82,0,0,1-.83.24L116.72,30a.67.67,0,0,0-.77.28l-3.1,5.38a.64.64,0,0,0,.14.8l2.17,1.88a.8.8,0,0,1,.21.83,27.2,27.2,0,0,0-1,3.28,1.5,1.5,0,0,1-.54.81L110,46a1.1,1.1,0,0,0-.43.83v4.88a.31.31,0,0,0,.48.31l3.75-1.7a.45.45,0,0,1,.63.29,8.42,8.42,0,0,0,.84,1.87,1,1,0,0,1,.06.91l-2.51,5.05a.58.58,0,0,0,.22.74l2.72,1.57a.58.58,0,0,0,.75-.18l3.12-4.7a1,1,0,0,1,.82-.4,8,8,0,0,0,2-.21.45.45,0,0,1,.57.4l.41,4.1A.31.31,0,0,0,124,60l4.22-2.44a1.14,1.14,0,0,0,.51-.78l.42-4.7a1.51,1.51,0,0,1,.44-.88,26.32,26.32,0,0,0,2.34-2.48.82.82,0,0,1,.83-.24l2.71.95a.67.67,0,0,0,.77-.29l3.1-5.37a.64.64,0,0,0-.14-.8L137,41.13a.8.8,0,0,1-.21-.83,27.2,27.2,0,0,0,1-3.28,1.56,1.56,0,0,1,.54-.82l3.85-2.71A1.15,1.15,0,0,0,142.6,32.66ZM126.08,48c-3.94,2.28-7.14.43-7.13-4.12a15.75,15.75,0,0,1,7.13-12.36c3.94-2.27,7.14-.43,7.14,4.12A15.77,15.77,0,0,1,126.08,48Z"/><path class="cls-7" d="M142.6,32.66V27.78a.32.32,0,0,0-.48-.31l-3.76,1.69a.45.45,0,0,1-.63-.29,8.34,8.34,0,0,0-.84-1.86,1.08,1.08,0,0,1-.06-.91l2.51-5.05a.58.58,0,0,0-.22-.74l-2.72-1.57a.57.57,0,0,0-.75.18l-3.12,4.69a1,1,0,0,1-.82.41,8,8,0,0,0-2,.21.45.45,0,0,1-.57-.4l-.41-4.1a.32.32,0,0,0-.51-.27L124,21.9a1.18,1.18,0,0,0-.51.79l-.42,4.7a1.51,1.51,0,0,1-.44.88,26.32,26.32,0,0,0-2.34,2.48.82.82,0,0,1-.83.24L116.72,30a.67.67,0,0,0-.77.28l-3.1,5.38a.64.64,0,0,0,.14.8l2.17,1.88a.8.8,0,0,1,.21.83,27.2,27.2,0,0,0-1,3.28,1.5,1.5,0,0,1-.54.81L110,46a1.1,1.1,0,0,0-.43.83v4.88a.31.31,0,0,0,.48.31l3.75-1.7a.45.45,0,0,1,.63.29,8.42,8.42,0,0,0,.84,1.87,1,1,0,0,1,.06.91l-2.51,5.05a.58.58,0,0,0,.22.74l2.72,1.57a.58.58,0,0,0,.75-.18l3.12-4.7a1,1,0,0,1,.82-.4,8,8,0,0,0,2-.21.45.45,0,0,1,.57.4l.41,4.1A.31.31,0,0,0,124,60l4.22-2.44a1.14,1.14,0,0,0,.51-.78l.42-4.7a1.51,1.51,0,0,1,.44-.88,26.32,26.32,0,0,0,2.34-2.48.82.82,0,0,1,.83-.24l2.71.95a.67.67,0,0,0,.77-.29l3.1-5.37a.64.64,0,0,0-.14-.8L137,41.13a.8.8,0,0,1-.21-.83,27.2,27.2,0,0,0,1-3.28,1.56,1.56,0,0,1,.54-.82l3.85-2.71A1.15,1.15,0,0,0,142.6,32.66ZM126.08,48c-3.94,2.28-7.14.43-7.13-4.12a15.75,15.75,0,0,1,7.13-12.36c3.94-2.27,7.14-.43,7.14,4.12A15.77,15.77,0,0,1,126.08,48Z"/><g class="cls-8"><path class="cls-6" d="M136.12,19l.1,0,2.72,1.57a.22.22,0,0,1,.08.27l-2.51,5.05a1.37,1.37,0,0,0,.08,1.26,8.51,8.51,0,0,1,.8,1.78.8.8,0,0,0,.77.59.81.81,0,0,0,.34-.08l3.74-1.68v4.85a.79.79,0,0,1-.28.53l-3.86,2.72a1.9,1.9,0,0,0-.68,1,24.16,24.16,0,0,1-1,3.23,1.15,1.15,0,0,0,.32,1.23l2.17,1.88a.31.31,0,0,1,.06.35L135.9,49a.35.35,0,0,1-.26.13h-.08l-2.71-1a1.21,1.21,0,0,0-.34,0,1.14,1.14,0,0,0-.88.4A27.15,27.15,0,0,1,129.32,51a1.91,1.91,0,0,0-.56,1.1l-.42,4.7a.78.78,0,0,1-.33.51l-4.2,2.43-.41-4.08a.8.8,0,0,0-.8-.73l-.19,0a7.88,7.88,0,0,1-1.77.2h-.21a1.4,1.4,0,0,0-1.1.57l-3.12,4.69a.19.19,0,0,1-.17.09l-.1,0-2.72-1.57a.22.22,0,0,1-.08-.27l2.51-5a1.37,1.37,0,0,0-.08-1.26,8.51,8.51,0,0,1-.8-1.78.8.8,0,0,0-.77-.59.84.84,0,0,0-.34.08l-3.74,1.68V46.85a.82.82,0,0,1,.28-.54l3.86-2.71a1.89,1.89,0,0,0,.68-1,26.1,26.1,0,0,1,1-3.22,1.17,1.17,0,0,0-.32-1.24l-2.17-1.87a.31.31,0,0,1-.06-.35l3.1-5.38a.32.32,0,0,1,.26-.13h.08l2.71.94a.93.93,0,0,0,.34.06,1.14,1.14,0,0,0,.88-.4,25.89,25.89,0,0,1,2.32-2.45,2,2,0,0,0,.55-1.11l.42-4.7a.83.83,0,0,1,.33-.51l4.2-2.42.41,4.07a.8.8,0,0,0,.8.74l.19,0a7.89,7.89,0,0,1,1.76-.21h.22a1.4,1.4,0,0,0,1.1-.57L136,19.12a.19.19,0,0,1,.17-.09h0m-13.23,30.3a6.81,6.81,0,0,0,3.37-1,16.19,16.19,0,0,0,7.31-12.67,6.32,6.32,0,0,0-1.17-4,3.87,3.87,0,0,0-3.13-1.47,6.9,6.9,0,0,0-3.37,1,16.21,16.21,0,0,0-7.31,12.67c0,3.32,1.69,5.46,4.3,5.46m13.23-30.66a.57.57,0,0,0-.47.25l-3.12,4.69a1,1,0,0,1-.8.41h-.22a8.5,8.5,0,0,0-1.83.21h-.12a.45.45,0,0,1-.45-.41l-.41-4.1c0-.21-.14-.33-.3-.33a.48.48,0,0,0-.21.06L124,21.9a1.18,1.18,0,0,0-.51.79l-.42,4.7a1.51,1.51,0,0,1-.44.88,26.32,26.32,0,0,0-2.34,2.48.82.82,0,0,1-.61.27.78.78,0,0,1-.22,0L116.72,30a.68.68,0,0,0-.77.28l-3.1,5.38a.64.64,0,0,0,.14.8l2.17,1.88a.8.8,0,0,1,.21.83,27.2,27.2,0,0,0-1,3.28,1.5,1.5,0,0,1-.54.81L110,46a1.1,1.1,0,0,0-.43.83v4.88a.31.31,0,0,0,.3.35.46.46,0,0,0,.19,0l3.75-1.7a.51.51,0,0,1,.2,0,.45.45,0,0,1,.43.33,8.42,8.42,0,0,0,.84,1.87,1,1,0,0,1,.06.91l-2.51,5.05a.58.58,0,0,0,.22.74l2.72,1.57a.55.55,0,0,0,.28.07.57.57,0,0,0,.47-.25l3.12-4.7a1.06,1.06,0,0,1,.8-.4h.21a8.52,8.52,0,0,0,1.84-.21h.12a.45.45,0,0,1,.45.41l.41,4.1c0,.21.14.33.3.33A.4.4,0,0,0,124,60l4.22-2.44a1.14,1.14,0,0,0,.51-.78l.42-4.7a1.51,1.51,0,0,1,.44-.88,26.32,26.32,0,0,0,2.34-2.48.82.82,0,0,1,.61-.27.78.78,0,0,1,.22,0l2.71.95a.69.69,0,0,0,.2,0,.68.68,0,0,0,.57-.32l3.1-5.37a.64.64,0,0,0-.14-.8L137,41.13a.8.8,0,0,1-.21-.83,27.2,27.2,0,0,0,1-3.28,1.56,1.56,0,0,1,.54-.82l3.85-2.71a1.15,1.15,0,0,0,.44-.83V27.78a.31.31,0,0,0-.3-.35.39.39,0,0,0-.18,0l-3.76,1.69a.53.53,0,0,1-.2.05.46.46,0,0,1-.43-.34,8.34,8.34,0,0,0-.84-1.86,1.08,1.08,0,0,1-.06-.91l2.51-5.05a.58.58,0,0,0-.22-.74l-2.72-1.57a.55.55,0,0,0-.28-.07ZM122.89,49c-2.34,0-3.94-1.87-3.94-5.1a15.75,15.75,0,0,1,7.13-12.36,6.5,6.5,0,0,1,3.19-1c2.34,0,3.95,1.87,3.95,5.09A15.77,15.77,0,0,1,126.08,48a6.49,6.49,0,0,1-3.19,1Z"/></g></g></g></g><g id="Icon"><g id="Message_Icon" data-name="Message Icon"><g id="Message"><path id="Message-2" data-name="Message" class="cls-6" d="M209.49,320.12,245.6,341c3,1.75,7.62,1.94,10.24.43l52.48-30.3c2.62-1.52,2.29-4.17-.74-5.92l-36.1-20.84c-3-1.75-7.62-1.94-10.25-.43l-52.47,30.3C206.13,315.72,206.46,318.37,209.49,320.12Zm35.87,18.95L211,319.24a3.81,3.81,0,0,1-1.36-1.26l38.16.78Zm20.1-54.83,1.9,31.19c.08,1.34-1.67,2.35-4,2.31l-54-1.1a2.24,2.24,0,0,1,1.17-1.42L263,284.92A5.85,5.85,0,0,1,265.46,284.24Zm4.5,1L304.3,305l-35.18,1.42-1.34-22A7.35,7.35,0,0,1,270,285.21Zm-22.4,55.09,2.6-21.5,13.46.28a8.63,8.63,0,0,0,4.39-1,2.84,2.84,0,0,0,1.67-2.54l-.47-7.77,37.22-1.5c1.69,1.18,1.8,2.81.13,3.77l-52.47,30.29A7.73,7.73,0,0,1,247.56,340.3Z"/><path id="Message-3" data-name="Message" class="cls-9" d="M209.49,320.12,245.6,341c3,1.75,7.62,1.94,10.24.43l52.48-30.3c2.62-1.52,2.29-4.17-.74-5.92l-36.1-20.84c-3-1.75-7.62-1.94-10.25-.43l-52.47,30.3C206.13,315.72,206.46,318.37,209.49,320.12Zm35.87,18.95L211,319.24a3.81,3.81,0,0,1-1.36-1.26l38.16.78Zm20.1-54.83,1.9,31.19c.08,1.34-1.67,2.35-4,2.31l-54-1.1a2.24,2.24,0,0,1,1.17-1.42L263,284.92A5.85,5.85,0,0,1,265.46,284.24Zm4.5,1L304.3,305l-35.18,1.42-1.34-22A7.35,7.35,0,0,1,270,285.21Zm-22.4,55.09,2.6-21.5,13.46.28a8.63,8.63,0,0,0,4.39-1,2.84,2.84,0,0,0,1.67-2.54l-.47-7.77,37.22-1.5c1.69,1.18,1.8,2.81.13,3.77l-52.47,30.29A7.73,7.73,0,0,1,247.56,340.3Z"/></g><g id="Message-4" data-name="Message"><path id="Message-5" data-name="Message" class="cls-2" d="M173.51,363.25l36.11,20.85c3,1.75,7.62,1.94,10.25.43l52.46-30.3c2.63-1.51,2.31-4.16-.73-5.92L264.13,344l-1.53.88,5.73,3.3-35.19,1.41-.57-9.53-2.41-1.4,1.21,19.91c.1,1.35-1.66,2.36-4,2.3l-54-1.1a2.22,2.22,0,0,1,1.16-1.42l44.88-25.9-1.76-1-44.87,25.9C170.16,358.86,170.49,361.51,173.51,363.25Zm38.07,20.19,2.6-21.49,13.47.26a8.48,8.48,0,0,0,4.39-1,2.81,2.81,0,0,0,1.66-2.54l-.47-7.77,37.23-1.49c1.68,1.17,1.79,2.8.13,3.77l-52.48,30.29A7.69,7.69,0,0,1,211.58,383.44ZM175,362.38a3.85,3.85,0,0,1-1.37-1.26l38.16.78-2.45,20.3Z"/></g></g></g><g id="Message-6" data-name="Message"><g id="Message-7" data-name="Message"><path class="cls-3" d="M372.49,164.15a2.33,2.33,0,0,0-1.06-1.84L317,130.9a2.39,2.39,0,0,0-2.12,0l-1.2.7a2.33,2.33,0,0,0-1.06,1.84v41.69a2.35,2.35,0,0,0,1.06,1.84l54.39,31.4a2.33,2.33,0,0,0,2.12,0l1.2-.69a2.35,2.35,0,0,0,1.06-1.84Z"/><path class="cls-4" d="M372.49,164.15a2.33,2.33,0,0,0-1.06-1.84L317,130.9a2.39,2.39,0,0,0-2.12,0l-1.2.7a2.33,2.33,0,0,0-1.06,1.84v41.69a2.35,2.35,0,0,0,1.06,1.84l54.39,31.4a2.33,2.33,0,0,0,2.12,0l1.2-.69a2.35,2.35,0,0,0,1.06-1.84Z"/><path class="cls-4" d="M367.51,165.8l4.67-2.7a2.09,2.09,0,0,1,.31,1.05v41.69a2.35,2.35,0,0,1-1.06,1.84l-1.2.69a2.33,2.33,0,0,1-2.12,0l-.6-.35Z"/><path class="cls-3" d="M312.65,133.44v41.69a2.14,2.14,0,0,0,.34,1.08,2.29,2.29,0,0,0,.62.69l0,0,.07,0,54.39,31.4h0a.76.76,0,0,0,.73.08.73.73,0,0,0,.33-.7V166.07a.93.93,0,0,0-1.2-.95l-22.87,5.44-3,.71a2,2,0,0,1-1.91-.71l-3.47-4.83-23.36-32.52C313,132.66,312.65,132.76,312.65,133.44Z"/><path class="cls-7" d="M312.65,133.44v41.69a2.14,2.14,0,0,0,.34,1.08,2.29,2.29,0,0,0,.62.69l0,0,.07,0,54.39,31.4h0a.76.76,0,0,0,.73.08.73.73,0,0,0,.33-.7V166.07a.93.93,0,0,0-1.2-.95l-22.87,5.44-3,.71a2,2,0,0,1-1.91-.71l-3.47-4.83-23.36-32.52C313,132.66,312.65,132.76,312.65,133.44Z"/><path class="cls-3" d="M313.72,177l-.07,0,0,0a2.29,2.29,0,0,1-.62-.69,2.08,2.08,0,0,1-.33-1.06l24.07-9.42L320.61,181Z"/><path class="cls-3" d="M313.72,177l-.07,0,0,0a2.29,2.29,0,0,1-.62-.69,2.08,2.08,0,0,1-.33-1.06l24.07-9.42L320.61,181Z"/><path class="cls-10" d="M313.72,177l-.07,0,0,0a2.29,2.29,0,0,1-.62-.69,2.08,2.08,0,0,1-.33-1.06l24.07-9.42L320.61,181Z"/><path class="cls-3" d="M369.17,207.75a.73.73,0,0,1-.33.7.76.76,0,0,1-.73-.08h0l-18.73-10.81-4.28-27,24.07,36.5Z"/><path class="cls-3" d="M369.17,207.75a.73.73,0,0,1-.33.7.76.76,0,0,1-.73-.08h0l-18.73-10.81-4.28-27,24.07,36.5Z"/><path class="cls-10" d="M369.17,207.75a.73.73,0,0,1-.33.7.76.76,0,0,1-.73-.08h0l-18.73-10.81-4.28-27,24.07,36.5Z"/><path class="cls-3" d="M313,176.21a2.29,2.29,0,0,0,.62.69l0,0,54.46,31.44h0a.76.76,0,0,0,.73.08l-26-41.57a4.08,4.08,0,0,0-5.12-1.57Z"/><path class="cls-7" d="M313,176.21a2.29,2.29,0,0,0,.62.69l0,0,54.46,31.44h0a.76.76,0,0,0,.73.08l-26-41.57a4.08,4.08,0,0,0-5.12-1.57Z"/><path class="cls-3" d="M368.73,165.07,344,176a4,4,0,0,1-5.07-1.55l-26-41.59Z"/><path class="cls-10" d="M368.73,165.07,344,176a4,4,0,0,1-5.07-1.55l-26-41.59Z"/><path class="cls-3" d="M368.73,165.07l-24.92,9.31A4.05,4.05,0,0,1,339,172.8l-26.07-40Z"/><path class="cls-7" d="M368.73,165.07l-24.92,9.31A4.05,4.05,0,0,1,339,172.8l-26.07-40Z"/></g></g><g id="Shadows"><path id="Shadow" class="cls-2" d="M147,428l-8.42-4.9L139,420l-2.85-1.61-6.68-.61-4.64-2.7-.24-6-2.48-1.44-7.21,1.61-9.36-5.45a50,50,0,0,1-10,1h0c-8,0-15.61-1.84-21.36-5.18-6.21-3.62-9.62-8.6-9.61-14s3.47-10.37,9.72-13.94c5.67-3.25,13.14-5,21-5s15.62,1.84,21.37,5.19c5.43,3.17,8.8,7.5,9.47,12.19a13,13,0,0,1-1.85,8.59l50.3,29.28L163.83,428ZM83.2,381.26a2.47,2.47,0,0,0,.77.62,9.37,9.37,0,0,0,8.16,0,.63.63,0,1,0,0-1.24,9.37,9.37,0,0,0-8.16,0A2.47,2.47,0,0,0,83.2,381.26Z"/></g><g id="Key"><g id="Key-2" data-name="Key"><path class="cls-3" d="M67.5,381.94v3.51c0,4.13,2.67,8.27,8.11,11.44,8.2,4.77,20.26,6,30.37,3.59l9.36,5.45,7.22-1.6,4.91,2.85.24,5.95,2.65,1.54,6.65.61,4.78,2.69,0,3.35,6,3.49,15.26.05,5.49-3.14v-3.54l-48.74-24.82a11.21,11.21,0,0,0,3.41-7.67v-3.55c-.72-3.43-3.57-5.21-8.12-7.85-10.85-6.32-28.49-6.39-39.39-.15C70.78,377,68,378.25,67.5,381.94Zm15-4.05a12.33,12.33,0,0,1,11.16,0c3.07,1.79,3.06,4.68,0,6.45a12.33,12.33,0,0,1-11.16,0C79.37,382.55,79.38,379.66,82.47,377.89Z"/><path class="cls-10" d="M67.5,381.94v3.51c0,4.13,2.67,8.27,8.11,11.44,8.2,4.77,20.26,6,30.37,3.59l9.36,5.45,7.22-1.6,4.91,2.85.24,5.95,2.65,1.54,6.65.61,4.78,2.69,0,3.35,6,3.49,15.26.05,5.49-3.14v-3.54l-48.74-24.82a11.21,11.21,0,0,0,3.41-7.67v-3.55c-.72-3.43-3.57-5.21-8.12-7.85-10.85-6.32-28.49-6.39-39.39-.15C70.78,377,68,378.25,67.5,381.94Zm15-4.05a12.33,12.33,0,0,1,11.16,0c3.07,1.79,3.06,4.68,0,6.45a12.33,12.33,0,0,1-11.16,0C79.37,382.55,79.38,379.66,82.47,377.89Z"/><path class="cls-3" d="M75.62,393.34c8.19,4.78,20.25,6,30.36,3.59l9.36,5.45,7.22-1.6,4.91,2.86.25,5.95,2.64,1.54,6.65.61,5.18,2.91-.41,3.12,6,3.49,15.26.06,5.49-3.14-48.73-28.37c5.78-6.08,4.23-13.88-4.69-19.07-10.86-6.32-28.5-6.38-39.4-.14S64.76,387,75.62,393.34Zm6.86-19a12.33,12.33,0,0,1,11.16,0c3.08,1.79,3.07,4.67,0,6.44a12.33,12.33,0,0,1-11.16,0C79.38,379,79.39,376.12,82.48,374.35Z"/><path class="cls-7" d="M75.62,393.34c8.19,4.78,20.25,6,30.36,3.59l9.36,5.45,7.22-1.6,4.91,2.86.25,5.95,2.64,1.54,6.65.61,5.18,2.91-.41,3.12,6,3.49,15.26.06,5.49-3.14-48.73-28.37c5.78-6.08,4.23-13.88-4.69-19.07-10.86-6.32-28.5-6.38-39.4-.14S64.76,387,75.62,393.34Zm6.86-19a12.33,12.33,0,0,1,11.16,0c3.08,1.79,3.07,4.67,0,6.44a12.33,12.33,0,0,1-11.16,0C79.38,379,79.39,376.12,82.48,374.35Z"/><g class="cls-11"><path class="cls-12" d="M123.12,383.17l-27.48-4.33c.74-1.53.08-3.24-2-4.45a12.33,12.33,0,0,0-11.16,0,4.75,4.75,0,0,0-2.07,2.09l-10-1.59a20.06,20.06,0,0,1,5.31-4.25c.32-.18.66-.34,1-.51l45.2,7.13A9.88,9.88,0,0,1,123.12,383.17Z"/><path class="cls-12" d="M69.05,387.28A9.83,9.83,0,0,1,69,376.82l11.41,1.8a4.61,4.61,0,0,0,2.08,2.17,12.33,12.33,0,0,0,11.16,0l.15-.09,28.87,4.55a12.73,12.73,0,0,1-2.85,4.52l12.91,7.51Z"/></g><path class="cls-4" d="M77.23,390.58c-4.16-2.43-6.54-5.57-6.53-8.63s2.41-6.18,6.59-8.57c4.79-2.75,11.23-4.24,18.11-4.22s13.31,1.57,18.08,4.35c4.16,2.42,6.54,5.56,6.53,8.62s-2.41,6.19-6.59,8.58c-4.79,2.74-11.22,4.24-18.11,4.21S82,393.35,77.23,390.58Zm.56-16.33c-3.86,2.21-6.08,5-6.09,7.71s2.19,5.51,6,7.75c4.63,2.69,10.87,4.19,17.58,4.21s13-1.42,17.61-4.08c3.86-2.21,6.08-5,6.09-7.71s-2.19-5.52-6-7.76c-4.62-2.69-10.87-4.18-17.58-4.21S82.43,371.59,77.79,374.25Z"/><path class="cls-5" d="M85.28,397l0,3.54a47.29,47.29,0,0,0,20.71-.07v-3.55A47.25,47.25,0,0,1,85.28,397Z"/><polygon class="cls-5" points="115.34 402.38 115.33 405.93 122.55 404.33 122.56 400.78 115.34 402.38"/><polygon class="cls-5" points="127.47 403.64 127.46 407.19 127.7 413.13 127.72 409.59 127.47 403.64"/><polygon class="cls-5" points="130.36 411.13 130.35 414.67 137 415.28 137.01 411.74 130.36 411.13"/><rect class="cls-5" x="153.62" y="415.43" width="3.55" height="15.27" transform="translate(-268.22 576.93) rotate(-89.79)"/><polygon class="cls-13" points="168.52 418.18 168.5 421.72 163.02 424.86 163.03 421.32 165.44 419.94 165.43 421.47 166.76 420.71 166.76 419.17 168.52 418.18"/><polygon class="cls-3" points="166.76 419.17 165.44 419.94 165.43 421.47 166.76 420.71 166.76 419.17"/><polygon class="cls-14" points="166.76 419.17 165.44 419.94 165.43 421.47 166.76 420.71 166.76 419.17"/><polygon class="cls-5" points="166.76 419.17 166.76 420.71 116.79 391.62 118.12 390.84 166.76 419.17"/><polygon class="cls-13" points="118.12 390.84 118.11 392.39 116.79 391.62 118.12 390.84"/></g><g id="Key-3" data-name="Key"><path class="cls-3" d="M336.13,307v1.84c0,2.17,1.4,4.35,4.26,6,4.32,2.51,10.66,3.14,16,1.88l4.93,2.87,3.79-.84,2.58,1.5.13,3.13,1.39.81,3.5.32,2.51,1.41v1.76l3.15,1.84,8,0,2.88-1.65V326L363.63,313a6,6,0,0,0,1.79-4v-1.87c-.38-1.8-1.88-2.74-4.27-4.13-5.71-3.32-15-3.36-20.72-.07C337.86,304.32,336.4,305,336.13,307Zm7.87-2.13a6.49,6.49,0,0,1,5.87,0c1.62.94,1.62,2.46,0,3.39a6.49,6.49,0,0,1-5.87,0C342.37,307.26,342.38,305.75,344,304.82Z"/><path class="cls-10" d="M336.13,307v1.84c0,2.17,1.4,4.35,4.26,6,4.32,2.51,10.66,3.14,16,1.88l4.93,2.87,3.79-.84,2.58,1.5.13,3.13,1.39.81,3.5.32,2.51,1.41v1.76l3.15,1.84,8,0,2.88-1.65V326L363.63,313a6,6,0,0,0,1.79-4v-1.87c-.38-1.8-1.88-2.74-4.27-4.13-5.71-3.32-15-3.36-20.72-.07C337.86,304.32,336.4,305,336.13,307Zm7.87-2.13a6.49,6.49,0,0,1,5.87,0c1.62.94,1.62,2.46,0,3.39a6.49,6.49,0,0,1-5.87,0C342.37,307.26,342.38,305.75,344,304.82Z"/><path class="cls-3" d="M340.4,312.94c4.31,2.51,10.65,3.14,16,1.89l4.92,2.87,3.8-.85,2.58,1.51.13,3.12,1.39.81,3.5.32,2.72,1.54-.22,1.64,3.15,1.83,8,0,2.89-1.65-25.63-14.92c3-3.19,2.22-7.29-2.47-10-5.71-3.33-15-3.36-20.72-.08S334.69,309.62,340.4,312.94ZM344,303a6.49,6.49,0,0,1,5.87,0c1.62.95,1.61,2.46,0,3.39a6.49,6.49,0,0,1-5.87,0C342.38,305.4,342.39,303.88,344,303Z"/><path class="cls-7" d="M340.4,312.94c4.31,2.51,10.65,3.14,16,1.89l4.92,2.87,3.8-.85,2.58,1.51.13,3.12,1.39.81,3.5.32,2.72,1.54-.22,1.64,3.15,1.83,8,0,2.89-1.65-25.63-14.92c3-3.19,2.22-7.29-2.47-10-5.71-3.33-15-3.36-20.72-.08S334.69,309.62,340.4,312.94ZM344,303a6.49,6.49,0,0,1,5.87,0c1.62.95,1.61,2.46,0,3.39a6.49,6.49,0,0,1-5.87,0C342.38,305.4,342.39,303.88,344,303Z"/><g class="cls-11"><path class="cls-12" d="M365.38,307.59l-14.45-2.28c.39-.8,0-1.7-1.05-2.34a6.49,6.49,0,0,0-5.87,0,2.54,2.54,0,0,0-1.09,1.1l-5.27-.83a10.46,10.46,0,0,1,2.79-2.24l.52-.27,23.77,3.75A5.19,5.19,0,0,1,365.38,307.59Z"/><path class="cls-12" d="M337,309.76a5.17,5.17,0,0,1,0-5.51l6,.95a2.45,2.45,0,0,0,1.09,1.14,6.49,6.49,0,0,0,5.87,0l.08-.05,15.18,2.4a6.6,6.6,0,0,1-1.5,2.37l6.79,4Z"/></g><path class="cls-4" d="M341.25,311.49c-2.19-1.28-3.44-2.93-3.43-4.54s1.27-3.25,3.46-4.51a21.31,21.31,0,0,1,19,.07c2.18,1.28,3.43,2.93,3.43,4.54s-1.27,3.25-3.47,4.51a21.29,21.29,0,0,1-19-.07Zm.29-8.59c-2,1.16-3.19,2.64-3.2,4.05s1.15,2.91,3.17,4.08a20.69,20.69,0,0,0,18.51.07c2-1.16,3.2-2.64,3.2-4.06s-1.15-2.9-3.17-4.07a20.69,20.69,0,0,0-18.51-.07Z"/><path class="cls-5" d="M345.48,314.87v1.86a24.85,24.85,0,0,0,10.89,0v-1.86A24.85,24.85,0,0,1,345.48,314.87Z"/><polygon class="cls-5" points="361.29 317.7 361.29 319.56 365.08 318.72 365.09 316.85 361.29 317.7"/><polygon class="cls-5" points="367.67 318.36 367.66 320.22 367.79 323.35 367.8 321.48 367.67 318.36"/><polygon class="cls-5" points="369.19 322.29 369.18 324.16 372.68 324.48 372.69 322.61 369.19 322.29"/><rect class="cls-5" x="381.42" y="324.56" width="1.86" height="8.03" transform="translate(52.41 709.74) rotate(-89.79)"/><polygon class="cls-13" points="389.26 326 389.25 327.87 386.37 329.52 386.37 327.65 387.64 326.93 387.63 327.73 388.33 327.33 388.33 326.52 389.26 326"/><polygon class="cls-3" points="388.33 326.52 387.64 326.93 387.63 327.73 388.33 327.33 388.33 326.52"/><polygon class="cls-14" points="388.33 326.52 387.64 326.93 387.63 327.73 388.33 327.33 388.33 326.52"/><polygon class="cls-5" points="388.33 326.52 388.33 327.33 362.05 312.04 362.75 311.63 388.33 326.52"/><polygon class="cls-13" points="362.75 311.63 362.75 312.44 362.05 312.04 362.75 311.63"/></g></g><g id="Window"><g id="Window-2" data-name="Window"><g id="Window-3" data-name="Window"><path class="cls-15" d="M8.56,382.83a5.08,5.08,0,0,1-2.34.71,5.85,5.85,0,0,1-3.42-.6,6.34,6.34,0,0,1-2.79-5V196.05l5.59,3.23V381.11c0,1.35.68,2.13,1.65,2.13A2.87,2.87,0,0,0,8.56,382.83Z"/><path class="cls-1" d="M7.24,382.54c-.86,0-1-1-1-1.43V180.34L279.19,22.78v200a5.85,5.85,0,0,1-2.61,4.54L8.21,382.23A2.06,2.06,0,0,1,7.24,382.54Z"/><path class="cls-16" d="M278.49,24V222.75a5.19,5.19,0,0,1-2.27,3.94L7.86,381.62a1.3,1.3,0,0,1-.62.22c-.25,0-.25-.72-.25-.73V180.75L278.49,24m1.4-2.43L5.59,179.94V381.11c0,1.35.67,2.13,1.65,2.13a2.64,2.64,0,0,0,1.32-.41L276.93,227.9a6.58,6.58,0,0,0,3-5.15V21.57Z"/><path class="cls-3" d="M2.8,189.09A6.38,6.38,0,0,1,0,184V160.83a6.57,6.57,0,0,1,3-5.15L271.34.74a6.41,6.41,0,0,1,5.77-.1,6.34,6.34,0,0,1,2.78,5V28.9a6.53,6.53,0,0,1-3,5.15L8.56,189A6.36,6.36,0,0,1,2.8,189.09Z"/><path class="cls-6" d="M279.86,5.2c-.2-1.54-1.45-2.1-2.93-1.24L8.56,158.89a6.28,6.28,0,0,0-2.1,2.23L.88,157.89A6.21,6.21,0,0,1,3,155.68L271.35.75A6.31,6.31,0,0,1,277.1.64,6.32,6.32,0,0,1,279.86,5.2Z"/><path class="cls-6" d="M6.46,161.12A6,6,0,0,0,5.59,164v35.24L0,196.05V160.83c0-.13,0-.24,0-.36a5.48,5.48,0,0,1,.11-.74,6.79,6.79,0,0,1,.75-1.84Z"/><path class="cls-7" d="M279.89,5.68V21.57L96,127.86c-1.64,1-3,.18-3-1.72v-6c0-1.9-1.33-2.67-3-1.72L19.73,158.89a6.58,6.58,0,0,0-3,5.15v6a6.59,6.59,0,0,1-3,5.15l-8.19,4.73V164a6.59,6.59,0,0,1,3-5.15L276.93,4C278.56,3,279.89,3.78,279.89,5.68Z"/><path class="cls-12" d="M271.37,14.2c1.26-.73,2.28-.14,2.28,1.32a5,5,0,0,1-2.28,3.95c-1.26.73-2.28.14-2.28-1.32A5,5,0,0,1,271.37,14.2Z"/><path class="cls-12" d="M263.16,18.94c1.26-.73,2.28-.14,2.28,1.31a5.05,5.05,0,0,1-2.28,4c-1.26.72-2.28.13-2.28-1.32A5,5,0,0,1,263.16,18.94Z"/><path class="cls-12" d="M255,23.67c1.26-.73,2.28-.14,2.28,1.32a5,5,0,0,1-2.28,4c-1.26.73-2.29.14-2.29-1.32A5.06,5.06,0,0,1,255,23.67Z"/><path class="cls-2" d="M279.89,21.57V40.91L5.59,199.28V179.94l6.11-3.54c1.64-1,2.19-2.39,3-5.16l2.07-7.2c.66-2.5,1.34-4.2,3-5.15l69.08-39.78c1.65-1,2.93-1.06,4.19,1l2.54,4.61c.94,1.62,1.4,2.56,3,1.62Z"/><polygon class="cls-2" points="5.59 179.94 5.59 199.28 0 196.05 0 176.72 5.59 179.94"/><polygon class="cls-13" points="5.59 179.94 5.59 199.28 0 196.05 0 176.72 5.59 179.94"/><path class="cls-17" d="M19.23,181.33,14.56,184l1.78-3.43a.83.83,0,0,0,0-.83c-.14-.17-.37-.05-.53.25l-2.53,4.87v0a1.34,1.34,0,0,0-.07.18.14.14,0,0,1,0,.06,1.07,1.07,0,0,0,0,.25.66.66,0,0,0,0,.21s0,0,0,0a.26.26,0,0,0,.07.1h0l2.53,2a.23.23,0,0,0,.25,0,.77.77,0,0,0,.28-.36c.14-.32.12-.68,0-.8l-1.78-1.37,4.67-2.69a1,1,0,0,0,.38-.8C19.61,181.37,19.44,181.21,19.23,181.33Z"/><path class="cls-17" d="M23.13,179.08l4.67-2.7L26,175c-.16-.12-.17-.48,0-.8s.37-.48.53-.36l2.53,1.95h0a.44.44,0,0,1,.06.1l0,0a.72.72,0,0,1,0,.22,1.09,1.09,0,0,1,0,.25.14.14,0,0,1,0,.06l-.06.18v0l-2.53,4.87a.82.82,0,0,1-.25.29.2.2,0,0,1-.28,0,.84.84,0,0,1,0-.84l1.78-3.42-4.67,2.7c-.2.12-.37-.05-.37-.36A1,1,0,0,1,23.13,179.08Z"/><path class="cls-17" d="M38.45,165.64c0-.29-.28-.25-.4.05l-.64,1.57c-1.09-.12-2.41,1-3.3,2.83-1.16,2.45-1.16,5.35,0,6.46a1.65,1.65,0,0,0,2.09.13,5.78,5.78,0,0,0,2.1-2.55.79.79,0,0,0,0-.82c-.15-.14-.38,0-.53.31-.86,1.82-2.27,2.64-3.13,1.81s-.87-3,0-4.82c.61-1.3,1.5-2.07,2.27-2.12l-.49,1.18c-.12.3,0,.59.19.46l1.9-1.24a.61.61,0,0,0,.22-.53Z"/><path class="cls-17" d="M86.76,127.93l1.7-3.6a1.05,1.05,0,0,0,0-1.12c-.2-.19-.52,0-.72.42L86,127.23l-1.7-1.63c-.2-.2-.52,0-.73.42a1.1,1.1,0,0,0,0,1.12l1.71,1.64-1.71,3.6a1.1,1.1,0,0,0,0,1.12.29.29,0,0,0,.37,0,1,1,0,0,0,.36-.44l1.7-3.6,1.71,1.63a.29.29,0,0,0,.36,0,1,1,0,0,0,.36-.45,1.06,1.06,0,0,0,0-1.12Z"/><path class="cls-1" d="M44.64,170.06v-6a6.57,6.57,0,0,1,3-5.15L260.19,36.25c1.64-1,3-.18,3,1.71v6a6.56,6.56,0,0,1-3,5.15L47.62,171.78C46,172.73,44.64,172,44.64,170.06Z"/><path class="cls-2" d="M256.14,49.59a.59.59,0,0,1-.27-.05.81.81,0,0,1-.44-.9l.29-2.44-1.15-.83a.77.77,0,0,1-.31-.66,1.33,1.33,0,0,1,.49-1l1.74-1.35a.24.24,0,0,0,.08-.13l.78-2.56a1.08,1.08,0,0,1,.88-.83.7.7,0,0,1,.69.41l.65,1.39,1.48-.56a.69.69,0,0,1,.79.18,1.06,1.06,0,0,1,0,1.2l-1.26,2.37a.47.47,0,0,0,0,.15l.3,2.14a1.36,1.36,0,0,1-.37,1.07.81.81,0,0,1-.7.27l-1.42-.17-1.55,2A.88.88,0,0,1,256.14,49.59Zm-.84-5,1.14.82a.86.86,0,0,1,.31.83l-.2,1.62,1-1.32a.86.86,0,0,1,.79-.37l1.43.17a.37.37,0,0,0,.05-.16l-.3-2.14a1.32,1.32,0,0,1,.15-.77l1.11-2.08-1.14.44a.69.69,0,0,1-.9-.36l-.52-1.1-.69,2.28a1.37,1.37,0,0,1-.44.65l-1.74,1.35A.24.24,0,0,0,255.3,44.63Zm4-3.93h0Z"/><g class="cls-18"><path class="cls-19" d="M266.67,35.51a1,1,0,0,1-.9-.51,1,1,0,0,1,.38-1.41l8.37-4.83a1,1,0,1,1,1,1.78l-8.37,4.83A1,1,0,0,1,266.67,35.51Z"/><path class="cls-19" d="M266.67,40.35a1,1,0,0,1-.52-1.93l8.37-4.83a1,1,0,0,1,1,1.79l-8.37,4.83A1.06,1.06,0,0,1,266.67,40.35Z"/><path class="cls-19" d="M266.67,45.18a1,1,0,0,1-.52-1.92l8.37-4.83a1,1,0,1,1,1,1.78L267.18,45A1,1,0,0,1,266.67,45.18Z"/></g></g><polygon class="cls-7" points="15.94 205.26 269.55 58.84 269.55 220.2 15.95 366.61 15.94 205.26"/><g id="Shield"><path class="cls-20" d="M87.27,248A23.08,23.08,0,0,1,86,240a39.54,39.54,0,0,1,2.78-14.09l-5.19-8A34.54,34.54,0,0,1,80,220.73v-14c0-5.56-2.1-10-5.76-12.07-3.49-2-7.81-1.74-12.16.77-8,4.62-14.25,15.88-14.25,25.64v18h0s0,.07,0,.11a23,23,0,0,1-7.92,3.93l-5.19,14s2.79,3.21,2.79,10.88a38.45,38.45,0,0,1-1.29,9.51A50.45,50.45,0,0,0,34,291.76c0,4.43.59,8.74,2.83,12.66,3.52,6.17,11.3,9.76,24.88,9.6,13.58-15.52,21.36-28.09,24.88-38.33a47.09,47.09,0,0,0,2.83-15.93A28,28,0,0,0,87.27,248ZM61.73,221.84A60.84,60.84,0,0,1,55.13,232v-11c0-7.14,4.84-16,10.58-19.28,2-1.13,3.71-1.41,4.83-.77,1.3.75,2.09,2.89,2.09,5.71v17.36A12.78,12.78,0,0,1,61.73,221.84Z"/><g id="Shield-2" data-name="Shield"><path class="cls-3" d="M96.92,225.58c-9.09,8.17-16.94,7.74-21.85,4-4.9,9.45-12.75,18.94-21.84,21.27l-5.19,14s2.78,3.2,2.78,10.87a38,38,0,0,1-1.29,9.52,50.8,50.8,0,0,0-2.16,14.24c0,4.43.58,8.74,2.82,12.66a15.59,15.59,0,0,0,5.69,5.69L48,313.26a15.73,15.73,0,0,1-6-5.87c-2.24-3.92-2.82-8.23-2.82-12.66a50.87,50.87,0,0,1,2.16-14.24A38,38,0,0,0,42.63,271c0-7.67-2.78-10.88-2.78-10.88l5.19-14c9.09-2.33,16.94-11.82,21.84-21.27,4.91,3.78,12.76,4.21,21.86-4Z"/><path class="cls-21" d="M69.76,226.47l-2.88-1.66A12.63,12.63,0,0,0,69.76,226.47Z"/><path class="cls-4" d="M88.74,220.85c-7.49,6.72-14.12,7.62-19,5.62l5.31,3.07c4.91,3.78,12.76,4.21,21.85-4Z"/><path class="cls-4" d="M66.88,224.81C62,234.26,54.13,243.75,45,246.08l8.19,4.73c9.09-2.33,16.94-11.82,21.84-21.27Z"/><polygon class="cls-4" points="45.04 246.08 39.85 260.1 48.04 264.83 53.23 250.81 45.04 246.08"/><path class="cls-4" d="M50.19,312.12c-2.24-3.92-2.82-8.23-2.82-12.66a50.8,50.8,0,0,1,2.16-14.24,38,38,0,0,0,1.29-9.52c0-7.67-2.78-10.87-2.78-10.87l-8.19-4.73s2.78,3.21,2.78,10.88a38,38,0,0,1-1.29,9.51,50.87,50.87,0,0,0-2.16,14.24c0,4.43.58,8.74,2.82,12.66a15.73,15.73,0,0,0,6,5.87l7.89,4.55A15.59,15.59,0,0,1,50.19,312.12Z"/><path class="cls-3" d="M75.07,321.72c-13.57.15-21.35-3.43-24.88-9.6-2.24-3.92-2.82-8.23-2.82-12.67a50.48,50.48,0,0,1,2.16-14.23,38,38,0,0,0,1.29-9.51c0-7.67-2.78-10.88-2.78-10.88l5.19-14c9.09-2.33,16.94-11.83,21.84-21.27,4.91,3.78,12.76,4.2,21.85-4l5.19,8a39.54,39.54,0,0,0-2.78,14.09,22.86,22.86,0,0,0,1.29,8,28,28,0,0,1,2.16,11.74A47,47,0,0,1,100,283.39C96.43,293.63,88.65,306.19,75.07,321.72Z"/><path class="cls-6" d="M75.07,321.72c-13.57.15-21.35-3.43-24.88-9.6-2.24-3.92-2.82-8.23-2.82-12.67a50.48,50.48,0,0,1,2.16-14.23,38,38,0,0,0,1.29-9.51c0-7.67-2.78-10.88-2.78-10.88l5.19-14c9.09-2.33,16.94-11.83,21.84-21.27,4.91,3.78,12.76,4.2,21.85-4l5.19,8a39.54,39.54,0,0,0-2.78,14.09,22.86,22.86,0,0,0,1.29,8,28,28,0,0,1,2.16,11.74A47,47,0,0,1,100,283.39C96.43,293.63,88.65,306.19,75.07,321.72Z"/><path class="cls-22" d="M73.47,318.19c-10.52-.12-17.32-2.75-20.22-7.82-1.63-2.86-2.36-6.22-2.36-10.91a43.52,43.52,0,0,1,1.74-12.1c.11-.43.22-.86.32-1.29a40.94,40.94,0,0,0,1.4-10.36A24.1,24.1,0,0,0,52,264.44l4-10.76c9.73-3.39,16.76-13,20.49-19.3a16,16,0,0,0,6.35,1.29c4.39,0,8.86-1.64,13.32-4.88L98.18,234A43.58,43.58,0,0,0,95.8,247.7a26.55,26.55,0,0,0,1.49,9.2c.11.31.22.61.34.92a23.71,23.71,0,0,1,1.62,9.64,43.73,43.73,0,0,1-2.63,14.78C93.15,292.32,85.36,304.41,73.47,318.19Z"/><path class="cls-23" d="M73.47,318.19c-10.52-.12-17.32-2.75-20.22-7.82-1.63-2.86-2.36-6.22-2.36-10.91a43.52,43.52,0,0,1,1.74-12.1c.11-.43.22-.86.32-1.29a40.94,40.94,0,0,0,1.4-10.36A24.1,24.1,0,0,0,52,264.44l4-10.76c9.73-3.39,16.76-13,20.49-19.3a16,16,0,0,0,6.35,1.29c4.39,0,8.86-1.64,13.32-4.88L98.18,234A43.58,43.58,0,0,0,95.8,247.7a26.55,26.55,0,0,0,1.49,9.2c.11.31.22.61.34.92a23.71,23.71,0,0,1,1.62,9.64,43.73,43.73,0,0,1-2.63,14.78C93.15,292.32,85.36,304.41,73.47,318.19Z"/><path class="cls-4" d="M73.47,318.19c-10.52-.12-17.32-2.75-20.22-7.82-1.63-2.86-2.36-6.22-2.36-10.91a43.52,43.52,0,0,1,1.74-12.1c.11-.43.22-.86.32-1.29a40.94,40.94,0,0,0,1.4-10.36A24.1,24.1,0,0,0,52,264.44l4-10.76c9.73-3.39,16.76-13,20.49-19.3a16,16,0,0,0,6.35,1.29c4.39,0,8.86-1.64,13.32-4.88L98.18,234A43.58,43.58,0,0,0,95.8,247.7a26.55,26.55,0,0,0,1.49,9.2c.11.31.22.61.34.92a23.71,23.71,0,0,1,1.62,9.64,43.73,43.73,0,0,1-2.63,14.78C93.15,292.32,85.36,304.41,73.47,318.19Z"/><path class="cls-21" d="M55.66,313.29c3.59,3.15,9.54,4.81,17.81,4.9l-5.28-3A38.92,38.92,0,0,1,55.66,313.29Z"/><polygon class="cls-24" points="95.44 232.45 98.18 234.03 96.09 230.79 94.9 231.62 95.44 232.45"/><path class="cls-7" d="M94.54,255.31a26.49,26.49,0,0,1-1.48-9.19,43.17,43.17,0,0,1,2.38-13.67l-.54-.83a22,22,0,0,1-12.13,4,16,16,0,0,1-6.35-1.29c-3.73,6.3-10.76,15.91-20.49,19.3l-4,10.76a24.1,24.1,0,0,1,2.4,11.27A40.94,40.94,0,0,1,53,286.07c-.1.43-.21.86-.32,1.29a43.52,43.52,0,0,0-1.74,12.1c0,4.69.73,8.05,2.36,10.91a11.87,11.87,0,0,0,3.43,3.72c3.51,1.61,8.2,2.45,14,2.52,11.9-13.78,19.69-25.87,23.16-36a43.67,43.67,0,0,0,2.63-14.77,23.5,23.5,0,0,0-1.63-9.64Z"/></g><path class="cls-19" d="M87.69,228h0V210c0-5.55-2.1-9.95-5.76-12.06-3.49-2-7.81-1.74-12.16.77-8,4.61-14.26,15.87-14.26,25.63v18h0a1.84,1.84,0,0,0,1.08,1.5,5.76,5.76,0,0,0,5.18,0,1.84,1.84,0,0,0,1.08-1.5h0v-18c0-7.14,4.85-16,10.59-19.28,2-1.13,3.71-1.41,4.82-.77,1.31.76,2.09,2.89,2.09,5.71V228h0a1.85,1.85,0,0,0,1.08,1.49,5.7,5.7,0,0,0,5.18,0A1.85,1.85,0,0,0,87.69,228Z"/><path class="cls-25" d="M79.84,289.46,67.1,296.82l2-23.05c-1.52-.8-2.49-2.79-2.49-5.63,0-5.08,3.08-11,6.89-13.17s6.89.13,6.89,5.21a17.28,17.28,0,0,1-2.5,8.52Z"/><polygon class="cls-10" points="79.96 289.55 68.42 282.88 67.22 296.9 79.96 289.55"/><path class="cls-10" d="M73.59,255.05c-2.49,1.44-4.66,4.46-5.87,7.8L78,268.78h0a17.37,17.37,0,0,0,2.49-8.52C80.48,255.19,77.4,252.85,73.59,255.05Z"/></g><path class="cls-1" d="M152.3,161.85a.3.3,0,0,1,.33,0,.44.44,0,0,1,.13.36v2.43a1.07,1.07,0,0,1-.13.51.81.81,0,0,1-.33.37l-8.14,4.71a.28.28,0,0,1-.33,0,.42.42,0,0,1-.13-.35v-14.8a1.07,1.07,0,0,1,.13-.51,1,1,0,0,1,.33-.38l8-4.62a.28.28,0,0,1,.33,0,.42.42,0,0,1,.14.35v2.43a1.16,1.16,0,0,1-.14.52.86.86,0,0,1-.33.37l-5.29,3.05v2.48l4.92-2.84a.25.25,0,0,1,.32,0,.4.4,0,0,1,.14.35v2.43a1.09,1.09,0,0,1-.14.51.85.85,0,0,1-.32.37l-4.92,2.84V165Z"/><path class="cls-1" d="M163.69,158.32a1.16,1.16,0,0,1-.14.52.92.92,0,0,1-.32.37l-2.17,1.25a.27.27,0,0,1-.32,0,.38.38,0,0,1-.14-.35v-5.8a2,2,0,0,0-.36-1.37q-.36-.39-1.14.06a2.62,2.62,0,0,0-1.12,1.25,4.25,4.25,0,0,0-.35,1.78v5.79a1.16,1.16,0,0,1-.14.52.86.86,0,0,1-.33.37L155,164a.28.28,0,0,1-.33,0,.41.41,0,0,1-.14-.35V152.93a1.16,1.16,0,0,1,.14-.51.86.86,0,0,1,.33-.37l2.08-1.2a.29.29,0,0,1,.32,0,.43.43,0,0,1,.14.36v.53c.09-.21.21-.44.34-.68a5.54,5.54,0,0,1,1.18-1.45,5.78,5.78,0,0,1,.9-.65,4.27,4.27,0,0,1,1.51-.56,1.58,1.58,0,0,1,1.18.27,2.3,2.3,0,0,1,.76,1.19,6.8,6.8,0,0,1,.28,2.17Z"/><path class="cls-1" d="M169.63,150.86a1.09,1.09,0,0,0,.17.71c.12.13.31.11.57,0l1.37-.79a.28.28,0,0,1,.33,0,.4.4,0,0,1,.14.35v2.31a1.16,1.16,0,0,1-.14.52.86.86,0,0,1-.33.37l-1.63.94a3.85,3.85,0,0,1-1.47.54,1.6,1.6,0,0,1-1.12-.24,2,2,0,0,1-.72-1,5,5,0,0,1-.26-1.74v-3.85l-1.27.74a.28.28,0,0,1-.33,0,.39.39,0,0,1-.13-.35V147a1.14,1.14,0,0,1,.13-.52.86.86,0,0,1,.33-.37l1.27-.73v-3.74a1.12,1.12,0,0,1,.14-.51.85.85,0,0,1,.32-.37l2.17-1.25a.26.26,0,0,1,.32,0,.4.4,0,0,1,.14.36v3.73l1.94-1.12a.3.3,0,0,1,.33,0,.43.43,0,0,1,.14.36v2.31a1.16,1.16,0,0,1-.14.52.86.86,0,0,1-.33.37l-1.94,1.12Z"/><path class="cls-1" d="M176.35,147a1.77,1.77,0,0,0,.14.79.69.69,0,0,0,.37.33.72.72,0,0,0,.5,0,2,2,0,0,0,.53-.22,3.56,3.56,0,0,0,.82-.61,3.66,3.66,0,0,0,.51-.68,4.49,4.49,0,0,1,.27-.43,1.27,1.27,0,0,1,.29-.22l2.24-1.29c.25-.15.37-.05.37.28a3.44,3.44,0,0,1-.25,1,9.55,9.55,0,0,1-.8,1.61,11.86,11.86,0,0,1-1.4,1.82,8.73,8.73,0,0,1-2.05,1.62,4.9,4.9,0,0,1-2,.72,2,2,0,0,1-1.46-.38,2.8,2.8,0,0,1-.89-1.43,8.36,8.36,0,0,1-.3-2.42,11.72,11.72,0,0,1,.3-2.63,10.62,10.62,0,0,1,.89-2.48,9.7,9.7,0,0,1,1.46-2.13,8.08,8.08,0,0,1,2-1.62,4,4,0,0,1,2.14-.67,2.12,2.12,0,0,1,1.45.62,3.28,3.28,0,0,1,.8,1.54,8,8,0,0,1,.25,2.06v.64a1,1,0,0,1-.14.52.92.92,0,0,1-.32.37Zm1.54-5.29a2.75,2.75,0,0,0-1.1,1.21,4.44,4.44,0,0,0-.44,1.54l3.09-1.78a1.57,1.57,0,0,0-.45-1C178.74,141.39,178.38,141.42,177.89,141.69Z"/><path class="cls-1" d="M190.33,131.65a.28.28,0,0,1,.33,0,.39.39,0,0,1,.13.35v2.31a1.14,1.14,0,0,1-.13.52.93.93,0,0,1-.33.37l-1.56.9a3.21,3.21,0,0,0-1.58,3v5.64a1.16,1.16,0,0,1-.14.51.81.81,0,0,1-.33.37l-2.16,1.25a.29.29,0,0,1-.33,0,.43.43,0,0,1-.14-.36V135.87a1.16,1.16,0,0,1,.14-.52.93.93,0,0,1,.33-.37l2-1.15a.28.28,0,0,1,.33,0,.41.41,0,0,1,.13.35v.53a8.12,8.12,0,0,1,1-1.38,5,5,0,0,1,1.33-1.08Z"/><path class="cls-1" d="M195.09,130.76a11.32,11.32,0,0,1,.42-2.66,10.85,10.85,0,0,1,1.05-2.57,11.41,11.41,0,0,1,1.65-2.28,9.1,9.1,0,0,1,2.24-1.79,5.45,5.45,0,0,1,2.23-.8,2.65,2.65,0,0,1,1.66.37,2.79,2.79,0,0,1,1,1.37,6.58,6.58,0,0,1,.43,2.17c0,.64,0,1.33,0,2s0,1.4,0,2a12,12,0,0,1-.43,2.66,11.52,11.52,0,0,1-2.7,4.87,9.83,9.83,0,0,1-2.23,1.77,5.52,5.52,0,0,1-2.24.81,2.48,2.48,0,0,1-1.65-.38,2.8,2.8,0,0,1-1.05-1.37,6.39,6.39,0,0,1-.42-2.17c0-.62,0-1.28,0-2S195.06,131.43,195.09,130.76Zm7.54-.39c0-.28,0-.6,0-.94s0-.69,0-1,0-.69,0-1,0-.61,0-.86a4,4,0,0,0-.18-1,1.42,1.42,0,0,0-.41-.6,1,1,0,0,0-.67-.18,2.29,2.29,0,0,0-.92.33,4,4,0,0,0-.93.74,4.37,4.37,0,0,0-.66,1,4.64,4.64,0,0,0-.41,1.07,6.38,6.38,0,0,0-.19,1.16c0,.27,0,.57,0,.91s0,.67,0,1,0,.69,0,1,0,.62,0,.89a2.16,2.16,0,0,0,.6,1.55c.35.31.88.25,1.59-.16a3.85,3.85,0,0,0,1.58-1.67A6.16,6.16,0,0,0,202.63,130.37Z"/><path class="cls-1" d="M216.44,112.45a.27.27,0,0,1,.32,0,.4.4,0,0,1,.14.36v2.42a1,1,0,0,1-.14.52.92.92,0,0,1-.32.37l-3,1.74v11.75a1.14,1.14,0,0,1-.13.52.86.86,0,0,1-.33.37l-2.25,1.3a.27.27,0,0,1-.32,0,.38.38,0,0,1-.14-.35V119.7l-3,1.74a.27.27,0,0,1-.33,0,.43.43,0,0,1-.14-.36v-2.42a1.16,1.16,0,0,1,.14-.52.86.86,0,0,1,.33-.37Z"/><path class="cls-1" d="M223.82,108.19a7,7,0,0,1,2-.81,2.28,2.28,0,0,1,1.49.15,2.1,2.1,0,0,1,1,1.13,5.79,5.79,0,0,1,.33,2.14,9.58,9.58,0,0,1-.33,2.55,8.74,8.74,0,0,1-1,2.23,9.49,9.49,0,0,1-1.49,1.87,9.83,9.83,0,0,1-2,1.48l-2.19,1.27v4.67a1.16,1.16,0,0,1-.14.52.86.86,0,0,1-.33.37l-2.25,1.3a.29.29,0,0,1-.33,0,.41.41,0,0,1-.13-.35v-14.8a1.1,1.1,0,0,1,.13-.51.94.94,0,0,1,.33-.37Zm-2.19,8.44,2.11-1.22a3.61,3.61,0,0,0,1.19-1.11,2.86,2.86,0,0,0,.47-1.66c0-.64-.15-1-.47-1.12a1.52,1.52,0,0,0-1.19.27L221.63,113Z"/><path class="cls-1" d="M161.63,228.3,149,235.62c-.72.42-1.31,0-1.31-1v-28.5A3.18,3.18,0,0,1,149,203.6l12.68-7.31c.72-.42,1.31,0,1.31,1v28.5A3.18,3.18,0,0,1,161.63,228.3Z"/><path class="cls-1" d="M182.21,216.42l-12.67,7.32c-.73.42-1.32,0-1.32-1v-28.5a3.16,3.16,0,0,1,1.32-2.52l12.67-7.32c.73-.42,1.32,0,1.32,1v28.5A3.16,3.16,0,0,1,182.21,216.42Z"/><path class="cls-1" d="M202.79,204.54l-12.67,7.31c-.73.42-1.32,0-1.32-1V182.35a3.14,3.14,0,0,1,1.32-2.51l12.67-7.32c.73-.42,1.32,0,1.32,1V202A3.16,3.16,0,0,1,202.79,204.54Z"/><path class="cls-1" d="M223.37,192.65,210.7,200c-.73.42-1.32,0-1.32-1v-28.5A3.16,3.16,0,0,1,210.7,168l12.67-7.31c.73-.42,1.32,0,1.32,1v28.5A3.16,3.16,0,0,1,223.37,192.65Z"/><g id="Button"><g class="cls-11"><path d="M134,259.81,241.17,198c.44-.26.8-.05.8.46v13.72a1.76,1.76,0,0,1-.8,1.38L134,275.37c-.44.26-.8.05-.8-.46V261.19A1.76,1.76,0,0,1,134,259.81Z"/></g><g id="Speech_Bubble" data-name="Speech Bubble"><path class="cls-3" d="M240,201.48,136.22,261.39a1.93,1.93,0,0,0-.88,1.53v12.16a1.91,1.91,0,0,0,.89,1.52l1.68,1a2,2,0,0,0,1.77,0l103.81-59.91a1.93,1.93,0,0,0,.88-1.53V203.94a1.89,1.89,0,0,0-.88-1.51l-1.69-1A2,2,0,0,0,240,201.48Z"/><path class="cls-10" d="M139.68,277.55a2,2,0,0,1-1.77,0l-1.68-1a1.91,1.91,0,0,1-.89-1.52V262.92a1.86,1.86,0,0,1,.28-.91l3.43,2a1.82,1.82,0,0,0-.26.87V277C138.79,277.55,139.16,277.85,139.68,277.55Z"/><path class="cls-10" d="M244.36,203.78c-.07-.44-.43-.6-.87-.35L139.68,263.34a1.82,1.82,0,0,0-.63.66l-3.43-2a1.7,1.7,0,0,1,.6-.62L240,201.48a2,2,0,0,1,1.77,0l1.67.95A2,2,0,0,1,244.36,203.78Z"/><path class="cls-4" d="M243.49,203.44l-103.81,59.9a2,2,0,0,0-.89,1.53V277c0,.56.4.79.89.51l103.81-59.91a1.93,1.93,0,0,0,.88-1.53V203.94C244.37,203.38,244,203.15,243.49,203.44Z"/></g></g><path class="cls-12" d="M181.4,248.29l1.23-5.36a1.38,1.38,0,0,1,.08-.2.35.35,0,0,1,.16-.18l.56-.32a.12.12,0,0,1,.14,0,.18.18,0,0,1,.06.15v0l0,.07L182,249.56a1.41,1.41,0,0,1-.1.31.49.49,0,0,1-.17.18l-.59.34c-.08,0-.14.05-.17,0a.48.48,0,0,1-.11-.19L179.2,245a.17.17,0,0,1,0-.05v0a.42.42,0,0,1,.06-.21.38.38,0,0,1,.14-.16l.56-.32c.07-.05.12-.05.16,0a.28.28,0,0,1,.08.11Z"/><path class="cls-12" d="M187.8,245.31c.06,0,.1,0,.14,0a.18.18,0,0,1,.06.15v.7a.42.42,0,0,1-.06.21.32.32,0,0,1-.14.16l-3.2,1.86a.12.12,0,0,1-.14,0,.18.18,0,0,1-.06-.15v-6.3a.49.49,0,0,1,.06-.22.34.34,0,0,1,.14-.15l3.15-1.82a.1.1,0,0,1,.13,0,.18.18,0,0,1,.06.15v.69a.49.49,0,0,1-.06.22.53.53,0,0,1-.13.16l-2.36,1.36v1.55l2.19-1.27a.14.14,0,0,1,.14,0,.18.18,0,0,1,.06.16v.69a.49.49,0,0,1-.06.22.44.44,0,0,1-.14.16l-2.19,1.27v1.61Z"/><path class="cls-12" d="M191,237.86c.61-.35,1.07-.43,1.39-.23s.47.62.47,1.29a3.63,3.63,0,0,1-1,2.52l1,1.82a.3.3,0,0,1,0,.1.37.37,0,0,1,0,.17.29.29,0,0,1-.11.13l-.62.36c-.1.06-.17.07-.22,0a.26.26,0,0,1-.1-.11l-.95-1.72-1,.56v2.27a.54.54,0,0,1,0,.22.38.38,0,0,1-.14.16l-.6.34a.1.1,0,0,1-.13,0,.16.16,0,0,1-.06-.15v-6.29a.49.49,0,0,1,.06-.22.35.35,0,0,1,.13-.16Zm-1.1,3.71L191,241a2.25,2.25,0,0,0,.67-.58,1.51,1.51,0,0,0,.25-.89c0-.36-.09-.56-.25-.58a1.06,1.06,0,0,0-.67.19l-1.06.62Z"/><path class="cls-12" d="M194,243a.12.12,0,0,1-.14,0,.18.18,0,0,1-.06-.15v-6.29a.43.43,0,0,1,.06-.22.38.38,0,0,1,.14-.16l.59-.34a.12.12,0,0,1,.14,0,.18.18,0,0,1,.06.15v6.3a.49.49,0,0,1-.06.22.41.41,0,0,1-.14.15Z"/><path class="cls-12" d="M199.25,233.1a.1.1,0,0,1,.13,0,.18.18,0,0,1,.06.15v.69a.49.49,0,0,1-.06.22.43.43,0,0,1-.13.16l-2.34,1.34v1.89l2.19-1.26a.12.12,0,0,1,.14,0,.18.18,0,0,1,.06.15v.69a.46.46,0,0,1-.06.22.45.45,0,0,1-.14.16l-2.19,1.26V241a.63.63,0,0,1,0,.22.45.45,0,0,1-.14.16l-.59.34a.12.12,0,0,1-.14,0,.18.18,0,0,1-.06-.15v-6.29a.46.46,0,0,1,.06-.22.32.32,0,0,1,.14-.16Z"/><path class="cls-12" d="M204.18,230.25a.12.12,0,0,1,.14,0,.21.21,0,0,1,.05.15.34.34,0,0,1,0,.1l-1.73,5.06v2.14a.46.46,0,0,1-.06.22.38.38,0,0,1-.14.16l-.58.34a.12.12,0,0,1-.14,0,.18.18,0,0,1-.06-.15v-2.15l-1.73-3.06a.19.19,0,0,1,0-.08.49.49,0,0,1,.06-.22.56.56,0,0,1,.14-.16l.55-.31c.09-.06.17-.07.22,0a.22.22,0,0,1,.08.1l1.19,2.07,1.18-3.44a1.27,1.27,0,0,1,.09-.2.52.52,0,0,1,.22-.22Z"/></g></g><g id="Speech_Bubble-2" data-name="Speech Bubble"><g id="Speech_Bubble-3" data-name="Speech Bubble"><g id="Speech_Bubble-4" data-name="Speech Bubble"><path class="cls-7" d="M329.52,246.66,328,242c-.8-3.76,14.53,5.09,15.33,8.85l-4.94,13.29a2.15,2.15,0,0,1-.83,1c-1.08.66-5.07,2.91-5.42,3.13a2.14,2.14,0,0,1-3.16-1.18l-6.4-21.93C322.22,243.28,325.75,244.5,329.52,246.66Z"/><path class="cls-7" d="M310,197.72l58.27,33.61a4.37,4.37,0,0,1,2,3.41v29.4a4.32,4.32,0,0,1-2,3.39l-3.61,2a4.46,4.46,0,0,1-3.95,0l-58.26-33.61a4.36,4.36,0,0,1-2-3.41v-29.4a4.3,4.3,0,0,1,2-3.39l3.6-2A4.39,4.39,0,0,1,310,197.72Z"/><path class="cls-1" d="M361.6,269.39a1.43,1.43,0,0,1-.67-.21l-24.06-13.89-4.27,11.84a1.65,1.65,0,0,1-1.55,1,1.68,1.68,0,0,1-1.63-1.19l-5.59-19.17-21.16-12.2a3.94,3.94,0,0,1-1.75-3v-29.4c0-.3.06-1,.66-1a1.36,1.36,0,0,1,.67.21L360.51,236a4,4,0,0,1,1.76,3v29.4C362.27,268.7,362.2,269.39,361.6,269.39Z"/><path class="cls-2" d="M301.58,202.57h0a.9.9,0,0,1,.45.16l58.27,33.61a3.51,3.51,0,0,1,1.54,2.67v29.4c0,.13,0,.55-.24.55a1,1,0,0,1-.45-.15l-23.63-13.63-.88-.51-.34,1L332.21,267a1.28,1.28,0,0,1-2.38-.12l-5.55-19-.09-.33-.3-.17-21-12.12a3.51,3.51,0,0,1-1.54-2.67v-29.4c0-.13,0-.56.24-.56m0-.85c-.65,0-1.09.52-1.09,1.41v29.4a4.36,4.36,0,0,0,2,3.41l21,12.11,5.54,19a2.12,2.12,0,0,0,2,1.49,2.09,2.09,0,0,0,1.95-1.28l4.1-11.36,23.62,13.63a1.84,1.84,0,0,0,.88.27c.65,0,1.09-.52,1.09-1.41V239a4.36,4.36,0,0,0-2-3.41L302.46,202a1.84,1.84,0,0,0-.88-.27Z"/><path class="cls-7" d="M300.52,202.77c.15-1,1-1.34,1.94-.78l58.26,33.61a4.14,4.14,0,0,1,1.39,1.48l7.53-4.35a4,4,0,0,0-1.36-1.4L310,197.72a4.39,4.39,0,0,0-3.95,0l-3.6,2A4.35,4.35,0,0,0,300.52,202.77Z"/></g><path class="cls-19" d="M306,218.35A.89.89,0,0,1,306,218a.3.3,0,0,1,.12-.25l2.44-1.55a.66.66,0,0,1,.19-.09.23.23,0,0,1,.21,0l.88.51a.57.57,0,0,1,.21.26.88.88,0,0,1,.09.38v11.21a.38.38,0,0,1-.09.28.15.15,0,0,1-.21,0l-.92-.52a.61.61,0,0,1-.21-.27.85.85,0,0,1-.09-.38V219l-1.6,1a.19.19,0,0,1-.22,0,.72.72,0,0,1-.21-.3Z"/><path class="cls-19" d="M315.87,225.47a1,1,0,0,0,.43-.61,2.69,2.69,0,0,0,.1-.74,3.43,3.43,0,0,0-.28-1.37,2.17,2.17,0,0,0-.94-1q-.62-.36-.9-.06a2,2,0,0,0-.42,1c0,.14-.06.23-.13.26a.18.18,0,0,1-.2,0l-.89-.51a.58.58,0,0,1-.22-.26.66.66,0,0,1-.09-.39,3.92,3.92,0,0,1,.26-1.32,2,2,0,0,1,.6-.87,1.42,1.42,0,0,1,.89-.31,2.11,2.11,0,0,1,1.09.32,4.34,4.34,0,0,1,1.23,1.07,6.83,6.83,0,0,1,.86,1.41,8.13,8.13,0,0,1,.5,1.54,7.08,7.08,0,0,1,.16,1.46c0,.29,0,.56,0,.8a2.49,2.49,0,0,1-.16.69,2,2,0,0,1-.36.61,2.89,2.89,0,0,1-.63.55l-2.09,1.72,3.14,1.81a.61.61,0,0,1,.21.27.85.85,0,0,1,.09.38v1.23a.38.38,0,0,1-.09.28.15.15,0,0,1-.21,0l-5.27-3a.52.52,0,0,1-.21-.26.88.88,0,0,1-.09-.38v-1.06a.81.81,0,0,1,.11-.45.82.82,0,0,1,.19-.19Z"/><path class="cls-19" d="M325.46,225.66a.57.57,0,0,1,.21.26.92.92,0,0,1,.09.38v1.23a.49.49,0,0,1-.08.31l-.16.19-1.65,1.72a5.34,5.34,0,0,1,.92.92,5.85,5.85,0,0,1,.7,1.12,6.35,6.35,0,0,1,.46,1.31,6.93,6.93,0,0,1,.15,1.45,3.84,3.84,0,0,1-.23,1.47,1.65,1.65,0,0,1-.64.82,1.55,1.55,0,0,1-1,.18,3,3,0,0,1-1.21-.44,5.86,5.86,0,0,1-1.37-1.07,7.2,7.2,0,0,1-1-1.3,6,6,0,0,1-.59-1.36,5.4,5.4,0,0,1-.24-1.27.31.31,0,0,1,.09-.29.18.18,0,0,1,.22,0l.89.51a.58.58,0,0,1,.18.22,3.06,3.06,0,0,1,.15.41,3.41,3.41,0,0,0,.19.5,2.91,2.91,0,0,0,.29.5,3.11,3.11,0,0,0,.47.5,4.38,4.38,0,0,0,.69.49,1.28,1.28,0,0,0,1.11.21q.42-.18.42-1a2.24,2.24,0,0,0-.42-1.36,3.41,3.41,0,0,0-1.11-1l-.94-.54a.63.63,0,0,1-.21-.26.92.92,0,0,1-.09-.39v-1.23a.57.57,0,0,1,.08-.31l.17-.19,1.58-1.64L320.52,225a.61.61,0,0,1-.21-.27.85.85,0,0,1-.09-.38V223.1a.38.38,0,0,1,.09-.28.16.16,0,0,1,.21,0Z"/><path class="cls-19" d="M328.47,235.38a.54.54,0,0,1-.21-.27.75.75,0,0,1-.1-.38v-1.14a.34.34,0,0,1,.1-.28.16.16,0,0,1,.21,0l3.44,2a.57.57,0,0,1,.21.26.92.92,0,0,1,.09.38v1.15a.38.38,0,0,1-.09.28.16.16,0,0,1-.21,0Z"/><path class="cls-19" d="M338.21,245.16a.53.53,0,0,1-.22-.26.88.88,0,0,1-.09-.38v-2.1l-3.49-2a.58.58,0,0,1-.22-.26.92.92,0,0,1-.09-.38v-1.23a.84.84,0,0,1,.08-.39,3.09,3.09,0,0,1,.17-.29l3.45-4.63c.15-.21.3-.26.46-.17l.86.49a.61.61,0,0,1,.21.27.85.85,0,0,1,.09.38v6.94l1,.56a.53.53,0,0,1,.22.26.88.88,0,0,1,.09.38v1.23a.38.38,0,0,1-.09.28.18.18,0,0,1-.22,0l-1-.56v2.1a.35.35,0,0,1-.09.27.15.15,0,0,1-.21,0Zm-.31-4.91v-3.71l-1.93,2.6Z"/><path class="cls-19" d="M343,236.26a.35.35,0,0,1,.09-.27.15.15,0,0,1,.21,0l4.24,2.45a.52.52,0,0,1,.21.26.88.88,0,0,1,.09.38v1.23a.38.38,0,0,1-.09.28.17.17,0,0,1-.21,0l-3.17-1.83-.12,2.15a1.29,1.29,0,0,1,.6.12,4.37,4.37,0,0,1,.49.25,5.09,5.09,0,0,1,1.17.93,6.05,6.05,0,0,1,.94,1.32,7.38,7.38,0,0,1,.85,3.46,5.31,5.31,0,0,1-.24,1.77,1.79,1.79,0,0,1-.63.93,1.25,1.25,0,0,1-.94.21,3.56,3.56,0,0,1-1.15-.43,5.61,5.61,0,0,1-1.33-1.05,6,6,0,0,1-.93-1.29,6.43,6.43,0,0,1-.55-1.41,7.18,7.18,0,0,1-.21-1.41c0-.15,0-.24.09-.29a.18.18,0,0,1,.22,0l.91.53a.58.58,0,0,1,.2.23,1.35,1.35,0,0,1,.13.37,2.86,2.86,0,0,0,.21.78,3,3,0,0,0,.34.59,2.31,2.31,0,0,0,.43.45,3.3,3.3,0,0,0,.49.34c.43.25.78.27,1,.06a1.55,1.55,0,0,0,.39-1.25,3.28,3.28,0,0,0-.39-1.53,2.78,2.78,0,0,0-1-1.13,1.68,1.68,0,0,0-.53-.23.7.7,0,0,0-.32,0l-.23,0a.36.36,0,0,1-.26-.07l-1-.6a.52.52,0,0,1-.21-.26.88.88,0,0,1-.09-.38Z"/><path class="cls-19" d="M350.12,247.93a4.37,4.37,0,0,1,.23-1.57,7.08,7.08,0,0,1,.52-1l2.14-3.42a.79.79,0,0,1,.12-.15c.05-.06.13,0,.23,0l1,.58a.61.61,0,0,1,.21.27.85.85,0,0,1,.09.38.24.24,0,0,1,0,.13s0,.05,0,.06l-1.39,2.28a5.15,5.15,0,0,1,1.22,1,6.81,6.81,0,0,1,1,1.42,7.73,7.73,0,0,1,.62,1.69,8.21,8.21,0,0,1,.22,1.85,5,5,0,0,1-.23,1.61,2.12,2.12,0,0,1-.63,1,1.47,1.47,0,0,1-1,.32,2.7,2.7,0,0,1-1.24-.41,5,5,0,0,1-1.24-1,6.91,6.91,0,0,1-1-1.43,8,8,0,0,1-.63-1.72A7.84,7.84,0,0,1,350.12,247.93Zm4.6,2.65a3.84,3.84,0,0,0-.41-1.71,2.78,2.78,0,0,0-1.13-1.26c-.49-.28-.86-.3-1.13-.05a1.62,1.62,0,0,0-.4,1.25,4,4,0,0,0,.4,1.73,2.76,2.76,0,0,0,1.13,1.27c.49.29.87.3,1.13,0A1.7,1.7,0,0,0,354.72,250.58Z"/></g></g></g></svg>