<svg xmlns="http://www.w3.org/2000/svg" viewBox="0 0 337.07 91.18">
    <defs>
        <style>.cls-1{fill:#1AA3E9;}</style>
    </defs>
    <g id="Layer_2" data-name="Layer 2">
        <g id="Layer_1-2" data-name="Layer 1">
            <path class="cls-1" d="M332.08,0H41.79V12.43a4.15,4.15,0,1,1-8.29,0V0H4.14A4.14,4.14,0,0,0,0,4.14V29a4.14,4.14,0,0,0,4.14,4.15A12.43,12.43,0,1,1,4.14,58,4.14,4.14,0,0,0,0,62.17V87a4.14,4.14,0,0,0,4.14,4.14h29V78.75a4.15,4.15,0,1,1,8.29,0V91.18H332.08a5,5,0,0,0,5-5V5A5,5,0,0,0,332.08,0ZM41.45,62.17a4.15,4.15,0,0,1-8.29,0V53.88a4.15,4.15,0,0,1,8.29,0Zm0-24.87a4.15,4.15,0,1,1-8.29,0V29a4.15,4.15,0,0,1,8.29,0Z"/>
        </g>
    </g>
</svg>