<svg xmlns="http://www.w3.org/2000/svg" viewBox="0 0 437.19 411.25"><defs><style>.cls-1{fill:#cfebf9;}.cls-2{fill:#cdb9e9;}.cls-3{fill:#191919;}.cls-4{fill:#ebaf7d;}.cls-5{fill:#e6955d;}.cls-12,.cls-13,.cls-14,.cls-15,.cls-6{fill:none;}.cls-15,.cls-6{stroke:#161311;stroke-linejoin:round;}.cls-15,.cls-16,.cls-6{stroke-linecap:round;}.cls-6{stroke-width:1.02px;}.cls-7{fill:#1a1a1a;}.cls-16,.cls-17,.cls-8{fill:#fff;}.cls-9{fill:#2c3a64;}.cls-10{fill:#5ca2e7;}.cls-11{fill:#75c6f0;}.cls-12{stroke:#bd704f;}.cls-12,.cls-13,.cls-14,.cls-16{stroke-miterlimit:10;}.cls-12,.cls-14{stroke-width:1px;}.cls-13{stroke:#bf2d71;stroke-width:1.99px;}.cls-14{stroke:#d6837d;}.cls-15{stroke-width:1.1px;}.cls-16{stroke:#75c6f0;stroke-width:6px;}.cls-17{font-size:19px;font-family:EudoxusSans-ExtraBold, Eudoxus Sans;font-weight:800;}.cls-18{letter-spacing:-0.03em;}</style></defs><g id="Layer_2" data-name="Layer 2"><g id="Floor"><path class="cls-1" d="M437.19,273c0-118.75-96.27-215-215-215s-215,96.27-215,215A214.12,214.12,0,0,0,52.6,405.17H391.74A214.06,214.06,0,0,0,437.19,273Z"/><path class="cls-2" d="M185.09,23.37a4.67,4.67,0,1,1-4.67-4.67A4.67,4.67,0,0,1,185.09,23.37Z"/><path class="cls-3" d="M135.49,103.49s-2.83,20.47-27,33.25c-25.78,13.63-7.45,54.62,37.41,56,48.74,1.5,75.35-42.39,38.88-97.4Z"/><polygon class="cls-4" points="150.58 167.25 150.84 131.92 172.42 131.92 172.88 167.66 150.58 167.25"/><path class="cls-5" d="M148.1,142.27c-1.14-3.12,7.48,14.5,16.43,13.35,7.68-1,9-14.81,9-14.81s-3.55,5.26-11.66,5.27C152.81,146.1,148.1,142.27,148.1,142.27Z"/><path class="cls-3" d="M135.24,112.43c2.74,15.76,11.9,29,26.58,29s24.78-13.1,26.59-29c2.05-18-11.9-28.7-26.59-28.7S132.42,96.26,135.24,112.43Z"/><path class="cls-4" d="M138.84,120.65A4.72,4.72,0,0,0,133,119.1c-3.95,1.5-2.16,11.09,3.76,12.31a4.71,4.71,0,0,0,3.79-1S139.07,123.34,138.84,120.65Z"/><path class="cls-6" d="M133.76,122.48s3.31-1.1,5.66,3.77"/><path class="cls-4" d="M184.18,120.65a4.74,4.74,0,0,1,5.87-1.55c3.94,1.5,2.16,11.09-3.77,12.31a4.68,4.68,0,0,1-3.78-1S184,123.34,184.18,120.65Z"/><path class="cls-6" d="M189.26,122.48s-3.31-1.1-5.65,3.77"/><path class="cls-4" d="M138.47,112.38c0,6.15.63,17.71,4.62,25.34,3.74,7.16,10.39,10.8,18.51,10.8s15.31-5.44,18.51-11.59c4.85-9.3,4.61-24.43,4.61-24.43s0-22-22.87-22C137.75,90.55,138.47,112.38,138.47,112.38Z"/><path class="cls-7" d="M156.45,111.33l-12.55,3.24s.57-3.52,5.7-4.8S156.45,111.33,156.45,111.33Z"/><path class="cls-7" d="M164.42,111.33,177,114.57s-.57-3.52-5.7-4.8S164.42,111.33,164.42,111.33Z"/><polyline class="cls-6" points="159.71 121.71 159.15 126.2 162.4 126.2"/><path class="cls-8" d="M170.41,130H152.13s.53,6.72,9.1,6.74C169.12,136.75,170.41,130,170.41,130Z"/><path class="cls-6" d="M153.85,118.53s-3.47-1.77-6.4,0"/><path class="cls-6" d="M173.81,118.53s-3.47-1.77-6.4,0"/><path class="cls-3" d="M184.18,120.65s-6.09-12.08-1.83-22.82c0,0,4.23.07,4.08,16.82Z"/><path class="cls-3" d="M138.85,120.65s6.07-12.83,1.83-22.82c0,0-4.24.07-4.09,16.82Z"/><path class="cls-3" d="M188.61,107.16s-33-2-42.56-15.32c0,0,3.13-8.32,17.82-6S188.61,107.16,188.61,107.16Z"/><path class="cls-3" d="M159.57,88.41s-9.33,19.39-22.68,18.74C136.89,107.15,144.22,88.59,159.57,88.41Z"/><path class="cls-9" d="M140.48,388.64s9.79-48.57,15.54-61.81a1.39,1.39,0,0,1,2.61.22c1.39,5,3.22,19.91,2.4,63.69l0,17.89h38.43l6-43.06c.31-3.3,12.65-57.27-18.35-98.89H127s-24.32,41.84-27.68,93c-.74,11.38-1,28.77-2.56,48.93h39.47Z"/><line class="cls-10" x1="139.42" y1="318.98" x2="159.16" y2="327.05"/><path class="cls-11" d="M111.09,173.47s-12.6,1.79-21.82,33.36l24.83,14.23,14.65-20.15Z"/><path class="cls-4" d="M114.1,221.06s-16.49,25.85-20.4,30.5c-4,4.81-10.17,7.19-15.5,3.86h0a11.1,11.1,0,0,1-4.13-14.22l17.12-33.42Z"/><polygon class="cls-4" points="74.29 173.52 94.03 237.76 72.97 246.91 60.31 174.47 74.29 173.52"/><path class="cls-4" d="M72.93,176.71l3.08-3A13,13,0,0,0,80,165.52l.8-8.71s.5-4.59-8.63-3.44-9.66,1.21-9.56,3.92c0,0,1.67,3.76,7.56,4.52Z"/><path class="cls-4" d="M61.38,178.05s-9-5-9.43-20.78a5.27,5.27,0,0,1,2.37-4.54c2.34-1.54,9.07-5.41,12.69-2.94L73.34,158l-.41,18.75Z"/><path class="cls-4" d="M74.65,155.2l5-25.42a2.82,2.82,0,0,0-2.18-3.31h0a2.81,2.81,0,0,0-3.34,2.12l-4.44,19.23-2.13.41-7.37-19.46a2.58,2.58,0,0,0-3.42-1.45h0a2.56,2.56,0,0,0-1.47,3l7.23,26.94Z"/><path class="cls-12" d="M75.05,153.19s-12.38-1.18-12.49,4.1c0,0-.26,4,7.56,4.52A7.34,7.34,0,0,0,65,168.63"/><line class="cls-12" x1="87.2" y1="215.56" x2="92.45" y2="232.62"/><path class="cls-4" d="M195.73,210.34s19.61,69,27.12,126.77l12.63-2.4S233.55,250,220.81,197.62Z"/><path class="cls-4" d="M235.38,331.81s19,28.08-3.81,40.7a3.63,3.63,0,0,1-4.51-.82l-.15-.17a3.62,3.62,0,0,1,.24-4.91c3.25-3.29,7.61-10.1.66-19,0,0-3.65.93-3,8.18a3,3,0,0,1-3.25,3.25h0a3,3,0,0,1-2.62-2.26c-1.2-4.78-3.18-16.62,4.45-23Z"/><path class="cls-4" d="M207.81,179.23s18,5.92,21.2,34.35L199.7,224.7l-6.6-18Z"/><polygon class="cls-11" points="190.49 172.64 208.09 179.3 187.15 258.53 126.98 258.53 111.09 173.47 131.95 168.63 190.49 172.64"/><rect class="cls-7" x="126.98" y="258.53" width="60.16" height="8.15"/><line class="cls-10" x1="118.78" y1="214.62" x2="114.1" y2="193.45"/><line class="cls-13" x1="197.6" y1="218.97" x2="203.92" y2="195.37"/><path class="cls-4" d="M167.33,163.41l23.16,9.23s-2.69,9.12-29.87,9.12C137,181.76,132,168.63,132,168.63l22.5-5.22Z"/><path class="cls-8" d="M187.15,202.87h-3.41a.72.72,0,0,0-.35.08.88.88,0,0,0-.27.24.77.77,0,0,0-.12.33.69.69,0,0,0,0,.35,5.93,5.93,0,0,0,9,2.82,5.91,5.91,0,0,0,2.16-2.82.6.6,0,0,0,0-.35.63.63,0,0,0-.12-.32.72.72,0,0,0-.61-.32h-6.31"/><path class="cls-8" d="M184.83,190.35H181.9a.58.58,0,0,0-.41.2.6.6,0,0,0,0,.84.58.58,0,0,0,.41.2h2.93a.6.6,0,0,0,.41-.2.6.6,0,0,0,0-.84.6.6,0,0,0-.41-.2Z"/><path class="cls-8" d="M196.39,190.21a.47.47,0,0,1-.12.27l-.14.15a3.25,3.25,0,0,1-1.71.91,2.83,2.83,0,0,1-1.16,0,3.26,3.26,0,0,1-1.7-.91l-.15-.15a.58.58,0,0,1-.13-.26.57.57,0,0,1,0-.26.53.53,0,0,1,.15-.26l0,0a.6.6,0,0,1,.21-.14.69.69,0,0,1,.25,0h0a.65.65,0,0,1,.4.21,1.83,1.83,0,0,0,.39.34,2,2,0,0,0,1.1.34,2.09,2.09,0,0,0,1.09-.34,1.83,1.83,0,0,0,.39-.34.68.68,0,0,1,.41-.21h0a.69.69,0,0,1,.25,0,.49.49,0,0,1,.2.13l0,.05a.53.53,0,0,1,.15.26A.46.46,0,0,1,196.39,190.21Z"/><path class="cls-8" d="M191.07,196h-4.94a.67.67,0,0,0-.47.16.59.59,0,0,0,0,.9.67.67,0,0,0,.47.16h4.94a.66.66,0,0,0,.47-.16.57.57,0,0,0,0-.9.66.66,0,0,0-.47-.16Z"/><path class="cls-8" d="M183.36,193.31a3.31,3.31,0,0,0-3.24,2.68,3.3,3.3,0,0,0,2,3.7,3.32,3.32,0,0,0,3.61-5.41,3.34,3.34,0,0,0-1.09-.72A3.23,3.23,0,0,0,183.36,193.31Zm0,5.4a2.28,2.28,0,0,1-.89-.21,2.15,2.15,0,0,1-.71-.56,2.26,2.26,0,0,1-.41-.82,2.15,2.15,0,0,1,0-.91,1.94,1.94,0,0,1,.33-.8,2.12,2.12,0,0,1,.63-.6,2.16,2.16,0,0,1,.83-.29,2.09,2.09,0,0,1,.86.08,2.18,2.18,0,0,1,.76.42,2.1,2.1,0,0,1,.52.7,2.12,2.12,0,0,1,0,1.71,1.92,1.92,0,0,1-.45.68,2.08,2.08,0,0,1-1.47.61Z"/><path class="cls-8" d="M193.84,193.33a3.33,3.33,0,0,0-2.1.75,3.32,3.32,0,0,0,.85,5.63,3.29,3.29,0,0,0,4-1.23,3.32,3.32,0,0,0-.41-4.18,3.29,3.29,0,0,0-2.36-1Zm0,5.39a2.08,2.08,0,0,1-1.33-.47,2.1,2.1,0,0,1,1.93-3.63,2.1,2.1,0,0,1,1.48,2.22,2.12,2.12,0,0,1-.61,1.27,2.08,2.08,0,0,1-1.47.61Z"/><polygon class="cls-9" points="319.06 280.38 344.24 409.18 295.42 409.18 276.71 324.05 272.4 323.79 272.33 409.18 223.66 409.18 226.15 280.38 319.06 280.38"/><line class="cls-10" x1="264.16" y1="323.19" x2="291.95" y2="323.19"/><path class="cls-4" d="M341.49,190l45.94-11.75A17.45,17.45,0,0,0,399.6,157h0a17.45,17.45,0,0,0-21.66-12.4l-46,13.06Z"/><polygon class="cls-10" points="346.55 149.34 301.68 155.23 314.51 201.03 357.36 192.11 346.55 149.34"/><path class="cls-4" d="M368,92.31c1.15-7.2-1.64-16.4-1.64-16.4l1-16.16a3,3,0,0,0-2.28-3.33h0a3,3,0,0,0-3.66,2.2l-1.35,10.43-1.43,0-1.94-16.76a3.44,3.44,0,0,0-4-3.14h0a3.45,3.45,0,0,0-2.84,3.48l1.28,18.15-1.47.29L344.48,53a3.8,3.8,0,0,0-4.82-2.66h0a3.8,3.8,0,0,0-2.56,4.5l5.31,20.72-1.87.5-7-14.54a3.16,3.16,0,0,0-4.49-1.34h0a3.17,3.17,0,0,0-1.34,3.76l7.07,19.36L329,83.1a4.64,4.64,0,0,0-4.6,5.1h0a4.62,4.62,0,0,0,3.43,4l7.7,1.87a32.58,32.58,0,0,0,13.83,10.34S367.1,97.8,368,92.31Z"/><path class="cls-14" d="M334.81,83.25s11.17-.66,17.8,5.63"/><polygon class="cls-4" points="398.99 155.13 367.97 92.31 348.4 100.55 368.12 169.66 398.99 155.13"/><line class="cls-14" x1="362.25" y1="149.09" x2="365.29" y2="159.73"/><polygon class="cls-10" points="261.58 152.75 224.86 160.35 226.15 280.38 319.06 280.38 321.97 157.06 287.01 154.03 261.58 152.75"/><line class="cls-11" x1="320.94" y1="199.72" x2="320.94" y2="184.22"/><path class="cls-4" d="M198.23,190.84l-26.49,48a17.59,17.59,0,0,0,6.61,23.75h0a17.59,17.59,0,0,0,23.71-5.9l27.5-43.87Z"/><path class="cls-10" d="M190,197.52l38,24.39,6.09-29.13c6.44-10.38,14.61-22.91,4.33-29.51h0a22.37,22.37,0,0,0-30.93,6.81Z"/><line class="cls-11" x1="225.52" y1="220.31" x2="225.52" y2="187.68"/><polygon class="cls-4" points="184.76 264.77 254.31 262.87 259.1 240.39 180.49 230.45 184.76 264.77"/><line class="cls-14" x1="215.72" y1="234.89" x2="197.6" y2="232.62"/><path class="cls-4" d="M254.48,241.31s8.89-12,19.36,0l-4.16,8.26Z"/><path class="cls-7" d="M265,228.56l-2.75,16.83,21.22,2.36,3.37-16.16a3,3,0,0,0-2.61-3.64L268.31,226A3,3,0,0,0,265,228.56Z"/><path class="cls-4" d="M259,239.88l25.1.62a5.36,5.36,0,0,1,5.23,5.37h0a5.37,5.37,0,0,1-3,4.83l-1.34.65s2.56,19-12.52,21.27S248.86,263,248.86,263Z"/><polygon class="cls-4" points="288.4 154.08 288.06 116.17 260.53 116.17 259.92 153.09 288.4 154.08"/><path class="cls-5" d="M258.27,127.24c-1.43-3.27,9.56,18.13,20.78,16.93,9.62-1,10-18.46,10-18.46s-3.41,5.51-13.57,5.52C264.17,131.24,258.27,127.24,258.27,127.24Z"/><path class="cls-3" d="M302.71,95.27c-2.94,16.9-12.77,31.12-28.52,31.12s-26.58-14.06-28.52-31.12c-2.21-19.37,12.77-32.22,28.52-32.22S305.74,77.91,302.71,95.27Z"/><path class="cls-4" d="M298.84,104.08a5.07,5.07,0,0,1,6.29-1.66c4.24,1.6,2.32,11.89-4,13.2a5,5,0,0,1-4.06-1.06S298.6,107,298.84,104.08Z"/><path class="cls-15" d="M304.29,106.05s-3.54-1.19-6.06,4"/><path class="cls-4" d="M250.2,104.08a5.07,5.07,0,0,0-6.29-1.66c-4.24,1.6-2.32,11.89,4,13.2a5,5,0,0,0,4.06-1.06S250.45,107,250.2,104.08Z"/><path class="cls-15" d="M244.75,106.05s3.55-1.19,6.07,4"/><path class="cls-4" d="M299.24,95.21c0,6.6-.68,20.39-4.95,28.57-4,7.69-10.65,11.83-19.35,12.07-6.94.2-16.94-6.31-20.37-12.91-5.2-10-4.95-27.61-4.95-27.61s0-23.55,24.54-23.55C300,71.78,299.24,95.21,299.24,95.21Z"/><path class="cls-7" d="M265.86,103.2a1.9,1.9,0,1,1-1.9-1.9A1.89,1.89,0,0,1,265.86,103.2Z"/><path class="cls-7" d="M285.46,103.2a1.9,1.9,0,1,1-1.9-1.9A1.89,1.89,0,0,1,285.46,103.2Z"/><path class="cls-7" d="M269.09,95.47,255.63,99s.61-3.78,6.12-5.15S269.09,95.47,269.09,95.47Z"/><path class="cls-7" d="M277.65,95.47,291.11,99s-.61-3.78-6.12-5.15S277.65,95.47,277.65,95.47Z"/><polyline class="cls-15" points="271.99 108.01 271.99 112.82 275.48 112.82"/><path class="cls-8" d="M284.73,116.87h-20.6s.57,5.42,9.77,5.43C282.37,122.32,284.73,116.87,284.73,116.87Z"/><path class="cls-3" d="M250.2,104.08s9.19-14.1,2-24.48c0,0-4.55.07-4.39,18.05Z"/><path class="cls-3" d="M298.84,104.08s-9.19-14.1-2-24.48c0,0,4.55.07,4.39,18.05Z"/><path class="cls-3" d="M249.72,78.92S261.58,92.35,286,89.72c21.83-2.35,23.72-17.66,18.52-23.71-7.42-8.65-23.81-5.43-32.56,4.22Z"/><polygon class="cls-4" points="259.92 153.09 274.43 171.75 288.4 154.08 259.92 153.09"/><line class="cls-16" x1="3" y1="408.25" x2="424.45" y2="408.25"/><rect class="cls-9" x="70.39" width="184.02" height="59.79" rx="20.27"/><path class="cls-9" d="M225.11,53.28V74.19a.74.74,0,0,1-1.2.58l-27-21.49Z"/><text class="cls-17" transform="translate(106.27 23.08)"><tspan class="cls-18">W</tspan><tspan x="19.04" y="0">elcome to </tspan><tspan x="-5.72" y="22.8">Riders Buddy</tspan></text><path class="cls-8" d="M301.62,195.84h-3.4a.85.85,0,0,0-.35.08.78.78,0,0,0-.27.24.66.66,0,0,0-.12.33.73.73,0,0,0,0,.36,5.92,5.92,0,0,0,2.17,2.81,5.92,5.92,0,0,0,8.94-2.81.69.69,0,0,0,0-.35.77.77,0,0,0-.12-.33.8.8,0,0,0-.61-.32h-6.32"/><path class="cls-8" d="M299.31,183.33h-2.94a.65.65,0,0,0-.41.19.64.64,0,0,0,0,.85.65.65,0,0,0,.41.19h2.94a.62.62,0,0,0,0-1.23Z"/><path class="cls-8" d="M310.87,183.18a.5.5,0,0,1-.12.28l-.14.15a3.4,3.4,0,0,1-1.71.91,5.7,5.7,0,0,1-.58.06,5.9,5.9,0,0,1-.59-.06,3.34,3.34,0,0,1-1.69-.91l-.15-.15a.68.68,0,0,1-.13-.27.77.77,0,0,1,0-.26.54.54,0,0,1,.16-.26l0,0a.6.6,0,0,1,.21-.14.52.52,0,0,1,.25,0h0a.55.55,0,0,1,.39.2,1.85,1.85,0,0,0,.4.34,2,2,0,0,0,1.1.35,2,2,0,0,0,1.09-.35,1.59,1.59,0,0,0,.39-.34.6.6,0,0,1,.41-.2h0a.48.48,0,0,1,.24,0,.57.57,0,0,1,.21.13l0,0a.76.76,0,0,1,.15.26A.58.58,0,0,1,310.87,183.18Z"/><path class="cls-8" d="M305.55,189h-4.94a.64.64,0,0,0-.47.17.56.56,0,0,0,0,.89.67.67,0,0,0,.47.16h4.94a.6.6,0,0,0,.47-1,.64.64,0,0,0-.47-.17Z"/><path class="cls-8" d="M297.84,186.28a3.31,3.31,0,0,0-2.91,4.89,3.32,3.32,0,0,0,5.68.27,3.38,3.38,0,0,0,.54-2.17,3.34,3.34,0,0,0-1-2,3.31,3.31,0,0,0-2.35-1Zm0,5.4a2,2,0,0,1-.89-.21,2,2,0,0,1-.71-.56,2,2,0,0,1-.41-.81,2.09,2.09,0,0,1,.31-1.72,2.12,2.12,0,0,1,.63-.6,2,2,0,0,1,.82-.28,2.13,2.13,0,0,1,.87.07,2.05,2.05,0,0,1,.76.43,2,2,0,0,1,.52.7,2,2,0,0,1,.19.85,2.26,2.26,0,0,1-.17.85,2.29,2.29,0,0,1-.45.69,2.07,2.07,0,0,1-1.47.6Z"/><path class="cls-8" d="M308.32,186.3a3.28,3.28,0,0,0-2.1.76,3.31,3.31,0,0,0,.85,5.62,3.31,3.31,0,0,0,4-1.22,3.4,3.4,0,0,0,.54-2.17,3.32,3.32,0,0,0-3.31-3Zm0,5.4a2.07,2.07,0,0,1-1.33-.48,2,2,0,0,1-.73-1.21,2.13,2.13,0,0,1,.2-1.4,2.11,2.11,0,0,1,3.6-.17,2.21,2.21,0,0,1,.34,1.37,2.1,2.1,0,0,1-2.08,1.89Z"/></g></g></svg>