<svg width="151" height="148" viewBox="0 0 151 148" fill="none" xmlns="http://www.w3.org/2000/svg">
<path d="M126.692 62.4804C126.692 75.532 122.308 87.5442 115.038 97.2463C111 102.444 106.154 107.064 100.615 110.644C91.6154 116.535 80.8846 120 69.3461 120C37.6154 120 12 94.2432 12 62.5959C12 30.8331 37.7308 5.19184 69.3461 5.19184C80.8846 5.19184 91.6154 8.65688 100.615 14.4319C106.154 18.0125 111 22.6325 115.038 27.8301C122.423 37.4167 126.692 49.4288 126.692 62.4804Z" fill="#EAEEF9"/>
<path d="M111.605 10.0252H107.894V12.4568H111.605V10.0252Z" fill="#B3BFCF"/>
<path d="M111.605 10.0252H107.894V11.0789H111.605V10.0252Z" fill="#9FADBF"/>
<path d="M97.4056 14.9694L95.3887 16.9957L96.8409 18.4546L98.8579 16.4283L97.4056 14.9694Z" fill="#B3BFCF"/>
<path d="M121.125 16.2662L123.142 18.2925L124.433 16.9957L122.416 14.9694L121.125 16.2662Z" fill="#B3BFCF"/>
<g filter="url(#filter0_d_1581_18902)">
<path d="M109.991 48.2006C119.915 48.2006 127.983 40.0954 127.983 30.1261C127.983 20.1567 119.915 12.0515 109.991 12.0515C100.068 12.0515 92 20.1567 92 30.1261C92 40.0954 100.068 48.2006 109.991 48.2006Z" fill="#F0F3F9"/>
<path d="M109.991 48.2006C119.915 48.2006 127.983 40.0954 127.983 30.1261C127.983 20.1567 119.915 12.0515 109.991 12.0515C100.068 12.0515 92 20.1567 92 30.1261C92 40.0954 100.068 48.2006 109.991 48.2006Z" stroke="#CDD5E4" stroke-width="0.5522" stroke-miterlimit="10"/>
</g>
<path d="M124.029 30.126C124.029 30.2881 124.029 30.4502 124.029 30.6124C123.787 38.1502 117.575 44.2291 109.991 44.2291C102.407 44.2291 96.1952 38.1502 95.9531 30.6124C95.9531 30.4502 95.9531 30.2881 95.9531 30.126C95.9531 22.5072 101.923 16.2662 109.507 16.023C109.668 16.023 109.83 16.023 109.991 16.023C117.656 16.023 123.868 22.183 124.029 29.8829C124.029 29.9639 124.029 30.045 124.029 30.126Z" fill="#EDF0FC"/>
<path d="M124.029 30.6124C123.787 38.1502 117.575 44.2291 109.991 44.2291C102.407 44.2291 96.1952 38.1502 95.9531 30.6124C96.1952 23.0745 102.407 16.9957 109.991 16.9957C117.656 16.9957 123.787 22.9935 124.029 30.6124Z" fill="white"/>
<path d="M113.783 39.1228H105.715C105.312 39.1228 104.989 38.7986 104.989 38.3933V34.3407C104.989 33.9355 105.312 33.6113 105.715 33.6113H113.783C114.187 33.6113 114.509 33.9355 114.509 34.3407V38.3933C114.429 38.7986 114.106 39.1228 113.783 39.1228Z" fill="#F2F5FC"/>
<path d="M122.174 30.8555H119.835C119.431 30.8555 119.108 30.5313 119.108 30.1261C119.108 29.7208 119.431 29.3966 119.835 29.3966H122.174C122.578 29.3966 122.9 29.7208 122.9 30.1261C122.9 30.5313 122.497 30.8555 122.174 30.8555Z" fill="#DAE1ED"/>
<path d="M99.4222 30.8555H97.0826C96.6792 30.8555 96.3564 30.5313 96.3564 30.1261C96.3564 29.7208 96.6792 29.3966 97.0826 29.3966H99.4222C99.8256 29.3966 100.148 29.7208 100.148 30.1261C100.148 30.5313 99.8256 30.8555 99.4222 30.8555Z" fill="#DAE1ED"/>
<path d="M109.668 43.4186C109.265 43.4186 108.942 43.0944 108.942 42.6891V40.3386C108.942 39.9333 109.265 39.6091 109.668 39.6091C110.072 39.6091 110.395 39.9333 110.395 40.3386V42.6891C110.314 43.1754 109.991 43.4186 109.668 43.4186Z" fill="#DAE1ED"/>
<path d="M109.668 20.643C109.265 20.643 108.942 20.3188 108.942 19.9135V17.6441C108.942 17.2388 109.265 16.9146 109.668 16.9146C110.072 16.9146 110.395 17.2388 110.395 17.6441V19.9946C110.314 20.3188 109.991 20.643 109.668 20.643Z" fill="#DAE1ED"/>
<path d="M109.83 32.0713C111.04 32.0713 111.928 31.0987 111.928 29.964C111.928 28.7482 110.96 27.8566 109.83 27.8566C108.62 27.8566 107.732 28.8292 107.732 29.964C107.732 31.0987 108.62 32.0713 109.83 32.0713Z" fill="#F2F5FC"/>
<path d="M118.866 21.4535C118.624 21.2103 118.221 21.2103 117.979 21.4535L110.476 29.3966C110.395 29.3966 110.395 29.3966 110.395 29.3966C109.83 29.3966 109.427 29.8018 109.427 30.3692C109.427 30.4502 109.427 30.4502 109.427 30.5313L108.217 31.8281C107.975 32.0713 107.975 32.4765 108.217 32.7197C108.378 32.8818 108.459 32.8818 108.62 32.8818C108.781 32.8818 108.943 32.8008 109.023 32.7197L110.234 31.4229C110.314 31.4229 110.314 31.4229 110.314 31.4229C110.879 31.4229 111.282 31.0176 111.282 30.4502C111.282 30.3692 111.282 30.3692 111.282 30.2881L118.786 22.4261C119.108 22.1019 119.108 21.6967 118.866 21.4535Z" fill="#DAE1ED"/>
<path d="M118.301 20.9672C118.059 20.724 117.655 20.724 117.413 20.9672L109.91 28.9103C109.83 28.9103 109.83 28.9103 109.83 28.9103C109.265 28.9103 108.861 29.3155 108.861 29.8829C108.861 29.964 108.861 29.9639 108.861 30.045L107.651 31.3418C107.409 31.585 107.409 31.9902 107.651 32.2334C107.813 32.3955 107.893 32.3955 108.055 32.3955C108.216 32.3955 108.377 32.3144 108.458 32.2334L109.668 30.9366C109.749 30.9366 109.749 30.9366 109.749 30.9366C110.314 30.9366 110.717 30.5313 110.717 29.9639C110.717 29.8829 110.717 29.8829 110.717 29.8018L118.22 21.9398C118.543 21.6156 118.543 21.2104 118.301 20.9672Z" fill="#003459"/>
<path d="M118.059 21.2104L107.813 31.9092C107.732 31.9092 107.732 31.9092 107.652 31.9092C107.571 31.7471 107.571 31.585 107.732 31.5039L117.575 21.1293C117.736 20.9672 117.898 20.9672 118.059 21.0483C118.059 21.0483 118.059 21.1293 118.059 21.2104Z" fill="#1FA5EA"/>
<path d="M113.38 6.62104V8.97154C113.38 9.86311 112.654 10.5926 111.767 10.5926H107.733C106.845 10.5926 106.119 9.86311 106.119 8.97154V6.62104C106.119 5.72947 106.845 5 107.733 5H111.767C112.654 5 113.38 5.72947 113.38 6.62104Z" fill="#1C3754"/>
<path d="M113.38 6.62104V8.97154C113.38 9.86311 112.654 10.5926 111.767 10.5926H107.733C106.845 10.5926 106.119 9.86311 106.119 8.97154V8.56628C106.361 9.701 107.41 9.701 107.41 9.701H111.525C112.089 9.701 112.573 9.21469 112.573 8.64733V6.94524C112.573 5.72947 112.331 5.32421 111.767 5C112.654 5 113.38 5.72947 113.38 6.62104Z" fill="#172D45"/>
<path d="M97.8093 15.1315L95.631 17.3199C95.1469 17.8062 94.3401 17.8062 93.8561 17.3199L92.5652 16.023C92.0811 15.5367 92.0811 14.7262 92.5652 14.2399L94.7435 12.0515C95.2276 11.5652 96.0344 11.5652 96.5185 12.0515L97.8093 13.3483C98.2934 13.8346 98.2934 14.6452 97.8093 15.1315Z" fill="#1C3754"/>
<path d="M122.013 15.1315L124.191 17.3199C124.675 17.8062 125.482 17.8062 125.966 17.3199L127.257 16.023C127.741 15.5367 127.741 14.7262 127.257 14.2399L125.078 12.0515C124.594 11.5652 123.787 11.5652 123.303 12.0515L122.013 13.3483C121.609 13.8346 121.609 14.6452 122.013 15.1315Z" fill="#1C3754"/>
<path d="M109.83 30.1246C109.911 30.1246 109.992 30.0439 109.992 29.9632C109.992 29.8825 109.911 29.8018 109.83 29.8018C109.75 29.8018 109.669 29.8825 109.669 29.9632C109.669 30.0439 109.75 30.1246 109.83 30.1246Z" fill="#1C3754"/>
<path opacity="0.4" d="M124.03 29.8829H109.508V16.023C109.669 16.023 109.831 16.023 109.992 16.023C117.737 16.023 123.949 22.264 124.03 29.8829Z" fill="url(#paint0_linear_1581_18902)"/>
<path d="M101.77 74.526L89.0773 105.249C88.7312 105.942 88.6158 106.751 88.6158 107.559L88.5004 110.1H38.5389C36.8081 110.1 35.4235 108.599 35.5389 106.866L37.1543 90.4651C37.5004 86.8846 34.962 83.6505 31.3851 83.1885L22.1543 82.0335L24.462 67.0184C26.7697 52.0032 33.5774 51.5412 38.0774 49.3467C40.2697 48.3072 42.8081 47.2677 45.0004 46.3437C46.1543 45.8817 47.3081 45.5352 48.0004 45.1887C48.8081 44.8422 49.7312 44.7267 50.6543 44.7267C52.2697 44.8422 55.0389 45.0732 59.1927 45.9972C61.7312 46.5747 64.8466 47.1522 67.8466 47.7297C68.5389 47.8452 69.3466 47.9607 70.0389 48.1917C75.3466 49.2312 80.3081 51.5412 84.462 54.8908L99.6927 67.1339C102.116 68.6354 102.923 71.7539 101.77 74.526Z" fill="#23476F"/>
<path d="M65.8847 39.7601V47.1522C65.8847 52.1187 61.7308 56.1613 56.5385 56.1613C54.0001 56.1613 51.577 55.1218 49.9616 53.5047C48.2308 51.8877 47.1924 49.5777 47.1924 47.1522V25.438L65.8847 39.7601Z" fill="white"/>
<path d="M65.8846 39.7601V46.9212C55.1539 45.8817 51.577 35.2556 53.077 36.5261C54.3462 37.7966 61.1539 39.0671 65.8846 39.7601Z" fill="url(#paint1_linear_1581_18902)"/>
<path d="M72.3464 14.0033C72.4618 25.438 73.9618 36.7571 71.3079 38.8361C68.6541 40.9151 62.7694 42.8786 56.8848 39.4136C51.0002 35.9486 50.3079 33.754 50.3079 33.754L47.0771 30.52L47.5387 17.2374L56.8848 10.5383L72.3464 14.0033Z" fill="white"/>
<path d="M72.3467 14.0033C72.3467 14.0033 73.5006 17.4684 68.539 17.3529C63.5775 17.2374 57.5775 15.6204 55.039 15.1584C52.5006 14.5809 50.8852 17.4684 50.8852 17.4684V21.8574L50.3083 28.672C50.3083 28.672 45.8083 26.593 45.6929 23.9364C45.5775 21.2799 45.6929 20.4714 45.6929 20.4714L51.2313 15.3894C51.2313 15.3894 58.3852 12.7328 58.7313 12.3863C59.0775 12.1553 66.4621 10.4228 66.4621 10.4228C66.4621 10.4228 71.539 10.6538 72.0006 11.3468C72.2313 11.6933 72.3467 12.5018 72.4621 13.0793C72.3467 13.6568 72.3467 14.0033 72.3467 14.0033Z" fill="#1C3754"/>
<path d="M48.1343 31.1949C49.9093 31.0122 51.1844 29.2693 50.9823 27.3021C50.7802 25.3349 49.1775 23.8883 47.4024 24.0711C45.6274 24.2538 44.3523 25.9966 44.5544 27.9638C44.7565 29.931 46.3593 31.3776 48.1343 31.1949Z" fill="white"/>
<path d="M72.5769 15.7359C72.4615 15.7359 72.4615 15.7359 72.3462 15.8514C70.1539 12.9638 66.5769 11.3468 59.8846 13.7723H59.7692C59.5385 13.8878 59.1923 14.0033 58.8462 14.1189C58.5 14.2344 58.1539 14.3499 57.8077 14.5809C56.1923 15.2739 53.6539 16.6599 51.3462 18.2769C48.4616 20.2404 45.9231 22.7814 45.8077 24.8605C45.1154 22.0884 44.7693 19.3164 44.6539 16.5444C44.5385 11.3468 51 5.91827 57.4616 5.10976C60.9231 4.64776 63.6923 5.68727 66.1154 7.41978C68.1923 8.9213 70.0385 11.1158 71.6539 13.3103L72.5769 15.7359Z" fill="url(#paint2_linear_1581_18902)"/>
<path d="M80.3082 9.38262C79.7313 12.2702 75.2313 14.5802 72.3467 15.7352C67.2698 9.15162 57.2313 14.1182 51.3467 18.2762C51.4621 18.1607 51.5774 17.4677 51.6928 17.3522C55.2698 8.57411 81.9236 0.835536 80.3082 9.38262Z" fill="#1AA3E9"/>
<path d="M69.0008 25.5535C69.7655 25.5535 70.3854 24.9329 70.3854 24.1674C70.3854 23.402 69.7655 22.7814 69.0008 22.7814C68.2361 22.7814 67.6162 23.402 67.6162 24.1674C67.6162 24.9329 68.2361 25.5535 69.0008 25.5535Z" fill="#1C3754"/>
<path d="M59.1932 25.5535C59.9579 25.5535 60.5778 24.9329 60.5778 24.1674C60.5778 23.402 59.9579 22.7814 59.1932 22.7814C58.4285 22.7814 57.8086 23.402 57.8086 24.1674C57.8086 24.9329 58.4285 25.5535 59.1932 25.5535Z" fill="#1C3754"/>
<path d="M108.232 60.0874H105.463C105.116 60.0874 105.001 59.972 105.001 59.6258C105.001 59.2797 105.116 59.1643 105.463 59.1643H108.232C108.578 59.1643 108.693 59.2797 108.693 59.6258C108.693 59.8566 108.578 60.0874 108.232 60.0874Z" fill="url(#paint3_linear_1581_18902)"/>
<path d="M132.001 58.0092V109.292C132.001 109.985 131.885 110.562 131.539 111.024C131.424 111.14 131.308 111.486 131.077 111.602C130.962 111.717 130.962 111.717 130.847 111.833C130.154 112.526 129.347 112.872 128.308 112.872H112.847L109.847 54.6597H128.654C130.501 54.6597 132.001 56.0457 132.001 58.0092Z" fill="url(#paint4_linear_1581_18902)"/>
<path d="M132.001 58.0092V109.292C132.001 109.985 131.885 110.562 131.539 111.024C131.424 111.14 131.308 111.486 131.077 111.602C130.962 111.717 130.962 111.717 130.847 111.833C130.154 112.526 129.347 112.872 128.308 112.872H112.847L109.847 54.6597H128.654C130.501 54.6597 132.001 56.0457 132.001 58.0092Z" fill="url(#paint5_linear_1581_18902)"/>
<path d="M112.962 57.6627V112.757H62.3082C60.3467 112.757 58.8467 111.255 58.8467 109.292V58.0092C58.8467 56.1612 60.3467 54.6597 62.3082 54.6597H109.847C111.577 54.6597 112.962 56.0457 112.962 57.6627Z" fill="url(#paint6_linear_1581_18902)"/>
<path d="M91.5005 54.6597V70.0214C91.5005 70.4834 91.2697 70.7144 90.9236 70.9454L88.8467 71.8694C88.6159 71.9849 88.2697 71.9849 88.039 71.7539L84.8082 69.2129C84.5774 69.0974 84.2313 68.9819 84.0005 69.0974L82.2698 70.0214C81.8082 70.2524 81.3467 69.9059 81.3467 69.5594V54.6597H91.5005Z" fill="#1AA3E9"/>
<path d="M109.847 54.6598C111.116 54.4288 112.616 55.2373 113.077 56.5078C113.193 56.8543 113.308 57.2008 113.308 57.5473C113.308 57.8938 113.308 58.2403 113.308 58.4713V60.3193V67.8269L113.193 82.842L113.077 97.8572L112.847 112.872L112.731 97.8572L112.616 82.842L112.501 67.8269V60.3193V58.4713C112.501 57.7783 112.616 57.2008 112.385 56.7388C112.039 55.6993 111.001 54.8908 109.847 54.6598Z" fill="#76C8F2"/>
<path d="M112.847 103.17V109.869C112.847 110.331 112.386 111.14 111.924 111.948C111.462 112.41 110.77 112.641 110.078 112.641H102.347L96.8086 106.289L98.5394 104.441L93.8086 99.1277L100.039 99.5897L105.116 97.2797L102.001 94.6232L102.347 92.8906L112.847 103.17Z" fill="url(#paint7_linear_1581_18902)"/>
<path d="M93.9241 97.3952C93.8087 97.6262 93.6934 97.9727 93.6934 98.2037C93.6934 98.8967 94.2703 99.4742 94.9626 99.4742H96.9241V105.827C96.9241 106.058 97.0395 106.289 97.3857 106.289H102.116H102.924C103.155 106.289 103.386 106.173 103.386 105.827V99.4742H105.116C105.347 99.4742 105.693 99.3587 105.924 99.2432C106.501 98.7812 106.616 97.9727 106.155 97.3952L101.078 91.0426C100.963 90.9271 100.963 90.8116 100.847 90.8116C100.27 90.3496 99.4626 90.5806 99.001 91.0426L93.9241 97.3952Z" fill="url(#paint8_linear_1581_18902)"/>
<path d="M36.9238 93.4681L39.0007 72.7934L41.1931 94.9697" fill="#112133"/>
<g filter="url(#filter1_d_1581_18902)">
<path d="M83.0771 99.4742C83.1925 100.283 82.5002 100.976 81.8079 101.091L80.5386 101.207C80.5386 101.207 76.154 100.514 75.9233 103.632C75.6925 106.173 76.9617 107.097 80.4233 111.371C81.2309 112.41 80.5386 113.912 79.2694 114.027C70.6156 114.72 70.2694 114.72 63.4617 108.021C62.5386 107.097 61.2694 106.52 60.0002 106.52L42.3463 106.404L26.654 106.173C24.0002 104.903 22.3848 102.246 22.6156 99.2432L23.5387 81.918L37.9617 83.7661L37.154 91.7356L61.731 96.7022C61.731 96.7022 67.9617 97.9727 72.9233 97.7417C76.6156 97.6262 79.7309 97.8572 81.8079 97.9727C82.3848 98.2037 82.9617 98.7812 83.0771 99.4742Z" fill="white"/>
</g>
<defs>
<filter id="filter0_d_1581_18902" x="69.7236" y="0.775406" width="80.5352" height="80.7013" filterUnits="userSpaceOnUse" color-interpolation-filters="sRGB">
<feFlood flood-opacity="0" result="BackgroundImageFix"/>
<feColorMatrix in="SourceAlpha" type="matrix" values="0 0 0 0 0 0 0 0 0 0 0 0 0 0 0 0 0 0 127 0" result="hardAlpha"/>
<feOffset dy="11"/>
<feGaussianBlur stdDeviation="11"/>
<feColorMatrix type="matrix" values="0 0 0 0 0.397708 0 0 0 0 0.47749 0 0 0 0 0.575 0 0 0 0.18 0"/>
<feBlend mode="normal" in2="BackgroundImageFix" result="effect1_dropShadow_1581_18902"/>
<feBlend mode="normal" in="SourceGraphic" in2="effect1_dropShadow_1581_18902" result="shape"/>
</filter>
<filter id="filter1_d_1581_18902" x="0.59375" y="70.918" width="104.496" height="76.4056" filterUnits="userSpaceOnUse" color-interpolation-filters="sRGB">
<feFlood flood-opacity="0" result="BackgroundImageFix"/>
<feColorMatrix in="SourceAlpha" type="matrix" values="0 0 0 0 0 0 0 0 0 0 0 0 0 0 0 0 0 0 127 0" result="hardAlpha"/>
<feOffset dy="11"/>
<feGaussianBlur stdDeviation="11"/>
<feColorMatrix type="matrix" values="0 0 0 0 0.397708 0 0 0 0 0.47749 0 0 0 0 0.575 0 0 0 0.18 0"/>
<feBlend mode="normal" in2="BackgroundImageFix" result="effect1_dropShadow_1581_18902"/>
<feBlend mode="normal" in="SourceGraphic" in2="effect1_dropShadow_1581_18902" result="shape"/>
</filter>
<linearGradient id="paint0_linear_1581_18902" x1="108.532" y1="18.8091" x2="121.562" y2="31.7855" gradientUnits="userSpaceOnUse">
<stop stop-color="#2BAAEB"/>
<stop offset="1" stop-color="#62C0F1"/>
</linearGradient>
<linearGradient id="paint1_linear_1581_18902" x1="57.9965" y1="44.5741" x2="59.7229" y2="41.074" gradientUnits="userSpaceOnUse">
<stop stop-color="#E3E7F5"/>
<stop offset="0.9913" stop-color="#CED5E6"/>
</linearGradient>
<linearGradient id="paint2_linear_1581_18902" x1="44.652" y1="14.9451" x2="72.5288" y2="14.9451" gradientUnits="userSpaceOnUse">
<stop stop-color="#1AA3E9"/>
<stop offset="0.989583" stop-color="#1AA3E9"/>
</linearGradient>
<linearGradient id="paint3_linear_1581_18902" x1="105.055" y1="59.5535" x2="108.721" y2="59.5535" gradientUnits="userSpaceOnUse">
<stop stop-color="#76C8F2"/>
<stop offset="1" stop-color="#1AA3E9"/>
</linearGradient>
<linearGradient id="paint4_linear_1581_18902" x1="95.1392" y1="84.6937" x2="121.536" y2="83.6254" gradientUnits="userSpaceOnUse">
<stop stop-color="#76C8F2"/>
<stop offset="1" stop-color="#1AA3E9"/>
</linearGradient>
<linearGradient id="paint5_linear_1581_18902" x1="144.249" y1="104.046" x2="124.272" y2="86.3076" gradientUnits="userSpaceOnUse">
<stop stop-color="#D1EDFB"/>
<stop offset="1" stop-color="#E5F3F9"/>
</linearGradient>
<linearGradient id="paint6_linear_1581_18902" x1="58.7868" y1="83.6777" x2="112.866" y2="83.6777" gradientUnits="userSpaceOnUse">
<stop stop-color="#76C8F2"/>
<stop offset="1" stop-color="#1AA3E9"/>
</linearGradient>
<linearGradient id="paint7_linear_1581_18902" x1="98.0604" y1="98.3796" x2="111.17" y2="111.51" gradientUnits="userSpaceOnUse">
<stop stop-color="#1AA3E9"/>
<stop offset="1" stop-color="#76C8F2"/>
</linearGradient>
<linearGradient id="paint8_linear_1581_18902" x1="104.245" y1="103.975" x2="96.8053" y2="96.5241" gradientUnits="userSpaceOnUse">
<stop offset="0.0113208" stop-color="#D1EDFB"/>
<stop offset="1" stop-color="white"/>
</linearGradient>
</defs>
</svg>
