<svg width="161" height="159" viewBox="0 0 161 159" fill="none" xmlns="http://www.w3.org/2000/svg">
<path d="M136.981 63.6722C136.981 75.1672 133.146 85.8262 126.719 94.3952C123.195 98.9932 118.945 103.069 114.073 106.204C106.195 111.429 96.7624 114.459 86.604 114.459C58.7203 114.459 36.123 91.6782 36.123 63.6722C36.123 35.5617 58.7203 12.8852 86.5004 12.8852C96.6588 12.8852 106.092 15.9157 113.969 21.0362C118.841 24.1712 123.091 28.2467 126.616 32.8447C133.146 41.5182 136.981 52.1772 136.981 63.6722Z" fill="#EAEEF9"/>
<g filter="url(#filter0_d_1581_18952)">
<path d="M75.9737 48.9497L47.0116 69.0763C45.3363 70.2294 43.0537 69.8311 41.881 68.1539L22.6567 40.4168C21.505 38.7396 21.9029 36.4544 23.5782 35.2803L52.5402 15.1536C54.2155 14.0005 56.4981 14.3989 57.6708 16.0761L76.916 43.8132C78.0678 45.4904 77.649 47.7966 75.9737 48.9497Z" fill="white"/>
</g>
<path d="M71.4914 45.9097L46.0266 63.6044C45.3146 64.1075 44.3303 63.9188 43.8277 63.206L27.9332 40.27C27.4306 39.5572 27.6191 38.5718 28.3311 38.0687L53.7959 20.374C54.5079 19.8708 55.4921 20.0595 55.9947 20.7723L71.8893 43.7083C72.3918 44.4211 72.2034 45.4065 71.4914 45.9097Z" fill="#E6ECF5"/>
<path d="M53.2501 45.721L43.9521 52.1783L44.9364 43.6873L53.2501 45.721Z" fill="#B7C0CC"/>
<path d="M60.9363 40.3749L47.5547 49.6834L48.9787 37.4607L60.9363 40.3749Z" fill="#CED7E2"/>
<path d="M41.2513 42.9326C42.431 42.9326 43.3873 41.9752 43.3873 40.7942C43.3873 39.6131 42.431 38.6557 41.2513 38.6557C40.0716 38.6557 39.1152 39.6131 39.1152 40.7942C39.1152 41.9752 40.0716 42.9326 41.2513 42.9326Z" fill="#0D5275"/>
<g filter="url(#filter1_d_1581_18952)">
<path d="M111.051 66.0783L84.1417 43.2681C82.592 41.9473 82.4035 39.6201 83.7019 38.0687L105.502 12.3024C106.821 10.7509 109.146 10.5622 110.695 11.8621L137.605 34.6723C139.155 35.9931 139.343 38.3203 138.045 39.8717L116.245 65.638C114.926 67.1895 112.601 67.3781 111.051 66.0783Z" fill="white"/>
</g>
<path d="M112.831 60.9628L89.1677 40.92C88.4975 40.3539 88.4138 39.3685 88.9792 38.6976L106.989 17.3969C107.554 16.726 108.539 16.6422 109.209 17.2082L132.872 37.251C133.543 37.8171 133.626 38.8025 133.061 39.4734L115.051 60.7741C114.486 61.445 113.502 61.5288 112.831 60.9628Z" fill="#E6ECF5"/>
<path d="M108.287 43.2471L99.6592 35.9302L108.12 34.6933L108.287 43.2471Z" fill="#B7C0CC"/>
<path d="M115.449 49.3061L103.01 38.7605L115.177 36.9995L115.449 49.3061Z" fill="#CED7E2"/>
<path d="M109.962 32.5339C111.142 32.5339 112.098 31.5764 112.098 30.3954C112.098 29.2144 111.142 28.2569 109.962 28.2569C108.783 28.2569 107.826 29.2144 107.826 30.3954C107.826 31.5764 108.783 32.5339 109.962 32.5339Z" fill="url(#paint0_linear_1581_18952)"/>
<g filter="url(#filter2_d_1581_18952)">
<path d="M114.086 110.105L82.4226 125.62C80.6007 126.521 78.4018 125.766 77.5013 123.922L62.6748 93.6057C61.7743 91.7817 62.5282 89.5804 64.3711 88.6789L96.0345 73.1646C97.8564 72.2631 100.055 73.0178 100.956 74.8628L115.782 105.2C116.662 107.003 115.908 109.204 114.086 110.105Z" fill="white"/>
</g>
<path d="M110.107 106.436L82.2545 120.085C81.4797 120.462 80.5164 120.148 80.1394 119.351L67.8677 94.2766C67.4908 93.5009 67.8049 92.5365 68.6007 92.1591L96.4528 78.5107C97.2276 78.1333 98.1909 78.4478 98.5679 79.2445L110.84 104.319C111.217 105.095 110.902 106.038 110.107 106.436Z" fill="#E6ECF5"/>
<path d="M92.097 103.48L81.9404 108.47L84.2021 100.21L92.097 103.48Z" fill="#B7C0CC"/>
<path d="M100.515 99.3502L85.877 106.541L89.1438 94.654L100.515 99.3502Z" fill="#CED7E2"/>
<path d="M80.9974 98.9309C82.1771 98.9309 83.1334 97.9735 83.1334 96.7924C83.1334 95.6114 82.1771 94.654 80.9974 94.654C79.8177 94.654 78.8613 95.6114 78.8613 96.7924C78.8613 97.9735 79.8177 98.9309 80.9974 98.9309Z" fill="url(#paint1_linear_1581_18952)"/>
<path d="M87.261 52.4089C90.2102 52.4089 92.601 50.0154 92.601 47.0628C92.601 44.1102 90.2102 41.7167 87.261 41.7167C84.3117 41.7167 81.9209 44.1102 81.9209 47.0628C81.9209 50.0154 84.3117 52.4089 87.261 52.4089Z" fill="#1AA3E9"/>
<path d="M73.5029 47.4821L72.3093 44.9453C72.2045 44.6937 72.0998 44.4421 71.9742 44.2115C70.613 41.6747 67.9325 39.9346 64.8541 39.9346C62.0061 39.9346 59.514 41.4022 58.0691 43.6454L55.7236 46.7902L56.8335 47.0837C56.7916 47.3982 56.7707 47.7337 56.7707 48.0481C56.7707 52.5138 60.3936 56.1407 64.8541 56.1407C69.3146 56.1407 72.9375 52.5138 72.9375 48.0481C72.9375 47.9014 72.9375 47.7546 72.9166 47.6079L73.5029 47.4821Z" fill="#1AA3E9"/>
<path d="M101.02 47.4821L102.213 44.9663C102.318 44.7147 102.423 44.4631 102.548 44.2325C103.909 41.6957 106.59 39.9556 109.668 39.9556C112.516 39.9556 115.008 41.4231 116.453 43.6664L118.799 46.7902L117.689 47.0838C117.731 47.3982 117.752 47.7337 117.752 48.0482C117.752 52.5138 114.129 56.1408 109.668 56.1408C105.208 56.1408 101.585 52.5138 101.585 48.0482C101.585 47.9014 101.585 47.7546 101.606 47.6079L101.02 47.4821Z" fill="#1AA3E9"/>
<path d="M131.238 74.0661C131.238 77.148 130.275 74.7579 130.275 74.7579L123.029 63.7302L101.522 70.0617L97.1457 71.3406L87.2823 61.5288L77.4188 71.3406L51.5352 63.7302L44.2895 74.7579C44.2895 74.7579 43.3262 77.127 43.3262 74.0661C43.3262 66.9798 48.4149 56.8326 52.9592 49.2642C54.9906 45.8678 58.8019 44.0438 62.6551 43.7503C65.4194 43.5406 68.5606 43.9809 70.927 45.4904C71.4296 45.8049 72.3929 46.7693 73.0421 46.6645C76.5812 46.1194 80.3088 45.3227 83.073 44.6937C85.9001 44.0438 88.8319 44.0438 91.6381 44.7147C94.3605 45.3437 98.0043 46.1403 101.522 46.6854C102.172 46.7903 103.135 45.8468 103.638 45.5114C106.004 43.9809 109.145 43.5406 111.909 43.7713C115.763 44.0648 119.574 45.8678 121.605 49.2851C126.15 56.8536 131.238 66.9798 131.238 74.0661Z" fill="url(#paint2_linear_1581_18952)"/>
<path opacity="0.2" d="M116.474 60.3548L101.501 70.0827L97.1242 71.3616L87.2607 61.5498V51.3187C91.093 51.3187 97.4802 54.1491 100.014 56.6649C103.49 53.7927 108.726 50.9623 116.474 52.4089C124.222 53.8346 116.474 60.3548 116.474 60.3548Z" fill="url(#paint3_linear_1581_18952)"/>
<path opacity="0.2" d="M58.0482 60.3548L73.0213 70.0827L77.3981 71.3616L87.2615 61.5498V51.3187C83.4292 51.3187 77.0421 54.1491 74.5082 56.6649C71.0319 53.7927 65.7965 50.9623 58.0482 52.4089C50.2999 53.8346 58.0482 60.3548 58.0482 60.3548Z" fill="url(#paint4_linear_1581_18952)"/>
<path d="M87.261 64.0656C90.2102 64.0656 92.601 61.6721 92.601 58.7195C92.601 55.7669 90.2102 53.3733 87.261 53.3733C84.3117 53.3733 81.9209 55.7669 81.9209 58.7195C81.9209 61.6721 84.3117 64.0656 87.261 64.0656Z" fill="#1AA3E9"/>
<path d="M61.1682 93.5009C71.0452 93.5009 79.0522 85.4848 79.0522 75.5965C79.0522 65.7082 71.0452 57.6922 61.1682 57.6922C51.2911 57.6922 43.2842 65.7082 43.2842 75.5965C43.2842 85.4848 51.2911 93.5009 61.1682 93.5009Z" fill="#76C8F2"/>
<path d="M61.1678 88.9514C68.5351 88.9514 74.5075 82.9722 74.5075 75.5965C74.5075 68.2208 68.5351 62.2416 61.1678 62.2416C53.8005 62.2416 47.8281 68.2208 47.8281 75.5965C47.8281 82.9722 53.8005 88.9514 61.1678 88.9514Z" fill="url(#paint5_linear_1581_18952)"/>
<path d="M61.1681 83.8778C67.136 83.8778 71.9739 79.0344 71.9739 73.0597C71.9739 67.085 67.136 62.2416 61.1681 62.2416C55.2002 62.2416 50.3623 67.085 50.3623 73.0597C50.3623 79.0344 55.2002 83.8778 61.1681 83.8778Z" fill="#1AA3E9"/>
<path opacity="0.4" d="M54.0486 73.8983C53.5879 73.8983 53.2109 73.521 53.2109 73.0597C53.2109 68.657 56.7919 65.0929 61.1687 65.0929C61.6294 65.0929 62.0063 65.4703 62.0063 65.9315C62.0063 66.3928 61.6294 66.7701 61.1687 66.7701C57.6924 66.7701 54.8863 69.6005 54.8863 73.0597C54.8863 73.521 54.5093 73.8983 54.0486 73.8983Z" fill="white"/>
<path d="M113.354 93.5009C123.231 93.5009 131.238 85.4848 131.238 75.5965C131.238 65.7082 123.231 57.6922 113.354 57.6922C103.477 57.6922 95.4697 65.7082 95.4697 75.5965C95.4697 85.4848 103.477 93.5009 113.354 93.5009Z" fill="#76C8F2"/>
<path d="M113.353 88.9514C120.721 88.9514 126.693 82.9722 126.693 75.5965C126.693 68.2208 120.721 62.2416 113.353 62.2416C105.986 62.2416 100.014 68.2208 100.014 75.5965C100.014 82.9722 105.986 88.9514 113.353 88.9514Z" fill="url(#paint6_linear_1581_18952)"/>
<path d="M113.354 83.8778C119.322 83.8778 124.159 79.0344 124.159 73.0597C124.159 67.085 119.322 62.2416 113.354 62.2416C107.386 62.2416 102.548 67.085 102.548 73.0597C102.548 79.0344 107.386 83.8778 113.354 83.8778Z" fill="#1AA3E9"/>
<path opacity="0.4" d="M113.814 65.9315C113.814 65.4703 113.437 65.0929 112.976 65.0929C108.579 65.0929 105.019 68.678 105.019 73.0597C105.019 73.521 105.396 73.8983 105.856 73.8983C106.317 73.8983 106.694 73.521 106.694 73.0597C106.694 69.5795 109.521 66.7701 112.976 66.7701C113.437 66.7701 113.814 66.3928 113.814 65.9315Z" fill="white"/>
<defs>
<filter id="filter0_d_1581_18952" x="0" y="3.49614" width="99.5654" height="99.2377" filterUnits="userSpaceOnUse" color-interpolation-filters="sRGB">
<feFlood flood-opacity="0" result="BackgroundImageFix"/>
<feColorMatrix in="SourceAlpha" type="matrix" values="0 0 0 0 0 0 0 0 0 0 0 0 0 0 0 0 0 0 127 0" result="hardAlpha"/>
<feOffset dy="11"/>
<feGaussianBlur stdDeviation="11"/>
<feColorMatrix type="matrix" values="0 0 0 0 0.397708 0 0 0 0 0.47749 0 0 0 0 0.575 0 0 0 0.18 0"/>
<feBlend mode="normal" in2="BackgroundImageFix" result="effect1_dropShadow_1581_18952"/>
<feBlend mode="normal" in="SourceGraphic" in2="effect1_dropShadow_1581_18952" result="shape"/>
</filter>
<filter id="filter1_d_1581_18952" x="60.8408" y="0" width="100.065" height="99.9404" filterUnits="userSpaceOnUse" color-interpolation-filters="sRGB">
<feFlood flood-opacity="0" result="BackgroundImageFix"/>
<feColorMatrix in="SourceAlpha" type="matrix" values="0 0 0 0 0 0 0 0 0 0 0 0 0 0 0 0 0 0 127 0" result="hardAlpha"/>
<feOffset dy="11"/>
<feGaussianBlur stdDeviation="11"/>
<feColorMatrix type="matrix" values="0 0 0 0 0.397708 0 0 0 0 0.47749 0 0 0 0 0.575 0 0 0 0.18 0"/>
<feBlend mode="normal" in2="BackgroundImageFix" result="effect1_dropShadow_1581_18952"/>
<feBlend mode="normal" in="SourceGraphic" in2="effect1_dropShadow_1581_18952" result="shape"/>
</filter>
<filter id="filter2_d_1581_18952" x="40.2949" y="61.7843" width="97.8545" height="97.2158" filterUnits="userSpaceOnUse" color-interpolation-filters="sRGB">
<feFlood flood-opacity="0" result="BackgroundImageFix"/>
<feColorMatrix in="SourceAlpha" type="matrix" values="0 0 0 0 0 0 0 0 0 0 0 0 0 0 0 0 0 0 127 0" result="hardAlpha"/>
<feOffset dy="11"/>
<feGaussianBlur stdDeviation="11"/>
<feColorMatrix type="matrix" values="0 0 0 0 0.397708 0 0 0 0 0.47749 0 0 0 0 0.575 0 0 0 0.18 0"/>
<feBlend mode="normal" in2="BackgroundImageFix" result="effect1_dropShadow_1581_18952"/>
<feBlend mode="normal" in="SourceGraphic" in2="effect1_dropShadow_1581_18952" result="shape"/>
</filter>
<linearGradient id="paint0_linear_1581_18952" x1="107.815" y1="30.3857" x2="112.096" y2="30.3857" gradientUnits="userSpaceOnUse">
<stop stop-color="#0D5275"/>
<stop offset="1" stop-color="#66859B"/>
</linearGradient>
<linearGradient id="paint1_linear_1581_18952" x1="78.853" y1="96.7916" x2="83.1349" y2="96.7916" gradientUnits="userSpaceOnUse">
<stop stop-color="#003459"/>
<stop offset="1" stop-color="#66859B"/>
</linearGradient>
<linearGradient id="paint2_linear_1581_18952" x1="80.9657" y1="57.2151" x2="110.879" y2="94.4366" gradientUnits="userSpaceOnUse">
<stop stop-color="#76C8F2"/>
<stop offset="1" stop-color="#1AA3E9"/>
</linearGradient>
<linearGradient id="paint3_linear_1581_18952" x1="113.146" y1="57.875" x2="88.8014" y2="62.8305" gradientUnits="userSpaceOnUse">
<stop offset="0.00289017" stop-color="white" stop-opacity="0"/>
<stop offset="1" stop-color="white"/>
</linearGradient>
<linearGradient id="paint4_linear_1581_18952" x1="57.585" y1="57.875" x2="85.7709" y2="53.6801" gradientUnits="userSpaceOnUse">
<stop offset="0.00289017" stop-color="white" stop-opacity="0"/>
<stop offset="1" stop-color="white"/>
</linearGradient>
<linearGradient id="paint5_linear_1581_18952" x1="68.8721" y1="91.0497" x2="43.8046" y2="77.1881" gradientUnits="userSpaceOnUse">
<stop stop-color="#76C8F2"/>
<stop offset="1" stop-color="#1AA3E9"/>
</linearGradient>
<linearGradient id="paint6_linear_1581_18952" x1="125.118" y1="86.0811" x2="98.4807" y2="81.6952" gradientUnits="userSpaceOnUse">
<stop stop-color="#1AA3E9"/>
<stop offset="1" stop-color="#76C8F2"/>
</linearGradient>
</defs>
</svg>
