<svg width="103" height="98" viewBox="0 0 103 98" fill="none" xmlns="http://www.w3.org/2000/svg">
<path d="M101.263 48.2518C101.263 59.1729 97.5654 69.2999 91.3692 77.4411C87.9712 81.8096 83.8737 85.6816 79.1766 88.6601C71.5812 93.6243 62.4868 96.5035 52.6928 96.5035C25.8092 96.5035 4.02246 74.8597 4.02246 48.2518C4.02246 21.5445 25.8092 0 52.5928 0C62.3869 0 71.4813 2.87922 79.0767 7.74411C83.7738 10.7226 87.8713 14.5947 91.2692 18.9631C97.5654 27.2037 101.263 37.3306 101.263 48.2518Z" fill="#EAEEF9"/>
<path d="M12.0176 97H101.609" stroke="#B1B9CC" stroke-width="2" stroke-miterlimit="10" stroke-linecap="round" stroke-linejoin="round"/>
<path d="M4.72168 97H8.51936" stroke="#B1B9CC" stroke-width="2" stroke-miterlimit="10" stroke-linecap="round" stroke-linejoin="round"/>
<path d="M27.0289 30.32L24.5161 17.7479H4.23429C3.33687 17.7479 2.61893 17.3938 2.08047 16.8626L0.644593 15.2689C0.106138 14.7377 0.465108 13.6753 1.36253 13.6753H26.1314C27.0289 13.6753 27.9263 14.3836 28.1058 15.2689L30.9775 29.4346L27.0289 30.32Z" fill="#BFC6D7"/>
<path d="M12.7978 15.2067L8.92578 15.9706L11.8119 30.2087L15.684 29.4448L12.7978 15.2067Z" fill="#BFC6D7"/>
<path d="M86.08 96.7215C89.9459 96.7215 93.0799 93.6297 93.0799 89.8157C93.0799 86.0018 89.9459 82.91 86.08 82.91C82.214 82.91 79.0801 86.0018 79.0801 89.8157C79.0801 93.6297 82.214 96.7215 86.08 96.7215Z" fill="#1C3754"/>
<path d="M36.7216 96.7215C40.5875 96.7215 43.7215 93.6297 43.7215 89.8157C43.7215 86.0018 40.5875 82.91 36.7216 82.91C32.8556 82.91 29.7217 86.0018 29.7217 89.8157C29.7217 93.6297 32.8556 96.7215 36.7216 96.7215Z" fill="#1C3754"/>
<path d="M85.9011 91.7635H25.2352C24.3378 91.7635 23.4404 91.0552 23.2609 90.1698L18.9533 69.6296C18.7738 68.5672 19.4917 67.5048 20.5686 67.3277C21.6455 67.1506 22.7225 67.8589 22.9019 68.9214L26.8506 87.8679H86.0806C87.1575 87.8679 88.0549 88.7533 88.0549 89.8157C88.0549 90.8781 87.1575 91.7635 85.9011 91.7635Z" fill="#BFC6D7"/>
<path d="M36.1129 73.4707L32.2432 74.2463L35.5308 90.211L39.4005 89.4354L36.1129 73.4707Z" fill="#BFC6D7"/>
<path d="M24.8759 96.7215C28.7418 96.7215 31.8758 93.6297 31.8758 89.8157C31.8758 86.0018 28.7418 82.91 24.8759 82.91C21.0099 82.91 17.876 86.0018 17.876 89.8157C17.876 93.6297 21.0099 96.7215 24.8759 96.7215Z" fill="#2D5887"/>
<path d="M24.8751 93.18C26.7585 93.18 28.2853 91.6738 28.2853 89.8157C28.2853 87.9576 26.7585 86.4514 24.8751 86.4514C22.9916 86.4514 21.4648 87.9576 21.4648 89.8157C21.4648 91.6738 22.9916 93.18 24.8751 93.18Z" fill="#1C3754"/>
<path d="M74.2343 96.7215C78.1002 96.7215 81.2342 93.6297 81.2342 89.8157C81.2342 86.0018 78.1002 82.91 74.2343 82.91C70.3683 82.91 67.2344 86.0018 67.2344 89.8157C67.2344 93.6297 70.3683 96.7215 74.2343 96.7215Z" fill="#2D5887"/>
<path d="M74.2335 93.18C76.1169 93.18 77.6437 91.6738 77.6437 89.8157C77.6437 87.9576 76.1169 86.4514 74.2335 86.4514C72.35 86.4514 70.8232 87.9576 70.8232 89.8157C70.8232 91.6738 72.35 93.18 74.2335 93.18Z" fill="#1C3754"/>
<path d="M100.438 28.9034L93.0791 70.515C92.5406 73.171 90.3868 74.9418 87.6945 74.9418H24.5159C21.8236 74.9418 19.6698 73.171 19.1313 70.515L10.875 28.9034H100.438Z" fill="url(#paint0_linear_1581_18864)"/>
<path d="M48.3876 69.2755C49.285 69.2755 50.1825 68.5672 50.1825 67.5048V36.5174C50.1825 35.6321 49.4645 34.7467 48.3876 34.7467C47.4902 34.7467 46.5928 35.455 46.5928 36.5174V67.5048C46.5928 68.5672 47.3107 69.2755 48.3876 69.2755Z" fill="url(#paint1_linear_1581_18864)"/>
<path d="M57.5411 69.2755C58.4386 69.4526 59.336 68.7443 59.5155 67.6819L62.5667 36.8716C62.7462 35.9862 62.0283 35.1009 60.9514 34.9238C60.0539 34.7467 59.1565 35.455 58.977 36.5174L55.9258 67.3277C55.9258 68.3901 56.4642 69.0984 57.5411 69.2755Z" fill="url(#paint2_linear_1581_18864)"/>
<path d="M66.8752 69.0984C67.7726 69.2755 68.6701 68.5672 68.8495 67.6819L74.5931 37.2257C74.7725 36.3404 74.0546 35.455 73.1572 35.2779C72.2598 35.1009 71.3623 35.8091 71.1829 36.6945L65.6188 67.1507C65.2598 68.036 65.9778 68.9214 66.8752 69.0984Z" fill="url(#paint3_linear_1581_18864)"/>
<path d="M39.054 69.2755C38.1566 69.4526 37.2592 68.7443 37.0797 67.6819L34.0285 36.8716C33.849 35.9862 34.5669 35.1009 35.6438 34.9238C36.5413 34.7467 37.4387 35.455 37.6182 36.5174L40.6694 67.3277C40.6694 68.3901 40.1309 69.0984 39.054 69.2755Z" fill="url(#paint4_linear_1581_18864)"/>
<path d="M29.7211 69.0984C28.8237 69.2755 27.9263 68.5672 27.7468 67.6819L22.0033 37.2257C21.8238 36.3404 22.5417 35.455 23.4392 35.2779C24.3366 35.1009 25.234 35.8091 25.4135 36.6945L30.9775 67.1507C31.3365 68.036 30.6185 68.9214 29.7211 69.0984Z" fill="url(#paint5_linear_1581_18864)"/>
<path d="M100.439 28.9034L93.0805 70.515C92.5421 73.171 90.3883 74.9417 87.696 74.9417H71.0039C74.0551 74.9417 76.5679 72.8169 77.1064 69.9838L84.8242 28.9034H100.439Z" fill="#1AA3E9"/>
<path d="M71.7793 30.8906C71.613 31.7079 71.4464 32.3617 71.1138 33.1791C71.1138 33.3425 70.9475 33.6701 70.7812 33.8336C69.4507 37.2666 66.9561 40.0457 63.9624 42.0074C62.9644 42.6613 61.9663 43.1518 60.802 43.6422C59.6378 44.1326 58.4736 44.4589 57.1431 44.6224C54.9809 44.9494 52.8189 44.95 50.6568 44.4596C41.0102 42.4979 34.8563 33.343 36.8522 23.8614C38.848 14.3797 48.1617 8.33063 57.8082 10.2923C61.1346 10.9463 64.2949 12.5817 66.7897 15.0338C71.2803 19.2842 72.9435 25.1689 71.7793 30.8906Z" fill="#003459"/>
<path d="M71.09 33.1624C71.09 33.3259 70.9236 33.6528 70.7573 33.8163C69.4268 37.2493 66.932 40.0284 63.9382 41.9901C62.9403 42.6441 61.9424 43.1345 60.7781 43.6249L58.2833 40.5189L53.2938 35.1241L56.9528 24.9886L51.7969 20.4112L57.2854 19.5938L71.09 33.1624Z" fill="url(#paint6_linear_1581_18864)"/>
<path d="M53.3821 35.0734C53.8811 35.7273 54.7127 35.7273 55.3779 35.2369C55.5443 35.2369 55.5443 35.0734 55.5443 35.0734L60.7002 28.5344C61.1991 28.0439 61.0328 27.0631 60.5338 26.7361C60.3675 26.5727 60.0349 26.4092 59.7022 26.4092H57.2075V22.4857C57.2075 22.3223 57.0411 21.9953 56.7085 21.9953H55.8769H52.2179C52.0515 21.9953 51.7189 22.1588 51.7189 22.4857V26.4092H49.2241C48.5588 26.4092 47.8936 27.0631 47.8936 27.717C47.8936 28.0439 48.0599 28.3709 48.2262 28.5344L53.3821 35.0734Z" fill="url(#paint7_linear_1581_18864)"/>
<path d="M56.7083 20.524H52.0514C51.8851 20.524 51.7188 20.3605 51.7188 20.1971V19.5432C51.7188 19.3797 51.8851 19.2162 52.0514 19.2162H56.7083C56.8747 19.2162 57.041 19.3797 57.041 19.5432V20.1971C57.2073 20.3605 57.041 20.524 56.7083 20.524Z" fill="url(#paint8_linear_1581_18864)"/>
<defs>
<linearGradient id="paint0_linear_1581_18864" x1="10.9007" y1="52.0293" x2="100.446" y2="52.0293" gradientUnits="userSpaceOnUse">
<stop stop-color="#76C8F2"/>
<stop offset="1" stop-color="#1AA3E9"/>
</linearGradient>
<linearGradient id="paint1_linear_1581_18864" x1="48.3013" y1="68.7082" x2="48.3013" y2="35.1271" gradientUnits="userSpaceOnUse">
<stop stop-color="#76C8F2"/>
<stop offset="1" stop-color="#1AA3E9"/>
</linearGradient>
<linearGradient id="paint2_linear_1581_18864" x1="59.2233" y1="68.7082" x2="59.2233" y2="35.1271" gradientUnits="userSpaceOnUse">
<stop stop-color="#68D2FF"/>
<stop offset="1" stop-color="#76C8F2"/>
</linearGradient>
<linearGradient id="paint3_linear_1581_18864" x1="70.0061" y1="68.7082" x2="70.0061" y2="35.1271" gradientUnits="userSpaceOnUse">
<stop stop-color="#76C8F2"/>
<stop offset="1" stop-color="#1AA3E9"/>
</linearGradient>
<linearGradient id="paint4_linear_1581_18864" x1="37.3789" y1="68.7082" x2="37.3789" y2="35.1271" gradientUnits="userSpaceOnUse">
<stop stop-color="#1AA3E9"/>
<stop offset="1" stop-color="#76C8F2"/>
</linearGradient>
<linearGradient id="paint5_linear_1581_18864" x1="26.5972" y1="68.7082" x2="26.5972" y2="35.1271" gradientUnits="userSpaceOnUse">
<stop stop-color="#1AA3E9"/>
<stop offset="1" stop-color="#76C8F2"/>
</linearGradient>
<linearGradient id="paint6_linear_1581_18864" x1="52.4816" y1="25.1058" x2="67.1278" y2="40.0066" gradientUnits="userSpaceOnUse">
<stop stop-color="#003459"/>
<stop offset="1" stop-color="#0E3B5A"/>
</linearGradient>
<linearGradient id="paint7_linear_1581_18864" x1="67.3671" y1="40.7348" x2="49.7999" y2="22.8619" gradientUnits="userSpaceOnUse">
<stop offset="0.0113208" stop-color="#CCD6DE"/>
<stop offset="1" stop-color="white"/>
<stop offset="1" stop-color="white"/>
</linearGradient>
<linearGradient id="paint8_linear_1581_18864" x1="59.3932" y1="24.7345" x2="52.6213" y2="17.8447" gradientUnits="userSpaceOnUse">
<stop offset="0.0113208" stop-color="#E2EBF2"/>
<stop offset="1" stop-color="white"/>
</linearGradient>
</defs>
</svg>
