<svg xmlns="http://www.w3.org/2000/svg" xmlns:xlink="http://www.w3.org/1999/xlink" viewBox="0 0 506.24 475.08"><defs><style>.cls-1{fill:none;}.cls-2{isolation:isolate;}.cls-3,.cls-6{fill:#dc2e45;}.cls-3{opacity:0.17;}.cls-4{fill:#e8b32e;}.cls-5{fill:#ffc833;}.cls-7{fill:#9e2539;}.cls-8{clip-path:url(#clip-path);}.cls-9{fill:#ff4a32;}.cls-10{fill:#fff6f8;}.cls-11{fill:#ededed;}.cls-12{opacity:0.36;mix-blend-mode:multiply;}.cls-13{fill:#fcb790;}.cls-14{fill:#ffd98b;}.cls-15{fill:#8e1616;}.cls-16{fill:#f73c3c;}.cls-17{fill:#fff;}.cls-18{fill:#cecdcc;}</style><clipPath id="clip-path"><polygon class="cls-1" points="397.72 175.91 345.95 162.92 344.11 170.12 344.23 170.15 315.99 280.47 323.28 282.3 351.52 171.98 395.88 183.11 397.72 175.91"/></clipPath></defs><g class="cls-2"><g id="Layer_2" data-name="Layer 2"><g id="Layer_1-2" data-name="Layer 1"><circle class="cls-3" cx="260.3" cy="241.08" r="182.86"/><path class="cls-4" d="M147.81,372.18,134.36,252.85a5,5,0,0,1,4.41-5.53l10-1.12a4.57,4.57,0,0,1,1.28,0,6,6,0,0,1,2.23,3.71L165.66,368c.31,2.74,2.24,7.44-.5,7.75l-10,1.12a4.91,4.91,0,0,1-1.27,0l-1.85-.27A5,5,0,0,1,147.81,372.18Z"/><rect class="cls-5" x="140.97" y="246.6" width="15.68" height="128.95" rx="1.42" transform="translate(331.52 603.52) rotate(173.57)"/><path class="cls-4" d="M169.3,373,150.71,229.89c-.43-3.29,1.44-6.34,4.17-6.81l9.92-1.71a4.22,4.22,0,0,1,1.28,0,7.46,7.46,0,0,1,2.38,4.39L187,367.33c.43,3.29,2.57,8.88-.16,9.35l-9.92,1.71a4.22,4.22,0,0,1-1.28,0l-1.86-.26C171.48,377.84,169.66,375.73,169.3,373Z"/><path class="cls-5" d="M172.87,377.11l9.57-1.65c1.63-.28,2.75-2.11,2.5-4.09l-19-146.54c-.26-2-1.79-3.34-3.43-3.06l-9.57,1.65c-1.64.28-2.76,2.11-2.5,4.09l19,146.54C169.69,376,171.23,377.39,172.87,377.11Z"/><path class="cls-4" d="M181,366.42l-4.62-144.26c-.1-3.31,2.05-6.17,4.81-6.37l10-.74a4.24,4.24,0,0,1,1.28.1,7.47,7.47,0,0,1,2,4.6l4.67,142.72c.11,3.32,1.69,9.08-1.07,9.29l-10,.74a4.24,4.24,0,0,1-1.28-.11L185,372C182.73,371.43,181.12,369.15,181,366.42Z"/><path class="cls-5" d="M184.18,370.84l9.69-.72c1.65-.12,2.94-1.83,2.88-3.82L192,218.6c-.06-2-1.46-3.5-3.11-3.38l-9.69.72a3.5,3.5,0,0,0-2.88,3.82l4.73,147.69C181.13,369.44,182.52,371,184.18,370.84Z"/><path class="cls-4" d="M201.45,389l-4.62-144.26c-.1-3.31,2-6.17,4.81-6.37l10-.74a4.15,4.15,0,0,1,1.27.1,7.41,7.41,0,0,1,2,4.6l4.68,142.72c.1,3.32,1.69,9.08-1.07,9.29l-10,.74a4.24,4.24,0,0,1-1.28-.11l-1.82-.43C203.15,394,201.54,391.75,201.45,389Z"/><path class="cls-5" d="M204.6,393.44l9.68-.72c1.66-.12,2.95-1.83,2.89-3.82l-4.73-147.7c-.06-2-1.46-3.5-3.12-3.38l-9.68.71a3.53,3.53,0,0,0-2.89,3.83l4.73,147.69C201.55,392,202.94,393.56,204.6,393.44Z"/><path class="cls-4" d="M220.57,369.38l-3.34-144.29c-.08-3.32,2.1-6.16,4.86-6.34l10-.65a3.89,3.89,0,0,1,1.27.12,7.45,7.45,0,0,1,1.91,4.62l3.41,142.75c.08,3.32,1.61,9.1-1.15,9.28l-10,.65a4.25,4.25,0,0,1-1.28-.12l-1.82-.45C222.23,374.4,220.64,372.11,220.57,369.38Z"/><path class="cls-5" d="M223.68,373.82l9.69-.63c1.66-.1,3-1.8,2.92-3.79l-3.42-147.74c-.05-2-1.43-3.51-3.09-3.41l-9.69.63c-1.66.11-3,1.81-2.92,3.8l3.43,147.73C220.64,372.4,222,373.93,223.68,373.82Z"/><path class="cls-4" d="M239.69,392.07l-3.34-144.29c-.08-3.32,2.1-6.16,4.87-6.34l10-.65a4.16,4.16,0,0,1,1.27.12,7.45,7.45,0,0,1,1.91,4.62l3.41,142.75c.08,3.32,1.61,9.1-1.15,9.28l-10,.65a4,4,0,0,1-1.28-.12l-1.82-.45C241.35,397.09,239.76,394.8,239.69,392.07Z"/><path class="cls-5" d="M242.8,396.51l9.69-.62a3.52,3.52,0,0,0,2.92-3.8L252,244.36c-.05-2-1.43-3.52-3.09-3.41l-9.69.62c-1.66.11-3,1.81-2.92,3.8l3.43,147.73C239.76,395.09,241.14,396.62,242.8,396.51Z"/><path class="cls-4" d="M255.45,383l5.27-144.23c.12-3.32,2.46-6,5.23-6l10.07-.06a4.53,4.53,0,0,1,1.26.19,7.49,7.49,0,0,1,1.63,4.73l-5.1,142.7c-.12,3.32,1.06,9.18-1.71,9.19l-10.06.05a3.91,3.91,0,0,1-1.27-.19l-1.78-.55A5.66,5.66,0,0,1,255.45,383Z"/><path class="cls-5" d="M258.29,387.65l9.71,0c1.67,0,3.07-1.62,3.14-3.61l5.39-147.68c.07-2-1.21-3.59-2.88-3.58l-9.71.05c-1.66,0-3.06,1.62-3.14,3.61l-5.38,147.68C255.34,386.06,256.63,387.66,258.29,387.65Z"/><path class="cls-6" d="M282.53,310.19c-1.35,2.37-19.5,34.13-57.48,36.42A74,74,0,0,1,158.12,312c-.6-1-1.55-1.43-2.11-2.45,6.79,51.62,8.81,102.2,15.59,153.81,35.71,0,96.31.06,132,.06C291.38,410.32,283,361.47,282.53,310.19Z"/><path class="cls-7" d="M178.54,463.41l-30.32-.26L129.74,318.83a12,12,0,0,1,10.67-13.2l5.1-.62A12,12,0,0,1,159,315.27Z"/><polygon class="cls-6" points="397.72 175.91 345.95 162.92 344.11 170.12 344.23 170.15 315.99 280.47 323.28 282.3 351.52 171.98 395.88 183.11 397.72 175.91"/><g class="cls-8"><path class="cls-9" d="M344.31,259.43c-26.83-19.62-29.6-42.18-29.7-43.13l3.11-.34-1.56.17,1.56-.18c0,.22,2.79,22.19,28.44,40.95Z"/><path class="cls-9" d="M341.61,270c-26.83-19.63-29.6-42.19-29.71-43.14l3.12-.34-1.56.17,1.55-.17c0,.22,2.8,22.19,28.45,41Z"/><path class="cls-9" d="M338.91,280.56c-26.83-19.63-29.61-42.18-29.71-43.13l3.11-.35-1.56.17,1.56-.17c0,.22,2.8,22.19,28.44,40.95Z"/></g><polygon class="cls-10" points="369.07 452.9 279.88 448.89 270.33 253.25 396.17 258.92 369.07 452.9"/><rect class="cls-11" x="325.22" y="184.87" width="14.61" height="133.92" transform="translate(65.99 572.69) rotate(-87.42)"/><rect class="cls-10" x="327.58" y="206.86" width="10.8" height="69.71" transform="translate(76.53 563.48) rotate(-87.42)"/><g class="cls-12"><path d="M324.44,438.23c-29.78-37.52-25.37-81.39-17.53-159.55.91-9.11,2.74-20.07,10.9-25.92,6.12-4.39,8-8.43,4.63-12.5a9.08,9.08,0,0,1-1.89-4.51l-22.15-1L298,243,266,241.52l-.66,14.59,5.18.24,9.4,192.54,57,2.57A108.12,108.12,0,0,1,324.44,438.23Z"/></g><path class="cls-6" d="M389.09,306.07a27.58,27.58,0,0,0-8.09-.56c-16.19,1.32-28.16,16.47-26.74,33.83,1.25,15.28,12.44,27.17,26.13,28.91Z"/><path class="cls-13" d="M249.82,328.25h56.66a64,64,0,0,1,64,64v0a0,0,0,0,1,0,0H185.8a0,0,0,0,1,0,0v0a64,64,0,0,1,64-64Z"/><rect class="cls-14" x="191.62" y="392.26" width="174.58" height="12.63"/><rect class="cls-15" x="185.8" y="404.99" width="188.36" height="14.4"/><rect class="cls-16" x="194.23" y="419.39" width="169.37" height="8.47"/><path class="cls-13" d="M185.8,427.86H370.49a0,0,0,0,1,0,0V440.7a23,23,0,0,1-23,23H213.8a28,28,0,0,1-28-28v-7.83A0,0,0,0,1,185.8,427.86Z"/><path class="cls-17" d="M220.89,356c-2.42.55-4.54.26-4.75-.65s1.59-2.08,4-2.62,4.54-.26,4.74.65S223.3,355.45,220.89,356Z"/><path class="cls-17" d="M221.19,381.21c-2.26,1-4.4,1.12-4.77.28s1.15-2.35,3.42-3.35,4.4-1.12,4.77-.28S223.46,380.21,221.19,381.21Z"/><path class="cls-17" d="M248.35,349c-2-1.4-3.26-3.16-2.74-3.92s2.61-.25,4.65,1.15,3.26,3.16,2.74,3.93S250.39,350.4,248.35,349Z"/><path class="cls-17" d="M262.45,381.35c-2.47.12-4.51-.53-4.55-1.46s1.92-1.77,4.39-1.89,4.51.53,4.56,1.46S264.93,381.23,262.45,381.35Z"/><path class="cls-17" d="M301.69,361.26c-2.21,1.1-4.35,1.32-4.76.48s1.06-2.39,3.27-3.49,4.35-1.31,4.76-.48S303.91,360.17,301.69,361.26Z"/><path class="cls-17" d="M301,381.35c-2.47.12-4.51-.53-4.56-1.46s1.93-1.77,4.4-1.89,4.51.53,4.55,1.46S303.5,381.23,301,381.35Z"/><path class="cls-17" d="M323.2,352.79c-2.16-1.22-3.54-2.86-3.08-3.67s2.57-.47,4.73.74,3.53,2.86,3.07,3.67S325.35,354,323.2,352.79Z"/><path class="cls-17" d="M340.45,376.06c1.82-1.67,3.81-2.47,4.43-1.79s-.34,2.6-2.16,4.27-3.81,2.47-4.44,1.79S338.62,377.73,340.45,376.06Z"/><path class="cls-17" d="M277.19,349.82c-2-1.4-3.26-3.16-2.74-3.92s2.61-.25,4.65,1.15,3.26,3.16,2.74,3.92S279.23,351.22,277.19,349.82Z"/><rect class="cls-18" x="68.89" y="463.08" width="379.58" height="12" rx="6"/><rect class="cls-6" x="41.36" y="47.77" width="110.19" height="110.19" rx="25" transform="translate(-23.13 28.13) rotate(-14.84)"/><rect class="cls-6" x="370.3" y="67.23" width="74.7" height="74.7" rx="20" transform="translate(53.09 -122.14) rotate(18.21)"/><circle class="cls-6" cx="10.15" cy="209.23" r="10.15"/><circle class="cls-6" cx="59.17" cy="214.64" r="5.41"/><circle class="cls-6" cx="259.46" cy="11.6" r="11.6"/><circle class="cls-6" cx="262.86" cy="51.21" r="3.41"/><circle class="cls-6" cx="49.9" cy="335.95" r="6.96"/><circle class="cls-6" cx="19.35" cy="373.45" r="13.53"/><circle class="cls-6" cx="435.19" cy="363.2" r="3.29"/><circle class="cls-6" cx="471.34" cy="373.06" r="17.79"/><circle class="cls-6" cx="449.3" cy="241.99" r="4.25"/><circle class="cls-6" cx="493.43" cy="207.24" r="12.81"/><path class="cls-17" d="M73.22,94.26,64.75,96.5a2.19,2.19,0,0,0-1.56,2.68l10.1,38.11A2.19,2.19,0,0,0,76,138.85l8.47-2.25A2.2,2.2,0,0,0,86,133.92L75.9,95.81A2.2,2.2,0,0,0,73.22,94.26Z"/><path class="cls-17" d="M122.2,81.28c-.36,0-16.31,4.32-16.31,4.32l.62-6.67c.42-4.61-2.27-10.76-7.15-11.91a7.54,7.54,0,0,0-5.09.57,3.71,3.71,0,0,0-1.73,2.19A9.45,9.45,0,0,0,92.66,73a13.36,13.36,0,0,1-1.77,7.82c-2.44,4.08-10.2,16-10.2,16l9,33.88L125,121.34a6.64,6.64,0,0,0,3-10.94,6.63,6.63,0,0,0-.13-9,6.62,6.62,0,0,0-.13-9C131.74,88,128.09,80.74,122.2,81.28Z"/><path class="cls-17" d="M412.4,85a13.89,13.89,0,0,0-18.21,12.23,13.79,13.79,0,0,0,.65,5.29l5.45,19.29,11.65-9,4.15-3.23.06,0a16.64,16.64,0,0,0,3.64-3.84A13.93,13.93,0,0,0,412.4,85Zm-.73,18.62a6.7,6.7,0,0,1-9.75-3.2,6.71,6.71,0,1,1,9.75,3.2Z"/></g></g></g></svg>