<svg xmlns="http://www.w3.org/2000/svg" viewBox="0 0 526.42 495.79"><defs><style>.cls-1{fill:#fff;}.cls-2{fill:#dbdbe0;}.cls-3,.cls-4{fill:#dc2e45;}.cls-3{opacity:0.17;}.cls-5{fill:#9e2539;}.cls-6{fill:#ffc833;}.cls-7{opacity:0.12;}.cls-8{fill:#d5aa49;}.cls-9{fill:#e8b32e;}.cls-10{fill:#cecdcc;}</style></defs><g id="Layer_2" data-name="Layer 2"><g id="Layer_1-2" data-name="Layer 1"><polyline class="cls-1" points="187.53 346.75 260.52 393.17 333.51 346.75"/><polyline class="cls-2" points="225.58 346.75 260.5 393.17 295.43 346.75"/><circle class="cls-3" cx="260.5" cy="265.16" r="193.44"/><polygon class="cls-4" points="342.17 402.27 346.39 489.97 417.9 486.64 432.54 394.27 342.17 402.27"/><polygon class="cls-5" points="342.17 402.27 346.39 489.97 305.02 486.74 290.56 394.27 342.17 402.27"/><polygon class="cls-4" points="286.4 389.06 288.54 406.9 340.68 414.35 339.99 396.71 286.4 389.06"/><polygon class="cls-4" points="439.2 389.06 435.96 406.9 340.68 414.35 339.99 396.71 439.2 389.06"/><polygon class="cls-4" points="286.4 389.06 339.99 396.71 439.2 389.06 373.83 383.86 286.4 389.06"/><polygon class="cls-6" points="319.57 393.7 404.66 386.31 389.6 385.11 305.01 391.72 319.57 393.7"/><polygon class="cls-6" points="401.07 392 344.68 385.59 334.88 386.16 385.92 393.17 401.07 392"/><polygon class="cls-7" points="292.81 407.51 293.53 411.8 342.99 419.29 429.64 411.18 430.3 407.35 342.74 414.19 340.68 414.35 292.81 407.51"/><polygon class="cls-6" points="394.55 483.02 380.88 484.99 385.92 393.17 401.07 392 394.55 483.02"/><polygon class="cls-6" points="314.32 485.38 326.42 484.99 319.57 393.7 305.01 391.72 314.32 485.38"/><path class="cls-6" d="M399.22,362c-12.07-10.74-36.42,23.88-36.42,23.88l.7,2.39s28.06-15.35,36.83-16c6.92-.53,6.79,4.65-.41,7.21-6.56,2.34-36.42,8.82-36.42,8.82s-.47.45,22.84-3.3c18.53-3,22.72-6.6,22.83-12.09S404.33,366.58,399.22,362Z"/><path class="cls-6" d="M386.34,385c17.88-2.88,22.41-6.35,22.8-11.52-3.14-1.93-8.81-1.21-8.81-1.21,6.92-.53,6.79,4.65-.41,7.21-6.56,2.34-36.42,8.82-36.42,8.82h0C363.57,388.35,364.86,388.45,386.34,385Z"/><path class="cls-8" d="M380.3,379.74s-.79-2-4.68-2.32-4-2.39-4-2.39a130.23,130.23,0,0,0-8.78,10.88l.7,2.39s8-4.38,16.79-8.56Z"/><path class="cls-6" d="M326.38,362c12.07-10.74,36.42,23.88,36.42,23.88l-.7,2.39S334,373,325.27,372.27c-6.92-.53-6.79,4.65.41,7.21,6.56,2.34,36.42,8.82,36.42,8.82s.47.45-22.85-3.3c-18.52-3-22.71-6.6-22.82-12.09S321.27,366.58,326.38,362Z"/><path class="cls-6" d="M339.25,385c-17.87-2.88-22.4-6.35-22.79-11.52,3.14-1.93,8.81-1.21,8.81-1.21-6.92-.53-6.79,4.65.41,7.21,6.56,2.34,36.42,8.82,36.42,8.82h0C362,388.35,360.74,388.45,339.25,385Z"/><path class="cls-8" d="M345.3,379.74s.78-2,4.68-2.32,4-2.39,4-2.39a130.23,130.23,0,0,1,8.78,10.88l-.7,2.39s-8-4.38-16.79-8.56Z"/><path class="cls-8" d="M371.42,389.06H353.26a1.13,1.13,0,0,1-1.13-1.13h0a3.72,3.72,0,0,1,3.71-3.72h13a3.73,3.73,0,0,1,3.72,3.72h0A1.14,1.14,0,0,1,371.42,389.06Z"/><polygon class="cls-4" points="179.22 402.27 174.99 489.97 103.48 484.29 88.84 394.27 179.22 402.27"/><polygon class="cls-5" points="179.22 402.27 174.99 489.97 216.36 485.02 230.82 394.27 179.22 402.27"/><polygon class="cls-4" points="234.99 389.06 232.85 406.9 180.71 414.35 181.4 396.71 234.99 389.06"/><polygon class="cls-4" points="82.18 389.06 85.43 406.9 180.71 414.35 181.4 396.71 82.18 389.06"/><polygon class="cls-4" points="234.99 389.06 181.4 396.71 82.18 389.06 147.56 383.86 234.99 389.06"/><polygon class="cls-6" points="201.81 393.7 116.73 386.31 131.79 385.11 216.37 391.72 201.81 393.7"/><polygon class="cls-6" points="120.31 392 176.7 385.59 186.51 386.16 135.46 393.17 120.31 392"/><polygon class="cls-7" points="228.58 407.51 227.85 411.8 178.4 419.29 91.74 411.18 91.08 407.35 178.64 414.19 180.71 414.35 228.58 407.51"/><polygon class="cls-6" points="126.83 483.02 140.5 484.99 135.46 393.17 120.31 392 126.83 483.02"/><polygon class="cls-6" points="207.07 486.19 194.96 484.99 201.81 393.7 216.37 391.72 207.07 486.19"/><path class="cls-6" d="M122.17,362c12.07-10.74,36.41,23.88,36.41,23.88l-.69,2.39s-28.06-15.35-36.84-16c-6.91-.53-6.79,4.65.42,7.21,6.56,2.34,36.42,8.82,36.42,8.82s.46.45-22.85-3.3c-18.52-3-22.71-6.6-22.82-12.09S117.05,366.58,122.17,362Z"/><path class="cls-6" d="M135,385c-17.87-2.88-22.4-6.35-22.8-11.52,3.15-1.93,8.81-1.21,8.81-1.21-6.91-.53-6.79,4.65.42,7.21,6.56,2.34,36.42,8.82,36.42,8.82h0C157.81,388.35,156.52,388.45,135,385Z"/><path class="cls-8" d="M141.09,379.74s.78-2,4.67-2.32,4-2.39,4-2.39a130.23,130.23,0,0,1,8.78,10.88l-.69,2.39s-8-4.38-16.79-8.56Z"/><path class="cls-6" d="M195,362c-12.07-10.74-36.42,23.88-36.42,23.88l.7,2.39s28.06-15.35,36.84-16c6.91-.53,6.79,4.65-.42,7.21-6.56,2.34-36.42,8.82-36.42,8.82s-.46.45,22.85-3.3c18.52-3,22.71-6.6,22.82-12.09S200.12,366.58,195,362Z"/><path class="cls-6" d="M182.13,385c17.87-2.88,22.4-6.35,22.8-11.52-3.15-1.93-8.81-1.21-8.81-1.21,6.91-.53,6.79,4.65-.42,7.21-6.56,2.34-36.42,8.82-36.42,8.82h0C159.36,388.35,160.65,388.45,182.13,385Z"/><path class="cls-8" d="M176.08,379.74s-.78-2-4.67-2.32-4-2.39-4-2.39a131.73,131.73,0,0,0-8.79,10.88l.7,2.39s8-4.38,16.79-8.56Z"/><path class="cls-8" d="M150,389.06h18.17a1.14,1.14,0,0,0,1.13-1.13h0a3.72,3.72,0,0,0-3.72-3.72h-13a3.72,3.72,0,0,0-3.71,3.72h0A1.14,1.14,0,0,0,150,389.06Z"/><polygon class="cls-4" points="187.53 346.75 260.52 358.07 333.51 346.75 260.52 339.28 187.53 346.75"/><polygon class="cls-5" points="224.03 352.41 260.52 358.07 297.02 352.41 260.52 348.68 224.03 352.41"/><polygon class="cls-5" points="260.52 358.07 260.52 493.47 317.25 484.99 333.51 346.75 260.52 358.07"/><polygon class="cls-4" points="260.52 358.07 260.52 494.74 203.79 485.38 187.53 346.75 260.52 358.07"/><path class="cls-9" d="M314.35,457.68s-7,3.06-8.4,17.64a27.36,27.36,0,0,1-3,10.59l-18.5,4.41a34.52,34.52,0,0,0,5.65-11.86c1.75-7.6,2-9.49,2-9.49s1.18-4.48,13.22-10.57C309,456.54,314.35,457.68,314.35,457.68Z"/><path class="cls-6" d="M292.09,469a22.79,22.79,0,0,1,11.28-15.34c25.13-12.94,56.09,14.2,56.09,14.2l-15.58,14.82S329,464.28,320.39,461A25.54,25.54,0,0,0,292.09,469Z"/><path class="cls-9" d="M206.69,457.72s6.66,3.8,8.83,18.59c1,6.71,2.55,9.6,2.55,9.6l18.51,4.45a34.64,34.64,0,0,1-5.66-11.86c-1.75-7.6-2-9.49-2-9.49s-1.17-4.48-13.22-10.57C212.06,456.58,206.69,457.72,206.69,457.72Z"/><path class="cls-6" d="M229,469a22.8,22.8,0,0,0-11.27-15.34c-25.13-12.94-56.1,14.21-56.1,14.21l15.59,14.81s15.5-18.11,24.08-21.37A24.5,24.5,0,0,1,229,469Z"/><path class="cls-6" d="M263,266.63s29.77-34.1,44.71-29.61c7.1,2.14,5.75,4.67,13,8,8,3.69,9.73,8.82,9.67,12.95-.12,7.91-1.91,7.88-3.22,20.42-1.95,18.74-64.39-2.65-64.39-2.65Z"/><path class="cls-9" d="M318.91,285.47c4-1.92,4.4-7-2.23-12.71-7.88-6.78-53.92,3-53.92,3S301.51,289,318.91,285.47Z"/><path class="cls-6" d="M263,266.63s-28-35.6-43.12-31.89c-7.21,1.76-6,4.36-13.39,7.3-8.22,3.27-10.17,8.31-10.33,12.43-.29,7.91,1.5,8,2.15,20.56,1,18.82,64.45.7,64.45.7Z"/><path class="cls-9" d="M206.17,282.54c-3.85-2.13-4-7.23,2.89-12.58,8.22-6.36,53.7,5.77,53.7,5.77S223.37,287,206.17,282.54Z"/><path class="cls-9" d="M268.94,256.67l-10.7-.28a6.12,6.12,0,0,0-6.28,6l-.43,16.81,22.93.6.43-16.82A6.12,6.12,0,0,0,268.94,256.67Z"/><polygon class="cls-4" points="341.16 307.41 339.01 284.02 262.85 269.93 262.22 292.81 341.16 307.41"/><polygon class="cls-4" points="182.6 303.05 186.03 279.81 262.85 269.93 262.22 292.81 182.6 303.05"/><polygon class="cls-4" points="341.16 307.41 262.22 292.81 182.6 303.05 261.64 313.79 341.16 307.41"/><polygon class="cls-5" points="224.08 297.71 262.28 302.9 300.31 299.85 262.22 292.81 224.08 297.71"/><path class="cls-6" d="M294.23,275.72s2.76,11,1.22,21.86a72.87,72.87,0,0,1-4.65,17.87l23.12,6.64a51.11,51.11,0,0,0,3.83-23.49,72,72,0,0,0-3.65-19.2Z"/><path class="cls-6" d="M228.14,274.35s-3.73,12-2.66,24.24a81.12,81.12,0,0,0,4.12,20.15l-26.11,6a57,57,0,0,1-2.87-26.36,80.3,80.3,0,0,1,5.2-21.15Z"/><rect class="cls-10" x="71.03" y="483.79" width="379.58" height="12" rx="6"/><rect class="cls-4" y="171.79" width="83.37" height="83.37" rx="15"/><rect class="cls-4" x="402.71" y="123.89" width="99.54" height="99.54" rx="15" transform="translate(39.6 -80.17) rotate(10.59)"/><circle class="cls-4" cx="14.53" cy="355.58" r="14.53"/><circle class="cls-4" cx="45.47" cy="317.68" r="6.95"/><circle class="cls-4" cx="26.53" cy="101.05" r="12"/><circle class="cls-4" cx="75.16" cy="128.84" r="5.68"/><circle class="cls-4" cx="258.95" cy="13.26" r="13.26"/><circle class="cls-4" cx="260.21" cy="58.74" r="5.05"/><circle class="cls-4" cx="426" cy="48.32" r="13.58"/><circle class="cls-4" cx="386.53" cy="99.16" r="5.68"/><circle class="cls-4" cx="463.11" cy="369" r="3.32"/><circle class="cls-4" cx="510.47" cy="381.63" r="15.95"/><path class="cls-1" d="M486.14,160.21a4.7,4.7,0,0,0-6.52-1.22l-31,21.24-11-16.06a4.69,4.69,0,1,0-7.73,5.3l13.54,19.77a4.78,4.78,0,0,0,1.52,1.39,4.71,4.71,0,0,0,5.2-.07l34.78-23.83A4.69,4.69,0,0,0,486.14,160.21Z"/><path class="cls-1" d="M41.68,189.91a16.89,16.89,0,0,0-13.62,26.9L41.68,237l10-14.88,3.57-5.3,0-.08A20.22,20.22,0,0,0,58.07,211a16.88,16.88,0,0,0-16.39-21Zm6.25,21.79a8.16,8.16,0,1,1,1.91-5.25A8.15,8.15,0,0,1,47.93,211.7Z"/></g></g></svg>